<?xml version="1.0" encoding="UTF-8"?>
<svg width="276px" height="82px" viewBox="0 0 276 82" version="1.1" xmlns="http://www.w3.org/2000/svg" xmlns:xlink="http://www.w3.org/1999/xlink">
    <!-- Generator: Sketch 50.2 (55047) - http://www.bohemiancoding.com/sketch -->
    <title>Artboard 2</title>
    <desc>Created with Sketch.</desc>
    <defs>
        <polygon id="path-1" points="0.0002 0.0007 126.693 0.0007 126.693 30.1437 0.0002 30.1437"></polygon>
    </defs>
    <g id="Page-1" stroke="none" stroke-width="1" fill="none" fill-rule="evenodd">
        <g id="Artboard-2" transform="translate(-404.000000, -338.000000)">
            <g id="000-copy-2" transform="translate(407.000000, 341.000000)">
                <g id="01" transform="translate(0.000000, 11.000000)" fill="#0B74B9">
                    <path d="M6.541,51.6836 C7.103,55.7876 8.095,58.1326 9.52,58.7146 C10.938,59.3026 12.405,59.3026 13.915,58.7146 C15.423,58.1326 17.243,55.7876 19.373,51.6836 C21.502,47.5856 23.394,40.8456 25.047,31.4686 C26.699,22.0976 27.236,15.0666 26.657,10.3746 C26.077,5.6896 24.32,3.3436 21.393,3.3436 C18.459,3.3436 15.936,5.6896 13.825,10.3746 C11.707,15.0666 9.824,22.0976 8.172,31.4686 C6.519,40.8456 5.973,47.5856 6.541,51.6836 M31.175,9.6716 C32.958,14.8296 33.082,22.0976 31.551,31.4686 C30.013,40.8456 27.345,48.3436 23.541,53.9686 C19.736,59.5936 15.549,62.4066 10.978,62.4066 C6.408,62.4066 3.328,59.5936 1.744,53.9686 C0.153,48.3436 0.19,40.8456 1.844,31.4686 C3.496,22.0976 6.063,14.8296 9.554,9.6716 C13.039,4.5196 15.996,1.7066 18.425,1.2346 C20.847,0.7676 23.132,0.7676 25.28,1.2346 C27.421,1.7066 29.387,4.5196 31.175,9.6716" id="Fill-7"></path>
                    <path d="M59.5391,15.2969 C60.1591,11.7809 59.3431,10.0839 57.0981,10.1989 C54.8461,10.3199 52.3741,10.7269 49.6741,11.4299 L50.0461,9.3199 C56.0431,7.2109 61.8321,4.2829 67.4161,0.5309 L57.8701,54.6719 C57.8401,57.4849 60.7561,58.8909 66.6181,58.8909 L66.2461,60.9999 L41.6371,60.9999 L42.0081,58.8909 C48.1001,58.8909 51.5861,57.7209 52.4721,55.3749 L59.5391,15.2969 Z" id="Fill-9"></path>
                </g>
                <g id="安全技术-copy" transform="translate(80.000000, 47.000000)">
                    <mask id="mask-2" fill="white">
                        <use xlink:href="#path-1"></use>
                    </mask>
                    <g id="Clip-2"></g>
                    <path d="M117.4642,1.4397 C118.8552,2.1437 119.9642,2.8107 120.7922,3.4397 C121.6192,4.0697 121.9752,4.7147 121.8582,5.3767 C121.7832,5.8027 121.5492,6.3097 121.1582,6.8957 C120.7672,7.4827 120.3152,7.7757 119.8032,7.7757 C119.5042,7.7757 119.3042,7.7017 119.2022,7.5517 C119.1012,7.4027 119.0222,7.0617 118.9672,6.5277 C118.9112,5.9957 118.6902,5.2527 118.3032,4.3037 C117.9162,3.3547 117.4912,2.5597 117.0272,1.9197 L117.4642,1.4397 Z M110.5232,8.8637 L111.4152,3.8077 C111.6632,2.3997 111.8452,1.1837 111.9622,0.1607 C112.8632,0.3737 113.6962,0.6347 114.4642,0.9437 C115.2302,1.2527 115.6912,1.4567 115.8442,1.5517 C115.9982,1.6477 116.0662,1.7497 116.0472,1.8557 C116.0132,2.0477 115.5532,2.3577 114.6672,2.7847 L113.5952,8.8637 L121.1792,8.8637 L123.1362,6.6557 C123.3742,6.3997 123.5672,6.2717 123.7162,6.2717 C123.9932,6.2717 124.5692,6.7567 125.4432,7.7277 C126.3172,8.6987 126.7332,9.3067 126.6902,9.5517 C126.6472,9.7967 126.3262,9.9197 125.7292,9.9197 L114.9772,9.9197 C115.3912,13.0137 116.4412,15.6537 118.1242,17.8397 C119.8082,20.0267 122.0562,21.6107 124.8702,22.5917 L124.6182,23.2957 C124.3022,23.2747 123.9252,23.2637 123.4882,23.2637 C123.0502,23.2637 122.5972,23.3547 122.1282,23.5367 C121.6582,23.7167 121.0852,24.1607 120.4062,24.8637 C120.2482,25.0347 120.1152,25.1207 120.0092,25.1207 C119.7102,25.1207 118.9202,24.3357 117.6392,22.7677 C116.3592,21.2007 115.3702,19.3337 114.6752,17.1687 C113.9792,15.0027 113.7172,12.5867 113.8892,9.9197 L113.4092,9.9197 L110.8362,24.5117 L110.1672,28.6717 C110.1292,28.8847 110.0762,29.0287 110.0102,29.1037 C109.9432,29.1777 109.6912,29.3117 109.2522,29.5037 C108.8122,29.6957 108.3422,29.8507 107.8422,29.9677 C107.3412,30.0857 107.0212,30.1437 106.8832,30.1437 C106.7442,30.1437 106.6922,30.0477 106.7262,29.8557 C106.7592,29.6647 106.8612,29.1777 107.0302,28.3997 C107.2002,27.6217 107.3862,26.6557 107.5892,25.5037 L109.7842,13.0557 C107.5722,16.0437 105.2722,18.5597 102.8842,20.6077 C100.4962,22.6557 97.5942,24.5967 94.1772,26.4317 L93.8832,25.9197 C100.4622,21.0357 105.2322,15.7017 108.1932,9.9197 L99.7452,9.9197 C99.1902,9.9197 98.7222,9.9737 98.3402,10.0807 L98.0392,8.7047 C98.4682,8.8107 98.9922,8.8637 99.6112,8.8637 L110.5232,8.8637 Z M79.1092,13.3437 C79.4492,16.3737 80.3392,18.8277 81.7792,20.7047 C83.4942,19.0837 85.2282,16.6287 86.9812,13.3437 L79.1092,13.3437 Z M81.0102,24.1607 C77.6712,26.3997 74.0642,28.0427 70.1892,29.0877 L70.0462,28.4477 C74.0512,26.7847 77.3222,24.8107 79.8582,22.5277 C78.5792,20.2237 78.0092,17.1637 78.1492,13.3437 L77.2532,13.3437 C76.8052,13.3437 76.3992,13.4087 76.0352,13.5367 L75.8202,12.5767 L71.9982,14.6557 L70.0172,25.8877 C69.8562,26.8047 69.5922,27.4507 69.2282,27.8237 C68.8632,28.1967 68.2732,28.5817 67.4572,28.9757 C66.6402,29.3707 66.1472,29.5677 65.9762,29.5677 C65.8052,29.5677 65.6972,29.3967 65.6512,29.0557 C65.5872,28.3307 65.3452,27.7927 64.9282,27.4397 C64.5102,27.0877 63.5742,26.6767 62.1212,26.2087 L62.3182,25.6317 C63.9602,25.7597 65.1272,25.8237 65.8202,25.8237 C66.5142,25.8237 66.9572,25.7597 67.1512,25.6317 C67.3432,25.5037 67.4722,25.2577 67.5362,24.8957 L69.0662,16.2237 C67.1572,17.2487 66.0832,17.8297 65.8462,17.9677 C65.6082,18.1067 65.4462,18.1757 65.3612,18.1757 C65.2762,18.1757 65.2122,18.1437 65.1702,18.0807 C65.1282,18.0157 65.0062,17.7657 64.8072,17.3287 C64.6062,16.8907 64.3672,16.3097 64.0902,15.5847 C65.5792,15.2437 67.3772,14.6677 69.4832,13.8557 L70.4022,8.6397 L66.5942,8.6397 C66.0612,8.6397 65.5932,8.6937 65.1912,8.7997 L64.8782,7.4877 C65.3072,7.5947 65.8312,7.6477 66.4492,7.6477 L70.5772,7.6477 L71.2662,3.7447 C71.4842,2.5067 71.6662,1.3547 71.8112,0.2887 C74.1012,0.9707 75.2222,1.4517 75.1732,1.7277 C75.1432,1.8987 74.7942,2.1867 74.1252,2.5917 L73.2342,7.6477 L74.0972,7.6477 L75.4402,6.2087 C75.6762,5.9527 75.8802,5.8237 76.0512,5.8237 C76.2222,5.8237 76.6192,6.2037 77.2432,6.9607 C77.8662,7.7167 78.1632,8.1817 78.1332,8.3517 C78.1002,8.5437 77.8912,8.6397 77.5062,8.6397 L73.0592,8.6397 L72.3252,12.7997 L77.7422,10.7527 L77.9122,11.4237 L76.2502,12.3197 C76.4172,12.3407 76.7132,12.3517 77.1402,12.3517 L82.0362,12.3517 L82.9392,7.2317 L79.5472,7.2317 C79.0562,7.2317 78.6482,7.3067 78.3232,7.4567 L78.0222,6.0807 C78.4302,6.1867 78.9002,6.2397 79.4342,6.2397 L83.1142,6.2397 L83.7632,2.5597 C83.9322,1.5997 84.0612,0.7477 84.1502,0.0007 C84.9872,0.2127 85.7372,0.4377 86.4002,0.6717 C87.0622,0.9067 87.4762,1.0717 87.6402,1.1687 C87.8042,1.2637 87.8722,1.3977 87.8412,1.5677 C87.8122,1.7387 87.4162,2.0477 86.6542,2.4967 L85.9942,6.2397 L89.6742,6.2397 L91.2812,4.3837 C91.4972,4.1277 91.6692,4.0007 91.7972,4.0007 C92.0312,4.0007 92.5322,4.4267 93.2992,5.2797 C94.0662,6.1327 94.4302,6.6677 94.3932,6.8797 C94.3522,7.1147 94.0862,7.2317 93.5952,7.2317 L85.8192,7.2317 L84.9162,12.3517 L87.1242,12.3517 L88.2782,11.0717 C88.4362,10.9017 88.5792,10.8157 88.7072,10.8157 C88.8782,10.8157 89.3932,11.0987 90.2542,11.6647 C91.1142,12.2297 91.5302,12.5917 91.5022,12.7527 C91.4732,12.9127 91.2652,13.0617 90.8792,13.2007 C90.4912,13.3387 90.2082,13.4937 90.0292,13.6647 C89.8492,13.8357 89.6542,14.0907 89.4452,14.4317 C87.3002,17.8877 85.2732,20.4907 83.3642,22.2397 C84.9402,23.7117 87.8622,24.9807 92.1332,26.0477 L92.0202,26.6877 C90.9462,26.7307 90.1492,26.8957 89.6292,27.1837 C89.1092,27.4717 88.5912,27.9887 88.0752,28.7357 C87.9342,28.9277 87.8212,29.0237 87.7362,29.0237 C87.5012,29.0237 86.6502,28.5597 85.1822,27.6317 C83.7142,26.7047 82.3222,25.5457 81.0102,24.1607 Z M45.5692,14.2717 L41.1222,14.2717 C40.5462,14.2717 40.0862,14.3357 39.7442,14.4637 L39.4042,13.1207 C39.8342,13.2267 40.3582,13.2797 40.9762,13.2797 L51.5052,13.2797 L52.8052,11.7117 C53.0492,11.4137 53.2362,11.2637 53.3642,11.2637 C53.5982,11.2637 54.0692,11.6797 54.7762,12.5117 C55.4822,13.3437 55.8192,13.8557 55.7852,14.0477 C55.7582,14.1977 55.5222,14.2717 55.0732,14.2717 L48.6422,14.2717 L47.6712,19.7757 L51.9912,19.7757 L53.3932,18.1757 C53.6092,17.9197 53.8132,17.7927 54.0052,17.7927 C54.1972,17.7927 54.6972,18.1917 55.5052,18.9927 C56.3132,19.7927 56.7022,20.2837 56.6702,20.4637 C56.6382,20.6457 56.3762,20.7357 55.8862,20.7357 L47.5022,20.7357 L46.3842,27.0717 L53.4572,27.0717 L55.0752,25.1517 C55.2662,24.9177 55.4672,24.7997 55.6812,24.7997 C55.8942,24.7997 56.4502,25.2487 57.3482,26.1437 C58.2462,27.0407 58.6772,27.5887 58.6422,27.7927 C58.6062,27.9947 58.3322,28.0957 57.8202,28.0957 L33.9802,28.0957 C33.4042,28.0957 32.9442,28.1607 32.6022,28.2887 L32.0452,26.9127 C32.4742,27.0187 32.9982,27.0717 33.6162,27.0717 L43.3132,27.0717 L44.4302,20.7357 L38.4462,20.7357 C37.9552,20.7357 37.4932,20.8107 37.0622,20.9607 L36.4992,19.6157 C36.9282,19.7227 37.4522,19.7757 38.0712,19.7757 L44.5992,19.7757 L45.5692,14.2717 Z M50.0402,3.0717 C47.6972,6.3147 45.1442,8.9387 42.3812,10.9437 C39.6162,12.9497 36.1802,14.7097 32.0732,16.2237 L31.8982,15.5847 C35.6382,13.7277 38.6862,11.7497 41.0412,9.6477 C43.3952,7.5467 45.8242,4.4167 48.3292,0.2557 C50.9652,1.1517 52.2572,1.7497 52.2052,2.0477 C52.1782,2.1977 51.9762,2.3147 51.5992,2.3997 C51.2212,2.4857 50.9412,2.5597 50.7592,2.6247 C53.3452,7.3177 57.3512,10.3687 62.7772,11.7757 L62.6272,12.4477 C62.3572,12.4057 62.0942,12.3837 61.8392,12.3837 C60.4732,12.3837 59.4442,12.8957 58.7522,13.9197 C58.6402,14.0697 58.4662,14.1437 58.2322,14.1437 C58.0612,14.1437 57.8432,14.0477 57.5792,13.8557 C56.2122,12.8957 55.0692,11.9037 54.1512,10.8797 C53.2332,9.8557 52.4522,8.7197 51.8092,7.4717 C51.1652,6.2237 50.5752,4.7567 50.0402,3.0717 Z M14.4632,0.1277 C16.0322,0.4267 17.2242,0.7737 18.0402,1.1687 C18.8562,1.5627 19.2072,2.0807 19.0942,2.7197 C19.0422,3.0187 18.8942,3.3717 18.6522,3.7757 C18.4102,4.1817 18.0462,4.5227 17.5602,4.7997 C17.0732,5.0777 16.7232,5.2157 16.5102,5.2157 C16.2972,5.2157 16.1672,5.0447 16.1212,4.7047 C16.0452,3.6797 15.8522,2.8957 15.5432,2.3517 C15.2342,1.8077 14.7652,1.2587 14.1382,0.7047 L14.4632,0.1277 Z M15.0522,21.4717 C16.8032,19.7657 18.2362,17.6857 19.3522,15.2317 L12.2162,15.2317 L8.6012,20.1277 C11.0432,20.5547 13.1932,21.0027 15.0522,21.4717 Z M7.9182,6.3997 C7.9102,6.8057 7.8742,7.1897 7.8102,7.5517 C7.6112,8.6827 7.2112,9.5887 6.6112,10.2717 C6.0102,10.9557 5.2942,11.2957 4.4622,11.2957 C3.9932,11.2957 3.6512,11.1787 3.4362,10.9437 C3.2222,10.7097 3.1362,10.4687 3.1792,10.2237 C3.2222,9.9787 3.5042,9.5887 4.0252,9.0557 C5.6092,7.4567 6.5632,5.6107 6.8892,3.5197 L7.6262,3.5197 C7.7712,4.2667 7.8522,4.8957 7.8682,5.4087 L25.1802,5.4087 L26.3342,4.1277 C26.4962,3.9357 26.6512,3.8397 26.8012,3.8397 C26.9502,3.8397 27.1712,3.9467 27.4642,4.1607 C27.7572,4.3737 28.2312,4.8057 28.8842,5.4567 C29.5372,6.1067 29.9112,6.4967 30.0062,6.6247 C30.1012,6.7517 30.1372,6.8797 30.1142,7.0077 C30.0732,7.2437 29.6872,7.3767 28.9562,7.4087 C28.2252,7.4397 27.4892,7.6477 26.7502,8.0317 C26.0102,8.4167 24.6642,9.3657 22.7122,10.8797 L22.2242,10.5597 C23.4012,9.0877 24.3392,7.7017 25.0382,6.3997 L7.9182,6.3997 Z M5.3842,20.7677 C7.3652,18.1237 8.7252,16.2777 9.4642,15.2317 L2.7762,15.2317 C2.2002,15.2317 1.7392,15.3067 1.3932,15.4567 L1.0542,14.1117 C1.4832,14.2187 2.0062,14.2717 2.6262,14.2717 L10.1462,14.2717 C11.7292,11.9467 13.1302,9.6217 14.3522,7.2957 C15.2262,7.6597 15.9542,8.0047 16.5362,8.3357 C17.1182,8.6677 17.4432,8.8797 17.5112,8.9757 C17.5792,9.0717 17.6052,9.1727 17.5862,9.2797 C17.5412,9.5367 17.3352,9.6747 16.9682,9.6957 C16.3422,9.7387 15.7032,10.2457 15.0522,11.2157 C14.4012,12.1867 13.6832,13.2057 12.8982,14.2717 L24.4822,14.2717 L26.3732,12.2557 C26.6072,12.0217 26.7872,11.9037 26.9152,11.9037 C27.0432,11.9037 27.2412,12.0217 27.5092,12.2557 C27.7762,12.4907 28.1302,12.8477 28.5682,13.3287 C29.0062,13.8077 29.2922,14.1497 29.4272,14.3517 C29.5622,14.5547 29.6162,14.7307 29.5902,14.8797 C29.5492,15.1147 29.3362,15.2317 28.9522,15.2317 L22.5522,15.2317 C21.1502,17.9837 19.5152,20.2987 17.6482,22.1757 C22.2502,23.5417 24.4192,24.9707 24.1562,26.4637 C24.0352,27.1467 23.8362,27.7327 23.5572,28.2237 C23.2792,28.7137 23.0272,28.9607 22.8042,28.9607 C22.5802,28.9607 22.3982,28.9007 22.2582,28.7847 C22.1192,28.6667 21.9252,28.4687 21.6752,28.1917 C20.0152,26.3567 18.0412,24.9067 15.7552,23.8397 C13.8772,25.2907 11.7132,26.4367 9.2602,27.2797 C6.8072,28.1227 3.7312,28.8107 0.0322,29.3437 L0.0002,28.7997 C6.0552,27.2427 10.5432,25.2687 13.4602,22.8797 C11.4792,22.1327 8.7872,21.4297 5.3842,20.7677 Z" id="Fill-1" fill="#333333" mask="url(#mask-2)"></path>
                </g>
                <path d="M105.503906,17.4101562 C107.036466,16.464839 108.543938,15.4443414 110.026367,14.3486328 C111.508796,13.2529242 112.86946,12.1679741 114.108398,11.09375 C115.347337,10.0195259 116.310543,9.09570699 116.998047,8.32226562 C117.68555,7.54882426 118.029297,7.00455887 118.029297,6.68945312 C118.029297,6.24544049 117.750003,6.0234375 117.191406,6.0234375 C116.016921,6.0234375 114.713549,6.5104118 113.28125,7.484375 C111.848951,8.4583382 110.516933,9.70441949 109.285156,11.2226562 C108.626299,12.0104206 108.006839,12.8841098 107.426758,13.84375 C106.846677,14.8033902 106.205733,15.9921804 105.503906,17.4101562 Z M105.353516,17.7753906 L104.923828,18.6132812 C100.81313,26.4336329 95.1699578,30.34375 87.9941406,30.34375 C86.4759039,30.34375 85.2799523,30.1038435 84.40625,29.6240234 C83.5325477,29.1442033 83.0957031,28.4889364 83.0957031,27.6582031 C83.0957031,27.3001284 83.1852205,26.9850274 83.3642578,26.7128906 C83.5432952,26.4407538 83.8190086,26.3046875 84.1914062,26.3046875 C84.463543,26.3046875 84.6783846,26.3906241 84.8359375,26.5625 C84.9934904,26.7343759 85.0722656,26.9420561 85.0722656,27.1855469 C85.0722656,27.3287768 85.0042325,27.4755852 84.8681641,27.6259766 C84.7320957,27.7763679 84.5709645,27.8515625 84.3847656,27.8515625 C84.1699208,27.8515625 84.015951,27.833659 83.9228516,27.7978516 C83.8297521,27.7620441 83.7187506,27.6295584 83.5898438,27.4003906 C83.5325518,27.4576826 83.5039062,27.6223945 83.5039062,27.8945312 C83.5039062,28.180991 83.6292305,28.4889306 83.8798828,28.8183594 C84.1305351,29.1477881 84.6210901,29.4342436 85.3515625,29.6777344 C86.0820349,29.9212252 87.0631449,30.0429688 88.2949219,30.0429688 C90.8300908,30.0429688 93.1002504,29.3805405 95.1054688,28.0556641 C97.1106871,26.7307876 98.7255798,25.255542 99.9501953,23.6298828 C101.174811,22.0042236 102.274084,20.2819101 103.248047,18.4628906 C101.386058,18.9928412 99.7890692,19.2578125 98.4570312,19.2578125 C96.6380117,19.2578125 95.1341205,18.8173872 93.9453125,17.9365234 C92.7565045,17.0556597 92.1621094,15.942064 92.1621094,14.5957031 C92.1621094,13.1347583 92.8137956,11.6953196 94.1171875,10.2773438 C95.4205794,8.85936791 97.2288296,7.69922326 99.5419922,6.796875 C101.855155,5.89452674 104.379544,5.44335938 107.115234,5.44335938 L107.115234,5.72265625 C104.250637,5.73697924 101.704764,6.20963076 99.4775391,7.140625 C97.2503144,8.07161924 95.5566464,9.21027973 94.3964844,10.5566406 C93.2363223,11.9030015 92.65625,13.1920511 92.65625,14.4238281 C92.65625,15.784512 93.1861926,16.8873656 94.2460938,17.7324219 C95.3059949,18.5774782 96.6809811,19 98.3710938,19 C100.03256,19 101.744132,18.6920604 103.505859,18.0761719 C103.663412,17.889973 103.914061,17.5247423 104.257812,16.9804688 C105.460944,15.1184803 106.678379,13.4677806 107.910156,12.0283203 C109.141933,10.58886 110.302078,9.41081188 111.390625,8.49414062 C112.479172,7.57746937 113.517573,6.88639556 114.505859,6.42089844 C115.494146,5.95540132 116.374996,5.72265625 117.148438,5.72265625 C117.950525,5.72265625 118.351562,6.03059588 118.351562,6.64648438 C118.351562,7.62044758 117.696296,8.84504471 116.385742,10.3203125 C115.075189,11.7955803 113.417328,13.2206963 111.412109,14.5957031 C109.406891,15.97071 107.38738,17.0305952 105.353516,17.7753906 Z M111.884766,21.7285156 C111.025386,21.7285156 110.069341,22.1510374 109.016602,22.9960938 C107.963862,23.8411501 107.047204,24.8007759 106.266602,25.875 C105.485999,26.9492241 105.095703,27.7083311 105.095703,28.1523438 C105.095703,28.3671886 105.167317,28.5462232 105.310547,28.6894531 C105.453777,28.832683 105.632811,28.9042969 105.847656,28.9042969 C106.434899,28.9042969 107.279942,28.4960978 108.382812,27.6796875 C109.485683,26.8632772 110.481115,25.9394583 111.369141,24.9082031 C112.257166,23.876948 112.701172,23.0677113 112.701172,22.4804688 C112.701172,21.9791642 112.429039,21.7285156 111.884766,21.7285156 Z M117.556641,24.3710938 L116.460938,25.2949219 C114.742179,26.7272207 113.471033,27.7369762 112.647461,28.3242188 C111.823889,28.9114613 111.097008,29.2050781 110.466797,29.2050781 C110.05143,29.2050781 109.84375,28.9687524 109.84375,28.4960938 C109.84375,27.9947892 110.037107,27.2929733 110.423828,26.390625 C108.375641,28.2669365 106.864588,29.2050781 105.890625,29.2050781 C105.460935,29.2050781 105.110027,29.0367855 104.837891,28.7001953 C104.565754,28.3636051 104.429688,27.8730501 104.429688,27.2285156 C104.429688,26.4980432 104.644529,25.7783239 105.074219,25.0693359 C105.503908,24.360348 106.0804,23.7337267 106.803711,23.1894531 C107.527022,22.6451796 108.336259,22.2154964 109.231445,21.9003906 C110.126632,21.5852849 110.996741,21.4277344 111.841797,21.4277344 C112.257164,21.4277344 112.561522,21.5029289 112.754883,21.6533203 C112.948243,21.8037117 113.052083,22.0507795 113.066406,22.3945312 C113.052083,22.4661462 113.041341,22.5341794 113.03418,22.5986328 C113.027018,22.6630863 113.012695,22.7526036 112.991211,22.8671875 C112.969726,22.9817714 112.951823,23.0748694 112.9375,23.1464844 L114.291016,21.5566406 L116.095703,21.4277344 L115.537109,22.1152344 C115.078774,22.6595079 114.706382,23.1070946 114.419922,23.4580078 C114.133462,23.808921 113.889975,24.0989572 113.689453,24.328125 C111.455067,26.74871 110.337891,28.1666646 110.337891,28.5820312 C110.337891,28.7968761 110.43815,28.9042969 110.638672,28.9042969 C110.910809,28.9042969 111.319008,28.7431657 111.863281,28.4208984 C112.407555,28.0986312 113.019853,27.6725287 113.700195,27.1425781 C114.380537,26.6126276 115.157548,25.9860062 116.03125,25.2626953 C116.904952,24.5393844 117.413411,24.1204433 117.556641,24.0058594 L117.556641,24.3710938 Z M117.019531,24.6289062 L117.019531,24.2421875 C117.048177,24.2135415 117.273761,24.0595717 117.696289,23.7802734 C118.118817,23.5009752 118.344401,23.3470054 118.373047,23.3183594 C118.38737,22.8743467 118.512694,22.462567 118.749023,22.0830078 C118.985353,21.7034486 119.225259,21.5136719 119.46875,21.5136719 C119.855471,21.5136719 119.991537,21.792966 119.876953,22.3515625 C121.781911,21.3919223 122.834634,20.8619797 123.035156,20.7617188 L128.191406,14.7675781 C131.944029,10.3704207 134.701163,8.171875 136.462891,8.171875 C136.792319,8.171875 137.071613,8.27213441 137.300781,8.47265625 C137.529949,8.67317809 137.644531,8.93814939 137.644531,9.26757812 C137.644531,10.1412804 137.075201,11.208327 135.936523,12.46875 C134.797846,13.729173 133.215179,15.0683523 131.188477,16.4863281 C129.161774,17.904304 126.931002,19.2148377 124.496094,20.4179688 L119.876953,25.9609375 C120.43555,26.2473973 120.95117,26.390625 121.423828,26.390625 C122.455083,26.390625 123.278643,26.2008483 123.894531,25.8212891 C124.51042,25.4417299 125.298172,24.8079471 126.257812,23.9199219 L126.257812,24.2851562 C125.341141,25.2018275 124.553389,25.8248681 123.894531,26.1542969 C123.235674,26.4837256 122.426437,26.6484375 121.466797,26.6484375 C120.836585,26.6484375 120.235029,26.5052098 119.662109,26.21875 L109.306641,38.6152344 L107.587891,38.6152344 L111.5625,34.0390625 C112.250003,33.2369752 113.05924,32.2128969 113.990234,30.9667969 C114.921229,29.7206969 115.726885,28.5927785 116.407227,27.5830078 C117.087569,26.5732371 117.728513,25.5455781 118.330078,24.5 L118.287109,23.7910156 C118.072265,23.9199225 117.861004,24.0524082 117.65332,24.1884766 C117.445637,24.324545 117.234376,24.4713534 117.019531,24.6289062 Z M122.433594,21.3847656 C121.817705,21.6712254 120.951177,22.1223928 119.833984,22.7382812 C119.819661,22.8671881 119.769532,23.0104159 119.683594,23.1679688 C119.597656,23.3255216 119.508138,23.4687494 119.415039,23.5976562 C119.32194,23.7265631 119.210938,23.8841137 119.082031,24.0703125 C118.852863,24.3424493 118.738281,24.5429681 118.738281,24.671875 C118.78125,24.8723968 118.910155,25.0800771 119.125,25.2949219 C119.26823,25.0944 119.819657,24.4427138 120.779297,23.3398438 C121.738937,22.2369737 122.290364,21.5852875 122.433594,21.3847656 Z M127.095703,17.28125 L125.011719,19.7949219 C126.630216,18.9785115 128.166334,18.1012417 129.620117,17.1630859 C131.0739,16.2249302 132.388015,15.2617237 133.5625,14.2734375 C134.736985,13.2851513 135.660804,12.3577517 136.333984,11.4912109 C137.007165,10.6246701 137.34375,9.89778939 137.34375,9.31054688 C137.34375,9.05273309 137.264975,8.85221426 137.107422,8.70898438 C136.949869,8.56575449 136.735027,8.49414062 136.462891,8.49414062 C135.517573,8.49414062 134.289396,9.26757039 132.77832,10.8144531 C131.267245,12.3613359 129.373058,14.5169133 127.095703,17.28125 Z M118.867188,25.5957031 L118.458984,24.8867188 C118.416015,24.9583337 118.161786,25.35221 117.696289,26.0683594 C117.230792,26.7845088 116.844077,27.3824846 116.536133,27.8623047 C116.228189,28.3421248 115.888023,28.8756481 115.515625,29.4628906 L118.867188,25.5957031 Z M127.353516,24.8867188 C128.542324,24.8867188 129.544918,24.7363296 130.361328,24.4355469 C131.177738,24.1347641 131.797198,23.7766948 132.219727,23.3613281 C132.642255,22.9459615 132.853516,22.6093763 132.853516,22.3515625 C132.853516,21.9361958 132.610028,21.7285156 132.123047,21.7285156 C131.478512,21.7285156 130.726567,22.0113904 129.867188,22.5771484 C129.007808,23.1429065 128.169926,23.9127555 127.353516,24.8867188 Z M134.980469,23.9199219 L134.980469,24.2851562 C133.376294,25.8893309 131.90821,27.1103474 130.576172,27.9482422 C129.244134,28.786137 127.897793,29.2050781 126.537109,29.2050781 C125.333978,29.2050781 124.732422,28.517585 124.732422,27.1425781 C124.732422,25.9967391 125.165686,24.9905642 126.032227,24.1240234 C126.898767,23.2574826 127.915684,22.5914737 129.083008,22.1259766 C130.250331,21.6604794 131.199215,21.4277344 131.929688,21.4277344 C132.345054,21.4277344 132.670897,21.5244131 132.907227,21.7177734 C133.143556,21.9111338 133.261719,22.165363 133.261719,22.4804688 C133.261719,22.9674504 132.996747,23.415037 132.466797,23.8232422 C131.936846,24.2314474 131.199223,24.5680325 130.253906,24.8330078 C129.308589,25.0979831 128.198574,25.2519529 126.923828,25.2949219 C125.835281,26.5266989 125.291016,27.4648405 125.291016,28.109375 C125.291016,28.3385428 125.409179,28.5283196 125.645508,28.6787109 C125.881837,28.8291023 126.179035,28.9042969 126.537109,28.9042969 C128.84311,28.9042969 131.657535,27.2428552 134.980469,23.9199219 Z M141.8125,18.4199219 L145.378906,14.3808594 L147.226562,14.3808594 L143.660156,18.4199219 L146.388672,18.4199219 L146.152344,18.7851562 L143.380859,18.7851562 L138.160156,24.7148438 C137.587237,25.3450552 136.953454,26.1041622 136.258789,26.9921875 C135.564124,27.8802128 135.216797,28.3671871 135.216797,28.453125 C135.216797,28.7539078 135.374347,28.9042969 135.689453,28.9042969 C136.863938,28.9042969 139.384746,27.2428552 143.251953,23.9199219 L143.251953,24.2851562 L142.113281,25.2949219 C139.148423,27.9017057 136.992845,29.2050781 135.646484,29.2050781 C135.317056,29.2050781 135.059246,29.1119801 134.873047,28.9257812 C134.686848,28.7395824 134.59375,28.5247408 134.59375,28.28125 C134.59375,27.7083305 134.998368,26.755866 135.807617,25.4238281 C136.616866,24.0917902 138.203113,22.2441524 140.566406,19.8808594 C139.105461,20.8548226 137.071628,22.4947801 134.464844,24.8007812 L134.464844,24.4570312 C135.338546,23.6262979 136.419915,22.6845756 137.708984,21.6318359 C138.998053,20.5790963 140.258457,19.6302126 141.490234,18.7851562 L139.921875,18.7851562 L140.222656,18.4199219 L141.8125,18.4199219 Z M146.023438,31.0527344 C143.01561,32.5566481 140.469737,34.0748621 138.385742,35.6074219 C136.301747,37.1399816 135.259766,38.4218698 135.259766,39.453125 C135.259766,39.7109388 135.349283,39.9221997 135.52832,40.0869141 C135.707358,40.2516284 135.92578,40.3339844 136.183594,40.3339844 C136.684898,40.3339844 137.250648,40.1585304 137.880859,39.8076172 C138.511071,39.456704 139.216467,38.9088579 139.99707,38.1640625 C140.777673,37.4192671 141.69075,36.4309957 142.736328,35.1992188 C143.294925,34.5117153 143.900062,33.7705118 144.551758,32.9755859 C145.203454,32.1806601 145.694009,31.539716 146.023438,31.0527344 Z M142.736328,24.8007812 L142.736328,24.4570312 C143.882167,23.4687451 144.82389,22.7167995 145.561523,22.2011719 C146.299157,21.6855443 146.940101,21.4277344 147.484375,21.4277344 C147.928388,21.4277344 148.150391,21.7213512 148.150391,22.3085938 C148.150391,23.5546937 147.298186,24.92968 145.59375,26.4335938 C144.361973,27.5221409 143.746094,28.2382795 143.746094,28.5820312 C143.746094,28.7968761 143.874999,28.9042969 144.132812,28.9042969 C144.662763,28.9042969 145.583001,28.4638716 146.893555,27.5830078 C148.204108,26.702144 149.564772,25.6780657 150.975586,24.5107422 C152.3864,23.3434186 153.478512,22.3730507 154.251953,21.5996094 L155.884766,21.5996094 L148.988281,29.4628906 C150.592456,28.8183562 151.971023,28.1129596 153.124023,27.3466797 C154.277024,26.5803998 155.727205,25.4381586 157.474609,23.9199219 L157.474609,24.2851562 C155.841789,25.78907 154.409511,26.9420533 153.177734,27.7441406 C151.945957,28.546228 150.384775,29.2981736 148.494141,30 L148.107422,30.4296875 C145.113917,33.7812668 142.693369,36.323559 140.845703,38.0566406 C138.998038,39.7897222 137.472662,40.65625 136.269531,40.65625 C135.381506,40.65625 134.9375,40.2408896 134.9375,39.4101562 C134.9375,38.8085907 135.342118,38.0530644 136.151367,37.1435547 C136.960616,36.2340449 138.217439,35.2242894 139.921875,34.1142578 C141.626311,33.0042262 143.796211,31.8405009 146.431641,30.6230469 C147.835293,28.8183504 149.654286,26.6914185 151.888672,24.2421875 C150.370435,25.4166725 149.367841,26.1901023 148.880859,26.5625 C148.393878,26.9348977 147.813805,27.3538388 147.140625,27.8193359 C146.467445,28.2848331 145.869469,28.6321603 145.34668,28.8613281 C144.823891,29.0904959 144.361981,29.2050781 143.960938,29.2050781 C143.717447,29.2050781 143.516928,29.1263029 143.359375,28.96875 C143.201822,28.8111971 143.123047,28.5963555 143.123047,28.3242188 C143.123047,27.8515601 143.216145,27.4003928 143.402344,26.9707031 C143.588543,26.5410135 143.88574,26.1077496 144.293945,25.6708984 C144.70215,25.2340473 145.249997,24.7578151 145.9375,24.2421875 C147.169277,23.3255162 147.785156,22.616539 147.785156,22.1152344 C147.785156,21.8574206 147.641929,21.7285156 147.355469,21.7285156 C146.868487,21.7285156 146.238285,22.0221325 145.464844,22.609375 C144.691402,23.1966175 143.781906,23.927079 142.736328,24.8007812 Z M171.181641,18.4199219 L174.748047,14.3808594 L176.595703,14.3808594 L173.029297,18.4199219 L175.757812,18.4199219 L175.521484,18.7851562 L172.75,18.7851562 L167.529297,24.7148438 C166.956377,25.3450552 166.322595,26.1041622 165.62793,26.9921875 C164.933265,27.8802128 164.585938,28.3671871 164.585938,28.453125 C164.585938,28.7539078 164.743488,28.9042969 165.058594,28.9042969 C166.233079,28.9042969 168.753887,27.2428552 172.621094,23.9199219 L172.621094,24.2851562 L171.482422,25.2949219 C168.517563,27.9017057 166.361986,29.2050781 165.015625,29.2050781 C164.686196,29.2050781 164.428386,29.1119801 164.242188,28.9257812 C164.055989,28.7395824 163.962891,28.5247408 163.962891,28.28125 C163.962891,27.7083305 164.367509,26.755866 165.176758,25.4238281 C165.986007,24.0917902 167.572254,22.2441524 169.935547,19.8808594 C168.474602,20.8548226 166.440768,22.4947801 163.833984,24.8007812 L163.833984,24.4570312 C164.707687,23.6262979 165.789056,22.6845756 167.078125,21.6318359 C168.367194,20.5790963 169.627598,19.6302126 170.859375,18.7851562 L169.291016,18.7851562 L169.591797,18.4199219 L171.181641,18.4199219 Z M173.716797,24.8867188 C174.905605,24.8867188 175.908199,24.7363296 176.724609,24.4355469 C177.54102,24.1347641 178.16048,23.7766948 178.583008,23.3613281 C179.005536,22.9459615 179.216797,22.6093763 179.216797,22.3515625 C179.216797,21.9361958 178.97331,21.7285156 178.486328,21.7285156 C177.841794,21.7285156 177.089848,22.0113904 176.230469,22.5771484 C175.371089,23.1429065 174.533207,23.9127555 173.716797,24.8867188 Z M181.34375,23.9199219 L181.34375,24.2851562 C179.739575,25.8893309 178.271491,27.1103474 176.939453,27.9482422 C175.607415,28.786137 174.261075,29.2050781 172.900391,29.2050781 C171.69726,29.2050781 171.095703,28.517585 171.095703,27.1425781 C171.095703,25.9967391 171.528967,24.9905642 172.395508,24.1240234 C173.262049,23.2574826 174.278966,22.5914737 175.446289,22.1259766 C176.613613,21.6604794 177.562496,21.4277344 178.292969,21.4277344 C178.708335,21.4277344 179.034179,21.5244131 179.270508,21.7177734 C179.506837,21.9111338 179.625,22.165363 179.625,22.4804688 C179.625,22.9674504 179.360029,23.415037 178.830078,23.8232422 C178.300128,24.2314474 177.562505,24.5680325 176.617188,24.8330078 C175.67187,25.0979831 174.561855,25.2519529 173.287109,25.2949219 C172.198562,26.5266989 171.654297,27.4648405 171.654297,28.109375 C171.654297,28.3385428 171.77246,28.5283196 172.008789,28.6787109 C172.245118,28.8291023 172.542316,28.9042969 172.900391,28.9042969 C175.206392,28.9042969 178.020817,27.2428552 181.34375,23.9199219 Z M190.066406,23.9199219 L190.066406,24.2851562 C186.671858,27.5651206 183.84311,29.2050781 181.580078,29.2050781 C180.978513,29.2050781 180.541668,29.0511083 180.269531,28.7431641 C179.997394,28.4352198 179.861328,27.8873737 179.861328,27.0996094 C179.861328,26.4121059 180.07975,25.7174514 180.516602,25.015625 C180.953453,24.3137986 181.529944,23.6943386 182.246094,23.1572266 C182.962243,22.6201145 183.749996,22.1975927 184.609375,21.8896484 C185.468754,21.5817042 186.306637,21.4277344 187.123047,21.4277344 C187.495445,21.4277344 187.799804,21.5208324 188.036133,21.7070312 C188.272462,21.8932301 188.390625,22.15104 188.390625,22.4804688 C188.390625,22.8528664 188.243817,23.1858709 187.950195,23.4794922 C187.656574,23.7731134 187.330731,23.9199219 186.972656,23.9199219 C186.542967,23.9199219 186.328125,23.7337258 186.328125,23.3613281 C186.328125,22.8027316 186.578774,22.5234375 187.080078,22.5234375 C187.366538,22.5234375 187.538411,22.6523425 187.595703,22.9101562 C187.652995,22.9960942 187.710286,23.0390625 187.767578,23.0390625 C187.839193,23.0390625 187.910807,22.9817714 187.982422,22.8671875 C188.054037,22.7526036 188.089844,22.6236986 188.089844,22.4804688 C188.089844,22.2513009 188.011068,22.0686856 187.853516,21.9326172 C187.695963,21.7965488 187.481121,21.7285156 187.208984,21.7285156 C186.449866,21.7285156 185.529628,22.1367147 184.448242,22.953125 C183.366857,23.7695353 182.432296,24.7005156 181.644531,25.7460938 C180.856767,26.7916719 180.462891,27.60807 180.462891,28.1953125 C180.462891,28.6679711 180.813799,28.9042969 181.515625,28.9042969 C182.819017,28.9042969 184.086582,28.5032592 185.318359,27.7011719 C186.550136,26.8990845 188.132803,25.6386805 190.066406,23.9199219 Z M204.804688,10.234375 L206.566406,10.234375 L192.279297,26.4335938 C193.639981,25.2877547 195.161775,24.1669977 196.844727,23.0712891 C198.527678,21.9755805 199.655596,21.4277344 200.228516,21.4277344 C200.87305,21.4277344 201.195312,21.7786423 201.195312,22.4804688 C201.195312,23.2968791 200.930341,24.0201791 200.400391,24.6503906 C199.87044,25.2806021 199.154301,25.9322883 198.251953,26.6054688 C197.13476,27.4218791 196.576172,28.0377583 196.576172,28.453125 C196.576172,28.7539078 196.755207,28.9042969 197.113281,28.9042969 C197.800785,28.9042969 198.724604,28.4960978 199.884766,27.6796875 C201.044928,26.8632772 202.513012,25.63868 204.289062,24.0058594 L204.289062,24.3710938 L203.666016,24.9296875 C202.233717,26.2474024 200.948248,27.2893842 199.80957,28.0556641 C198.670893,28.8219439 197.772139,29.2050781 197.113281,29.2050781 C196.468747,29.2050781 196.146484,28.8971385 196.146484,28.28125 C196.146484,27.106765 196.776686,25.9752659 198.037109,24.8867188 C198.99675,24.0416624 199.655597,23.4329446 200.013672,23.0605469 C200.371747,22.6881492 200.550781,22.3587254 200.550781,22.0722656 C200.550781,22.0006507 200.511394,21.9254561 200.432617,21.8466797 C200.353841,21.7679033 200.257162,21.7285156 200.142578,21.7285156 C199.583982,21.7285156 198.015638,22.6523345 195.4375,24.5 C193.317698,26.0325597 191.47006,27.6009034 189.894531,29.2050781 L188.046875,29.2050781 L199.455078,16.2285156 L189.550781,24.8007812 L189.550781,24.4570312 L195.695312,19.0429688 C197.428394,17.539055 198.753251,16.3717489 199.669922,15.5410156 C200.586593,14.7102823 201.402991,13.9225298 202.119141,13.1777344 C202.83529,12.432939 203.730463,11.451829 204.804688,10.234375 Z M203.730469,24.8007812 L203.730469,24.4570312 C205.907563,22.4374899 207.432938,21.4277344 208.306641,21.4277344 C208.793622,21.4277344 209.037109,21.735674 209.037109,22.3515625 C209.037109,22.8385441 208.88672,23.318357 208.585938,23.7910156 C208.285155,24.2636742 207.676437,25.0872337 206.759766,26.2617188 C208.535816,24.786451 210.075514,23.6119835 211.378906,22.7382812 C212.682298,21.864579 213.799475,21.4277344 214.730469,21.4277344 C215.21745,21.4277344 215.460938,21.7643196 215.460938,22.4375 C215.460938,23.0963575 215.231773,23.7516243 214.773438,24.4033203 C214.315102,25.0550163 213.563156,25.7604129 212.517578,26.5195312 C211.400385,27.3645876 210.841797,27.966144 210.841797,28.3242188 C210.841797,28.4674486 210.90983,28.5999343 211.045898,28.7216797 C211.181967,28.8434251 211.321614,28.9042969 211.464844,28.9042969 C211.966148,28.9042969 212.628577,28.6285835 213.452148,28.0771484 C214.27572,27.5257134 215.174474,26.8238975 216.148438,25.9716797 C217.122401,25.1194619 217.910153,24.4355495 218.511719,23.9199219 L218.511719,24.2851562 C217.638016,25.1015666 216.785811,25.8642543 215.955078,26.5732422 C215.124345,27.2822301 214.297205,27.8981094 213.473633,28.4208984 C212.650061,28.9436875 211.966149,29.2050781 211.421875,29.2050781 C211.078123,29.2050781 210.831055,29.0904959 210.680664,28.8613281 C210.530273,28.6321603 210.455078,28.3958346 210.455078,28.1523438 C210.455078,27.6080702 210.66992,26.9957716 211.099609,26.3154297 C211.529299,25.6350877 212.123694,24.9726595 212.882812,24.328125 C213.756515,23.5546836 214.361652,22.9352237 214.698242,22.4697266 C215.034832,22.0042294 214.938154,21.7714844 214.408203,21.7714844 C213.735023,21.7714844 212.718106,22.2262324 211.357422,23.1357422 C209.996738,24.0452519 208.722011,25.0048778 207.533203,26.0146484 C206.344395,27.0244191 205.220057,28.0162712 204.160156,28.9902344 L202.484375,28.9902344 L205.341797,25.7675781 C207.432953,23.432931 208.478516,22.1582042 208.478516,21.9433594 C208.478516,21.8001295 208.392579,21.7285156 208.220703,21.7285156 C207.590492,21.7285156 206.093762,22.7525939 203.730469,24.8007812 Z M224.248047,21.7285156 C223.44596,21.7285156 222.525721,22.1832637 221.487305,23.0927734 C220.448888,24.0022832 219.517908,25.0012966 218.694336,26.0898438 C217.870764,27.1783909 217.458984,27.8515612 217.458984,28.109375 C217.458984,28.3385428 217.562824,28.5283196 217.770508,28.6787109 C217.978191,28.8291023 218.239582,28.9042969 218.554688,28.9042969 C219.313806,28.9042969 220.226883,28.5283241 221.293945,27.7763672 C222.361008,27.0244103 223.30273,26.1363983 224.119141,25.1123047 C224.935551,24.088211 225.34375,23.282555 225.34375,22.6953125 C225.34375,22.4088527 225.23991,22.1761077 225.032227,21.9970703 C224.824543,21.818033 224.563153,21.7285156 224.248047,21.7285156 Z M227.664062,23.9199219 L227.664062,24.2851562 C226.861975,25.2447965 225.966802,25.7246094 224.978516,25.7246094 L224.677734,25.6816406 C224.577473,25.6673176 224.462891,25.6529949 224.333984,25.6386719 C222.042306,28.0162879 220.058602,29.2050781 218.382812,29.2050781 C218.067707,29.2050781 217.777671,29.1227222 217.512695,28.9580078 C217.24772,28.7932934 217.047201,28.5748712 216.911133,28.3027344 C216.775064,28.0305976 216.707031,27.7154966 216.707031,27.3574219 C216.707031,26.3977817 217.129553,25.45964 217.974609,24.5429688 C218.819666,23.6262975 219.840163,22.8779326 221.036133,22.2978516 C222.232102,21.7177705 223.281245,21.4277344 224.183594,21.4277344 C225.157557,21.4277344 225.644531,21.8789017 225.644531,22.78125 C225.644531,23.5117224 225.293623,24.3639274 224.591797,25.3378906 C224.735027,25.3951826 224.892577,25.4238281 225.064453,25.4238281 C225.966801,25.4238281 226.833329,24.9225311 227.664062,23.9199219 Z M240.640625,11.3945312 L241.714844,10.234375 L243.369141,10.234375 L229.833984,25.3808594 C228.215487,27.1569099 227.40625,28.195311 227.40625,28.4960938 C227.40625,28.7682305 227.549478,28.9042969 227.835938,28.9042969 C228.337242,28.9042969 228.910153,28.693036 229.554688,28.2705078 C230.199222,27.8479797 231.06933,27.1425831 232.165039,26.1542969 C233.260748,25.1660107 234.066404,24.449872 234.582031,24.0058594 L234.582031,24.3710938 C232.634105,26.1614673 231.208989,27.41471 230.306641,28.1308594 C229.404292,28.8470088 228.580733,29.2050781 227.835938,29.2050781 C227.578124,29.2050781 227.359701,29.1083994 227.180664,28.9150391 C227.001627,28.7216787 226.912109,28.496095 226.912109,28.2382812 C226.912109,27.5078088 227.270179,26.6556038 227.986328,25.6816406 C228.702478,24.7076774 229.669265,23.5690169 230.886719,22.265625 C230.972657,22.1510411 231.230467,21.8466822 231.660156,21.3525391 C232.089846,20.858396 232.505206,20.367841 232.90625,19.8808594 C231.917964,20.6256548 230.013035,22.2512896 227.191406,24.7578125 L227.191406,24.4140625 L233.292969,19.1289062 C234.037764,18.4986948 236.486958,15.9205955 240.640625,11.3945312 Z M240.253906,21.7285156 C239.451819,21.7285156 238.531581,22.1832637 237.493164,23.0927734 C236.454747,24.0022832 235.523767,25.0012966 234.700195,26.0898438 C233.876623,27.1783909 233.464844,27.8515612 233.464844,28.109375 C233.464844,28.3385428 233.568684,28.5283196 233.776367,28.6787109 C233.984051,28.8291023 234.245441,28.9042969 234.560547,28.9042969 C235.319665,28.9042969 236.232742,28.5283241 237.299805,27.7763672 C238.366867,27.0244103 239.30859,26.1363983 240.125,25.1123047 C240.94141,24.088211 241.349609,23.282555 241.349609,22.6953125 C241.349609,22.4088527 241.245769,22.1761077 241.038086,21.9970703 C240.830403,21.818033 240.569012,21.7285156 240.253906,21.7285156 Z M243.669922,23.9199219 L243.669922,24.2851562 C242.867835,25.2447965 241.972661,25.7246094 240.984375,25.7246094 L240.683594,25.6816406 C240.583333,25.6673176 240.468751,25.6529949 240.339844,25.6386719 C238.048166,28.0162879 236.064462,29.2050781 234.388672,29.2050781 C234.073566,29.2050781 233.78353,29.1227222 233.518555,28.9580078 C233.253579,28.7932934 233.053061,28.5748712 232.916992,28.3027344 C232.780924,28.0305976 232.712891,27.7154966 232.712891,27.3574219 C232.712891,26.3977817 233.135412,25.45964 233.980469,24.5429688 C234.825525,23.6262975 235.846023,22.8779326 237.041992,22.2978516 C238.237962,21.7177705 239.287105,21.4277344 240.189453,21.4277344 C241.163416,21.4277344 241.650391,21.8789017 241.650391,22.78125 C241.650391,23.5117224 241.299483,24.3639274 240.597656,25.3378906 C240.740886,25.3951826 240.898437,25.4238281 241.070312,25.4238281 C241.972661,25.4238281 242.839189,24.9225311 243.669922,23.9199219 Z M250.330078,22.5664062 C250.330078,22.3372384 250.233399,22.1546231 250.040039,22.0185547 C249.846679,21.8824863 249.613934,21.8144531 249.341797,21.8144531 C248.53971,21.8144531 247.61231,22.2226522 246.55957,23.0390625 C245.506831,23.8554728 244.593754,24.7936145 243.820312,25.8535156 C243.046871,26.9134168 242.660156,27.6940079 242.660156,28.1953125 C242.660156,28.3671884 242.749674,28.5211582 242.928711,28.6572266 C243.107748,28.793295 243.297525,28.8613281 243.498047,28.8613281 C244.070966,28.8613281 244.908849,28.4531291 246.011719,27.6367188 C247.114589,26.8203084 248.110022,25.9000702 248.998047,24.8759766 C249.886072,23.8518829 250.330078,23.0820338 250.330078,22.5664062 Z M242.917969,32.234375 C240.253893,33.3802141 238.291673,34.2861295 237.03125,34.9521484 C235.770827,35.6181674 234.718103,36.4023392 233.873047,37.3046875 C233.156897,38.1067748 232.798828,38.794268 232.798828,39.3671875 C232.798828,39.6679703 232.906249,39.904296 233.121094,40.0761719 C233.335939,40.2480477 233.615233,40.3339844 233.958984,40.3339844 C234.646488,40.3339844 235.416337,40.0403675 236.268555,39.453125 C237.120772,38.8658825 238.14127,37.9277408 239.330078,36.6386719 C241.106129,34.5618386 242.30208,33.0937543 242.917969,32.234375 Z M243.326172,31.7617188 L246.527344,27.7226562 C246.283853,27.8658861 246.083334,27.9947911 245.925781,28.109375 C244.894526,28.8112014 244.085289,29.1621094 243.498047,29.1621094 C242.495438,29.1621094 241.994141,28.5032618 241.994141,27.1855469 C241.994141,26.3834595 242.241208,25.6315139 242.735352,24.9296875 C243.229495,24.2278611 243.863277,23.6227239 244.636719,23.1142578 C245.41016,22.6057917 246.212235,22.2119155 247.042969,21.9326172 C247.873702,21.6533189 248.63997,21.5136719 249.341797,21.5136719 C250.201176,21.5136719 250.630859,21.8216115 250.630859,22.4375 C250.630859,22.6093759 250.573568,22.8743472 250.458984,23.2324219 L251.941406,21.5136719 L253.746094,21.5136719 L245.753906,30.6230469 C247.100267,29.9641894 248.493157,29.1084037 249.932617,28.0556641 C251.372078,27.0029244 253.101552,25.6243575 255.121094,23.9199219 L255.121094,24.2851562 C253.731764,25.4882873 252.542974,26.4801393 251.554688,27.2607422 C250.566401,28.041345 249.549484,28.7610644 248.503906,29.4199219 C247.458328,30.0787793 246.376959,30.666013 245.259766,31.1816406 C243.426423,33.186859 241.890306,34.8089131 240.651367,36.0478516 C239.412429,37.28679 238.381189,38.2356738 237.557617,38.8945312 C236.734045,39.5533887 236.042972,40.0117175 235.484375,40.2695312 C234.925778,40.527345 234.402997,40.65625 233.916016,40.65625 C233.486326,40.65625 233.142579,40.5345064 232.884766,40.2910156 C232.626952,40.0475248 232.498047,39.7395852 232.498047,39.3671875 C232.498047,38.765622 232.798825,38.1067744 233.400391,37.390625 C234.001956,36.6744756 234.861323,35.9619176 235.978516,35.2529297 C237.095709,34.5439418 238.399081,33.8815135 239.888672,33.265625 L243.025391,31.9335938 L243.326172,31.7617188 Z M257.871094,31.0527344 C254.863266,32.5566481 252.317393,34.0748621 250.233398,35.6074219 C248.149404,37.1399816 247.107422,38.4218698 247.107422,39.453125 C247.107422,39.7109388 247.196939,39.9221997 247.375977,40.0869141 C247.555014,40.2516284 247.773436,40.3339844 248.03125,40.3339844 C248.532555,40.3339844 249.098304,40.1585304 249.728516,39.8076172 C250.358727,39.456704 251.064124,38.9088579 251.844727,38.1640625 C252.625329,37.4192671 253.538406,36.4309957 254.583984,35.1992188 C255.142581,34.5117153 255.747718,33.7705118 256.399414,32.9755859 C257.05111,32.1806601 257.541665,31.539716 257.871094,31.0527344 Z M254.583984,24.8007812 L254.583984,24.4570312 C255.729823,23.4687451 256.671546,22.7167995 257.40918,22.2011719 C258.146814,21.6855443 258.787758,21.4277344 259.332031,21.4277344 C259.776044,21.4277344 259.998047,21.7213512 259.998047,22.3085938 C259.998047,23.5546937 259.145842,24.92968 257.441406,26.4335938 C256.209629,27.5221409 255.59375,28.2382795 255.59375,28.5820312 C255.59375,28.7968761 255.722655,28.9042969 255.980469,28.9042969 C256.510419,28.9042969 257.430658,28.4638716 258.741211,27.5830078 C260.051764,26.702144 261.412428,25.6780657 262.823242,24.5107422 C264.234057,23.3434186 265.326168,22.3730507 266.099609,21.5996094 L267.732422,21.5996094 L260.835938,29.4628906 C262.440112,28.8183562 263.818679,28.1129596 264.97168,27.3466797 C266.12468,26.5803998 267.574861,25.4381586 269.322266,23.9199219 L269.322266,24.2851562 C267.689445,25.78907 266.257168,26.9420533 265.025391,27.7441406 C263.793614,28.546228 262.232431,29.2981736 260.341797,30 L259.955078,30.4296875 C256.961574,33.7812668 254.541025,36.323559 252.693359,38.0566406 C250.845694,39.7897222 249.320319,40.65625 248.117188,40.65625 C247.229162,40.65625 246.785156,40.2408896 246.785156,39.4101562 C246.785156,38.8085907 247.189775,38.0530644 247.999023,37.1435547 C248.808272,36.2340449 250.065096,35.2242894 251.769531,34.1142578 C253.473967,33.0042262 255.643867,31.8405009 258.279297,30.6230469 C259.68295,28.8183504 261.501942,26.6914185 263.736328,24.2421875 C262.218091,25.4166725 261.215497,26.1901023 260.728516,26.5625 C260.241534,26.9348977 259.661462,27.3538388 258.988281,27.8193359 C258.315101,28.2848331 257.717125,28.6321603 257.194336,28.8613281 C256.671547,29.0904959 256.209637,29.2050781 255.808594,29.2050781 C255.565103,29.2050781 255.364584,29.1263029 255.207031,28.96875 C255.049478,28.8111971 254.970703,28.5963555 254.970703,28.3242188 C254.970703,27.8515601 255.063801,27.4003928 255.25,26.9707031 C255.436199,26.5410135 255.733396,26.1077496 256.141602,25.6708984 C256.549807,25.2340473 257.097653,24.7578151 257.785156,24.2421875 C259.016933,23.3255162 259.632812,22.616539 259.632812,22.1152344 C259.632812,21.8574206 259.489585,21.7285156 259.203125,21.7285156 C258.716143,21.7285156 258.085941,22.0221325 257.3125,22.609375 C256.539059,23.1966175 255.629563,23.927079 254.583984,24.8007812 Z" id="Safety-technology" fill="#999999"></path>
            </g>
        </g>
    </g>
</svg>