<?xml version="1.0" encoding="UTF-8"?>
<svg width="312px" height="78px" viewBox="0 0 312 78" version="1.1" xmlns="http://www.w3.org/2000/svg" xmlns:xlink="http://www.w3.org/1999/xlink">
    <!-- Generator: Sketch 50.2 (55047) - http://www.bohemiancoding.com/sketch -->
    <title>01</title>
    <desc>Created with Sketch.</desc>
    <defs>
        <polygon id="path-1" points="0.0002 0.0007 126.693 0.0007 126.693 30.1437 0.0002 30.1437"></polygon>
    </defs>
    <g id="Page-1" stroke="none" stroke-width="1" fill="none" fill-rule="evenodd">
        <g id="Artboard-2" transform="translate(-208.000000, -118.000000)">
            <g id="01" transform="translate(208.000000, 118.000000)">
                <g transform="translate(1.000000, 9.000000)" fill="#0B74B9">
                    <path d="M6.541,51.6836 C7.103,55.7876 8.095,58.1326 9.52,58.7146 C10.938,59.3026 12.405,59.3026 13.915,58.7146 C15.423,58.1326 17.243,55.7876 19.373,51.6836 C21.502,47.5856 23.394,40.8456 25.047,31.4686 C26.699,22.0976 27.236,15.0666 26.657,10.3746 C26.077,5.6896 24.32,3.3436 21.393,3.3436 C18.459,3.3436 15.936,5.6896 13.825,10.3746 C11.707,15.0666 9.824,22.0976 8.172,31.4686 C6.519,40.8456 5.973,47.5856 6.541,51.6836 M31.175,9.6716 C32.958,14.8296 33.082,22.0976 31.551,31.4686 C30.013,40.8456 27.345,48.3436 23.541,53.9686 C19.736,59.5936 15.549,62.4066 10.978,62.4066 C6.408,62.4066 3.328,59.5936 1.744,53.9686 C0.153,48.3436 0.19,40.8456 1.844,31.4686 C3.496,22.0976 6.063,14.8296 9.554,9.6716 C13.039,4.5196 15.996,1.7066 18.425,1.2346 C20.847,0.7676 23.132,0.7676 25.28,1.2346 C27.421,1.7066 29.387,4.5196 31.175,9.6716" id="Fill-7"></path>
                    <path d="M59.5391,15.2969 C60.1591,11.7809 59.3431,10.0839 57.0981,10.1989 C54.8461,10.3199 52.3741,10.7269 49.6741,11.4299 L50.0461,9.3199 C56.0431,7.2109 61.8321,4.2829 67.4161,0.5309 L57.8701,54.6719 C57.8401,57.4849 60.7561,58.8909 66.6181,58.8909 L66.2461,60.9999 L41.6371,60.9999 L42.0081,58.8909 C48.1001,58.8909 51.5861,57.7209 52.4721,55.3749 L59.5391,15.2969 Z" id="Fill-9"></path>
                </g>
                <g id="安全技术-copy" transform="translate(81.000000, 45.000000)">
                    <mask id="mask-2" fill="white">
                        <use xlink:href="#path-1"></use>
                    </mask>
                    <g id="Clip-2"></g>
                    <path d="M117.4642,1.4397 C118.8552,2.1437 119.9642,2.8107 120.7922,3.4397 C121.6192,4.0697 121.9752,4.7147 121.8582,5.3767 C121.7832,5.8027 121.5492,6.3097 121.1582,6.8957 C120.7672,7.4827 120.3152,7.7757 119.8032,7.7757 C119.5042,7.7757 119.3042,7.7017 119.2022,7.5517 C119.1012,7.4027 119.0222,7.0617 118.9672,6.5277 C118.9112,5.9957 118.6902,5.2527 118.3032,4.3037 C117.9162,3.3547 117.4912,2.5597 117.0272,1.9197 L117.4642,1.4397 Z M110.5232,8.8637 L111.4152,3.8077 C111.6632,2.3997 111.8452,1.1837 111.9622,0.1607 C112.8632,0.3737 113.6962,0.6347 114.4642,0.9437 C115.2302,1.2527 115.6912,1.4567 115.8442,1.5517 C115.9982,1.6477 116.0662,1.7497 116.0472,1.8557 C116.0132,2.0477 115.5532,2.3577 114.6672,2.7847 L113.5952,8.8637 L121.1792,8.8637 L123.1362,6.6557 C123.3742,6.3997 123.5672,6.2717 123.7162,6.2717 C123.9932,6.2717 124.5692,6.7567 125.4432,7.7277 C126.3172,8.6987 126.7332,9.3067 126.6902,9.5517 C126.6472,9.7967 126.3262,9.9197 125.7292,9.9197 L114.9772,9.9197 C115.3912,13.0137 116.4412,15.6537 118.1242,17.8397 C119.8082,20.0267 122.0562,21.6107 124.8702,22.5917 L124.6182,23.2957 C124.3022,23.2747 123.9252,23.2637 123.4882,23.2637 C123.0502,23.2637 122.5972,23.3547 122.1282,23.5367 C121.6582,23.7167 121.0852,24.1607 120.4062,24.8637 C120.2482,25.0347 120.1152,25.1207 120.0092,25.1207 C119.7102,25.1207 118.9202,24.3357 117.6392,22.7677 C116.3592,21.2007 115.3702,19.3337 114.6752,17.1687 C113.9792,15.0027 113.7172,12.5867 113.8892,9.9197 L113.4092,9.9197 L110.8362,24.5117 L110.1672,28.6717 C110.1292,28.8847 110.0762,29.0287 110.0102,29.1037 C109.9432,29.1777 109.6912,29.3117 109.2522,29.5037 C108.8122,29.6957 108.3422,29.8507 107.8422,29.9677 C107.3412,30.0857 107.0212,30.1437 106.8832,30.1437 C106.7442,30.1437 106.6922,30.0477 106.7262,29.8557 C106.7592,29.6647 106.8612,29.1777 107.0302,28.3997 C107.2002,27.6217 107.3862,26.6557 107.5892,25.5037 L109.7842,13.0557 C107.5722,16.0437 105.2722,18.5597 102.8842,20.6077 C100.4962,22.6557 97.5942,24.5967 94.1772,26.4317 L93.8832,25.9197 C100.4622,21.0357 105.2322,15.7017 108.1932,9.9197 L99.7452,9.9197 C99.1902,9.9197 98.7222,9.9737 98.3402,10.0807 L98.0392,8.7047 C98.4682,8.8107 98.9922,8.8637 99.6112,8.8637 L110.5232,8.8637 Z M79.1092,13.3437 C79.4492,16.3737 80.3392,18.8277 81.7792,20.7047 C83.4942,19.0837 85.2282,16.6287 86.9812,13.3437 L79.1092,13.3437 Z M81.0102,24.1607 C77.6712,26.3997 74.0642,28.0427 70.1892,29.0877 L70.0462,28.4477 C74.0512,26.7847 77.3222,24.8107 79.8582,22.5277 C78.5792,20.2237 78.0092,17.1637 78.1492,13.3437 L77.2532,13.3437 C76.8052,13.3437 76.3992,13.4087 76.0352,13.5367 L75.8202,12.5767 L71.9982,14.6557 L70.0172,25.8877 C69.8562,26.8047 69.5922,27.4507 69.2282,27.8237 C68.8632,28.1967 68.2732,28.5817 67.4572,28.9757 C66.6402,29.3707 66.1472,29.5677 65.9762,29.5677 C65.8052,29.5677 65.6972,29.3967 65.6512,29.0557 C65.5872,28.3307 65.3452,27.7927 64.9282,27.4397 C64.5102,27.0877 63.5742,26.6767 62.1212,26.2087 L62.3182,25.6317 C63.9602,25.7597 65.1272,25.8237 65.8202,25.8237 C66.5142,25.8237 66.9572,25.7597 67.1512,25.6317 C67.3432,25.5037 67.4722,25.2577 67.5362,24.8957 L69.0662,16.2237 C67.1572,17.2487 66.0832,17.8297 65.8462,17.9677 C65.6082,18.1067 65.4462,18.1757 65.3612,18.1757 C65.2762,18.1757 65.2122,18.1437 65.1702,18.0807 C65.1282,18.0157 65.0062,17.7657 64.8072,17.3287 C64.6062,16.8907 64.3672,16.3097 64.0902,15.5847 C65.5792,15.2437 67.3772,14.6677 69.4832,13.8557 L70.4022,8.6397 L66.5942,8.6397 C66.0612,8.6397 65.5932,8.6937 65.1912,8.7997 L64.8782,7.4877 C65.3072,7.5947 65.8312,7.6477 66.4492,7.6477 L70.5772,7.6477 L71.2662,3.7447 C71.4842,2.5067 71.6662,1.3547 71.8112,0.2887 C74.1012,0.9707 75.2222,1.4517 75.1732,1.7277 C75.1432,1.8987 74.7942,2.1867 74.1252,2.5917 L73.2342,7.6477 L74.0972,7.6477 L75.4402,6.2087 C75.6762,5.9527 75.8802,5.8237 76.0512,5.8237 C76.2222,5.8237 76.6192,6.2037 77.2432,6.9607 C77.8662,7.7167 78.1632,8.1817 78.1332,8.3517 C78.1002,8.5437 77.8912,8.6397 77.5062,8.6397 L73.0592,8.6397 L72.3252,12.7997 L77.7422,10.7527 L77.9122,11.4237 L76.2502,12.3197 C76.4172,12.3407 76.7132,12.3517 77.1402,12.3517 L82.0362,12.3517 L82.9392,7.2317 L79.5472,7.2317 C79.0562,7.2317 78.6482,7.3067 78.3232,7.4567 L78.0222,6.0807 C78.4302,6.1867 78.9002,6.2397 79.4342,6.2397 L83.1142,6.2397 L83.7632,2.5597 C83.9322,1.5997 84.0612,0.7477 84.1502,0.0007 C84.9872,0.2127 85.7372,0.4377 86.4002,0.6717 C87.0622,0.9067 87.4762,1.0717 87.6402,1.1687 C87.8042,1.2637 87.8722,1.3977 87.8412,1.5677 C87.8122,1.7387 87.4162,2.0477 86.6542,2.4967 L85.9942,6.2397 L89.6742,6.2397 L91.2812,4.3837 C91.4972,4.1277 91.6692,4.0007 91.7972,4.0007 C92.0312,4.0007 92.5322,4.4267 93.2992,5.2797 C94.0662,6.1327 94.4302,6.6677 94.3932,6.8797 C94.3522,7.1147 94.0862,7.2317 93.5952,7.2317 L85.8192,7.2317 L84.9162,12.3517 L87.1242,12.3517 L88.2782,11.0717 C88.4362,10.9017 88.5792,10.8157 88.7072,10.8157 C88.8782,10.8157 89.3932,11.0987 90.2542,11.6647 C91.1142,12.2297 91.5302,12.5917 91.5022,12.7527 C91.4732,12.9127 91.2652,13.0617 90.8792,13.2007 C90.4912,13.3387 90.2082,13.4937 90.0292,13.6647 C89.8492,13.8357 89.6542,14.0907 89.4452,14.4317 C87.3002,17.8877 85.2732,20.4907 83.3642,22.2397 C84.9402,23.7117 87.8622,24.9807 92.1332,26.0477 L92.0202,26.6877 C90.9462,26.7307 90.1492,26.8957 89.6292,27.1837 C89.1092,27.4717 88.5912,27.9887 88.0752,28.7357 C87.9342,28.9277 87.8212,29.0237 87.7362,29.0237 C87.5012,29.0237 86.6502,28.5597 85.1822,27.6317 C83.7142,26.7047 82.3222,25.5457 81.0102,24.1607 Z M45.5692,14.2717 L41.1222,14.2717 C40.5462,14.2717 40.0862,14.3357 39.7442,14.4637 L39.4042,13.1207 C39.8342,13.2267 40.3582,13.2797 40.9762,13.2797 L51.5052,13.2797 L52.8052,11.7117 C53.0492,11.4137 53.2362,11.2637 53.3642,11.2637 C53.5982,11.2637 54.0692,11.6797 54.7762,12.5117 C55.4822,13.3437 55.8192,13.8557 55.7852,14.0477 C55.7582,14.1977 55.5222,14.2717 55.0732,14.2717 L48.6422,14.2717 L47.6712,19.7757 L51.9912,19.7757 L53.3932,18.1757 C53.6092,17.9197 53.8132,17.7927 54.0052,17.7927 C54.1972,17.7927 54.6972,18.1917 55.5052,18.9927 C56.3132,19.7927 56.7022,20.2837 56.6702,20.4637 C56.6382,20.6457 56.3762,20.7357 55.8862,20.7357 L47.5022,20.7357 L46.3842,27.0717 L53.4572,27.0717 L55.0752,25.1517 C55.2662,24.9177 55.4672,24.7997 55.6812,24.7997 C55.8942,24.7997 56.4502,25.2487 57.3482,26.1437 C58.2462,27.0407 58.6772,27.5887 58.6422,27.7927 C58.6062,27.9947 58.3322,28.0957 57.8202,28.0957 L33.9802,28.0957 C33.4042,28.0957 32.9442,28.1607 32.6022,28.2887 L32.0452,26.9127 C32.4742,27.0187 32.9982,27.0717 33.6162,27.0717 L43.3132,27.0717 L44.4302,20.7357 L38.4462,20.7357 C37.9552,20.7357 37.4932,20.8107 37.0622,20.9607 L36.4992,19.6157 C36.9282,19.7227 37.4522,19.7757 38.0712,19.7757 L44.5992,19.7757 L45.5692,14.2717 Z M50.0402,3.0717 C47.6972,6.3147 45.1442,8.9387 42.3812,10.9437 C39.6162,12.9497 36.1802,14.7097 32.0732,16.2237 L31.8982,15.5847 C35.6382,13.7277 38.6862,11.7497 41.0412,9.6477 C43.3952,7.5467 45.8242,4.4167 48.3292,0.2557 C50.9652,1.1517 52.2572,1.7497 52.2052,2.0477 C52.1782,2.1977 51.9762,2.3147 51.5992,2.3997 C51.2212,2.4857 50.9412,2.5597 50.7592,2.6247 C53.3452,7.3177 57.3512,10.3687 62.7772,11.7757 L62.6272,12.4477 C62.3572,12.4057 62.0942,12.3837 61.8392,12.3837 C60.4732,12.3837 59.4442,12.8957 58.7522,13.9197 C58.6402,14.0697 58.4662,14.1437 58.2322,14.1437 C58.0612,14.1437 57.8432,14.0477 57.5792,13.8557 C56.2122,12.8957 55.0692,11.9037 54.1512,10.8797 C53.2332,9.8557 52.4522,8.7197 51.8092,7.4717 C51.1652,6.2237 50.5752,4.7567 50.0402,3.0717 Z M14.4632,0.1277 C16.0322,0.4267 17.2242,0.7737 18.0402,1.1687 C18.8562,1.5627 19.2072,2.0807 19.0942,2.7197 C19.0422,3.0187 18.8942,3.3717 18.6522,3.7757 C18.4102,4.1817 18.0462,4.5227 17.5602,4.7997 C17.0732,5.0777 16.7232,5.2157 16.5102,5.2157 C16.2972,5.2157 16.1672,5.0447 16.1212,4.7047 C16.0452,3.6797 15.8522,2.8957 15.5432,2.3517 C15.2342,1.8077 14.7652,1.2587 14.1382,0.7047 L14.4632,0.1277 Z M15.0522,21.4717 C16.8032,19.7657 18.2362,17.6857 19.3522,15.2317 L12.2162,15.2317 L8.6012,20.1277 C11.0432,20.5547 13.1932,21.0027 15.0522,21.4717 Z M7.9182,6.3997 C7.9102,6.8057 7.8742,7.1897 7.8102,7.5517 C7.6112,8.6827 7.2112,9.5887 6.6112,10.2717 C6.0102,10.9557 5.2942,11.2957 4.4622,11.2957 C3.9932,11.2957 3.6512,11.1787 3.4362,10.9437 C3.2222,10.7097 3.1362,10.4687 3.1792,10.2237 C3.2222,9.9787 3.5042,9.5887 4.0252,9.0557 C5.6092,7.4567 6.5632,5.6107 6.8892,3.5197 L7.6262,3.5197 C7.7712,4.2667 7.8522,4.8957 7.8682,5.4087 L25.1802,5.4087 L26.3342,4.1277 C26.4962,3.9357 26.6512,3.8397 26.8012,3.8397 C26.9502,3.8397 27.1712,3.9467 27.4642,4.1607 C27.7572,4.3737 28.2312,4.8057 28.8842,5.4567 C29.5372,6.1067 29.9112,6.4967 30.0062,6.6247 C30.1012,6.7517 30.1372,6.8797 30.1142,7.0077 C30.0732,7.2437 29.6872,7.3767 28.9562,7.4087 C28.2252,7.4397 27.4892,7.6477 26.7502,8.0317 C26.0102,8.4167 24.6642,9.3657 22.7122,10.8797 L22.2242,10.5597 C23.4012,9.0877 24.3392,7.7017 25.0382,6.3997 L7.9182,6.3997 Z M5.3842,20.7677 C7.3652,18.1237 8.7252,16.2777 9.4642,15.2317 L2.7762,15.2317 C2.2002,15.2317 1.7392,15.3067 1.3932,15.4567 L1.0542,14.1117 C1.4832,14.2187 2.0062,14.2717 2.6262,14.2717 L10.1462,14.2717 C11.7292,11.9467 13.1302,9.6217 14.3522,7.2957 C15.2262,7.6597 15.9542,8.0047 16.5362,8.3357 C17.1182,8.6677 17.4432,8.8797 17.5112,8.9757 C17.5792,9.0717 17.6052,9.1727 17.5862,9.2797 C17.5412,9.5367 17.3352,9.6747 16.9682,9.6957 C16.3422,9.7387 15.7032,10.2457 15.0522,11.2157 C14.4012,12.1867 13.6832,13.2057 12.8982,14.2717 L24.4822,14.2717 L26.3732,12.2557 C26.6072,12.0217 26.7872,11.9037 26.9152,11.9037 C27.0432,11.9037 27.2412,12.0217 27.5092,12.2557 C27.7762,12.4907 28.1302,12.8477 28.5682,13.3287 C29.0062,13.8077 29.2922,14.1497 29.4272,14.3517 C29.5622,14.5547 29.6162,14.7307 29.5902,14.8797 C29.5492,15.1147 29.3362,15.2317 28.9522,15.2317 L22.5522,15.2317 C21.1502,17.9837 19.5152,20.2987 17.6482,22.1757 C22.2502,23.5417 24.4192,24.9707 24.1562,26.4637 C24.0352,27.1467 23.8362,27.7327 23.5572,28.2237 C23.2792,28.7137 23.0272,28.9607 22.8042,28.9607 C22.5802,28.9607 22.3982,28.9007 22.2582,28.7847 C22.1192,28.6667 21.9252,28.4687 21.6752,28.1917 C20.0152,26.3567 18.0412,24.9067 15.7552,23.8397 C13.8772,25.2907 11.7132,26.4367 9.2602,27.2797 C6.8072,28.1227 3.7312,28.8107 0.0322,29.3437 L0.0002,28.7997 C6.0552,27.2427 10.5432,25.2687 13.4602,22.8797 C11.4792,22.1327 8.7872,21.4297 5.3842,20.7677 Z" id="Fill-1" fill="#333333" mask="url(#mask-2)"></path>
                </g>
                <path d="M106.503906,15.4101562 C108.036466,14.464839 109.543938,13.4443414 111.026367,12.3486328 C112.508796,11.2529242 113.86946,10.1679741 115.108398,9.09375 C116.347337,8.01952588 117.310543,7.09570699 117.998047,6.32226562 C118.68555,5.54882426 119.029297,5.00455887 119.029297,4.68945312 C119.029297,4.24544049 118.750003,4.0234375 118.191406,4.0234375 C117.016921,4.0234375 115.713549,4.5104118 114.28125,5.484375 C112.848951,6.4583382 111.516933,7.70441949 110.285156,9.22265625 C109.626299,10.0104206 109.006839,10.8841098 108.426758,11.84375 C107.846677,12.8033902 107.205733,13.9921804 106.503906,15.4101562 Z M106.353516,15.7753906 L105.923828,16.6132812 C101.81313,24.4336329 96.1699578,28.34375 88.9941406,28.34375 C87.4759039,28.34375 86.2799523,28.1038435 85.40625,27.6240234 C84.5325477,27.1442033 84.0957031,26.4889364 84.0957031,25.6582031 C84.0957031,25.3001284 84.1852205,24.9850274 84.3642578,24.7128906 C84.5432952,24.4407538 84.8190086,24.3046875 85.1914062,24.3046875 C85.463543,24.3046875 85.6783846,24.3906241 85.8359375,24.5625 C85.9934904,24.7343759 86.0722656,24.9420561 86.0722656,25.1855469 C86.0722656,25.3287768 86.0042325,25.4755852 85.8681641,25.6259766 C85.7320957,25.7763679 85.5709645,25.8515625 85.3847656,25.8515625 C85.1699208,25.8515625 85.015951,25.833659 84.9228516,25.7978516 C84.8297521,25.7620441 84.7187506,25.6295584 84.5898438,25.4003906 C84.5325518,25.4576826 84.5039062,25.6223945 84.5039062,25.8945312 C84.5039062,26.180991 84.6292305,26.4889306 84.8798828,26.8183594 C85.1305351,27.1477881 85.6210901,27.4342436 86.3515625,27.6777344 C87.0820349,27.9212252 88.0631449,28.0429688 89.2949219,28.0429688 C91.8300908,28.0429688 94.1002504,27.3805405 96.1054688,26.0556641 C98.1106871,24.7307876 99.7255798,23.255542 100.950195,21.6298828 C102.174811,20.0042236 103.274084,18.2819101 104.248047,16.4628906 C102.386058,16.9928412 100.789069,17.2578125 99.4570312,17.2578125 C97.6380117,17.2578125 96.1341205,16.8173872 94.9453125,15.9365234 C93.7565045,15.0556597 93.1621094,13.942064 93.1621094,12.5957031 C93.1621094,11.1347583 93.8137956,9.69531959 95.1171875,8.27734375 C96.4205794,6.85936791 98.2288296,5.69922326 100.541992,4.796875 C102.855155,3.89452674 105.379544,3.44335938 108.115234,3.44335938 L108.115234,3.72265625 C105.250637,3.73697924 102.704764,4.20963076 100.477539,5.140625 C98.2503144,6.07161924 96.5566464,7.21027973 95.3964844,8.55664062 C94.2363223,9.90300152 93.65625,11.1920511 93.65625,12.4238281 C93.65625,13.784512 94.1861926,14.8873656 95.2460938,15.7324219 C96.3059949,16.5774782 97.6809811,17 99.3710938,17 C101.03256,17 102.744132,16.6920604 104.505859,16.0761719 C104.663412,15.889973 104.914061,15.5247423 105.257812,14.9804688 C106.460944,13.1184803 107.678379,11.4677806 108.910156,10.0283203 C110.141933,8.58885999 111.302078,7.41081188 112.390625,6.49414062 C113.479172,5.57746937 114.517573,4.88639556 115.505859,4.42089844 C116.494146,3.95540132 117.374996,3.72265625 118.148438,3.72265625 C118.950525,3.72265625 119.351562,4.03059588 119.351562,4.64648438 C119.351562,5.62044758 118.696296,6.84504471 117.385742,8.3203125 C116.075189,9.79558029 114.417328,11.2206963 112.412109,12.5957031 C110.406891,13.97071 108.38738,15.0305952 106.353516,15.7753906 Z M112.884766,19.7285156 C112.025386,19.7285156 111.069341,20.1510374 110.016602,20.9960938 C108.963862,21.8411501 108.047204,22.8007759 107.266602,23.875 C106.485999,24.9492241 106.095703,25.7083311 106.095703,26.1523438 C106.095703,26.3671886 106.167317,26.5462232 106.310547,26.6894531 C106.453777,26.832683 106.632811,26.9042969 106.847656,26.9042969 C107.434899,26.9042969 108.279942,26.4960978 109.382812,25.6796875 C110.485683,24.8632772 111.481115,23.9394583 112.369141,22.9082031 C113.257166,21.876948 113.701172,21.0677113 113.701172,20.4804688 C113.701172,19.9791642 113.429039,19.7285156 112.884766,19.7285156 Z M118.556641,22.3710938 L117.460938,23.2949219 C115.742179,24.7272207 114.471033,25.7369762 113.647461,26.3242188 C112.823889,26.9114613 112.097008,27.2050781 111.466797,27.2050781 C111.05143,27.2050781 110.84375,26.9687524 110.84375,26.4960938 C110.84375,25.9947892 111.037107,25.2929733 111.423828,24.390625 C109.375641,26.2669365 107.864588,27.2050781 106.890625,27.2050781 C106.460935,27.2050781 106.110027,27.0367855 105.837891,26.7001953 C105.565754,26.3636051 105.429688,25.8730501 105.429688,25.2285156 C105.429688,24.4980432 105.644529,23.7783239 106.074219,23.0693359 C106.503908,22.360348 107.0804,21.7337267 107.803711,21.1894531 C108.527022,20.6451796 109.336259,20.2154964 110.231445,19.9003906 C111.126632,19.5852849 111.996741,19.4277344 112.841797,19.4277344 C113.257164,19.4277344 113.561522,19.5029289 113.754883,19.6533203 C113.948243,19.8037117 114.052083,20.0507795 114.066406,20.3945312 C114.052083,20.4661462 114.041341,20.5341794 114.03418,20.5986328 C114.027018,20.6630863 114.012695,20.7526036 113.991211,20.8671875 C113.969726,20.9817714 113.951823,21.0748694 113.9375,21.1464844 L115.291016,19.5566406 L117.095703,19.4277344 L116.537109,20.1152344 C116.078774,20.6595079 115.706382,21.1070946 115.419922,21.4580078 C115.133462,21.808921 114.889975,22.0989572 114.689453,22.328125 C112.455067,24.74871 111.337891,26.1666646 111.337891,26.5820312 C111.337891,26.7968761 111.43815,26.9042969 111.638672,26.9042969 C111.910809,26.9042969 112.319008,26.7431657 112.863281,26.4208984 C113.407555,26.0986312 114.019853,25.6725287 114.700195,25.1425781 C115.380537,24.6126276 116.157548,23.9860062 117.03125,23.2626953 C117.904952,22.5393844 118.413411,22.1204433 118.556641,22.0058594 L118.556641,22.3710938 Z M118.019531,22.6289062 L118.019531,22.2421875 C118.048177,22.2135415 118.273761,22.0595717 118.696289,21.7802734 C119.118817,21.5009752 119.344401,21.3470054 119.373047,21.3183594 C119.38737,20.8743467 119.512694,20.462567 119.749023,20.0830078 C119.985353,19.7034486 120.225259,19.5136719 120.46875,19.5136719 C120.855471,19.5136719 120.991537,19.792966 120.876953,20.3515625 C122.781911,19.3919223 123.834634,18.8619797 124.035156,18.7617188 L129.191406,12.7675781 C132.944029,8.37042072 135.701163,6.171875 137.462891,6.171875 C137.792319,6.171875 138.071613,6.27213441 138.300781,6.47265625 C138.529949,6.67317809 138.644531,6.93814939 138.644531,7.26757812 C138.644531,8.14128041 138.075201,9.20832703 136.936523,10.46875 C135.797846,11.729173 134.215179,13.0683523 132.188477,14.4863281 C130.161774,15.904304 127.931002,17.2148377 125.496094,18.4179688 L120.876953,23.9609375 C121.43555,24.2473973 121.95117,24.390625 122.423828,24.390625 C123.455083,24.390625 124.278643,24.2008483 124.894531,23.8212891 C125.51042,23.4417299 126.298172,22.8079471 127.257812,21.9199219 L127.257812,22.2851562 C126.341141,23.2018275 125.553389,23.8248681 124.894531,24.1542969 C124.235674,24.4837256 123.426437,24.6484375 122.466797,24.6484375 C121.836585,24.6484375 121.235029,24.5052098 120.662109,24.21875 L110.306641,36.6152344 L108.587891,36.6152344 L112.5625,32.0390625 C113.250003,31.2369752 114.05924,30.2128969 114.990234,28.9667969 C115.921229,27.7206969 116.726885,26.5927785 117.407227,25.5830078 C118.087569,24.5732371 118.728513,23.5455781 119.330078,22.5 L119.287109,21.7910156 C119.072265,21.9199225 118.861004,22.0524082 118.65332,22.1884766 C118.445637,22.324545 118.234376,22.4713534 118.019531,22.6289062 Z M123.433594,19.3847656 C122.817705,19.6712254 121.951177,20.1223928 120.833984,20.7382812 C120.819661,20.8671881 120.769532,21.0104159 120.683594,21.1679688 C120.597656,21.3255216 120.508138,21.4687494 120.415039,21.5976562 C120.32194,21.7265631 120.210938,21.8841137 120.082031,22.0703125 C119.852863,22.3424493 119.738281,22.5429681 119.738281,22.671875 C119.78125,22.8723968 119.910155,23.0800771 120.125,23.2949219 C120.26823,23.0944 120.819657,22.4427138 121.779297,21.3398438 C122.738937,20.2369737 123.290364,19.5852875 123.433594,19.3847656 Z M128.095703,15.28125 L126.011719,17.7949219 C127.630216,16.9785115 129.166334,16.1012417 130.620117,15.1630859 C132.0739,14.2249302 133.388015,13.2617237 134.5625,12.2734375 C135.736985,11.2851513 136.660804,10.3577517 137.333984,9.49121094 C138.007165,8.62467015 138.34375,7.89778939 138.34375,7.31054688 C138.34375,7.05273309 138.264975,6.85221426 138.107422,6.70898438 C137.949869,6.56575449 137.735027,6.49414062 137.462891,6.49414062 C136.517573,6.49414062 135.289396,7.26757039 133.77832,8.81445312 C132.267245,10.3613359 130.373058,12.5169133 128.095703,15.28125 Z M119.867188,23.5957031 L119.458984,22.8867188 C119.416015,22.9583337 119.161786,23.35221 118.696289,24.0683594 C118.230792,24.7845088 117.844077,25.3824846 117.536133,25.8623047 C117.228189,26.3421248 116.888023,26.8756481 116.515625,27.4628906 L119.867188,23.5957031 Z M128.353516,22.8867188 C129.542324,22.8867188 130.544918,22.7363296 131.361328,22.4355469 C132.177738,22.1347641 132.797198,21.7766948 133.219727,21.3613281 C133.642255,20.9459615 133.853516,20.6093763 133.853516,20.3515625 C133.853516,19.9361958 133.610028,19.7285156 133.123047,19.7285156 C132.478512,19.7285156 131.726567,20.0113904 130.867188,20.5771484 C130.007808,21.1429065 129.169926,21.9127555 128.353516,22.8867188 Z M135.980469,21.9199219 L135.980469,22.2851562 C134.376294,23.8893309 132.90821,25.1103474 131.576172,25.9482422 C130.244134,26.786137 128.897793,27.2050781 127.537109,27.2050781 C126.333978,27.2050781 125.732422,26.517585 125.732422,25.1425781 C125.732422,23.9967391 126.165686,22.9905642 127.032227,22.1240234 C127.898767,21.2574826 128.915684,20.5914737 130.083008,20.1259766 C131.250331,19.6604794 132.199215,19.4277344 132.929688,19.4277344 C133.345054,19.4277344 133.670897,19.5244131 133.907227,19.7177734 C134.143556,19.9111338 134.261719,20.165363 134.261719,20.4804688 C134.261719,20.9674504 133.996747,21.415037 133.466797,21.8232422 C132.936846,22.2314474 132.199223,22.5680325 131.253906,22.8330078 C130.308589,23.0979831 129.198574,23.2519529 127.923828,23.2949219 C126.835281,24.5266989 126.291016,25.4648405 126.291016,26.109375 C126.291016,26.3385428 126.409179,26.5283196 126.645508,26.6787109 C126.881837,26.8291023 127.179035,26.9042969 127.537109,26.9042969 C129.84311,26.9042969 132.657535,25.2428552 135.980469,21.9199219 Z M142.8125,16.4199219 L146.378906,12.3808594 L148.226562,12.3808594 L144.660156,16.4199219 L147.388672,16.4199219 L147.152344,16.7851562 L144.380859,16.7851562 L139.160156,22.7148438 C138.587237,23.3450552 137.953454,24.1041622 137.258789,24.9921875 C136.564124,25.8802128 136.216797,26.3671871 136.216797,26.453125 C136.216797,26.7539078 136.374347,26.9042969 136.689453,26.9042969 C137.863938,26.9042969 140.384746,25.2428552 144.251953,21.9199219 L144.251953,22.2851562 L143.113281,23.2949219 C140.148423,25.9017057 137.992845,27.2050781 136.646484,27.2050781 C136.317056,27.2050781 136.059246,27.1119801 135.873047,26.9257812 C135.686848,26.7395824 135.59375,26.5247408 135.59375,26.28125 C135.59375,25.7083305 135.998368,24.755866 136.807617,23.4238281 C137.616866,22.0917902 139.203113,20.2441524 141.566406,17.8808594 C140.105461,18.8548226 138.071628,20.4947801 135.464844,22.8007812 L135.464844,22.4570312 C136.338546,21.6262979 137.419915,20.6845756 138.708984,19.6318359 C139.998053,18.5790963 141.258457,17.6302126 142.490234,16.7851562 L140.921875,16.7851562 L141.222656,16.4199219 L142.8125,16.4199219 Z M147.023438,29.0527344 C144.01561,30.5566481 141.469737,32.0748621 139.385742,33.6074219 C137.301747,35.1399816 136.259766,36.4218698 136.259766,37.453125 C136.259766,37.7109388 136.349283,37.9221997 136.52832,38.0869141 C136.707358,38.2516284 136.92578,38.3339844 137.183594,38.3339844 C137.684898,38.3339844 138.250648,38.1585304 138.880859,37.8076172 C139.511071,37.456704 140.216467,36.9088579 140.99707,36.1640625 C141.777673,35.4192671 142.69075,34.4309957 143.736328,33.1992188 C144.294925,32.5117153 144.900062,31.7705118 145.551758,30.9755859 C146.203454,30.1806601 146.694009,29.539716 147.023438,29.0527344 Z M143.736328,22.8007812 L143.736328,22.4570312 C144.882167,21.4687451 145.82389,20.7167995 146.561523,20.2011719 C147.299157,19.6855443 147.940101,19.4277344 148.484375,19.4277344 C148.928388,19.4277344 149.150391,19.7213512 149.150391,20.3085938 C149.150391,21.5546937 148.298186,22.92968 146.59375,24.4335938 C145.361973,25.5221409 144.746094,26.2382795 144.746094,26.5820312 C144.746094,26.7968761 144.874999,26.9042969 145.132812,26.9042969 C145.662763,26.9042969 146.583001,26.4638716 147.893555,25.5830078 C149.204108,24.702144 150.564772,23.6780657 151.975586,22.5107422 C153.3864,21.3434186 154.478512,20.3730507 155.251953,19.5996094 L156.884766,19.5996094 L149.988281,27.4628906 C151.592456,26.8183562 152.971023,26.1129596 154.124023,25.3466797 C155.277024,24.5803998 156.727205,23.4381586 158.474609,21.9199219 L158.474609,22.2851562 C156.841789,23.78907 155.409511,24.9420533 154.177734,25.7441406 C152.945957,26.546228 151.384775,27.2981736 149.494141,28 L149.107422,28.4296875 C146.113917,31.7812668 143.693369,34.323559 141.845703,36.0566406 C139.998038,37.7897222 138.472662,38.65625 137.269531,38.65625 C136.381506,38.65625 135.9375,38.2408896 135.9375,37.4101562 C135.9375,36.8085907 136.342118,36.0530644 137.151367,35.1435547 C137.960616,34.2340449 139.217439,33.2242894 140.921875,32.1142578 C142.626311,31.0042262 144.796211,29.8405009 147.431641,28.6230469 C148.835293,26.8183504 150.654286,24.6914185 152.888672,22.2421875 C151.370435,23.4166725 150.367841,24.1901023 149.880859,24.5625 C149.393878,24.9348977 148.813805,25.3538388 148.140625,25.8193359 C147.467445,26.2848331 146.869469,26.6321603 146.34668,26.8613281 C145.823891,27.0904959 145.361981,27.2050781 144.960938,27.2050781 C144.717447,27.2050781 144.516928,27.1263029 144.359375,26.96875 C144.201822,26.8111971 144.123047,26.5963555 144.123047,26.3242188 C144.123047,25.8515601 144.216145,25.4003928 144.402344,24.9707031 C144.588543,24.5410135 144.88574,24.1077496 145.293945,23.6708984 C145.70215,23.2340473 146.249997,22.7578151 146.9375,22.2421875 C148.169277,21.3255162 148.785156,20.616539 148.785156,20.1152344 C148.785156,19.8574206 148.641929,19.7285156 148.355469,19.7285156 C147.868487,19.7285156 147.238285,20.0221325 146.464844,20.609375 C145.691402,21.1966175 144.781906,21.927079 143.736328,22.8007812 Z M172.181641,16.4199219 L175.748047,12.3808594 L177.595703,12.3808594 L174.029297,16.4199219 L176.757812,16.4199219 L176.521484,16.7851562 L173.75,16.7851562 L168.529297,22.7148438 C167.956377,23.3450552 167.322595,24.1041622 166.62793,24.9921875 C165.933265,25.8802128 165.585938,26.3671871 165.585938,26.453125 C165.585938,26.7539078 165.743488,26.9042969 166.058594,26.9042969 C167.233079,26.9042969 169.753887,25.2428552 173.621094,21.9199219 L173.621094,22.2851562 L172.482422,23.2949219 C169.517563,25.9017057 167.361986,27.2050781 166.015625,27.2050781 C165.686196,27.2050781 165.428386,27.1119801 165.242188,26.9257812 C165.055989,26.7395824 164.962891,26.5247408 164.962891,26.28125 C164.962891,25.7083305 165.367509,24.755866 166.176758,23.4238281 C166.986007,22.0917902 168.572254,20.2441524 170.935547,17.8808594 C169.474602,18.8548226 167.440768,20.4947801 164.833984,22.8007812 L164.833984,22.4570312 C165.707687,21.6262979 166.789056,20.6845756 168.078125,19.6318359 C169.367194,18.5790963 170.627598,17.6302126 171.859375,16.7851562 L170.291016,16.7851562 L170.591797,16.4199219 L172.181641,16.4199219 Z M174.716797,22.8867188 C175.905605,22.8867188 176.908199,22.7363296 177.724609,22.4355469 C178.54102,22.1347641 179.16048,21.7766948 179.583008,21.3613281 C180.005536,20.9459615 180.216797,20.6093763 180.216797,20.3515625 C180.216797,19.9361958 179.97331,19.7285156 179.486328,19.7285156 C178.841794,19.7285156 178.089848,20.0113904 177.230469,20.5771484 C176.371089,21.1429065 175.533207,21.9127555 174.716797,22.8867188 Z M182.34375,21.9199219 L182.34375,22.2851562 C180.739575,23.8893309 179.271491,25.1103474 177.939453,25.9482422 C176.607415,26.786137 175.261075,27.2050781 173.900391,27.2050781 C172.69726,27.2050781 172.095703,26.517585 172.095703,25.1425781 C172.095703,23.9967391 172.528967,22.9905642 173.395508,22.1240234 C174.262049,21.2574826 175.278966,20.5914737 176.446289,20.1259766 C177.613613,19.6604794 178.562496,19.4277344 179.292969,19.4277344 C179.708335,19.4277344 180.034179,19.5244131 180.270508,19.7177734 C180.506837,19.9111338 180.625,20.165363 180.625,20.4804688 C180.625,20.9674504 180.360029,21.415037 179.830078,21.8232422 C179.300128,22.2314474 178.562505,22.5680325 177.617188,22.8330078 C176.67187,23.0979831 175.561855,23.2519529 174.287109,23.2949219 C173.198562,24.5266989 172.654297,25.4648405 172.654297,26.109375 C172.654297,26.3385428 172.77246,26.5283196 173.008789,26.6787109 C173.245118,26.8291023 173.542316,26.9042969 173.900391,26.9042969 C176.206392,26.9042969 179.020817,25.2428552 182.34375,21.9199219 Z M191.066406,21.9199219 L191.066406,22.2851562 C187.671858,25.5651206 184.84311,27.2050781 182.580078,27.2050781 C181.978513,27.2050781 181.541668,27.0511083 181.269531,26.7431641 C180.997394,26.4352198 180.861328,25.8873737 180.861328,25.0996094 C180.861328,24.4121059 181.07975,23.7174514 181.516602,23.015625 C181.953453,22.3137986 182.529944,21.6943386 183.246094,21.1572266 C183.962243,20.6201145 184.749996,20.1975927 185.609375,19.8896484 C186.468754,19.5817042 187.306637,19.4277344 188.123047,19.4277344 C188.495445,19.4277344 188.799804,19.5208324 189.036133,19.7070312 C189.272462,19.8932301 189.390625,20.15104 189.390625,20.4804688 C189.390625,20.8528664 189.243817,21.1858709 188.950195,21.4794922 C188.656574,21.7731134 188.330731,21.9199219 187.972656,21.9199219 C187.542967,21.9199219 187.328125,21.7337258 187.328125,21.3613281 C187.328125,20.8027316 187.578774,20.5234375 188.080078,20.5234375 C188.366538,20.5234375 188.538411,20.6523425 188.595703,20.9101562 C188.652995,20.9960942 188.710286,21.0390625 188.767578,21.0390625 C188.839193,21.0390625 188.910807,20.9817714 188.982422,20.8671875 C189.054037,20.7526036 189.089844,20.6236986 189.089844,20.4804688 C189.089844,20.2513009 189.011068,20.0686856 188.853516,19.9326172 C188.695963,19.7965488 188.481121,19.7285156 188.208984,19.7285156 C187.449866,19.7285156 186.529628,20.1367147 185.448242,20.953125 C184.366857,21.7695353 183.432296,22.7005156 182.644531,23.7460938 C181.856767,24.7916719 181.462891,25.60807 181.462891,26.1953125 C181.462891,26.6679711 181.813799,26.9042969 182.515625,26.9042969 C183.819017,26.9042969 185.086582,26.5032592 186.318359,25.7011719 C187.550136,24.8990845 189.132803,23.6386805 191.066406,21.9199219 Z M205.804688,8.234375 L207.566406,8.234375 L193.279297,24.4335938 C194.639981,23.2877547 196.161775,22.1669977 197.844727,21.0712891 C199.527678,19.9755805 200.655596,19.4277344 201.228516,19.4277344 C201.87305,19.4277344 202.195312,19.7786423 202.195312,20.4804688 C202.195312,21.2968791 201.930341,22.0201791 201.400391,22.6503906 C200.87044,23.2806021 200.154301,23.9322883 199.251953,24.6054688 C198.13476,25.4218791 197.576172,26.0377583 197.576172,26.453125 C197.576172,26.7539078 197.755207,26.9042969 198.113281,26.9042969 C198.800785,26.9042969 199.724604,26.4960978 200.884766,25.6796875 C202.044928,24.8632772 203.513012,23.63868 205.289062,22.0058594 L205.289062,22.3710938 L204.666016,22.9296875 C203.233717,24.2474024 201.948248,25.2893842 200.80957,26.0556641 C199.670893,26.8219439 198.772139,27.2050781 198.113281,27.2050781 C197.468747,27.2050781 197.146484,26.8971385 197.146484,26.28125 C197.146484,25.106765 197.776686,23.9752659 199.037109,22.8867188 C199.99675,22.0416624 200.655597,21.4329446 201.013672,21.0605469 C201.371747,20.6881492 201.550781,20.3587254 201.550781,20.0722656 C201.550781,20.0006507 201.511394,19.9254561 201.432617,19.8466797 C201.353841,19.7679033 201.257162,19.7285156 201.142578,19.7285156 C200.583982,19.7285156 199.015638,20.6523345 196.4375,22.5 C194.317698,24.0325597 192.47006,25.6009034 190.894531,27.2050781 L189.046875,27.2050781 L200.455078,14.2285156 L190.550781,22.8007812 L190.550781,22.4570312 L196.695312,17.0429688 C198.428394,15.539055 199.753251,14.3717489 200.669922,13.5410156 C201.586593,12.7102823 202.402991,11.9225298 203.119141,11.1777344 C203.83529,10.432939 204.730463,9.451829 205.804688,8.234375 Z M204.730469,22.8007812 L204.730469,22.4570312 C206.907563,20.4374899 208.432938,19.4277344 209.306641,19.4277344 C209.793622,19.4277344 210.037109,19.735674 210.037109,20.3515625 C210.037109,20.8385441 209.88672,21.318357 209.585938,21.7910156 C209.285155,22.2636742 208.676437,23.0872337 207.759766,24.2617188 C209.535816,22.786451 211.075514,21.6119835 212.378906,20.7382812 C213.682298,19.864579 214.799475,19.4277344 215.730469,19.4277344 C216.21745,19.4277344 216.460938,19.7643196 216.460938,20.4375 C216.460938,21.0963575 216.231773,21.7516243 215.773438,22.4033203 C215.315102,23.0550163 214.563156,23.7604129 213.517578,24.5195312 C212.400385,25.3645876 211.841797,25.966144 211.841797,26.3242188 C211.841797,26.4674486 211.90983,26.5999343 212.045898,26.7216797 C212.181967,26.8434251 212.321614,26.9042969 212.464844,26.9042969 C212.966148,26.9042969 213.628577,26.6285835 214.452148,26.0771484 C215.27572,25.5257134 216.174474,24.8238975 217.148438,23.9716797 C218.122401,23.1194619 218.910153,22.4355495 219.511719,21.9199219 L219.511719,22.2851562 C218.638016,23.1015666 217.785811,23.8642543 216.955078,24.5732422 C216.124345,25.2822301 215.297205,25.8981094 214.473633,26.4208984 C213.650061,26.9436875 212.966149,27.2050781 212.421875,27.2050781 C212.078123,27.2050781 211.831055,27.0904959 211.680664,26.8613281 C211.530273,26.6321603 211.455078,26.3958346 211.455078,26.1523438 C211.455078,25.6080702 211.66992,24.9957716 212.099609,24.3154297 C212.529299,23.6350877 213.123694,22.9726595 213.882812,22.328125 C214.756515,21.5546836 215.361652,20.9352237 215.698242,20.4697266 C216.034832,20.0042294 215.938154,19.7714844 215.408203,19.7714844 C214.735023,19.7714844 213.718106,20.2262324 212.357422,21.1357422 C210.996738,22.0452519 209.722011,23.0048778 208.533203,24.0146484 C207.344395,25.0244191 206.220057,26.0162712 205.160156,26.9902344 L203.484375,26.9902344 L206.341797,23.7675781 C208.432953,21.432931 209.478516,20.1582042 209.478516,19.9433594 C209.478516,19.8001295 209.392579,19.7285156 209.220703,19.7285156 C208.590492,19.7285156 207.093762,20.7525939 204.730469,22.8007812 Z M225.248047,19.7285156 C224.44596,19.7285156 223.525721,20.1832637 222.487305,21.0927734 C221.448888,22.0022832 220.517908,23.0012966 219.694336,24.0898438 C218.870764,25.1783909 218.458984,25.8515612 218.458984,26.109375 C218.458984,26.3385428 218.562824,26.5283196 218.770508,26.6787109 C218.978191,26.8291023 219.239582,26.9042969 219.554688,26.9042969 C220.313806,26.9042969 221.226883,26.5283241 222.293945,25.7763672 C223.361008,25.0244103 224.30273,24.1363983 225.119141,23.1123047 C225.935551,22.088211 226.34375,21.282555 226.34375,20.6953125 C226.34375,20.4088527 226.23991,20.1761077 226.032227,19.9970703 C225.824543,19.818033 225.563153,19.7285156 225.248047,19.7285156 Z M228.664062,21.9199219 L228.664062,22.2851562 C227.861975,23.2447965 226.966802,23.7246094 225.978516,23.7246094 L225.677734,23.6816406 C225.577473,23.6673176 225.462891,23.6529949 225.333984,23.6386719 C223.042306,26.0162879 221.058602,27.2050781 219.382812,27.2050781 C219.067707,27.2050781 218.777671,27.1227222 218.512695,26.9580078 C218.24772,26.7932934 218.047201,26.5748712 217.911133,26.3027344 C217.775064,26.0305976 217.707031,25.7154966 217.707031,25.3574219 C217.707031,24.3977817 218.129553,23.45964 218.974609,22.5429688 C219.819666,21.6262975 220.840163,20.8779326 222.036133,20.2978516 C223.232102,19.7177705 224.281245,19.4277344 225.183594,19.4277344 C226.157557,19.4277344 226.644531,19.8789017 226.644531,20.78125 C226.644531,21.5117224 226.293623,22.3639274 225.591797,23.3378906 C225.735027,23.3951826 225.892577,23.4238281 226.064453,23.4238281 C226.966801,23.4238281 227.833329,22.9225311 228.664062,21.9199219 Z M241.640625,9.39453125 L242.714844,8.234375 L244.369141,8.234375 L230.833984,23.3808594 C229.215487,25.1569099 228.40625,26.195311 228.40625,26.4960938 C228.40625,26.7682305 228.549478,26.9042969 228.835938,26.9042969 C229.337242,26.9042969 229.910153,26.693036 230.554688,26.2705078 C231.199222,25.8479797 232.06933,25.1425831 233.165039,24.1542969 C234.260748,23.1660107 235.066404,22.449872 235.582031,22.0058594 L235.582031,22.3710938 C233.634105,24.1614673 232.208989,25.41471 231.306641,26.1308594 C230.404292,26.8470088 229.580733,27.2050781 228.835938,27.2050781 C228.578124,27.2050781 228.359701,27.1083994 228.180664,26.9150391 C228.001627,26.7216787 227.912109,26.496095 227.912109,26.2382812 C227.912109,25.5078088 228.270179,24.6556038 228.986328,23.6816406 C229.702478,22.7076774 230.669265,21.5690169 231.886719,20.265625 C231.972657,20.1510411 232.230467,19.8466822 232.660156,19.3525391 C233.089846,18.858396 233.505206,18.367841 233.90625,17.8808594 C232.917964,18.6256548 231.013035,20.2512896 228.191406,22.7578125 L228.191406,22.4140625 L234.292969,17.1289062 C235.037764,16.4986948 237.486958,13.9205955 241.640625,9.39453125 Z M241.253906,19.7285156 C240.451819,19.7285156 239.531581,20.1832637 238.493164,21.0927734 C237.454747,22.0022832 236.523767,23.0012966 235.700195,24.0898438 C234.876623,25.1783909 234.464844,25.8515612 234.464844,26.109375 C234.464844,26.3385428 234.568684,26.5283196 234.776367,26.6787109 C234.984051,26.8291023 235.245441,26.9042969 235.560547,26.9042969 C236.319665,26.9042969 237.232742,26.5283241 238.299805,25.7763672 C239.366867,25.0244103 240.30859,24.1363983 241.125,23.1123047 C241.94141,22.088211 242.349609,21.282555 242.349609,20.6953125 C242.349609,20.4088527 242.245769,20.1761077 242.038086,19.9970703 C241.830403,19.818033 241.569012,19.7285156 241.253906,19.7285156 Z M244.669922,21.9199219 L244.669922,22.2851562 C243.867835,23.2447965 242.972661,23.7246094 241.984375,23.7246094 L241.683594,23.6816406 C241.583333,23.6673176 241.468751,23.6529949 241.339844,23.6386719 C239.048166,26.0162879 237.064462,27.2050781 235.388672,27.2050781 C235.073566,27.2050781 234.78353,27.1227222 234.518555,26.9580078 C234.253579,26.7932934 234.053061,26.5748712 233.916992,26.3027344 C233.780924,26.0305976 233.712891,25.7154966 233.712891,25.3574219 C233.712891,24.3977817 234.135412,23.45964 234.980469,22.5429688 C235.825525,21.6262975 236.846023,20.8779326 238.041992,20.2978516 C239.237962,19.7177705 240.287105,19.4277344 241.189453,19.4277344 C242.163416,19.4277344 242.650391,19.8789017 242.650391,20.78125 C242.650391,21.5117224 242.299483,22.3639274 241.597656,23.3378906 C241.740886,23.3951826 241.898437,23.4238281 242.070312,23.4238281 C242.972661,23.4238281 243.839189,22.9225311 244.669922,21.9199219 Z M251.330078,20.5664062 C251.330078,20.3372384 251.233399,20.1546231 251.040039,20.0185547 C250.846679,19.8824863 250.613934,19.8144531 250.341797,19.8144531 C249.53971,19.8144531 248.61231,20.2226522 247.55957,21.0390625 C246.506831,21.8554728 245.593754,22.7936145 244.820312,23.8535156 C244.046871,24.9134168 243.660156,25.6940079 243.660156,26.1953125 C243.660156,26.3671884 243.749674,26.5211582 243.928711,26.6572266 C244.107748,26.793295 244.297525,26.8613281 244.498047,26.8613281 C245.070966,26.8613281 245.908849,26.4531291 247.011719,25.6367188 C248.114589,24.8203084 249.110022,23.9000702 249.998047,22.8759766 C250.886072,21.8518829 251.330078,21.0820338 251.330078,20.5664062 Z M243.917969,30.234375 C241.253893,31.3802141 239.291673,32.2861295 238.03125,32.9521484 C236.770827,33.6181674 235.718103,34.4023392 234.873047,35.3046875 C234.156897,36.1067748 233.798828,36.794268 233.798828,37.3671875 C233.798828,37.6679703 233.906249,37.904296 234.121094,38.0761719 C234.335939,38.2480477 234.615233,38.3339844 234.958984,38.3339844 C235.646488,38.3339844 236.416337,38.0403675 237.268555,37.453125 C238.120772,36.8658825 239.14127,35.9277408 240.330078,34.6386719 C242.106129,32.5618386 243.30208,31.0937543 243.917969,30.234375 Z M244.326172,29.7617188 L247.527344,25.7226562 C247.283853,25.8658861 247.083334,25.9947911 246.925781,26.109375 C245.894526,26.8112014 245.085289,27.1621094 244.498047,27.1621094 C243.495438,27.1621094 242.994141,26.5032618 242.994141,25.1855469 C242.994141,24.3834595 243.241208,23.6315139 243.735352,22.9296875 C244.229495,22.2278611 244.863277,21.6227239 245.636719,21.1142578 C246.41016,20.6057917 247.212235,20.2119155 248.042969,19.9326172 C248.873702,19.6533189 249.63997,19.5136719 250.341797,19.5136719 C251.201176,19.5136719 251.630859,19.8216115 251.630859,20.4375 C251.630859,20.6093759 251.573568,20.8743472 251.458984,21.2324219 L252.941406,19.5136719 L254.746094,19.5136719 L246.753906,28.6230469 C248.100267,27.9641894 249.493157,27.1084037 250.932617,26.0556641 C252.372078,25.0029244 254.101552,23.6243575 256.121094,21.9199219 L256.121094,22.2851562 C254.731764,23.4882873 253.542974,24.4801393 252.554688,25.2607422 C251.566401,26.041345 250.549484,26.7610644 249.503906,27.4199219 C248.458328,28.0787793 247.376959,28.666013 246.259766,29.1816406 C244.426423,31.186859 242.890306,32.8089131 241.651367,34.0478516 C240.412429,35.28679 239.381189,36.2356738 238.557617,36.8945312 C237.734045,37.5533887 237.042972,38.0117175 236.484375,38.2695312 C235.925778,38.527345 235.402997,38.65625 234.916016,38.65625 C234.486326,38.65625 234.142579,38.5345064 233.884766,38.2910156 C233.626952,38.0475248 233.498047,37.7395852 233.498047,37.3671875 C233.498047,36.765622 233.798825,36.1067744 234.400391,35.390625 C235.001956,34.6744756 235.861323,33.9619176 236.978516,33.2529297 C238.095709,32.5439418 239.399081,31.8815135 240.888672,31.265625 L244.025391,29.9335938 L244.326172,29.7617188 Z M258.871094,29.0527344 C255.863266,30.5566481 253.317393,32.0748621 251.233398,33.6074219 C249.149404,35.1399816 248.107422,36.4218698 248.107422,37.453125 C248.107422,37.7109388 248.196939,37.9221997 248.375977,38.0869141 C248.555014,38.2516284 248.773436,38.3339844 249.03125,38.3339844 C249.532555,38.3339844 250.098304,38.1585304 250.728516,37.8076172 C251.358727,37.456704 252.064124,36.9088579 252.844727,36.1640625 C253.625329,35.4192671 254.538406,34.4309957 255.583984,33.1992188 C256.142581,32.5117153 256.747718,31.7705118 257.399414,30.9755859 C258.05111,30.1806601 258.541665,29.539716 258.871094,29.0527344 Z M255.583984,22.8007812 L255.583984,22.4570312 C256.729823,21.4687451 257.671546,20.7167995 258.40918,20.2011719 C259.146814,19.6855443 259.787758,19.4277344 260.332031,19.4277344 C260.776044,19.4277344 260.998047,19.7213512 260.998047,20.3085938 C260.998047,21.5546937 260.145842,22.92968 258.441406,24.4335938 C257.209629,25.5221409 256.59375,26.2382795 256.59375,26.5820312 C256.59375,26.7968761 256.722655,26.9042969 256.980469,26.9042969 C257.510419,26.9042969 258.430658,26.4638716 259.741211,25.5830078 C261.051764,24.702144 262.412428,23.6780657 263.823242,22.5107422 C265.234057,21.3434186 266.326168,20.3730507 267.099609,19.5996094 L268.732422,19.5996094 L261.835938,27.4628906 C263.440112,26.8183562 264.818679,26.1129596 265.97168,25.3466797 C267.12468,24.5803998 268.574861,23.4381586 270.322266,21.9199219 L270.322266,22.2851562 C268.689445,23.78907 267.257168,24.9420533 266.025391,25.7441406 C264.793614,26.546228 263.232431,27.2981736 261.341797,28 L260.955078,28.4296875 C257.961574,31.7812668 255.541025,34.323559 253.693359,36.0566406 C251.845694,37.7897222 250.320319,38.65625 249.117188,38.65625 C248.229162,38.65625 247.785156,38.2408896 247.785156,37.4101562 C247.785156,36.8085907 248.189775,36.0530644 248.999023,35.1435547 C249.808272,34.2340449 251.065096,33.2242894 252.769531,32.1142578 C254.473967,31.0042262 256.643867,29.8405009 259.279297,28.6230469 C260.68295,26.8183504 262.501942,24.6914185 264.736328,22.2421875 C263.218091,23.4166725 262.215497,24.1901023 261.728516,24.5625 C261.241534,24.9348977 260.661462,25.3538388 259.988281,25.8193359 C259.315101,26.2848331 258.717125,26.6321603 258.194336,26.8613281 C257.671547,27.0904959 257.209637,27.2050781 256.808594,27.2050781 C256.565103,27.2050781 256.364584,27.1263029 256.207031,26.96875 C256.049478,26.8111971 255.970703,26.5963555 255.970703,26.3242188 C255.970703,25.8515601 256.063801,25.4003928 256.25,24.9707031 C256.436199,24.5410135 256.733396,24.1077496 257.141602,23.6708984 C257.549807,23.2340473 258.097653,22.7578151 258.785156,22.2421875 C260.016933,21.3255162 260.632812,20.616539 260.632812,20.1152344 C260.632812,19.8574206 260.489585,19.7285156 260.203125,19.7285156 C259.716143,19.7285156 259.085941,20.0221325 258.3125,20.609375 C257.539059,21.1966175 256.629563,21.927079 255.583984,22.8007812 Z" id="Safety-technology" fill="#999999"></path>
            </g>
        </g>
    </g>
</svg>