<?xml version="1.0" encoding="UTF-8"?>
<svg width="312px" height="78px" viewBox="0 0 312 78" version="1.1" xmlns="http://www.w3.org/2000/svg" xmlns:xlink="http://www.w3.org/1999/xlink">
    <!-- Generator: Sketch 50.2 (55047) - http://www.bohemiancoding.com/sketch -->
    <title>02</title>
    <desc>Created with Sketch.</desc>
    <defs>
        <polygon id="path-1" points="0 0.47805 32.0357778 0.47805 32.0357778 62 0 62"></polygon>
        <polygon id="path-3" points="0.2471 0.389 35.785 0.389 35.785 60.5938 0.2471 60.5938"></polygon>
        <polygon id="path-5" points="0 0 64.06 0 64.06 30.56 0 30.56"></polygon>
    </defs>
    <g id="Page-1" stroke="none" stroke-width="1" fill="none" fill-rule="evenodd">
        <g id="Artboard-2" transform="translate(-209.000000, -263.000000)">
            <g id="02" transform="translate(339.000000, 267.000000)">
                <g transform="translate(107.000000, 11.000000)">
                    <g id="Group-3-Copy">
                        <mask id="mask-2" fill="white">
                            <use xlink:href="#path-1"></use>
                        </mask>
                        <g id="Clip-2"></g>
                        <path d="M5.9643,51.2783 C6.5263,55.3813 7.5183,57.7263 8.9433,58.3083 C10.3603,58.8963 11.8273,58.8963 13.3373,58.3083 C14.8463,57.7263 16.6663,55.3813 18.7963,51.2783 C20.9243,47.1793 22.8173,40.4393 24.4703,31.0623 C26.1223,21.6913 26.6593,14.6603 26.0803,9.9683 C25.5003,5.2833 23.7433,2.9373 20.8163,2.9373 C17.8823,2.9373 15.3593,5.2833 13.2483,9.9683 C11.1303,14.6603 9.2473,21.6913 7.5953,31.0623 C5.9423,40.4393 5.3953,47.1793 5.9643,51.2783 M30.5983,9.2653 C32.3803,14.4243 32.5053,21.6913 30.9743,31.0623 C29.4363,40.4393 26.7683,47.9373 22.9633,53.5623 C19.1593,59.1883 14.9723,62.0003 10.4013,62.0003 C5.8313,62.0003 2.7513,59.1883 1.1663,53.5623 C-0.4237,47.9373 -0.3867,40.4393 1.2673,31.0623 C2.9193,21.6913 5.4853,14.4243 8.9773,9.2653 C12.4623,4.1133 15.4193,1.3003 17.8483,0.8283 C20.2703,0.3613 22.5553,0.3613 24.7033,0.8283 C26.8443,1.3003 28.8103,4.1133 30.5983,9.2653" id="Fill-1" fill="#0B74B9" mask="url(#mask-2)"></path>
                    </g>
                    <g id="Group-6-Copy" transform="translate(38.000000, 0.000000)">
                        <mask id="mask-4" fill="white">
                            <use xlink:href="#path-3"></use>
                        </mask>
                        <g id="Clip-5"></g>
                        <path d="M8.9731,54.9688 L22.6841,54.9688 C25.1061,54.5028 27.5051,52.8608 29.8801,50.0468 L31.9901,50.0468 L26.6141,60.5938 L0.2471,60.5938 L0.6191,58.4858 C12.8591,44.8948 20.4071,35.9848 23.2601,31.7668 C26.1131,27.5468 27.9011,23.3888 28.6241,19.2848 C29.3471,15.1878 29.3481,11.8478 28.6341,9.2658 C27.9121,6.6898 26.0301,5.3988 22.9871,5.3988 C19.9381,5.3988 17.5071,6.5738 15.6881,8.9148 C13.8681,11.2598 12.4531,13.9568 11.4501,16.9998 L9.3401,16.9998 C11.2001,10.4418 13.2401,6.1618 15.4701,4.1688 C17.6941,2.1798 19.9501,1.0048 22.2421,0.6528 C24.5291,0.3008 26.6991,0.3008 28.7461,0.6528 C30.7931,1.0048 32.6241,2.5868 34.2371,5.3988 C35.8511,8.2108 36.2021,12.1988 35.2941,17.3518 C34.3841,22.5098 31.7911,27.8988 27.5201,33.5238 C23.2441,39.1488 17.0601,46.3008 8.9731,54.9688" id="Fill-4" fill="#0B74B9" mask="url(#mask-4)"></path>
                    </g>
                </g>
                <g id="续航" transform="translate(33.000000, 42.000000)">
                    <mask id="mask-6" fill="white">
                        <use xlink:href="#path-5"></use>
                    </mask>
                    <g id="Clip-2-Copy"></g>
                    <path d="M53.474,0.128 C56.276,1.536 57.561,2.902 57.328,4.225 C57.249,4.673 56.969,5.174 56.487,5.729 C56.005,6.283 55.529,6.561 55.06,6.561 C54.74,6.561 54.531,6.476 54.433,6.305 C54.335,6.134 54.292,5.835 54.303,5.408 C54.348,3.34 53.926,1.739 53.037,0.608 L53.474,0.128 Z M58.904,6.721 L60.451,5.024 C60.745,4.684 61.026,4.513 61.293,4.513 C61.559,4.513 62.098,4.94 62.908,5.792 C63.717,6.646 64.1,7.195 64.057,7.44 C64.014,7.686 63.778,7.809 63.352,7.809 L49.944,7.809 C49.368,7.809 48.907,7.884 48.56,8.032 L48.244,6.561 C48.673,6.667 49.197,6.721 49.816,6.721 L58.904,6.721 Z M52.171,12.96 C51.762,15.286 51.249,17.766 50.636,20.4 C50.021,23.035 49.01,25.109 47.602,26.624 C46.194,28.139 44.421,29.451 42.284,30.561 L42.002,29.984 C43.535,28.789 44.705,27.653 45.515,26.576 C46.323,25.499 46.981,24.155 47.49,22.544 C47.997,20.934 48.59,18.208 49.267,14.368 C49.496,13.067 49.703,11.776 49.886,10.496 C50.896,10.816 51.837,11.286 52.71,11.904 L55.078,11.904 L56.171,10.784 C56.329,10.614 56.488,10.528 56.648,10.528 C56.808,10.528 57.123,10.71 57.592,11.072 L58.837,12 C59.214,12.278 59.387,12.513 59.352,12.704 C59.319,12.897 58.772,13.152 57.713,13.473 L55.586,25.536 C55.522,25.899 55.557,26.123 55.691,26.208 C55.826,26.293 56.224,26.336 56.885,26.336 C57.269,26.336 57.568,26.24 57.784,26.049 C57.998,25.857 58.251,25.393 58.541,24.656 C58.831,23.921 59.256,22.624 59.819,20.769 L60.581,20.801 C60.432,21.398 60.294,22.065 60.164,22.801 C60.035,23.536 60.01,24.188 60.092,24.752 C60.174,25.317 60.361,25.707 60.654,25.921 C60.947,26.134 61.079,26.325 61.049,26.496 C60.992,26.816 60.635,27.302 59.976,27.952 C59.317,28.603 58.284,28.929 56.876,28.929 C55.468,28.929 54.466,28.864 53.87,28.736 C53.273,28.608 52.921,28.4 52.812,28.112 C52.703,27.824 52.708,27.339 52.828,26.656 L55.244,12.96 L52.171,12.96 Z M39.165,17.217 C40.081,18.07 40.735,18.774 41.129,19.328 C41.521,19.884 41.667,20.448 41.566,21.024 C41.464,21.601 41.205,22.128 40.79,22.608 C40.374,23.089 40.012,23.328 39.703,23.328 C39.394,23.328 39.213,23.232 39.162,23.04 C39.11,22.849 39.103,22.528 39.14,22.08 C39.245,20.63 39.109,19.105 38.73,17.505 L39.165,17.217 Z M40.871,7.36 C41.817,8.406 42.445,9.2 42.755,9.744 C43.064,10.288 43.177,10.796 43.095,11.265 C43.012,11.734 42.769,12.203 42.366,12.673 C41.963,13.142 41.618,13.376 41.33,13.376 C41.042,13.376 40.862,13.28 40.789,13.089 C40.716,12.897 40.7,12.566 40.74,12.097 C40.837,10.816 40.715,9.334 40.372,7.649 L40.871,7.36 Z M40.195,6.112 C39.624,9.228 39.091,11.947 38.596,14.273 L43.3,14.273 L44.739,6.112 L40.195,6.112 Z M40.707,5.024 C41.307,3.19 41.752,1.516 42.041,0 C43.245,0.428 44.114,0.764 44.647,1.009 C45.18,1.254 45.432,1.456 45.404,1.616 C45.375,1.776 45.181,1.91 44.821,2.017 C44.054,2.251 43.109,3.254 41.987,5.024 L44.611,5.024 L45.629,3.969 C45.758,3.841 45.881,3.776 45.999,3.776 C46.116,3.776 46.414,3.932 46.893,4.24 C47.371,4.55 47.78,4.838 48.117,5.105 C48.453,5.371 48.613,5.558 48.594,5.664 C48.56,5.857 48.067,6.23 47.117,6.784 L43.737,25.952 C43.567,26.912 43.341,27.59 43.058,27.984 C42.775,28.379 42.205,28.832 41.347,29.345 C40.488,29.857 39.974,30.112 39.803,30.112 C39.59,30.112 39.469,29.857 39.443,29.345 C39.415,28.832 39.202,28.411 38.802,28.08 C38.401,27.749 37.597,27.382 36.388,26.977 L36.629,26.336 C37.853,26.528 38.775,26.624 39.394,26.624 C40.013,26.624 40.467,26.555 40.759,26.416 C41.05,26.277 41.227,26.027 41.291,25.664 L43.114,15.328 L38.378,15.328 C37.555,19.51 36.579,22.593 35.451,24.576 C34.323,26.561 32.645,28.481 30.42,30.336 L30.082,29.889 C31.669,27.904 32.853,25.941 33.633,24 C34.412,22.06 35.183,19.168 35.946,15.328 L34.602,15.328 C34.026,15.328 33.565,15.403 33.219,15.553 L32.896,14.112 C33.326,14.22 33.849,14.273 34.468,14.273 L36.132,14.273 C36.622,11.734 37.185,8.3 37.821,3.969 C38.76,4.331 39.636,4.684 40.451,5.024 L40.707,5.024 Z M15.268,11.553 C16.742,12.022 17.812,12.486 18.478,12.944 C19.144,13.403 19.415,13.984 19.291,14.689 C19.208,15.158 19.008,15.596 18.691,16 C18.374,16.406 18.115,16.608 17.912,16.608 C17.709,16.608 17.557,16.565 17.455,16.481 C17.352,16.396 17.224,16.092 17.072,15.568 C16.918,15.046 16.624,14.416 16.188,13.681 C15.753,12.944 15.33,12.406 14.921,12.065 L15.268,11.553 Z M12.541,15.04 C14.075,15.531 15.224,16 15.989,16.448 C16.752,16.897 17.076,17.451 16.959,18.112 C16.917,18.348 16.782,18.721 16.554,19.232 C16.324,19.744 16.007,20 15.602,20 C15.303,20 15.073,19.734 14.911,19.2 C14.539,17.921 13.644,16.704 12.226,15.553 L12.541,15.04 Z M20.948,21.44 C20.741,21.889 20.442,22.433 20.053,23.072 C21.849,23.649 23.177,24.166 24.035,24.624 C24.892,25.083 25.453,25.536 25.715,25.984 C25.977,26.433 26.046,27.014 25.919,27.729 C25.793,28.443 25.573,28.997 25.258,29.393 C24.943,29.787 24.61,29.984 24.258,29.984 C23.906,29.984 23.629,29.707 23.429,29.152 C22.686,27.19 21.361,25.451 19.452,23.937 C18.389,25.365 16.891,26.544 14.956,27.473 C13.022,28.4 10.031,29.333 5.983,30.273 L5.883,29.568 C9.407,28.459 12.157,27.259 14.134,25.969 C16.11,24.678 17.529,23.168 18.388,21.44 L10.932,21.44 C10.484,21.44 10.014,21.505 9.522,21.633 L9.21,20.32 C9.639,20.428 10.162,20.481 10.782,20.481 L18.813,20.481 C19.628,18.518 20.372,15.691 21.045,12 C22.563,12.342 23.517,12.614 23.909,12.816 C24.3,13.02 24.48,13.206 24.45,13.376 C24.42,13.548 24.234,13.696 23.891,13.824 C23.752,13.889 23.639,14.012 23.554,14.192 C23.469,14.374 23.342,14.764 23.172,15.36 C22.554,17.536 21.965,19.243 21.406,20.481 L24.638,20.481 L26.283,18.593 C26.448,18.38 26.675,18.273 26.963,18.273 C27.251,18.273 27.763,18.726 28.499,19.633 C29.235,20.539 29.59,21.067 29.564,21.217 C29.537,21.366 29.3,21.44 28.852,21.44 L20.948,21.44 Z M11.633,22.912 L5.186,25.536 C3.372,26.262 2.207,26.881 1.691,27.393 C1.561,27.521 1.454,27.584 1.369,27.584 C1.284,27.584 1.207,27.531 1.141,27.425 C1.075,27.317 0.936,27.014 0.726,26.513 C0.516,26.011 0.273,25.387 0,24.641 C1.779,24.47 3.354,24.246 4.726,23.969 C6.098,23.691 8.366,23.168 11.531,22.4 L11.633,22.912 Z M20.724,6.017 L16.404,6.017 C15.828,6.017 15.367,6.092 15.02,6.24 L14.618,4.897 C15.046,5.003 15.57,5.057 16.189,5.057 L20.893,5.057 C21.382,2.283 21.631,0.747 21.641,0.448 C24.119,0.918 25.328,1.323 25.267,1.664 C25.241,1.814 24.812,2.07 23.98,2.433 L23.517,5.057 L26.397,5.057 L27.967,3.232 C28.153,3.02 28.348,2.912 28.551,2.912 C28.754,2.912 28.971,3.04 29.203,3.297 L30.29,4.576 C30.828,5.152 31.08,5.536 31.047,5.729 C31.013,5.921 30.793,6.017 30.388,6.017 L23.348,6.017 L22.688,9.761 L27.2,9.761 L28.062,8.864 C28.299,8.608 28.492,8.481 28.641,8.481 C28.897,8.481 29.431,8.87 30.244,9.649 C31.055,10.428 31.435,10.966 31.383,11.265 C31.337,11.521 30.961,11.659 30.253,11.681 C29.545,11.702 28.838,11.932 28.132,12.368 C27.425,12.806 26.643,13.398 25.787,14.145 L25.357,13.857 C25.931,13.024 26.529,11.99 27.153,10.752 L14.481,10.752 C13.905,10.752 13.444,10.827 13.098,10.977 L12.721,9.664 C12.47,9.878 12.064,10.305 11.503,10.944 C8.878,13.974 6.58,16.481 4.609,18.465 L11.152,17.473 L11.109,18.08 C8.637,18.912 6.943,19.505 6.028,19.857 C5.112,20.208 4.396,20.518 3.88,20.784 C3.363,21.052 3.052,21.185 2.945,21.185 C2.838,21.185 2.758,21.158 2.703,21.105 C2.649,21.052 2.481,20.732 2.201,20.145 C1.92,19.558 1.656,18.998 1.409,18.465 C2.029,18.336 2.607,18.112 3.143,17.792 C3.68,17.473 4.202,17.02 4.711,16.433 C5.22,15.846 6.239,14.486 7.766,12.353 C5.198,12.886 3.671,13.26 3.185,13.473 C2.7,13.686 2.419,13.792 2.345,13.792 C2.27,13.792 2.212,13.756 2.173,13.681 C2.132,13.606 2.055,13.318 1.941,12.816 C1.826,12.316 1.724,11.776 1.634,11.2 C2.364,11.052 2.969,10.764 3.45,10.336 C3.931,9.91 4.899,8.593 6.355,6.385 C7.811,4.177 8.914,2.336 9.664,0.864 C10.535,1.248 11.258,1.627 11.832,2 C12.406,2.374 12.755,2.636 12.878,2.784 C13,2.934 13.055,3.052 13.04,3.137 C13.002,3.35 12.682,3.468 12.081,3.488 C11.868,3.488 11.675,3.553 11.504,3.681 C11.332,3.809 11.032,4.118 10.604,4.608 C8.705,6.784 6.636,9.024 4.395,11.328 L8.502,11.265 L11.634,6.752 C12.912,7.606 13.648,8.123 13.84,8.305 C14.033,8.486 14.115,8.651 14.089,8.801 C14.048,9.035 13.829,9.185 13.434,9.248 C13.213,9.291 12.988,9.419 12.758,9.633 C13.212,9.718 13.717,9.761 14.272,9.761 L20.064,9.761 L20.724,6.017 Z" id="Fill-1-Copy" fill="#333333" mask="url(#mask-6)"></path>
                </g>
                <path d="M27.0703125,20.0527344 C26.8268217,19.1217401 26.3112019,18.65625 25.5234375,18.65625 C25.2083318,18.65625 24.9541025,18.7350253 24.7607422,18.8925781 C24.5673818,19.050131 24.4707031,19.2649726 24.4707031,19.5371094 C24.4707031,19.8378921 24.5960274,20.0348303 24.8466797,20.1279297 C25.097332,20.2210291 25.4374979,20.2675781 25.8671875,20.2675781 C26.2252622,20.2675781 26.6262999,20.1959643 27.0703125,20.0527344 Z M24.6855469,8.96679688 L24.9433594,8.92382812 C24.6139306,10.9290465 24.0016321,12.6692635 23.1064453,14.1445312 C22.2112585,15.619799 21.1692768,16.8300734 19.9804688,17.7753906 C18.7916607,18.7207079 17.6279354,19.4046203 16.4892578,19.8271484 C15.3505802,20.2496766 14.3300826,20.4609375 13.4277344,20.4609375 C12.3391873,20.4609375 11.5299506,20.2281924 11,19.7626953 C10.4700494,19.2971982 10.2050781,18.6634155 10.2050781,17.8613281 C10.2050781,16.844396 10.5953737,15.6520251 11.3759766,14.2841797 C12.1565794,12.9163343 13.305982,11.5699936 14.8242188,10.2451172 C16.3424555,8.92024077 18.193674,7.83529068 20.3779297,6.99023438 C22.5621854,6.14517807 24.9648306,5.72265625 27.5859375,5.72265625 C28.9609444,5.72265625 30.0888628,5.8551419 30.9697266,6.12011719 C31.8505903,6.38509247 32.7350216,6.89713162 33.6230469,7.65625 C34.7832089,7.02603852 35.9361922,6.53906422 37.0820312,6.1953125 L37.1464844,6.41015625 C35.9290304,6.8398459 34.8261768,7.3268202 33.8378906,7.87109375 C34.9264377,9.20313166 35.4707031,10.6425704 35.4707031,12.1894531 C35.4707031,13.3639382 35.1735056,14.463211 34.5791016,15.4873047 C33.9846975,16.5113983 33.0859435,17.4387979 31.8828125,18.2695312 C30.6796815,19.1002646 29.2044358,19.7949191 27.4570312,20.3535156 C27.4570312,21.4277397 27.2994807,22.2978482 26.984375,22.9638672 C26.6692693,23.6298861 26.0032603,24.5214788 24.9863281,25.6386719 C23.4967373,27.3144615 22.7519531,28.5605428 22.7519531,29.3769531 C22.7519531,29.8209658 22.952472,30.0429688 23.3535156,30.0429688 C23.8691432,30.0429688 24.7607358,29.5022841 26.0283203,28.4208984 C27.2959048,27.3395128 28.9322816,25.8392023 30.9375,23.9199219 L30.9375,24.2851562 C29.5195242,25.78907 28.0442785,27.1747983 26.5117188,28.4423828 C24.979159,29.7099673 23.9264352,30.34375 23.3535156,30.34375 C22.6516892,30.34375 22.3007812,29.8925826 22.3007812,28.9902344 C22.3007812,27.8587183 22.5442684,26.8704469 23.03125,26.0253906 C23.5182316,25.1803343 24.1412722,24.3639362 24.9003906,23.5761719 C25.645186,22.8170535 26.1643866,22.2226584 26.4580078,21.7929688 C26.7516291,21.3632791 26.9557286,20.9192731 27.0703125,20.4609375 C26.6262999,20.5468754 26.1250028,20.5898438 25.5664062,20.5898438 C25.1223936,20.5898438 24.7750664,20.4895843 24.5244141,20.2890625 C24.2737618,20.0885407 24.1484375,19.8378921 24.1484375,19.5371094 C24.1484375,19.1790347 24.2809232,18.8889985 24.5458984,18.6669922 C24.8108737,18.4449859 25.1367168,18.3339844 25.5234375,18.3339844 C26.3684938,18.3339844 26.9986958,18.863927 27.4140625,19.9238281 C29.0612062,19.3365856 30.4111275,18.4521543 31.4638672,17.2705078 C32.5166068,16.0888613 33.2721331,14.8750062 33.7304688,13.6289062 C34.1888044,12.3828063 34.4179688,11.358728 34.4179688,10.5566406 C34.4179688,9.59700041 34.1100291,8.77344094 33.4941406,8.0859375 C32.3339786,8.80208691 31.2991582,9.55045183 30.3896484,10.3310547 C29.4801387,11.1116575 28.577804,12.0605413 27.6826172,13.1777344 C26.7874304,14.2949275 25.6881576,15.8131414 24.3847656,17.7324219 L23.9765625,18.2910156 C23.317705,19.2649788 22.8056659,20.0133437 22.4404297,20.5361328 C22.0751935,21.0589219 21.7242855,21.5279927 21.3876953,21.9433594 C21.0511051,22.358726 20.6250026,22.8313776 20.109375,23.3613281 C15.5833107,28.0162993 10.6849222,30.34375 5.4140625,30.34375 C3.89582574,30.34375 2.73926179,30.1145856 1.94433594,29.65625 C1.14941009,29.1979144 0.751953125,28.5319054 0.751953125,27.6582031 C0.751953125,27.2141905 0.873696699,26.8274756 1.1171875,26.4980469 C1.3606783,26.1686181 1.67577932,26.0039062 2.0625,26.0039062 C2.64974252,26.0039062 2.94335938,26.2473934 2.94335938,26.734375 C2.94335938,26.9205738 2.86458412,27.0852857 2.70703125,27.2285156 C2.54947838,27.3717455 2.3776051,27.4433594 2.19140625,27.4433594 C1.77603959,27.4433594 1.54687521,27.1640653 1.50390625,26.6054688 C1.40364533,26.6054688 1.30338592,26.7272123 1.203125,26.9707031 C1.10286408,27.2141939 1.05273438,27.4648425 1.05273438,27.7226562 C1.05273438,28.4531287 1.42870718,29.0224589 2.18066406,29.4306641 C2.93262095,29.8388692 3.9817641,30.0429688 5.328125,30.0429688 C7.13282152,30.0429688 8.76919839,29.760094 10.2373047,29.1943359 C11.705411,28.6285779 13.0517517,27.8623095 14.2763672,26.8955078 C15.5009827,25.9287061 16.6145783,24.8867243 17.6171875,23.7695312 C18.6197967,22.6523382 19.9016849,21.1341242 21.4628906,19.2148438 L22.0859375,18.4628906 C23.947926,16.1855355 25.6702395,14.2125734 27.2529297,12.5439453 C28.8356199,10.8753172 30.8229047,9.30339279 33.2148438,7.828125 C32.5559863,7.18359053 31.8076214,6.72168108 30.9697266,6.44238281 C30.1318317,6.16308454 28.9895906,6.0234375 27.5429688,6.0234375 C25.0221228,6.0234375 22.6910914,6.43879793 20.5498047,7.26953125 C18.4085179,8.10026457 16.6110099,9.14582703 15.1572266,10.40625 C13.7034433,11.666673 12.5826862,12.9700454 11.7949219,14.3164062 C11.0071575,15.6627671 10.6132812,16.8014276 10.6132812,17.7324219 C10.6132812,18.4485713 10.8567684,19.0286436 11.34375,19.4726562 C11.8307316,19.9166689 12.4752564,20.1386719 13.2773438,20.1386719 C14.3229219,20.1386719 15.4293561,19.8880233 16.5966797,19.3867188 C17.7640032,18.8854142 18.9062444,18.1406299 20.0234375,17.1523438 C21.1406306,16.1640576 22.1181599,14.9645253 22.9560547,13.5537109 C23.7939495,12.1428966 24.3704411,10.6139405 24.6855469,8.96679688 Z M32.0761719,24.8867188 C33.2649799,24.8867188 34.267574,24.7363296 35.0839844,24.4355469 C35.9003947,24.1347641 36.5198547,23.7766948 36.9423828,23.3613281 C37.364911,22.9459615 37.5761719,22.6093763 37.5761719,22.3515625 C37.5761719,21.9361958 37.3326847,21.7285156 36.8457031,21.7285156 C36.2011687,21.7285156 35.449223,22.0113904 34.5898438,22.5771484 C33.7304645,23.1429065 32.8925822,23.9127555 32.0761719,24.8867188 Z M39.703125,23.9199219 L39.703125,24.2851562 C38.0989503,25.8893309 36.630866,27.1103474 35.2988281,27.9482422 C33.9667902,28.786137 32.6204495,29.2050781 31.2597656,29.2050781 C30.0566346,29.2050781 29.4550781,28.517585 29.4550781,27.1425781 C29.4550781,25.9967391 29.888342,24.9905642 30.7548828,24.1240234 C31.6214236,23.2574826 32.6383405,22.5914737 33.8056641,22.1259766 C34.9729876,21.6604794 35.9218713,21.4277344 36.6523438,21.4277344 C37.0677104,21.4277344 37.3935535,21.5244131 37.6298828,21.7177734 C37.8662121,21.9111338 37.984375,22.165363 37.984375,22.4804688 C37.984375,22.9674504 37.7194037,23.415037 37.1894531,23.8232422 C36.6595026,24.2314474 35.9218797,24.5680325 34.9765625,24.8330078 C34.0312453,25.0979831 32.9212303,25.2519529 31.6464844,25.2949219 C30.5579373,26.5266989 30.0136719,27.4648405 30.0136719,28.109375 C30.0136719,28.3385428 30.1318348,28.5283196 30.3681641,28.6787109 C30.6044934,28.8291023 30.9016909,28.9042969 31.2597656,28.9042969 C33.5657667,28.9042969 36.3801917,27.2428552 39.703125,23.9199219 Z M39.1445312,24.8007812 L39.1445312,24.4570312 C41.3216255,22.4374899 42.8470008,21.4277344 43.7207031,21.4277344 C44.2076847,21.4277344 44.4511719,21.735674 44.4511719,22.3515625 C44.4511719,22.8385441 44.3007828,23.318357 44,23.7910156 C43.6992172,24.2636742 43.0904994,25.0872337 42.1738281,26.2617188 C43.9498787,24.786451 45.4895768,23.6119835 46.7929688,22.7382812 C48.0963607,21.864579 49.213537,21.4277344 50.1445312,21.4277344 C50.6315129,21.4277344 50.875,21.7643196 50.875,22.4375 C50.875,23.0963575 50.6458356,23.7516243 50.1875,24.4033203 C49.7291644,25.0550163 48.9772188,25.7604129 47.9316406,26.5195312 C46.8144475,27.3645876 46.2558594,27.966144 46.2558594,28.3242188 C46.2558594,28.4674486 46.3238925,28.5999343 46.4599609,28.7216797 C46.5960293,28.8434251 46.7356764,28.9042969 46.8789062,28.9042969 C47.3802108,28.9042969 48.0426391,28.6285835 48.8662109,28.0771484 C49.6897828,27.5257134 50.5885368,26.8238975 51.5625,25.9716797 C52.5364632,25.1194619 53.3242157,24.4355495 53.9257812,23.9199219 L53.9257812,24.2851562 C53.052079,25.1015666 52.1998739,25.8642543 51.3691406,26.5732422 C50.5384073,27.2822301 49.7112671,27.8981094 48.8876953,28.4208984 C48.0641235,28.9436875 47.3802111,29.2050781 46.8359375,29.2050781 C46.4921858,29.2050781 46.2451179,29.0904959 46.0947266,28.8613281 C45.9443352,28.6321603 45.8691406,28.3958346 45.8691406,28.1523438 C45.8691406,27.6080702 46.0839822,26.9957716 46.5136719,26.3154297 C46.9433615,25.6350877 47.5377566,24.9726595 48.296875,24.328125 C49.1705773,23.5546836 49.7757145,22.9352237 50.1123047,22.4697266 C50.4488949,22.0042294 50.3522162,21.7714844 49.8222656,21.7714844 C49.1490852,21.7714844 48.1321683,22.2262324 46.7714844,23.1357422 C45.4108005,24.0452519 44.1360737,25.0048778 42.9472656,26.0146484 C41.7584576,27.0244191 40.6341199,28.0162712 39.5742188,28.9902344 L37.8984375,28.9902344 L40.7558594,25.7675781 C42.8470157,23.432931 43.8925781,22.1582042 43.8925781,21.9433594 C43.8925781,21.8001295 43.8066415,21.7285156 43.6347656,21.7285156 C43.0045541,21.7285156 41.5078243,22.7525939 39.1445312,24.8007812 Z M55.0214844,24.8867188 C56.2102924,24.8867188 57.2128865,24.7363296 58.0292969,24.4355469 C58.8457072,24.1347641 59.4651672,23.7766948 59.8876953,23.3613281 C60.3102235,22.9459615 60.5214844,22.6093763 60.5214844,22.3515625 C60.5214844,21.9361958 60.2779972,21.7285156 59.7910156,21.7285156 C59.1464812,21.7285156 58.3945355,22.0113904 57.5351562,22.5771484 C56.675777,23.1429065 55.8378947,23.9127555 55.0214844,24.8867188 Z M62.6484375,23.9199219 L62.6484375,24.2851562 C61.0442628,25.8893309 59.5761785,27.1103474 58.2441406,27.9482422 C56.9121027,28.786137 55.565762,29.2050781 54.2050781,29.2050781 C53.0019471,29.2050781 52.4003906,28.517585 52.4003906,27.1425781 C52.4003906,25.9967391 52.8336545,24.9905642 53.7001953,24.1240234 C54.5667361,23.2574826 55.583653,22.5914737 56.7509766,22.1259766 C57.9183001,21.6604794 58.8671838,21.4277344 59.5976562,21.4277344 C60.0130229,21.4277344 60.338866,21.5244131 60.5751953,21.7177734 C60.8115246,21.9111338 60.9296875,22.165363 60.9296875,22.4804688 C60.9296875,22.9674504 60.6647162,23.415037 60.1347656,23.8232422 C59.6048151,24.2314474 58.8671922,24.5680325 57.921875,24.8330078 C56.9765578,25.0979831 55.8665428,25.2519529 54.5917969,25.2949219 C53.5032498,26.5266989 52.9589844,27.4648405 52.9589844,28.109375 C52.9589844,28.3385428 53.0771473,28.5283196 53.3134766,28.6787109 C53.5498059,28.8291023 53.8470034,28.9042969 54.2050781,28.9042969 C56.5110792,28.9042969 59.3255042,27.2428552 62.6484375,23.9199219 Z M74.5722656,21.5996094 L68.9433594,27.9375 C68.7714835,28.1380218 68.6855469,28.3242179 68.6855469,28.4960938 C68.6855469,28.7682305 68.8287746,28.9042969 69.1152344,28.9042969 C70.1464895,28.9042969 71.3997322,28.4101612 72.875,27.421875 C74.3502678,26.4335888 75.4316372,25.5312541 76.1191406,24.7148438 C76.5631533,24.2135392 76.8854157,23.526046 77.0859375,22.6523438 C77.2578134,21.8359334 77.4798163,21.4277344 77.7519531,21.4277344 C77.952475,21.4277344 78.0527344,21.5423166 78.0527344,21.7714844 C78.0527344,22.8170625 77.3365957,24.048821 75.9042969,25.4667969 C76.5058624,25.5957038 77.0608699,25.5527354 77.5693359,25.3378906 C78.077802,25.1230458 78.6041639,24.6503943 79.1484375,23.9199219 L79.1484375,24.2851562 C78.7044249,24.9296907 78.2067085,25.370116 77.6552734,25.6064453 C77.1038384,25.8427746 76.4127646,25.8821622 75.5820312,25.7246094 C73.0898313,28.0449335 70.8912856,29.2050781 68.9863281,29.2050781 C68.3990856,29.2050781 68.1054688,28.925784 68.1054688,28.3671875 C68.1054688,27.3216094 69.1796768,25.667329 71.328125,23.4042969 C69.1653538,25.3665463 67.4036526,26.8238885 66.0429688,27.7763672 C64.6822849,28.7288459 63.6080769,29.2050781 62.8203125,29.2050781 C62.3619769,29.2050781 62.1328125,28.925784 62.1328125,28.3671875 C62.1328125,27.2929634 63.1712136,25.5957147 65.2480469,23.2753906 C65.6490905,22.874347 65.9713529,22.5019548 66.2148438,22.1582031 C64.8255139,22.7884146 63.4648504,23.6692652 62.1328125,24.8007812 L62.1328125,24.4570312 C62.9205769,23.8268198 63.654619,23.275393 64.3349609,22.8027344 C65.0153029,22.3300758 65.8209589,21.9290381 66.7519531,21.5996094 L68.5566406,21.5996094 L63.4003906,27.5292969 C62.956378,28.0878934 62.734375,28.4244786 62.734375,28.5390625 C62.734375,28.6106774 62.7701819,28.6894527 62.8417969,28.7753906 C62.9134118,28.8613286 62.9850257,28.9042969 63.0566406,28.9042969 C63.6009142,28.9042969 64.5390558,28.4209033 65.8710938,27.4541016 C67.2031317,26.4872999 68.4062446,25.516932 69.4804688,24.5429688 C69.9817733,24.0559871 70.5475229,23.5403673 71.1777344,22.9960938 C71.8079459,22.4518202 72.3378885,21.9863301 72.7675781,21.5996094 L74.5722656,21.5996094 Z M84.9277344,21.7285156 C84.0683551,21.7285156 83.11231,22.1510374 82.0595703,22.9960938 C81.0068307,23.8411501 80.0901732,24.8007759 79.3095703,25.875 C78.5289675,26.9492241 78.1386719,27.7083311 78.1386719,28.1523438 C78.1386719,28.3671886 78.2102857,28.5462232 78.3535156,28.6894531 C78.4967455,28.832683 78.6757802,28.9042969 78.890625,28.9042969 C79.4778675,28.9042969 80.3229112,28.4960978 81.4257812,27.6796875 C82.5286513,26.8632772 83.5240841,25.9394583 84.4121094,24.9082031 C85.3001346,23.876948 85.7441406,23.0677113 85.7441406,22.4804688 C85.7441406,21.9791642 85.4720079,21.7285156 84.9277344,21.7285156 Z M90.5996094,24.3710938 L89.5039062,25.2949219 C87.7851477,26.7272207 86.5140015,27.7369762 85.6904297,28.3242188 C84.8668579,28.9114613 84.1399771,29.2050781 83.5097656,29.2050781 C83.094399,29.2050781 82.8867188,28.9687524 82.8867188,28.4960938 C82.8867188,27.9947892 83.0800762,27.2929733 83.4667969,26.390625 C81.4186096,28.2669365 79.907557,29.2050781 78.9335938,29.2050781 C78.5039041,29.2050781 78.1529962,29.0367855 77.8808594,28.7001953 C77.6087226,28.3636051 77.4726562,27.8730501 77.4726562,27.2285156 C77.4726562,26.4980432 77.6874979,25.7783239 78.1171875,25.0693359 C78.5468771,24.360348 79.1233688,23.7337267 79.8466797,23.1894531 C80.5699906,22.6451796 81.3792273,22.2154964 82.2744141,21.9003906 C83.1696008,21.5852849 84.0397093,21.4277344 84.8847656,21.4277344 C85.3001323,21.4277344 85.6044912,21.5029289 85.7978516,21.6533203 C85.9912119,21.8037117 86.095052,22.0507795 86.109375,22.3945312 C86.095052,22.4661462 86.0843099,22.5341794 86.0771484,22.5986328 C86.0699869,22.6630863 86.0556642,22.7526036 86.0341797,22.8671875 C86.0126952,22.9817714 85.9947917,23.0748694 85.9804688,23.1464844 L87.3339844,21.5566406 L89.1386719,21.4277344 L88.5800781,22.1152344 C88.1217425,22.6595079 87.7493504,23.1070946 87.4628906,23.4580078 C87.1764309,23.808921 86.9329437,24.0989572 86.7324219,24.328125 C84.4980357,26.74871 83.3808594,28.1666646 83.3808594,28.5820312 C83.3808594,28.7968761 83.4811188,28.9042969 83.6816406,28.9042969 C83.9537774,28.9042969 84.3619764,28.7431657 84.90625,28.4208984 C85.4505236,28.0986312 86.0628221,27.6725287 86.7431641,27.1425781 C87.423506,26.6126276 88.2005165,25.9860062 89.0742188,25.2626953 C89.947921,24.5393844 90.4563795,24.1204433 90.5996094,24.0058594 L90.5996094,24.3710938 Z M103.554688,11.3945312 L104.628906,10.234375 L106.283203,10.234375 L92.7480469,25.3808594 C91.1295492,27.1569099 90.3203125,28.195311 90.3203125,28.4960938 C90.3203125,28.7682305 90.4635402,28.9042969 90.75,28.9042969 C91.2513046,28.9042969 91.8242155,28.693036 92.46875,28.2705078 C93.1132845,27.8479797 93.983393,27.1425831 95.0791016,26.1542969 C96.1748102,25.1660107 96.9804662,24.449872 97.4960938,24.0058594 L97.4960938,24.3710938 C95.5481673,26.1614673 94.1230514,27.41471 93.2207031,28.1308594 C92.3183549,28.8470088 91.4947954,29.2050781 90.75,29.2050781 C90.4921862,29.2050781 90.2737639,29.1083994 90.0947266,28.9150391 C89.9156892,28.7216787 89.8261719,28.496095 89.8261719,28.2382812 C89.8261719,27.5078088 90.1842412,26.6556038 90.9003906,25.6816406 C91.61654,24.7076774 92.5833272,23.5690169 93.8007812,22.265625 C93.8867192,22.1510411 94.1445291,21.8466822 94.5742188,21.3525391 C95.0039084,20.858396 95.4192688,20.367841 95.8203125,19.8808594 C94.8320263,20.6256548 92.9270974,22.2512896 90.1054688,24.7578125 L90.1054688,24.4140625 L96.2070312,19.1289062 C96.9518266,18.4986948 99.4010209,15.9205955 103.554688,11.3945312 Z" id="Renewal" fill="#999999"></path>
            </g>
        </g>
    </g>
</svg>