<?xml version="1.0" encoding="UTF-8"?>
<svg width="312px" height="78px" viewBox="0 0 312 78" version="1.1" xmlns="http://www.w3.org/2000/svg" xmlns:xlink="http://www.w3.org/1999/xlink">
    <!-- Generator: Sketch 50.2 (55047) - http://www.bohemiancoding.com/sketch -->
    <title>03</title>
    <desc>Created with Sketch.</desc>
    <defs>
        <polygon id="path-1" points="0 0.47805 32.0357778 0.47805 32.0357778 62 0 62"></polygon>
        <polygon id="path-3" points="0.463665527 0.427 33.5848526 0.427 33.5848526 62 0.463665527 62"></polygon>
        <polygon id="path-5" points="0.0002 0 62.2536831 0 62.2536831 29.7278 0.0002 29.7278"></polygon>
    </defs>
    <g id="Page-1" stroke="none" stroke-width="1" fill="none" fill-rule="evenodd">
        <g id="Artboard-2" transform="translate(-208.000000, -420.000000)">
            <g id="03" transform="translate(209.000000, 421.000000)">
                <g transform="translate(0.000000, 10.000000)">
                    <g id="Group-3" transform="translate(0.000000, 0.573000)">
                        <mask id="mask-2" fill="white">
                            <use xlink:href="#path-1"></use>
                        </mask>
                        <g id="Clip-2"></g>
                        <path d="M5.9643,51.2783 C6.5263,55.3813 7.5183,57.7263 8.9433,58.3083 C10.3603,58.8963 11.8273,58.8963 13.3373,58.3083 C14.8463,57.7263 16.6663,55.3813 18.7963,51.2783 C20.9243,47.1793 22.8173,40.4393 24.4703,31.0623 C26.1223,21.6913 26.6593,14.6603 26.0803,9.9683 C25.5003,5.2833 23.7433,2.9373 20.8163,2.9373 C17.8823,2.9373 15.3593,5.2833 13.2483,9.9683 C11.1303,14.6603 9.2473,21.6913 7.5953,31.0623 C5.9423,40.4393 5.3953,47.1793 5.9643,51.2783 M30.5983,9.2653 C32.3803,14.4243 32.5053,21.6913 30.9743,31.0623 C29.4363,40.4393 26.7683,47.9373 22.9633,53.5623 C19.1593,59.1883 14.9723,62.0003 10.4013,62.0003 C5.8313,62.0003 2.7513,59.1883 1.1663,53.5623 C-0.4237,47.9373 -0.3867,40.4393 1.2673,31.0623 C2.9193,21.6913 5.4853,14.4243 8.9773,9.2653 C12.4623,4.1133 15.4193,1.3003 17.8483,0.8283 C20.2703,0.3613 22.5553,0.3613 24.7033,0.8283 C26.8443,1.3003 28.8103,4.1133 30.5983,9.2653" id="Fill-1" fill="#0B74B9" mask="url(#mask-2)"></path>
                    </g>
                    <g id="Group-6" transform="translate(42.000000, 0.573000)">
                        <mask id="mask-4" fill="white">
                            <use xlink:href="#path-3"></use>
                        </mask>
                        <g id="Clip-5"></g>
                        <path d="M14.1586,4.8721 C16.1876,2.6461 18.3036,1.3011 20.4966,0.8281 C22.6876,0.3611 24.6866,0.3011 26.5036,0.6521 C28.3146,1.0051 30.0926,2.2341 31.8296,4.3441 C33.5666,6.4541 34.0126,9.5621 33.1756,13.6611 C32.3306,17.7641 29.2496,22.2741 23.9326,27.1951 C26.9226,28.8381 29.0326,30.8321 30.2626,33.1731 C31.4846,35.5181 31.7006,38.9731 30.8936,43.5441 C30.0886,48.1131 27.1746,52.3321 22.1586,56.1991 C17.1376,60.0671 12.8746,62.0001 9.3586,62.0001 C5.8436,62.0001 3.4346,61.3571 2.1406,60.0671 C0.8406,58.7811 0.2996,57.5511 0.5066,56.3751 C0.7126,55.2051 1.2296,54.2661 2.0566,53.5621 C2.8846,52.8601 3.8346,52.4531 4.9106,52.3321 C5.9856,52.2171 6.9386,52.4531 7.7746,53.0361 C8.6046,53.6231 9.2656,55.2051 9.7506,57.7811 C15.1396,57.7811 18.9966,56.4961 21.3316,53.9141 C23.6586,51.3391 25.1666,48.1131 25.8476,44.2471 C26.5306,40.3801 26.0226,37.2751 24.3266,34.9301 C22.6306,32.5901 19.1056,31.2991 13.7596,31.0621 L14.1306,28.9531 C16.9436,28.9531 19.8066,27.6681 22.7226,25.0861 C25.6376,22.5101 27.4066,19.4611 28.0256,15.9461 C28.6456,12.4301 28.4626,9.7931 27.4876,8.0361 C26.5066,6.2771 24.7276,5.3981 22.1516,5.3981 C19.5696,5.3981 17.5326,5.9861 16.0406,7.1561 C14.5426,8.3321 13.1566,10.5571 11.8746,13.8361 L9.7646,13.8361 C10.6566,10.0901 12.1226,7.1011 14.1586,4.8721" id="Fill-4" fill="#0B74B9" mask="url(#mask-4)"></path>
                    </g>
                </g>
                <g id="充电" transform="translate(78.000000, 46.000000)">
                    <mask id="mask-6" fill="white">
                        <use xlink:href="#path-5"></use>
                    </mask>
                    <g id="Clip-2"></g>
                    <path d="M56.2652,13.8878 L50.3132,13.8878 L49.4612,18.7198 L55.4132,18.7198 L56.2652,13.8878 Z M50.4762,12.9598 L56.4292,12.9598 L57.3262,7.8718 L51.3732,7.8718 L50.4762,12.9598 Z M47.4652,13.8878 L41.4492,13.8878 L40.5972,18.7198 L46.6132,18.7198 L47.4652,13.8878 Z M41.6132,12.9598 L47.6282,12.9598 L48.5262,7.8718 L42.5102,7.8718 L41.6132,12.9598 Z M40.0792,4.9598 C41.2442,5.4928 42.3152,6.1338 43.2922,6.8798 L48.7012,6.8798 L49.2822,3.5838 C49.5372,2.1338 49.7162,0.9388 49.8182,-0.0002 C50.8612,0.2558 51.7452,0.5288 52.4742,0.8168 C53.2022,1.1038 53.6662,1.3118 53.8682,1.4408 C54.0692,1.5688 54.1612,1.6858 54.1412,1.7918 C54.1002,2.0278 53.4692,2.4008 52.2482,2.9118 L51.5492,6.8798 L57.2772,6.8798 L58.4272,5.4408 C58.6712,5.1418 58.8572,4.9918 58.9852,4.9918 C59.2422,4.9918 59.8102,5.3328 60.6932,6.0158 C61.5752,6.6998 62.0012,7.1248 61.9712,7.2958 C61.9412,7.4668 61.3672,7.8198 60.2492,8.3518 L58.6242,17.5688 C58.4662,18.4638 58.3602,19.1248 58.3062,19.5518 L58.1892,20.5758 C58.1562,20.7678 58.0552,20.9168 57.8872,21.0248 C57.7182,21.1308 57.2582,21.3238 56.5052,21.5998 C55.7522,21.8778 55.2852,22.0158 55.1042,22.0158 C54.9222,22.0158 54.8682,21.8138 54.9392,21.4088 L55.2382,19.7118 L49.2862,19.7118 L48.4732,24.3208 C48.3762,24.8738 48.3422,25.2478 48.3722,25.4408 C48.4022,25.6318 48.5382,25.7648 48.7822,25.8398 C49.0242,25.9138 49.5932,25.9848 50.4892,26.0478 C51.3842,26.1128 52.6692,26.1438 54.3442,26.1438 C56.0182,26.1438 57.1212,26.0588 57.6532,25.8878 C58.1842,25.7168 58.6342,25.2268 59.0002,24.4158 C59.3682,23.6058 59.9232,21.8778 60.6662,19.2328 L61.3392,19.2328 C61.0132,20.9598 60.8622,22.2988 60.8872,23.2478 C60.9112,24.1978 61.2362,24.8958 61.8612,25.3438 C62.1472,25.5358 62.2772,25.7058 62.2502,25.8558 C62.2022,26.1328 61.8442,26.6178 61.1782,27.3118 C60.5122,28.0048 59.7642,28.4368 58.9332,28.6088 C58.1032,28.7788 56.5952,28.8648 54.4082,28.8648 C52.2212,28.8648 50.4742,28.8218 49.1672,28.7368 C47.8592,28.6508 46.9432,28.5228 46.4182,28.3518 C45.8932,28.1808 45.5622,27.8558 45.4232,27.3758 C45.2832,26.8958 45.3092,26.1128 45.5012,25.0248 L46.4382,19.7118 L40.4222,19.7118 L40.1172,21.4408 C40.0832,21.6318 40.0272,21.7708 39.9482,21.8558 C39.8692,21.9418 39.6252,22.0798 39.2192,22.2718 C38.8112,22.4638 38.3822,22.6298 37.9312,22.7678 C37.4792,22.9078 37.1802,22.9758 37.0302,22.9758 C36.8812,22.9758 36.8372,22.8598 36.9002,22.6238 C37.1802,21.6428 37.4182,20.5978 37.6132,19.4888 L39.6392,7.9998 C39.8312,6.9118 39.9772,5.8998 40.0792,4.9598 Z M29.8432,19.9998 C29.5552,21.5148 29.3832,22.6398 29.3282,23.3758 C29.2722,24.1128 29.3012,24.6178 29.4122,24.8958 C29.5232,25.1728 29.7142,25.4178 29.9862,25.6318 C30.2582,25.8448 30.3692,26.0908 30.3202,26.3678 C30.2862,26.5598 30.0542,26.9068 29.6252,27.4088 C29.1952,27.9088 28.7832,28.2828 28.3882,28.5288 C27.9922,28.7728 27.3982,28.9328 26.6072,29.0078 C25.8152,29.0818 24.8372,29.1198 23.6752,29.1198 C22.5122,29.1198 21.3562,29.0818 20.2072,29.0078 C19.0572,28.9328 18.3152,28.8478 17.9802,28.7518 C17.6452,28.6568 17.3832,28.5068 17.1952,28.3038 C17.0072,28.1008 16.8922,27.8128 16.8512,27.4408 C16.8102,27.0668 16.8432,26.5808 16.9482,25.9848 L18.2062,18.8478 C18.4622,17.3978 18.6402,16.2028 18.7422,15.2638 C19.6252,15.4558 20.4372,15.6918 21.1782,15.9678 C21.9182,16.2448 22.2752,16.4638 22.2462,16.6238 C22.2182,16.7838 21.8432,17.0348 21.1222,17.3758 L19.7282,25.2808 C19.6572,25.6848 19.6992,25.9898 19.8552,26.1928 C20.0122,26.3948 20.3912,26.5378 20.9952,26.6238 C21.5982,26.7088 22.3062,26.7518 23.1172,26.7518 C24.9092,26.7518 26.0222,26.6088 26.4572,26.3208 C26.8912,26.0328 27.3062,25.4088 27.6992,24.4488 C28.0922,23.4888 28.5612,22.0058 29.1072,19.9998 L29.8432,19.9998 Z M16.2822,-0.0002 C18.0812,0.3208 19.4192,0.7198 20.2942,1.1998 C21.1692,1.6798 21.5432,2.2838 21.4152,3.0078 C21.2872,3.7338 20.9822,4.3158 20.5002,4.7518 C20.0172,5.1898 19.4982,5.4088 18.9442,5.4088 C18.7522,5.4088 18.6212,5.3608 18.5542,5.2638 C18.4852,5.1678 18.3622,4.7798 18.1832,4.0958 C18.0052,3.4128 17.7322,2.7838 17.3642,2.2078 C16.9962,1.6318 16.5392,1.0768 15.9942,0.5438 L16.2822,-0.0002 Z M15.7392,6.5288 L6.7152,6.5288 C6.1392,6.5288 5.6782,6.6028 5.3312,6.7518 L4.9862,5.4408 C5.4152,5.5468 5.9392,5.5998 6.5582,5.5998 L27.6142,5.5998 L29.4732,3.5838 C29.7902,3.2428 30.0332,3.0728 30.2042,3.0728 C30.3742,3.0728 30.5982,3.1998 30.8722,3.4558 C31.1472,3.7118 31.4902,4.0638 31.9022,4.5118 C32.3132,4.9598 32.6012,5.2958 32.7652,5.5198 C32.9272,5.7438 32.9942,5.9418 32.9642,6.1128 C32.9152,6.3898 32.5072,6.5288 31.7392,6.5288 L18.0422,6.5288 C18.2842,6.6138 18.6012,6.7798 18.9952,7.0248 C19.3892,7.2698 19.5682,7.4928 19.5332,7.6968 C19.4972,7.8998 19.2952,8.0158 18.9272,8.0478 C18.5582,8.0798 18.2862,8.1388 18.1122,8.2238 C17.9362,8.3098 17.6992,8.4798 17.3972,8.7368 C15.8312,9.9948 13.8562,11.4558 11.4722,13.1198 L23.8752,12.8318 C23.0212,11.3818 21.9102,10.1228 20.5412,9.0558 L20.9252,8.5118 C22.9292,9.3658 24.4342,10.0848 25.4402,10.6718 C26.4452,11.2588 27.1172,11.8078 27.4532,12.3208 C27.7892,12.8318 27.8992,13.4188 27.7832,14.0798 C27.6662,14.7418 27.4152,15.2848 27.0312,15.7118 C26.6462,16.1388 26.2302,16.3518 25.7832,16.3518 C25.6542,16.3518 25.5532,16.2928 25.4772,16.1758 C25.4022,16.0588 25.2452,15.6798 25.0062,15.0398 C24.7662,14.4008 24.5232,13.8778 24.2742,13.4718 C19.8372,13.8348 16.3032,14.2188 13.6712,14.6238 C11.0392,15.0298 9.3862,15.3918 8.7112,15.7118 C8.5472,15.7978 8.4012,15.8398 8.2732,15.8398 C8.1442,15.8398 8.0472,15.7868 7.9812,15.6798 C7.9142,15.5738 7.8222,15.2808 7.7042,14.7998 C7.5862,14.3208 7.4722,13.7278 7.3612,13.0248 C8.1612,12.9598 8.7902,12.8428 9.2472,12.6718 C9.7042,12.5008 10.2022,12.1818 10.7442,11.7118 C11.2862,11.2428 12.1092,10.4438 13.2162,9.3118 C14.3222,8.1818 15.1622,7.2538 15.7392,6.5288 Z M12.3052,15.2958 C13.6602,15.5948 14.5752,15.8508 15.0492,16.0638 C15.5232,16.2778 15.7502,16.4438 15.7302,16.5598 C15.7092,16.6778 15.5462,16.8108 15.2432,16.9598 C14.9392,17.1098 14.6582,17.5578 14.3982,18.3038 C13.5482,20.5868 12.7872,22.3578 12.1182,23.6168 C11.4482,24.8738 10.6782,25.9088 9.8102,26.7198 C8.9422,27.5308 7.7642,28.1648 6.2742,28.6238 C4.7862,29.0818 2.6942,29.4508 0.0002,29.7278 L0.0342,28.9918 C2.3612,28.3728 4.0702,27.8188 5.1592,27.3278 C6.2482,26.8368 7.1452,26.1978 7.8492,25.4088 C8.5542,24.6178 9.3062,23.4088 10.1062,21.7768 C10.9062,20.1438 11.6392,17.9848 12.3052,15.2958 Z" id="Fill-1" fill="#333333" mask="url(#mask-6)"></path>
                </g>
                <path d="M98,17.6464844 C100.34897,17.0592419 102.640614,16.321619 104.875,15.4335938 C107.109386,14.5455685 109.057283,13.6110075 110.71875,12.6298828 C112.380217,11.6487581 113.662105,10.6962937 114.564453,9.77246094 C115.466801,8.84862819 115.917969,7.99284248 115.917969,7.20507812 C115.917969,6.41731377 115.473963,6.0234375 114.585938,6.0234375 C113.139316,6.0234375 111.431325,6.61067121 109.461914,7.78515625 C107.492503,8.95964129 105.523122,10.4169835 103.553711,12.1572266 C101.5843,13.8974696 99.7330816,15.7272039 98,17.6464844 Z M95.2285156,18.3339844 C92.7506387,18.4915372 90.9960989,18.1263065 89.9648438,17.2382812 C88.9335886,16.350256 88.4179688,15.2187569 88.4179688,13.84375 C88.4179688,13.0989546 88.6471331,12.2682338 89.1054688,11.3515625 C89.5638044,10.4348912 90.3551376,9.55045999 91.4794922,8.69824219 C92.6038468,7.84602438 94.1686098,7.1370471 96.1738281,6.57128906 C98.1790465,6.00553103 100.67837,5.72265625 103.671875,5.72265625 L103.671875,6.0234375 C100.549464,6.0234375 97.9642029,6.32779644 95.9160156,6.93652344 C93.8678283,7.54525044 92.3424529,8.27571188 91.3398438,9.12792969 C90.3372346,9.98014749 89.6497414,10.8287718 89.2773438,11.6738281 C88.9049461,12.5188844 88.71875,13.27083 88.71875,13.9296875 C88.71875,15.2617254 89.2522733,16.3216106 90.3193359,17.109375 C91.3863986,17.8971394 93.1087121,18.2194018 95.4863281,18.0761719 C96.6751362,16.8014259 98.1074135,15.4371817 99.7832031,13.9833984 C101.458993,12.5296151 103.195629,11.1796937 104.993164,9.93359375 C106.790699,8.68749377 108.527335,7.67415755 110.203125,6.89355469 C111.878915,6.11295183 113.339838,5.72265625 114.585938,5.72265625 C115.674485,5.72265625 116.21875,6.23111471 116.21875,7.24804688 C116.21875,8.33659398 115.345061,9.59341735 113.597656,11.0185547 C111.850252,12.443692 109.558608,13.7792906 106.722656,15.0253906 C103.886705,16.2714906 100.878922,17.2454392 97.6992188,17.9472656 C96.3098889,19.4798254 95.1998739,20.8082626 94.3691406,21.9326172 C93.5384073,23.0569718 92.922528,24.0595659 92.5214844,24.9404297 C92.1204407,25.8212935 91.9199219,26.6269495 91.9199219,27.3574219 C91.9199219,28.0735713 92.2529264,28.7001926 92.9189453,29.2373047 C93.5849643,29.7744167 94.4550728,30.0429688 95.5292969,30.0429688 C96.9902417,30.0429688 98.4654873,29.6598346 99.9550781,28.8935547 C101.444669,28.1272748 102.680008,27.1783911 103.661133,26.046875 C104.642258,24.9153589 105.132812,23.8697965 105.132812,22.9101562 C105.132812,22.1367149 104.91081,21.5566426 104.466797,21.1699219 C104.022784,20.7832012 103.392582,20.5898438 102.576172,20.5898438 C101.487625,20.5898438 100.194994,21.0803987 98.6982422,22.0615234 C97.2014899,23.0426481 95.7369863,24.8652211 94.3046875,27.5292969 L94.0039062,27.3144531 C95.3072982,24.8508991 96.7180914,23.0605525 98.2363281,21.9433594 C99.7545649,20.8261663 101.215488,20.2675781 102.619141,20.2675781 C103.550135,20.2675781 104.251951,20.5039039 104.724609,20.9765625 C105.197268,21.4492211 105.433594,22.0794231 105.433594,22.8671875 C105.433594,23.6835978 105.143558,24.5286415 104.563477,25.4023438 C103.983396,26.276046 103.192062,27.0924441 102.189453,27.8515625 C101.186844,28.6106809 100.105475,29.2158181 98.9453125,29.6669922 C97.7851504,30.1181663 96.6751355,30.34375 95.6152344,30.34375 C94.1972585,30.34375 93.0979857,29.9964227 92.3173828,29.3017578 C91.53678,28.6070929 91.1464844,27.5794339 91.1464844,26.21875 C91.1464844,25.001296 91.4472626,23.8053444 92.0488281,22.6308594 C92.6503936,21.4563743 93.7102789,20.024097 95.2285156,18.3339844 Z M122.148438,10.234375 L123.910156,10.234375 L109.623047,26.4335938 C110.983731,25.2877547 112.505525,24.1669977 114.188477,23.0712891 C115.871428,21.9755805 116.999346,21.4277344 117.572266,21.4277344 C118.2168,21.4277344 118.539062,21.7786423 118.539062,22.4804688 C118.539062,23.2968791 118.274091,24.0201791 117.744141,24.6503906 C117.21419,25.2806021 116.498051,25.9322883 115.595703,26.6054688 C114.47851,27.4218791 113.919922,28.0377583 113.919922,28.453125 C113.919922,28.7539078 114.098957,28.9042969 114.457031,28.9042969 C115.144535,28.9042969 116.068354,28.4960978 117.228516,27.6796875 C118.388678,26.8632772 119.856762,25.63868 121.632812,24.0058594 L121.632812,24.3710938 L121.009766,24.9296875 C119.577467,26.2474024 118.291998,27.2893842 117.15332,28.0556641 C116.014643,28.8219439 115.115889,29.2050781 114.457031,29.2050781 C113.812497,29.2050781 113.490234,28.8971385 113.490234,28.28125 C113.490234,27.106765 114.120436,25.9752659 115.380859,24.8867188 C116.3405,24.0416624 116.999347,23.4329446 117.357422,23.0605469 C117.715497,22.6881492 117.894531,22.3587254 117.894531,22.0722656 C117.894531,22.0006507 117.855144,21.9254561 117.776367,21.8466797 C117.697591,21.7679033 117.600912,21.7285156 117.486328,21.7285156 C116.927732,21.7285156 115.359388,22.6523345 112.78125,24.5 C110.661448,26.0325597 108.81381,27.6009034 107.238281,29.2050781 L105.390625,29.2050781 L116.798828,16.2285156 L106.894531,24.8007812 L106.894531,24.4570312 L113.039062,19.0429688 C114.772144,17.539055 116.097001,16.3717489 117.013672,15.5410156 C117.930343,14.7102823 118.746741,13.9225298 119.462891,13.1777344 C120.17904,12.432939 121.074213,11.451829 122.148438,10.234375 Z M127.412109,21.7285156 C126.55273,21.7285156 125.596685,22.1510374 124.543945,22.9960938 C123.491206,23.8411501 122.574548,24.8007759 121.793945,25.875 C121.013342,26.9492241 120.623047,27.7083311 120.623047,28.1523438 C120.623047,28.3671886 120.694661,28.5462232 120.837891,28.6894531 C120.981121,28.832683 121.160155,28.9042969 121.375,28.9042969 C121.962243,28.9042969 122.807286,28.4960978 123.910156,27.6796875 C125.013026,26.8632772 126.008459,25.9394583 126.896484,24.9082031 C127.78451,23.876948 128.228516,23.0677113 128.228516,22.4804688 C128.228516,21.9791642 127.956383,21.7285156 127.412109,21.7285156 Z M133.083984,24.3710938 L131.988281,25.2949219 C130.269523,26.7272207 128.998377,27.7369762 128.174805,28.3242188 C127.351233,28.9114613 126.624352,29.2050781 125.994141,29.2050781 C125.578774,29.2050781 125.371094,28.9687524 125.371094,28.4960938 C125.371094,27.9947892 125.564451,27.2929733 125.951172,26.390625 C123.902985,28.2669365 122.391932,29.2050781 121.417969,29.2050781 C120.988279,29.2050781 120.637371,29.0367855 120.365234,28.7001953 C120.093098,28.3636051 119.957031,27.8730501 119.957031,27.2285156 C119.957031,26.4980432 120.171873,25.7783239 120.601562,25.0693359 C121.031252,24.360348 121.607744,23.7337267 122.331055,23.1894531 C123.054366,22.6451796 123.863602,22.2154964 124.758789,21.9003906 C125.653976,21.5852849 126.524084,21.4277344 127.369141,21.4277344 C127.784507,21.4277344 128.088866,21.5029289 128.282227,21.6533203 C128.475587,21.8037117 128.579427,22.0507795 128.59375,22.3945312 C128.579427,22.4661462 128.568685,22.5341794 128.561523,22.5986328 C128.554362,22.6630863 128.540039,22.7526036 128.518555,22.8671875 C128.49707,22.9817714 128.479167,23.0748694 128.464844,23.1464844 L129.818359,21.5566406 L131.623047,21.4277344 L131.064453,22.1152344 C130.606117,22.6595079 130.233725,23.1070946 129.947266,23.4580078 C129.660806,23.808921 129.417319,24.0989572 129.216797,24.328125 C126.982411,26.74871 125.865234,28.1666646 125.865234,28.5820312 C125.865234,28.7968761 125.965494,28.9042969 126.166016,28.9042969 C126.438152,28.9042969 126.846351,28.7431657 127.390625,28.4208984 C127.934899,28.0986312 128.547197,27.6725287 129.227539,27.1425781 C129.907881,26.6126276 130.684891,25.9860062 131.558594,25.2626953 C132.432296,24.5393844 132.940754,24.1204433 133.083984,24.0058594 L133.083984,24.3710938 Z M132.546875,24.4570312 C133.191409,23.9414037 133.832354,23.4186224 134.469727,22.8886719 C135.1071,22.3587213 135.740882,21.8574242 136.371094,21.3847656 C136.25651,20.940753 136.313801,20.543296 136.542969,20.1923828 C136.772137,19.8414696 137.051431,19.6660156 137.380859,19.6660156 C137.567058,19.6660156 137.73177,19.719726 137.875,19.8271484 C138.01823,19.9345708 138.089844,20.0670565 138.089844,20.2246094 C138.089844,20.4108082 138.028972,20.5611973 137.907227,20.6757812 C137.785481,20.7903652 137.638673,20.8476562 137.466797,20.8476562 C137.294921,20.8476562 137.058595,20.7044285 136.757812,20.4179688 C136.671875,20.5325527 136.628906,20.6901032 136.628906,20.890625 C136.614583,21.0625009 136.682616,21.2236321 136.833008,21.3740234 C136.983399,21.5244148 137.151692,21.5996094 137.337891,21.5996094 C137.466798,21.5996094 137.660155,21.5709638 137.917969,21.5136719 C138.204429,21.4563799 138.376302,21.4277344 138.433594,21.4277344 C138.548178,21.4277344 138.644856,21.5351552 138.723633,21.75 C138.802409,21.9648448 138.841797,22.2226547 138.841797,22.5234375 C138.841797,22.7812513 138.666343,23.1214172 138.31543,23.5439453 C137.964516,23.9664735 137.359379,24.6575473 136.5,25.6171875 C135.640621,26.5768277 135.046226,27.2571595 134.716797,27.6582031 C134.387368,28.0592468 134.222656,28.3671864 134.222656,28.5820312 C134.222656,28.7968761 134.365884,28.9042969 134.652344,28.9042969 C135.053387,28.9042969 135.909173,28.435226 137.219727,27.4970703 C138.53028,26.5589146 140.052075,25.3665437 141.785156,23.9199219 L141.785156,24.2851562 C137.932272,27.5651206 135.497401,29.2050781 134.480469,29.2050781 C134.093748,29.2050781 133.900391,28.9687524 133.900391,28.4960938 C133.900391,27.8229133 134.032876,27.1855499 134.297852,26.5839844 C134.562827,25.9824189 135.017575,25.3164099 135.662109,24.5859375 L138.175781,21.8144531 C137.874998,21.929037 137.534833,21.9791667 137.155273,21.9648438 C136.775714,21.9505208 136.542969,21.8431 136.457031,21.6425781 C134.552074,23.2181068 133.248701,24.2708307 132.546875,24.8007812 L132.546875,24.4570312 Z M148.445312,22.5664062 C148.445312,22.3372384 148.348634,22.1546231 148.155273,22.0185547 C147.961913,21.8824863 147.729168,21.8144531 147.457031,21.8144531 C146.654944,21.8144531 145.727544,22.2226522 144.674805,23.0390625 C143.622065,23.8554728 142.708988,24.7936145 141.935547,25.8535156 C141.162106,26.9134168 140.775391,27.6940079 140.775391,28.1953125 C140.775391,28.3671884 140.864908,28.5211582 141.043945,28.6572266 C141.222983,28.793295 141.412759,28.8613281 141.613281,28.8613281 C142.186201,28.8613281 143.024083,28.4531291 144.126953,27.6367188 C145.229823,26.8203084 146.225256,25.9000702 147.113281,24.8759766 C148.001307,23.8518829 148.445312,23.0820338 148.445312,22.5664062 Z M141.033203,32.234375 C138.369127,33.3802141 136.406907,34.2861295 135.146484,34.9521484 C133.886061,35.6181674 132.833338,36.4023392 131.988281,37.3046875 C131.272132,38.1067748 130.914062,38.794268 130.914062,39.3671875 C130.914062,39.6679703 131.021483,39.904296 131.236328,40.0761719 C131.451173,40.2480477 131.730467,40.3339844 132.074219,40.3339844 C132.761722,40.3339844 133.531571,40.0403675 134.383789,39.453125 C135.236007,38.8658825 136.256504,37.9277408 137.445312,36.6386719 C139.221363,34.5618386 140.417315,33.0937543 141.033203,32.234375 Z M141.441406,31.7617188 L144.642578,27.7226562 C144.399087,27.8658861 144.198568,27.9947911 144.041016,28.109375 C143.00976,28.8112014 142.200524,29.1621094 141.613281,29.1621094 C140.610672,29.1621094 140.109375,28.5032618 140.109375,27.1855469 C140.109375,26.3834595 140.356443,25.6315139 140.850586,24.9296875 C141.344729,24.2278611 141.978512,23.6227239 142.751953,23.1142578 C143.525394,22.6057917 144.32747,22.2119155 145.158203,21.9326172 C145.988936,21.6533189 146.755205,21.5136719 147.457031,21.5136719 C148.316411,21.5136719 148.746094,21.8216115 148.746094,22.4375 C148.746094,22.6093759 148.688803,22.8743472 148.574219,23.2324219 L150.056641,21.5136719 L151.861328,21.5136719 L143.869141,30.6230469 C145.215502,29.9641894 146.608391,29.1084037 148.047852,28.0556641 C149.487312,27.0029244 151.216787,25.6243575 153.236328,23.9199219 L153.236328,24.2851562 C151.846998,25.4882873 150.658208,26.4801393 149.669922,27.2607422 C148.681636,28.041345 147.664719,28.7610644 146.619141,29.4199219 C145.573562,30.0787793 144.492193,30.666013 143.375,31.1816406 C141.541657,33.186859 140.00554,34.8089131 138.766602,36.0478516 C137.527663,37.28679 136.496423,38.2356738 135.672852,38.8945312 C134.84928,39.5533887 134.158206,40.0117175 133.599609,40.2695312 C133.041013,40.527345 132.518232,40.65625 132.03125,40.65625 C131.60156,40.65625 131.257814,40.5345064 131,40.2910156 C130.742186,40.0475248 130.613281,39.7395852 130.613281,39.3671875 C130.613281,38.765622 130.914059,38.1067744 131.515625,37.390625 C132.117191,36.6744756 132.976557,35.9619176 134.09375,35.2529297 C135.210943,34.5439418 136.514315,33.8815135 138.003906,33.265625 L141.140625,31.9335938 L141.441406,31.7617188 Z M154.310547,24.8867188 C155.499355,24.8867188 156.501949,24.7363296 157.318359,24.4355469 C158.13477,24.1347641 158.75423,23.7766948 159.176758,23.3613281 C159.599286,22.9459615 159.810547,22.6093763 159.810547,22.3515625 C159.810547,21.9361958 159.56706,21.7285156 159.080078,21.7285156 C158.435544,21.7285156 157.683598,22.0113904 156.824219,22.5771484 C155.964839,23.1429065 155.126957,23.9127555 154.310547,24.8867188 Z M161.9375,23.9199219 L161.9375,24.2851562 C160.333325,25.8893309 158.865241,27.1103474 157.533203,27.9482422 C156.201165,28.786137 154.854825,29.2050781 153.494141,29.2050781 C152.29101,29.2050781 151.689453,28.517585 151.689453,27.1425781 C151.689453,25.9967391 152.122717,24.9905642 152.989258,24.1240234 C153.855799,23.2574826 154.872716,22.5914737 156.040039,22.1259766 C157.207363,21.6604794 158.156246,21.4277344 158.886719,21.4277344 C159.302085,21.4277344 159.627929,21.5244131 159.864258,21.7177734 C160.100587,21.9111338 160.21875,22.165363 160.21875,22.4804688 C160.21875,22.9674504 159.953779,23.415037 159.423828,23.8232422 C158.893878,24.2314474 158.156255,24.5680325 157.210938,24.8330078 C156.26562,25.0979831 155.155605,25.2519529 153.880859,25.2949219 C152.792312,26.5266989 152.248047,27.4648405 152.248047,28.109375 C152.248047,28.3385428 152.36621,28.5283196 152.602539,28.6787109 C152.838868,28.8291023 153.136066,28.9042969 153.494141,28.9042969 C155.800142,28.9042969 158.614567,27.2428552 161.9375,23.9199219 Z" id="Charge" fill="#999999"></path>
            </g>
        </g>
    </g>
</svg>