<?xml version="1.0" encoding="UTF-8"?>
<svg width="312px" height="78px" viewBox="0 0 312 78" version="1.1" xmlns="http://www.w3.org/2000/svg" xmlns:xlink="http://www.w3.org/1999/xlink">
    <!-- Generator: Sketch 50.2 (55047) - http://www.bohemiancoding.com/sketch -->
    <title>04</title>
    <desc>Created with Sketch.</desc>
    <defs>
        <polygon id="path-1" points="0.000343640841 0.0003 57.85 0.0003 57.85 29.6 0.000343640841 29.6"></polygon>
        <polygon id="path-3" points="0 0.47805 32.0357778 0.47805 32.0357778 62 0 62"></polygon>
        <polygon id="path-5" points="0.8708 0.126 33.8708 0.126 33.8708 60.5937 0.8708 60.5937"></polygon>
    </defs>
    <g id="Page-1" stroke="none" stroke-width="1" fill="none" fill-rule="evenodd">
        <g id="Artboard-2" transform="translate(-208.000000, -553.000000)">
            <g id="04" transform="translate(346.000000, 556.000000)">
                <g id="电池" transform="translate(29.000000, 44.000000)">
                    <mask id="mask-2" fill="white">
                        <use xlink:href="#path-1"></use>
                    </mask>
                    <g id="Clip-2"></g>
                    <path d="M50.1024,9.6643 L53.4224,8.2563 L54.6404,6.4323 C54.8384,6.1553 55.0124,6.0163 55.1614,6.0163 C55.3104,6.0163 55.8094,6.2453 56.6564,6.7043 C57.5034,7.1633 57.8994,7.5473 57.8454,7.8553 C57.7904,8.1653 57.3564,8.5653 56.5454,9.0563 C56.1324,11.2743 55.6894,13.4243 55.2164,15.5043 C54.7434,17.5843 54.4064,18.8913 54.2054,19.4243 C54.0044,19.9573 53.7064,20.4053 53.3124,20.7683 C52.9174,21.1313 52.3744,21.4563 51.6844,21.7443 C50.9934,22.0323 50.5684,22.1763 50.4084,22.1763 C50.2484,22.1763 50.1384,22.1343 50.0784,22.0483 C50.0194,21.9633 50.0044,21.8353 50.0344,21.6643 L50.0964,21.3113 C50.2014,20.7153 50.1374,20.2343 49.9024,19.8723 C49.6674,19.5103 49.2614,19.2113 48.6844,18.9763 L48.9194,18.3683 C49.9064,18.5813 50.5644,18.6873 50.8954,18.6873 C51.2254,18.6873 51.4574,18.5813 51.5914,18.3683 C51.7254,18.1553 52.0064,17.2533 52.4364,15.6643 C52.8654,14.0753 53.3084,11.9893 53.7634,9.4083 L49.8484,11.1033 L48.1894,20.5123 C48.0354,21.3873 47.9314,22.0373 47.8774,22.4643 L47.7604,23.4883 C47.7044,23.8083 47.2884,24.1063 46.5154,24.3843 C45.7404,24.6613 45.2574,24.8003 45.0654,24.8003 C44.8734,24.8003 44.8034,24.6503 44.8564,24.3523 L46.9724,12.3523 L43.8504,13.7273 L41.9934,24.2563 C41.8844,24.8743 41.8404,25.3073 41.8604,25.5523 C41.8814,25.7973 42.0064,25.9683 42.2344,26.0633 C42.4624,26.1603 43.0854,26.2283 44.1024,26.2713 C45.1184,26.3143 46.2294,26.3363 47.4344,26.3363 C48.6394,26.3363 49.7434,26.2763 50.7454,26.1603 C51.7474,26.0423 52.4054,25.9143 52.7174,25.7753 C53.0294,25.6373 53.3284,25.3653 53.6134,24.9603 C53.8974,24.5553 54.2084,23.9413 54.5454,23.1203 C54.8824,22.2993 55.3234,21.0663 55.8694,19.4243 L56.4984,19.4883 C56.3744,20.0633 56.2414,20.7633 56.0964,21.5843 C55.9514,22.4053 55.9024,23.1683 55.9494,23.8723 C55.9954,24.5763 56.1644,25.0723 56.4554,25.3593 C56.7454,25.6473 56.8794,25.8553 56.8564,25.9833 C56.8114,26.2403 56.4094,26.7353 55.6504,27.4723 C54.8914,28.2083 53.9934,28.6403 52.9574,28.7683 C51.9214,28.8953 49.9104,28.9603 46.9244,28.9603 C43.9364,28.9603 41.9284,28.8913 40.8964,28.7523 C39.8654,28.6133 39.2604,28.3193 39.0834,27.8723 C38.9064,27.4243 38.9384,26.5173 39.1794,25.1513 L40.9794,14.9433 C39.9074,15.4563 39.2484,15.8083 39.0014,16.0003 L38.0544,14.6563 C38.5674,14.5273 39.0434,14.3683 39.4824,14.1763 L41.2444,13.4393 L42.0684,8.7683 C42.3244,7.3173 42.5024,6.1233 42.6044,5.1843 C45.0184,5.8883 46.1994,6.3903 46.1474,6.6873 C46.1214,6.8373 45.7214,7.1033 44.9504,7.4883 L44.1154,12.2243 L47.2314,10.8803 L48.7384,2.3363 C48.8624,1.6323 48.9674,0.8533 49.0544,0.0003 C49.7104,0.1493 50.3844,0.3513 51.0754,0.6073 C51.7664,0.8643 52.2194,1.0453 52.4354,1.1513 C52.6504,1.2593 52.7434,1.4023 52.7114,1.5843 C52.6794,1.7663 52.2254,2.1023 51.3494,2.5923 L50.1024,9.6643 Z M35.9604,1.1203 C37.3334,1.8033 38.3154,2.3413 38.9084,2.7353 C39.4994,3.1313 39.8684,3.4883 40.0154,3.8083 C40.1614,4.1283 40.1844,4.5713 40.0844,5.1363 C39.9854,5.7013 39.6544,6.2773 39.0924,6.8643 C38.5294,7.4513 38.0574,7.7443 37.6724,7.7443 C37.2894,7.7443 37.0754,7.3813 37.0324,6.6563 C36.9724,5.5473 36.8484,4.7093 36.6594,4.1433 C36.4714,3.5793 36.0554,2.7633 35.4114,1.6963 L35.9604,1.1203 Z M41.7464,6.2403 L36.8584,15.8083 C36.1704,17.1733 35.6524,18.3523 35.3074,19.3443 C34.9614,20.3363 34.6964,21.3593 34.5094,22.4163 C34.3234,23.4723 34.1464,24.6563 33.9794,25.9683 C33.8124,27.2803 33.7264,27.9463 33.7234,27.9683 C33.5314,29.0563 33.0724,29.6003 32.3474,29.6003 C31.9634,29.6003 31.5034,29.4503 30.9704,29.1513 C30.4354,28.8523 30.2344,28.3303 30.3664,27.5843 C30.4264,27.2423 30.6534,26.5603 31.0474,25.5363 C31.4414,24.5123 31.6934,23.6903 31.8024,23.0723 C31.9904,22.0053 31.8434,21.2963 31.3614,20.9433 C30.8794,20.5923 30.0814,20.2453 28.9684,19.9033 L29.1454,19.2643 C30.6984,19.2853 31.6814,19.2223 32.0914,19.0723 C32.5014,18.9233 32.8554,18.6993 33.1544,18.3993 C33.4514,18.1023 33.9564,17.3873 34.6674,16.2563 L41.1514,5.9833 L41.7464,6.2403 Z M31.1094,9.2163 C32.7334,9.6853 33.9494,10.1393 34.7574,10.5763 C35.5654,11.0143 35.9024,11.6163 35.7674,12.3843 C35.6314,13.1513 35.3104,13.7923 34.8044,14.3043 C34.2974,14.8153 33.8734,15.0723 33.5324,15.0723 C33.3404,15.0723 33.2064,15.0183 33.1284,14.9123 C33.0514,14.8063 32.9814,14.5713 32.9174,14.2083 C32.6384,12.5223 31.9134,11.0083 30.7424,9.6643 L31.1094,9.2163 Z M19.3924,14.1433 L13.4404,14.1433 L12.5884,18.9763 L18.5404,18.9763 L19.3924,14.1433 Z M13.6034,13.2163 L19.5564,13.2163 L20.4534,8.1283 L14.5014,8.1283 L13.6034,13.2163 Z M10.5924,14.1433 L4.5764,14.1433 L3.7244,18.9763 L9.7404,18.9763 L10.5924,14.1433 Z M4.7404,13.2163 L10.7564,13.2163 L11.6534,8.1283 L5.6374,8.1283 L4.7404,13.2163 Z M3.2064,5.2163 C4.3714,5.7493 5.4424,6.3903 6.4204,7.1363 L11.8284,7.1363 L12.4094,3.8403 C12.6644,2.3903 12.8434,1.1943 12.9454,0.2563 C13.9884,0.5123 14.8724,0.7843 15.6014,1.0723 C16.3294,1.3593 16.7934,1.5673 16.9954,1.6963 C17.1964,1.8243 17.2884,1.9413 17.2694,2.0483 C17.2274,2.2833 16.5964,2.6563 15.3754,3.1683 L14.6764,7.1363 L20.4044,7.1363 L21.5544,5.6963 C21.7984,5.3973 21.9854,5.2483 22.1134,5.2483 C22.3694,5.2483 22.9374,5.5893 23.8204,6.2713 C24.7024,6.9553 25.1284,7.3813 25.0994,7.5523 C25.0684,7.7233 24.4944,8.0753 23.3764,8.6073 L21.7514,17.8243 C21.5934,18.7203 21.4874,19.3813 21.4334,19.8083 L21.3174,20.8323 C21.2834,21.0233 21.1824,21.1733 21.0144,21.2803 C20.8454,21.3873 20.3854,21.5793 19.6324,21.8553 C18.8794,22.1343 18.4124,22.2713 18.2314,22.2713 C18.0494,22.2713 17.9954,22.0693 18.0664,21.6643 L18.3654,19.9683 L12.4134,19.9683 L11.6014,24.5763 C11.5034,25.1303 11.4694,25.5043 11.4994,25.6963 C11.5294,25.8883 11.6664,26.0203 11.9094,26.0963 C12.1514,26.1703 12.7204,26.2403 13.6164,26.3043 C14.5114,26.3683 15.7964,26.3993 17.4714,26.3993 C19.1454,26.3993 20.2484,26.3143 20.7804,26.1433 C21.3114,25.9733 21.7614,25.4823 22.1274,24.6723 C22.4954,23.8613 23.0504,22.1343 23.7944,19.4883 L24.4664,19.4883 C24.1404,21.2163 23.9894,22.5553 24.0144,23.5043 C24.0384,24.4533 24.3634,25.1513 24.9884,25.6003 C25.2744,25.7923 25.4044,25.9623 25.3784,26.1113 C25.3294,26.3893 24.9714,26.8743 24.3054,27.5673 C23.6394,28.2613 22.8914,28.6923 22.0604,28.8643 C21.2304,29.0343 19.7224,29.1203 17.5354,29.1203 C15.3484,29.1203 13.6014,29.0773 12.2944,28.9923 C10.9864,28.9063 10.0704,28.7783 9.5454,28.6073 C9.0214,28.4363 8.6894,28.1113 8.5504,27.6323 C8.4104,27.1513 8.4364,26.3683 8.6284,25.2803 L9.5654,19.9683 L3.5494,19.9683 L3.2454,21.6963 C3.2104,21.8883 3.1544,22.0263 3.0754,22.1113 C2.9964,22.1973 2.7524,22.3363 2.3464,22.5273 C1.9384,22.7203 1.5094,22.8863 1.0584,23.0233 C0.6074,23.1633 0.3074,23.2313 0.1584,23.2313 C0.0084,23.2313 -0.0346,23.1153 0.0284,22.8803 C0.3074,21.8983 0.5454,20.8533 0.7414,19.7443 L2.7664,8.2563 C2.9584,7.1683 3.1044,6.1553 3.2064,5.2163 Z" id="Fill-1" fill="#333333" mask="url(#mask-2)"></path>
                </g>
                <g transform="translate(99.000000, 11.000000)">
                    <g id="Group-3" transform="translate(0.000000, 0.874000)">
                        <mask id="mask-4" fill="white">
                            <use xlink:href="#path-3"></use>
                        </mask>
                        <g id="Clip-2"></g>
                        <path d="M5.9643,51.2783 C6.5263,55.3813 7.5183,57.7263 8.9433,58.3083 C10.3603,58.8963 11.8273,58.8963 13.3373,58.3083 C14.8463,57.7263 16.6663,55.3813 18.7963,51.2783 C20.9243,47.1793 22.8173,40.4393 24.4703,31.0623 C26.1223,21.6913 26.6593,14.6603 26.0803,9.9683 C25.5003,5.2833 23.7433,2.9373 20.8163,2.9373 C17.8823,2.9373 15.3593,5.2833 13.2483,9.9683 C11.1303,14.6603 9.2473,21.6913 7.5953,31.0623 C5.9423,40.4393 5.3953,47.1793 5.9643,51.2783 M30.5983,9.2653 C32.3803,14.4243 32.5053,21.6913 30.9743,31.0623 C29.4363,40.4393 26.7683,47.9373 22.9633,53.5623 C19.1593,59.1883 14.9723,62.0003 10.4013,62.0003 C5.8313,62.0003 2.7513,59.1883 1.1663,53.5623 C-0.4237,47.9373 -0.3867,40.4393 1.2673,31.0623 C2.9193,21.6913 5.4853,14.4243 8.9773,9.2653 C12.4623,4.1133 15.4193,1.3003 17.8483,0.8283 C20.2703,0.3613 22.5553,0.3613 24.7033,0.8283 C26.8443,1.3003 28.8103,4.1133 30.5983,9.2653" id="Fill-1" fill="#0B74B9" mask="url(#mask-4)"></path>
                    </g>
                    <g id="Group-6" transform="translate(40.000000, 0.874000)">
                        <mask id="mask-6" fill="white">
                            <use xlink:href="#path-5"></use>
                        </mask>
                        <g id="Clip-5"></g>
                        <path d="M21.9018,38.0937 L27.0478,8.9147 L5.0268,38.0937 L21.9018,38.0937 Z M33.8708,0.1257 L27.1748,38.0937 L32.0968,38.0937 L31.1058,43.7187 L26.1838,43.7187 L23.2078,60.5937 L17.9348,60.5937 L20.9098,43.7187 L0.8708,43.7187 L1.9868,37.3907 L31.0578,0.1257 L33.8708,0.1257 Z" id="Fill-4" fill="#0B74B9" mask="url(#mask-6)"></path>
                    </g>
                </g>
                <path d="M29.2617188,17.7753906 C28.6458303,16.9733033 27.9153688,16.5722656 27.0703125,16.5722656 C26.7838527,16.5722656 26.5403656,16.6689443 26.3398438,16.8623047 C26.1393219,17.055665 26.0390625,17.2812487 26.0390625,17.5390625 C26.0390625,18.111982 26.4687457,18.3769533 27.328125,18.3339844 C27.6432307,18.3196614 27.9511704,18.265951 28.2519531,18.1728516 C28.5527359,18.0797521 28.8893211,17.9472665 29.2617188,17.7753906 Z M24.7714844,8.0859375 L25.1152344,8.12890625 C25.1152344,9.40365221 24.7034546,10.7356701 23.8798828,12.125 C23.056311,13.5143299 22.0071678,14.7890567 20.7324219,15.9492188 C19.4576759,17.1093808 18.1184966,18.0475225 16.7148438,18.7636719 C15.3111909,19.4798213 14.0651096,19.8378906 12.9765625,19.8378906 C12.0885372,19.8378906 11.3974634,19.5765 10.9033203,19.0537109 C10.4091772,18.5309219 10.1621094,17.8112025 10.1621094,16.8945312 C10.1621094,15.5768163 10.6275995,14.2519598 11.5585938,12.9199219 C12.489588,11.587884 13.7571534,10.3811903 15.3613281,9.29980469 C16.9655028,8.21841907 18.820302,7.35189128 20.9257812,6.70019531 C23.0312605,6.04849935 25.2083221,5.72265625 27.4570313,5.72265625 C28.4739634,5.72265625 29.3512333,5.78710873 30.0888672,5.91601562 C30.8265011,6.04492252 31.5032521,6.24902204 32.1191406,6.52832031 C32.7350291,6.80761858 33.4081995,7.24088248 34.1386719,7.828125 C34.8548213,7.36978937 35.6139283,6.94726756 36.4160156,6.56054688 C37.218103,6.17382619 37.9127575,5.89453211 38.5,5.72265625 L38.7578125,6.06640625 C38.127601,6.2526051 37.3828168,6.56054473 36.5234375,6.99023438 C35.6640582,7.41992402 34.9765651,7.79947752 34.4609375,8.12890625 C34.9192731,8.64453383 35.2164707,9.1458309 35.3525391,9.6328125 C35.4886075,10.1197941 35.5566406,10.7070278 35.5566406,11.3945312 C35.5566406,12.3112025 35.3525411,13.1490847 34.9443359,13.9082031 C34.5361308,14.6673215 33.9166708,15.3762988 33.0859375,16.0351562 C32.2552042,16.6940137 31.1523506,17.3313771 29.7773438,17.9472656 C30.0924495,18.4915392 30.3108718,18.9892556 30.4326172,19.4404297 C30.5543626,19.8916038 30.6152344,20.4179657 30.6152344,21.0195312 C30.6152344,22.1224013 30.3144561,23.2324163 29.7128906,24.3496094 C29.1113251,25.4668025 28.3164112,26.4729773 27.328125,27.3681641 C26.3398388,28.2633508 25.2226625,28.9830702 23.9765625,29.5273438 C22.7304625,30.0716173 21.498704,30.34375 20.28125,30.34375 C18.9348891,30.34375 18.2617188,29.7780004 18.2617188,28.6464844 C18.2617188,27.8157511 18.6018846,26.9241584 19.2822266,25.9716797 C19.9625685,25.019201 20.8684839,24.1562539 22,23.3828125 C23.1315161,22.6093711 24.3059835,22.0579444 25.5234375,21.7285156 L25.609375,22.0292969 C23.5755107,22.7311233 22.0214897,23.5976511 20.9472656,24.6289062 C20.2024702,25.3307327 19.6188172,26.0432907 19.1962891,26.7666016 C18.7737609,27.4899125 18.5625,28.1451794 18.5625,28.7324219 C18.5625,29.6061242 19.1497337,30.0429688 20.3242188,30.0429688 C21.5559957,30.0429688 22.7483666,29.6526732 23.9013672,28.8720703 C25.0543677,28.0914675 26.0748654,27.0996154 26.9628906,25.8964844 C27.8509159,24.6933534 28.5419897,23.5045632 29.0361328,22.3300781 C29.5302759,21.1555931 29.7773438,20.1888059 29.7773438,19.4296875 C29.7773438,18.9570289 29.6914071,18.5201843 29.5195312,18.1191406 C28.8606738,18.4772153 28.1302123,18.65625 27.328125,18.65625 C26.7408825,18.65625 26.3291027,18.5524099 26.0927734,18.3447266 C25.8564441,18.1370432 25.7382812,17.8541685 25.7382812,17.4960938 C25.7382812,17.166665 25.8564441,16.8802096 26.0927734,16.6367188 C26.3291027,16.3932279 26.6692686,16.2714844 27.1132812,16.2714844 C27.9583376,16.2714844 28.7747356,16.7298131 29.5625,17.6464844 C30.4791713,17.1308568 31.3385377,16.4541058 32.140625,15.6162109 C32.9427123,14.7783161 33.5729144,13.8795621 34.03125,12.9199219 C34.4895856,11.9602817 34.71875,11.0651083 34.71875,10.234375 C34.71875,9.36067271 34.5253926,8.73047068 34.1386719,8.34375 C32.6490811,9.17448332 31.0843181,10.3596928 29.4443359,11.8994141 C27.8043538,13.4391353 26.039072,15.5839706 24.1484375,18.3339844 C23.1744743,19.8092522 22.3365921,20.9479127 21.6347656,21.75 C20.9329392,22.5520873 20.0449272,23.4544221 18.9707031,24.4570312 C17.8105411,25.5312554 16.6718806,26.4622356 15.5546875,27.25 C14.4374944,28.0377644 13.3847706,28.6500629 12.3964844,29.0869141 C11.4081982,29.5237652 10.4235075,29.8424469 9.44238281,30.0429688 C8.46125812,30.2434906 7.42643773,30.34375 6.33789062,30.34375 C3.11521826,30.34375 1.50390625,29.5273519 1.50390625,27.8945312 C1.50390625,27.4934876 1.60416566,27.1712252 1.8046875,26.9277344 C2.00520934,26.6842436 2.28450342,26.5625 2.64257812,26.5625 C2.85742295,26.5625 3.03645762,26.6412753 3.1796875,26.7988281 C3.32291738,26.956381 3.39453125,27.1425771 3.39453125,27.3574219 C3.39453125,27.5436207 3.315756,27.7011712 3.15820312,27.8300781 C3.00065025,27.958985 2.84309975,28.0234375 2.68554688,28.0234375 C2.4134101,28.0234375 2.19140711,27.9016939 2.01953125,27.6582031 C1.99088527,27.6009112 1.94791695,27.5722656 1.890625,27.5722656 C1.83333305,27.5722656 1.8046875,27.708332 1.8046875,27.9804688 C1.8046875,28.5963572 2.18782169,29.0940736 2.95410156,29.4736328 C3.72038144,29.853192 4.80533152,30.0429688 6.20898438,30.0429688 C7.66992918,30.0429688 8.98046295,29.8603534 10.140625,29.4951172 C11.3007871,29.129881 12.4000599,28.5605507 13.4384766,27.7871094 C14.4768932,27.013668 15.6764255,25.9036531 17.0371094,24.4570312 C17.3378921,24.1276025 17.817705,23.5797564 18.4765625,22.8134766 C19.13542,22.0471967 19.9553987,21.0875709 20.9365234,19.9345703 C21.9176481,18.7815698 22.7984987,17.7610721 23.5791016,16.8730469 C24.3597044,15.9850216 24.9075505,15.4049493 25.2226562,15.1328125 L26.5332031,13.8867188 C28.5813904,11.9674383 29.9563767,10.721357 30.6582031,10.1484375 C31.3600296,9.57551797 32.405592,8.87370207 33.7949219,8.04296875 C32.2480391,6.69660785 30.1640756,6.0234375 27.5429688,6.0234375 C25.1653527,6.0234375 22.9345807,6.36002268 20.8505859,7.03320312 C18.7665911,7.70638357 16.9547603,8.58723414 15.4150391,9.67578125 C13.8753178,10.7643284 12.6722049,11.9495379 11.8056641,13.2314453 C10.9391233,14.5133528 10.5058594,15.7200464 10.5058594,16.8515625 C10.5058594,17.6679728 10.7242817,18.3124976 11.1611328,18.7851562 C11.597984,19.2578149 12.2031211,19.4941406 12.9765625,19.4941406 C13.9934947,19.4941406 15.1894462,19.139652 16.5644531,18.4306641 C17.93946,17.7216761 19.2499938,16.8050186 20.4960938,15.6806641 C21.7421937,14.5563095 22.766272,13.3281317 23.5683594,11.9960938 C24.3704467,10.6640558 24.7714844,9.36068346 24.7714844,8.0859375 Z M37.6835938,21.7285156 C36.8242145,21.7285156 35.8681693,22.1510374 34.8154297,22.9960938 C33.76269,23.8411501 32.8460325,24.8007759 32.0654297,25.875 C31.2848268,26.9492241 30.8945312,27.7083311 30.8945312,28.1523438 C30.8945312,28.3671886 30.9661451,28.5462232 31.109375,28.6894531 C31.2526049,28.832683 31.4316396,28.9042969 31.6464844,28.9042969 C32.2337269,28.9042969 33.0787705,28.4960978 34.1816406,27.6796875 C35.2845107,26.8632772 36.2799435,25.9394583 37.1679688,24.9082031 C38.055994,23.876948 38.5,23.0677113 38.5,22.4804688 C38.5,21.9791642 38.2278673,21.7285156 37.6835938,21.7285156 Z M43.3554688,24.3710938 L42.2597656,25.2949219 C40.541007,26.7272207 39.2698609,27.7369762 38.4462891,28.3242188 C37.6227172,28.9114613 36.8958365,29.2050781 36.265625,29.2050781 C35.8502583,29.2050781 35.6425781,28.9687524 35.6425781,28.4960938 C35.6425781,27.9947892 35.8359356,27.2929733 36.2226562,26.390625 C34.1744689,28.2669365 32.6634163,29.2050781 31.6894531,29.2050781 C31.2597635,29.2050781 30.9088555,29.0367855 30.6367188,28.7001953 C30.364582,28.3636051 30.2285156,27.8730501 30.2285156,27.2285156 C30.2285156,26.4980432 30.4433572,25.7783239 30.8730469,25.0693359 C31.3027365,24.360348 31.8792282,23.7337267 32.6025391,23.1894531 C33.32585,22.6451796 34.1350867,22.2154964 35.0302734,21.9003906 C35.9254602,21.5852849 36.7955687,21.4277344 37.640625,21.4277344 C38.0559917,21.4277344 38.3603506,21.5029289 38.5537109,21.6533203 C38.7470713,21.8037117 38.8509114,22.0507795 38.8652344,22.3945312 C38.8509114,22.4661462 38.8401693,22.5341794 38.8330078,22.5986328 C38.8258463,22.6630863 38.8115235,22.7526036 38.7900391,22.8671875 C38.7685546,22.9817714 38.7506511,23.0748694 38.7363281,23.1464844 L40.0898438,21.5566406 L41.8945312,21.4277344 L41.3359375,22.1152344 C40.8776019,22.6595079 40.5052098,23.1070946 40.21875,23.4580078 C39.9322902,23.808921 39.6888031,24.0989572 39.4882812,24.328125 C37.2538951,26.74871 36.1367188,28.1666646 36.1367188,28.5820312 C36.1367188,28.7968761 36.2369782,28.9042969 36.4375,28.9042969 C36.7096368,28.9042969 37.1178358,28.7431657 37.6621094,28.4208984 C38.2063829,28.0986312 38.8186815,27.6725287 39.4990234,27.1425781 C40.1793654,26.6126276 40.9563758,25.9860062 41.8300781,25.2626953 C42.7037804,24.5393844 43.2122389,24.1204433 43.3554688,24.0058594 L43.3554688,24.3710938 Z M50.1660156,18.4199219 L53.7324219,14.3808594 L55.5800781,14.3808594 L52.0136719,18.4199219 L54.7421875,18.4199219 L54.5058594,18.7851562 L51.734375,18.7851562 L46.5136719,24.7148438 C45.9407523,25.3450552 45.3069696,26.1041622 44.6123047,26.9921875 C43.9176398,27.8802128 43.5703125,28.3671871 43.5703125,28.453125 C43.5703125,28.7539078 43.727863,28.9042969 44.0429688,28.9042969 C45.2174538,28.9042969 47.7382619,27.2428552 51.6054688,23.9199219 L51.6054688,24.2851562 L50.4667969,25.2949219 C47.5019383,27.9017057 45.3463609,29.2050781 44,29.2050781 C43.6705713,29.2050781 43.4127613,29.1119801 43.2265625,28.9257812 C43.0403637,28.7395824 42.9472656,28.5247408 42.9472656,28.28125 C42.9472656,27.7083305 43.351884,26.755866 44.1611328,25.4238281 C44.9703817,24.0917902 46.5566288,22.2441524 48.9199219,19.8808594 C47.4589771,20.8548226 45.4251432,22.4947801 42.8183594,24.8007812 L42.8183594,24.4570312 C43.6920617,23.6262979 44.7734311,22.6845756 46.0625,21.6318359 C47.3515689,20.5790963 48.611973,19.6302126 49.84375,18.7851562 L48.2753906,18.7851562 L48.5761719,18.4199219 L50.1660156,18.4199219 Z M58.4375,18.4199219 L62.0039062,14.3808594 L63.8515625,14.3808594 L60.2851562,18.4199219 L63.0136719,18.4199219 L62.7773438,18.7851562 L60.0058594,18.7851562 L54.7851562,24.7148438 C54.2122367,25.3450552 53.578454,26.1041622 52.8837891,26.9921875 C52.1891241,27.8802128 51.8417969,28.3671871 51.8417969,28.453125 C51.8417969,28.7539078 51.9993474,28.9042969 52.3144531,28.9042969 C53.4889382,28.9042969 56.0097463,27.2428552 59.8769531,23.9199219 L59.8769531,24.2851562 L58.7382812,25.2949219 C55.7734227,27.9017057 53.6178453,29.2050781 52.2714844,29.2050781 C51.9420556,29.2050781 51.6842457,29.1119801 51.4980469,28.9257812 C51.311848,28.7395824 51.21875,28.5247408 51.21875,28.28125 C51.21875,27.7083305 51.6233683,26.755866 52.4326172,25.4238281 C53.241866,24.0917902 54.8281132,22.2441524 57.1914062,19.8808594 C55.7304614,20.8548226 53.6966276,22.4947801 51.0898438,24.8007812 L51.0898438,24.4570312 C51.963546,23.6262979 53.0449154,22.6845756 54.3339844,21.6318359 C55.6230533,20.5790963 56.8834574,19.6302126 58.1152344,18.7851562 L56.546875,18.7851562 L56.8476562,18.4199219 L58.4375,18.4199219 Z M60.9726562,24.8867188 C62.1614643,24.8867188 63.1640584,24.7363296 63.9804688,24.4355469 C64.7968791,24.1347641 65.416339,23.7766948 65.8388672,23.3613281 C66.2613953,22.9459615 66.4726562,22.6093763 66.4726562,22.3515625 C66.4726562,21.9361958 66.2291691,21.7285156 65.7421875,21.7285156 C65.097653,21.7285156 64.3457074,22.0113904 63.4863281,22.5771484 C62.6269488,23.1429065 61.7890666,23.9127555 60.9726562,24.8867188 Z M68.5996094,23.9199219 L68.5996094,24.2851562 C66.9954347,25.8893309 65.5273504,27.1103474 64.1953125,27.9482422 C62.8632746,28.786137 61.5169339,29.2050781 60.15625,29.2050781 C58.953119,29.2050781 58.3515625,28.517585 58.3515625,27.1425781 C58.3515625,25.9967391 58.7848264,24.9905642 59.6513672,24.1240234 C60.517908,23.2574826 61.5348249,22.5914737 62.7021484,22.1259766 C63.869472,21.6604794 64.8183557,21.4277344 65.5488281,21.4277344 C65.9641948,21.4277344 66.2900379,21.5244131 66.5263672,21.7177734 C66.7626965,21.9111338 66.8808594,22.165363 66.8808594,22.4804688 C66.8808594,22.9674504 66.6158881,23.415037 66.0859375,23.8232422 C65.5559869,24.2314474 64.8183641,24.5680325 63.8730469,24.8330078 C62.9277296,25.0979831 61.8177147,25.2519529 60.5429688,25.2949219 C59.4544216,26.5266989 58.9101562,27.4648405 58.9101562,28.109375 C58.9101562,28.3385428 59.0283191,28.5283196 59.2646484,28.6787109 C59.5009777,28.8291023 59.7981753,28.9042969 60.15625,28.9042969 C62.4622511,28.9042969 65.2766761,27.2428552 68.5996094,23.9199219 Z M68.0839844,24.4570312 C68.7285188,23.9414037 69.369463,23.4186224 70.0068359,22.8886719 C70.6442089,22.3587213 71.2779916,21.8574242 71.9082031,21.3847656 C71.7936192,20.940753 71.8509103,20.543296 72.0800781,20.1923828 C72.3092459,19.8414696 72.58854,19.6660156 72.9179688,19.6660156 C73.1041676,19.6660156 73.2688795,19.719726 73.4121094,19.8271484 C73.5553393,19.9345708 73.6269531,20.0670565 73.6269531,20.2246094 C73.6269531,20.4108082 73.5660813,20.5611973 73.4443359,20.6757812 C73.3225905,20.7903652 73.1757821,20.8476562 73.0039062,20.8476562 C72.8320304,20.8476562 72.5957046,20.7044285 72.2949219,20.4179688 C72.2089839,20.5325527 72.1660156,20.6901032 72.1660156,20.890625 C72.1516926,21.0625009 72.2197258,21.2236321 72.3701172,21.3740234 C72.5205086,21.5244148 72.6888012,21.5996094 72.875,21.5996094 C73.0039069,21.5996094 73.1972643,21.5709638 73.4550781,21.5136719 C73.7415379,21.4563799 73.9134112,21.4277344 73.9707031,21.4277344 C74.085287,21.4277344 74.1819658,21.5351552 74.2607422,21.75 C74.3395186,21.9648448 74.3789062,22.2226547 74.3789062,22.5234375 C74.3789062,22.7812513 74.2034523,23.1214172 73.8525391,23.5439453 C73.5016258,23.9664735 72.8964887,24.6575473 72.0371094,25.6171875 C71.1777301,26.5768277 70.583335,27.2571595 70.2539062,27.6582031 C69.9244775,28.0592468 69.7597656,28.3671864 69.7597656,28.5820312 C69.7597656,28.7968761 69.9029934,28.9042969 70.1894531,28.9042969 C70.5904968,28.9042969 71.4462825,28.435226 72.7568359,27.4970703 C74.0673894,26.5589146 75.589184,25.3665437 77.3222656,23.9199219 L77.3222656,24.2851562 C73.4693818,27.5651206 71.0345103,29.2050781 70.0175781,29.2050781 C69.6308574,29.2050781 69.4375,28.9687524 69.4375,28.4960938 C69.4375,27.8229133 69.5699857,27.1855499 69.8349609,26.5839844 C70.0999362,25.9824189 70.5546843,25.3164099 71.1992188,24.5859375 L73.7128906,21.8144531 C73.4121079,21.929037 73.071942,21.9791667 72.6923828,21.9648438 C72.3128236,21.9505208 72.0800786,21.8431 71.9941406,21.6425781 C70.0891832,23.2181068 68.7858108,24.2708307 68.0839844,24.8007812 L68.0839844,24.4570312 Z M80.09375,31.0527344 C77.0859225,32.5566481 74.5400495,34.0748621 72.4560547,35.6074219 C70.3720599,37.1399816 69.3300781,38.4218698 69.3300781,39.453125 C69.3300781,39.7109388 69.4195955,39.9221997 69.5986328,40.0869141 C69.7776702,40.2516284 69.9960925,40.3339844 70.2539062,40.3339844 C70.7552108,40.3339844 71.3209604,40.1585304 71.9511719,39.8076172 C72.5813834,39.456704 73.28678,38.9088579 74.0673828,38.1640625 C74.8479857,37.4192671 75.7610625,36.4309957 76.8066406,35.1992188 C77.3652372,34.5117153 77.9703743,33.7705118 78.6220703,32.9755859 C79.2737663,32.1806601 79.7643213,31.539716 80.09375,31.0527344 Z M76.8066406,24.8007812 L76.8066406,24.4570312 C77.9524797,23.4687451 78.894202,22.7167995 79.6318359,22.2011719 C80.3694698,21.6855443 81.0104139,21.4277344 81.5546875,21.4277344 C81.9987001,21.4277344 82.2207031,21.7213512 82.2207031,22.3085938 C82.2207031,23.5546937 81.3684981,24.92968 79.6640625,26.4335938 C78.4322855,27.5221409 77.8164062,28.2382795 77.8164062,28.5820312 C77.8164062,28.7968761 77.9453112,28.9042969 78.203125,28.9042969 C78.7330756,28.9042969 79.6533138,28.4638716 80.9638672,27.5830078 C82.2744206,26.702144 83.6350841,25.6780657 85.0458984,24.5107422 C86.4567128,23.3434186 87.5488243,22.3730507 88.3222656,21.5996094 L89.9550781,21.5996094 L83.0585938,29.4628906 C84.6627684,28.8183562 86.0413354,28.1129596 87.1943359,27.3466797 C88.3473365,26.5803998 89.7975173,25.4381586 91.5449219,23.9199219 L91.5449219,24.2851562 C89.9121012,25.78907 88.4798239,26.9420533 87.2480469,27.7441406 C86.0162699,28.546228 84.4550876,29.2981736 82.5644531,30 L82.1777344,30.4296875 C79.1842298,33.7812668 76.7636811,36.323559 74.9160156,38.0566406 C73.0683501,39.7897222 71.5429748,40.65625 70.3398438,40.65625 C69.4518185,40.65625 69.0078125,40.2408896 69.0078125,39.4101562 C69.0078125,38.8085907 69.4124308,38.0530644 70.2216797,37.1435547 C71.0309285,36.2340449 72.2877519,35.2242894 73.9921875,34.1142578 C75.6966231,33.0042262 77.8665233,31.8405009 80.5019531,30.6230469 C81.905606,28.8183504 83.7245982,26.6914185 85.9589844,24.2421875 C84.4407476,25.4166725 83.4381535,26.1901023 82.9511719,26.5625 C82.4641903,26.9348977 81.8841179,27.3538388 81.2109375,27.8193359 C80.5377571,28.2848331 79.9397813,28.6321603 79.4169922,28.8613281 C78.8942031,29.0904959 78.4322937,29.2050781 78.03125,29.2050781 C77.7877592,29.2050781 77.5872404,29.1263029 77.4296875,28.96875 C77.2721346,28.8111971 77.1933594,28.5963555 77.1933594,28.3242188 C77.1933594,27.8515601 77.2864574,27.4003928 77.4726562,26.9707031 C77.6588551,26.5410135 77.9560526,26.1077496 78.3642578,25.6708984 C78.772463,25.2340473 79.3203091,24.7578151 80.0078125,24.2421875 C81.2395895,23.3255162 81.8554688,22.616539 81.8554688,22.1152344 C81.8554688,21.8574206 81.712241,21.7285156 81.4257812,21.7285156 C80.9387996,21.7285156 80.3085976,22.0221325 79.5351562,22.609375 C78.7617149,23.1966175 77.8522188,23.927079 76.8066406,24.8007812 Z" id="Battery" fill="#999999"></path>
            </g>
        </g>
    </g>
</svg>