<?xml version="1.0" encoding="UTF-8"?>
<svg width="312px" height="78px" viewBox="0 0 312 78" version="1.1" xmlns="http://www.w3.org/2000/svg" xmlns:xlink="http://www.w3.org/1999/xlink">
    <!-- Generator: Sketch 50.2 (55047) - http://www.bohemiancoding.com/sketch -->
    <title>05</title>
    <desc>Created with Sketch.</desc>
    <defs>
        <polygon id="path-1" points="0 0.47805 32.0360225 0.47805 32.0360225 62 0 62"></polygon>
        <polygon id="path-3" points="0 0.0001 64.360935 0.0001 64.360935 29.824 0 29.824"></polygon>
    </defs>
    <g id="Page-1" stroke="none" stroke-width="1" fill="none" fill-rule="evenodd">
        <g id="Artboard-2" transform="translate(-208.000000, -688.000000)">
            <g id="05" transform="translate(209.000000, 689.000000)">
                <g transform="translate(0.000000, 9.000000)">
                    <g id="Group-3" transform="translate(0.000000, 0.522000)">
                        <mask id="mask-2" fill="white">
                            <use xlink:href="#path-1"></use>
                        </mask>
                        <g id="Clip-2"></g>
                        <path d="M5.9642,51.2773 C6.5262,55.3813 7.5182,57.7253 8.9432,58.3083 C10.3612,58.8963 11.8282,58.8963 13.3382,58.3083 C14.8462,57.7253 16.6662,55.3813 18.7962,51.2773 C20.9252,47.1793 22.8172,40.4393 24.4702,31.0623 C26.1222,21.6913 26.6592,14.6603 26.0802,9.9683 C25.5002,5.2833 23.7432,2.9373 20.8162,2.9373 C17.8822,2.9373 15.3602,5.2833 13.2482,9.9683 C11.1302,14.6603 9.2472,21.6913 7.5952,31.0623 C5.9422,40.4393 5.3962,47.1793 5.9642,51.2773 M30.5982,9.2653 C32.3812,14.4233 32.5052,21.6913 30.9742,31.0623 C29.4362,40.4393 26.7682,47.9373 22.9642,53.5623 C19.1592,59.1873 14.9722,62.0003 10.4012,62.0003 C5.8312,62.0003 2.7512,59.1873 1.1672,53.5623 C-0.4238,47.9373 -0.3868,40.4393 1.2672,31.0623 C2.9192,21.6913 5.4862,14.4233 8.9772,9.2653 C12.4622,4.1123 15.4192,1.3003 17.8482,0.8283 C20.2702,0.3613 22.5552,0.3613 24.7032,0.8283 C26.8452,1.3003 28.8102,4.1123 30.5982,9.2653" id="Fill-1" fill="#0B74B9" mask="url(#mask-2)"></path>
                    </g>
                    <path d="M66.0804,42.8345 C66.9484,37.9125 65.9134,33.8135 62.9764,30.5295 C60.0384,27.2505 54.8594,25.3775 47.4444,24.9045 L60.6144,2.0535 L78.1924,2.0535 L74.7404,7.6785 L60.3264,7.6785 L53.7104,19.2795 C60.0614,20.4545 64.6624,22.6195 67.5044,25.7835 C70.3414,28.9475 71.1964,33.7545 70.0604,40.1975 C68.9234,46.6475 66.3014,51.8595 62.2044,55.8425 C58.1014,59.8295 53.9224,61.9395 49.6634,62.1705 C45.4024,62.4065 42.6624,61.9945 41.4424,60.9395 C40.2224,59.8855 39.7354,58.6545 39.9834,57.2485 C40.2314,55.8425 40.9894,54.8485 42.2684,54.2605 C43.5414,53.6785 44.7224,53.6175 45.8154,54.0845 C46.9014,54.5575 47.5934,55.9635 47.8844,58.3035 C53.9764,58.3035 58.3164,56.9575 60.9014,54.2605 C63.4854,51.5685 65.2124,47.7565 66.0804,42.8345" id="Fill-4" fill="#0B74B9"></path>
                </g>
                <path d="M93.9804688,23.9199219 L93.9804688,24.2851562 C90.5859205,27.5651206 87.7571728,29.2050781 85.4941406,29.2050781 C84.8925751,29.2050781 84.4557305,29.0511083 84.1835938,28.7431641 C83.911457,28.4352198 83.7753906,27.8873737 83.7753906,27.0996094 C83.7753906,26.4121059 83.9938129,25.7174514 84.4306641,25.015625 C84.8675152,24.3137986 85.4440068,23.6943386 86.1601562,23.1572266 C86.8763057,22.6201145 87.6640582,22.1975927 88.5234375,21.8896484 C89.3828168,21.5817042 90.220699,21.4277344 91.0371094,21.4277344 C91.4095071,21.4277344 91.713866,21.5208324 91.9501953,21.7070312 C92.1865246,21.8932301 92.3046875,22.15104 92.3046875,22.4804688 C92.3046875,22.8528664 92.1578791,23.1858709 91.8642578,23.4794922 C91.5706366,23.7731134 91.2447935,23.9199219 90.8867188,23.9199219 C90.4570291,23.9199219 90.2421875,23.7337258 90.2421875,23.3613281 C90.2421875,22.8027316 90.492836,22.5234375 90.9941406,22.5234375 C91.2806004,22.5234375 91.4524737,22.6523425 91.5097656,22.9101562 C91.5670576,22.9960942 91.6243487,23.0390625 91.6816406,23.0390625 C91.7532556,23.0390625 91.8248694,22.9817714 91.8964844,22.8671875 C91.9680993,22.7526036 92.0039062,22.6236986 92.0039062,22.4804688 C92.0039062,22.2513009 91.925131,22.0686856 91.7675781,21.9326172 C91.6100253,21.7965488 91.3951837,21.7285156 91.1230469,21.7285156 C90.3639285,21.7285156 89.4436903,22.1367147 88.3623047,22.953125 C87.2809191,23.7695353 86.3463581,24.7005156 85.5585938,25.7460938 C84.7708294,26.7916719 84.3769531,27.60807 84.3769531,28.1953125 C84.3769531,28.6679711 84.7278611,28.9042969 85.4296875,28.9042969 C86.7330794,28.9042969 88.0006449,28.5032592 89.2324219,27.7011719 C90.4641989,26.8990845 92.0468653,25.6386805 93.9804688,23.9199219 Z M108.71875,10.234375 L110.480469,10.234375 L96.1933594,26.4335938 C97.5540433,25.2877547 99.0758379,24.1669977 100.758789,23.0712891 C102.44174,21.9755805 103.569659,21.4277344 104.142578,21.4277344 C104.787113,21.4277344 105.109375,21.7786423 105.109375,22.4804688 C105.109375,23.2968791 104.844404,24.0201791 104.314453,24.6503906 C103.784503,25.2806021 103.068364,25.9322883 102.166016,26.6054688 C101.048823,27.4218791 100.490234,28.0377583 100.490234,28.453125 C100.490234,28.7539078 100.669269,28.9042969 101.027344,28.9042969 C101.714847,28.9042969 102.638666,28.4960978 103.798828,27.6796875 C104.95899,26.8632772 106.427074,25.63868 108.203125,24.0058594 L108.203125,24.3710938 L107.580078,24.9296875 C106.147779,26.2474024 104.86231,27.2893842 103.723633,28.0556641 C102.584955,28.8219439 101.686201,29.2050781 101.027344,29.2050781 C100.382809,29.2050781 100.060547,28.8971385 100.060547,28.28125 C100.060547,27.106765 100.690749,25.9752659 101.951172,24.8867188 C102.910812,24.0416624 103.56966,23.4329446 103.927734,23.0605469 C104.285809,22.6881492 104.464844,22.3587254 104.464844,22.0722656 C104.464844,22.0006507 104.425456,21.9254561 104.34668,21.8466797 C104.267903,21.7679033 104.171225,21.7285156 104.056641,21.7285156 C103.498044,21.7285156 101.9297,22.6523345 99.3515625,24.5 C97.2317602,26.0325597 95.3841225,27.6009034 93.8085938,29.2050781 L91.9609375,29.2050781 L103.369141,16.2285156 L93.4648438,24.8007812 L93.4648438,24.4570312 L99.609375,19.0429688 C101.342457,17.539055 102.667313,16.3717489 103.583984,15.5410156 C104.500656,14.7102823 105.317054,13.9225298 106.033203,13.1777344 C106.749353,12.432939 107.644526,11.451829 108.71875,10.234375 Z M113.982422,21.7285156 C113.123043,21.7285156 112.166997,22.1510374 111.114258,22.9960938 C110.061518,23.8411501 109.144861,24.8007759 108.364258,25.875 C107.583655,26.9492241 107.193359,27.7083311 107.193359,28.1523438 C107.193359,28.3671886 107.264973,28.5462232 107.408203,28.6894531 C107.551433,28.832683 107.730468,28.9042969 107.945312,28.9042969 C108.532555,28.9042969 109.377599,28.4960978 110.480469,27.6796875 C111.583339,26.8632772 112.578772,25.9394583 113.466797,24.9082031 C114.354822,23.876948 114.798828,23.0677113 114.798828,22.4804688 C114.798828,21.9791642 114.526695,21.7285156 113.982422,21.7285156 Z M119.654297,24.3710938 L118.558594,25.2949219 C116.839835,26.7272207 115.568689,27.7369762 114.745117,28.3242188 C113.921545,28.9114613 113.194665,29.2050781 112.564453,29.2050781 C112.149086,29.2050781 111.941406,28.9687524 111.941406,28.4960938 C111.941406,27.9947892 112.134764,27.2929733 112.521484,26.390625 C110.473297,28.2669365 108.962244,29.2050781 107.988281,29.2050781 C107.558592,29.2050781 107.207684,29.0367855 106.935547,28.7001953 C106.66341,28.3636051 106.527344,27.8730501 106.527344,27.2285156 C106.527344,26.4980432 106.742185,25.7783239 107.171875,25.0693359 C107.601565,24.360348 108.178056,23.7337267 108.901367,23.1894531 C109.624678,22.6451796 110.433915,22.2154964 111.329102,21.9003906 C112.224288,21.5852849 113.094397,21.4277344 113.939453,21.4277344 C114.35482,21.4277344 114.659179,21.5029289 114.852539,21.6533203 C115.045899,21.8037117 115.14974,22.0507795 115.164062,22.3945312 C115.14974,22.4661462 115.138997,22.5341794 115.131836,22.5986328 C115.124674,22.6630863 115.110352,22.7526036 115.088867,22.8671875 C115.067383,22.9817714 115.049479,23.0748694 115.035156,23.1464844 L116.388672,21.5566406 L118.193359,21.4277344 L117.634766,22.1152344 C117.17643,22.6595079 116.804038,23.1070946 116.517578,23.4580078 C116.231118,23.808921 115.987631,24.0989572 115.787109,24.328125 C113.552723,26.74871 112.435547,28.1666646 112.435547,28.5820312 C112.435547,28.7968761 112.535806,28.9042969 112.736328,28.9042969 C113.008465,28.9042969 113.416664,28.7431657 113.960938,28.4208984 C114.505211,28.0986312 115.11751,27.6725287 115.797852,27.1425781 C116.478194,26.6126276 117.255204,25.9860062 118.128906,25.2626953 C119.002609,24.5393844 119.511067,24.1204433 119.654297,24.0058594 L119.654297,24.3710938 Z M119.117188,24.4570312 L123.607422,20.5898438 C123.951174,20.1744771 124.266275,19.7913429 124.552734,19.4404297 C124.839194,19.0895165 125.046874,18.9140625 125.175781,18.9140625 C125.290365,18.9140625 125.394205,18.9462887 125.487305,19.0107422 C125.580404,19.0751956 125.626953,19.1718744 125.626953,19.3007812 C125.626953,19.572918 125.233077,19.9095032 124.445312,20.3105469 C124.903648,20.9980503 125.233072,21.5996068 125.433594,22.1152344 C125.634116,22.630862 125.755859,23.2825481 125.798828,24.0703125 C125.755859,24.5572941 125.698568,24.9654931 125.626953,25.2949219 C126.142581,25.4238288 126.611652,25.4130867 127.03418,25.2626953 C127.456708,25.1123039 128.040361,24.6647173 128.785156,23.9199219 L128.785156,24.2851562 C128.212237,25.0013057 127.682294,25.4453116 127.195312,25.6171875 C126.708331,25.7890634 126.142581,25.781902 125.498047,25.5957031 C125.154295,26.3691445 124.595707,27.0315728 123.822266,27.5830078 C123.048824,28.1344429 122.25391,28.5426419 121.4375,28.8076172 C120.62109,29.0725925 119.919274,29.2050781 119.332031,29.2050781 C118.773435,29.2050781 118.318687,29.0940766 117.967773,28.8720703 C117.61686,28.650064 117.441406,28.3385437 117.441406,27.9375 C117.441406,27.5794253 117.545246,27.2893891 117.75293,27.0673828 C117.960613,26.8453765 118.264972,26.734375 118.666016,26.734375 C118.923829,26.734375 119.13509,26.8024082 119.299805,26.9384766 C119.464519,27.074545 119.546875,27.2571603 119.546875,27.4863281 C119.546875,27.672527 119.457358,27.8372389 119.27832,27.9804688 C119.099283,28.1236986 118.909506,28.1953125 118.708984,28.1953125 C118.436848,28.1953125 118.236329,27.9733095 118.107422,27.5292969 C117.921223,27.6582038 117.828125,27.8515612 117.828125,28.109375 C117.828125,28.2669279 117.974933,28.4388012 118.268555,28.625 C118.562176,28.8111988 118.902342,28.9042969 119.289062,28.9042969 C120.048181,28.9042969 120.850256,28.5784538 121.695312,27.9267578 C122.540369,27.2750618 123.245765,26.4550831 123.811523,25.4667969 C124.377281,24.4785107 124.660156,23.5260463 124.660156,22.609375 C124.660156,21.9505175 124.452476,21.2773472 124.037109,20.5898438 L119.117188,24.8007812 L119.117188,24.4570312 Z M128.269531,24.4570312 L132.759766,20.5898438 C133.103517,20.1744771 133.418618,19.7913429 133.705078,19.4404297 C133.991538,19.0895165 134.199218,18.9140625 134.328125,18.9140625 C134.442709,18.9140625 134.546549,18.9462887 134.639648,19.0107422 C134.732748,19.0751956 134.779297,19.1718744 134.779297,19.3007812 C134.779297,19.572918 134.385421,19.9095032 133.597656,20.3105469 C134.055992,20.9980503 134.385416,21.5996068 134.585938,22.1152344 C134.786459,22.630862 134.908203,23.2825481 134.951172,24.0703125 C134.908203,24.5572941 134.850912,24.9654931 134.779297,25.2949219 C135.294924,25.4238288 135.763995,25.4130867 136.186523,25.2626953 C136.609052,25.1123039 137.192705,24.6647173 137.9375,23.9199219 L137.9375,24.2851562 C137.36458,25.0013057 136.834638,25.4453116 136.347656,25.6171875 C135.860675,25.7890634 135.294925,25.781902 134.650391,25.5957031 C134.306639,26.3691445 133.748051,27.0315728 132.974609,27.5830078 C132.201168,28.1344429 131.406254,28.5426419 130.589844,28.8076172 C129.773433,29.0725925 129.071618,29.2050781 128.484375,29.2050781 C127.925778,29.2050781 127.47103,29.0940766 127.120117,28.8720703 C126.769204,28.650064 126.59375,28.3385437 126.59375,27.9375 C126.59375,27.5794253 126.69759,27.2893891 126.905273,27.0673828 C127.112957,26.8453765 127.417316,26.734375 127.818359,26.734375 C128.076173,26.734375 128.287434,26.8024082 128.452148,26.9384766 C128.616863,27.074545 128.699219,27.2571603 128.699219,27.4863281 C128.699219,27.672527 128.609701,27.8372389 128.430664,27.9804688 C128.251627,28.1236986 128.06185,28.1953125 127.861328,28.1953125 C127.589191,28.1953125 127.388673,27.9733095 127.259766,27.5292969 C127.073567,27.6582038 126.980469,27.8515612 126.980469,28.109375 C126.980469,28.2669279 127.127277,28.4388012 127.420898,28.625 C127.71452,28.8111988 128.054686,28.9042969 128.441406,28.9042969 C129.200525,28.9042969 130.0026,28.5784538 130.847656,27.9267578 C131.692713,27.2750618 132.398109,26.4550831 132.963867,25.4667969 C133.529625,24.4785107 133.8125,23.5260463 133.8125,22.609375 C133.8125,21.9505175 133.60482,21.2773472 133.189453,20.5898438 L128.269531,24.8007812 L128.269531,24.4570312 Z M144.898438,17.0664062 C145.213543,17.0664062 145.371094,17.2597637 145.371094,17.6464844 C145.371094,17.8756522 145.306641,18.0618482 145.177734,18.2050781 C145.048827,18.348308 144.884116,18.4199219 144.683594,18.4199219 C144.296873,18.4199219 144.103516,18.2480486 144.103516,17.9042969 C144.103516,17.703775 144.182291,17.5139983 144.339844,17.3349609 C144.497397,17.1559236 144.683593,17.0664062 144.898438,17.0664062 Z M137.464844,24.7578125 L137.421875,24.4140625 C138.510422,23.4257763 139.785149,22.4876346 141.246094,21.5996094 L143.179688,21.5996094 L138.109375,27.2714844 C137.7513,27.672528 137.522136,28.0449202 137.421875,28.3886719 C137.321614,28.7324236 137.407551,28.9042969 137.679688,28.9042969 C138.395837,28.9042969 139.462884,28.3743543 140.880859,27.3144531 C142.298835,26.254552 143.609369,25.1373757 144.8125,23.9628906 L144.8125,24.328125 C143.42317,25.6601629 142.083991,26.8059848 140.794922,27.765625 C139.505853,28.7252652 138.453129,29.2050781 137.636719,29.2050781 C137.16406,29.2050781 136.927734,28.9544296 136.927734,28.453125 C136.927734,26.9635342 138.087879,25.0586054 140.408203,22.7382812 C140.53711,22.6093744 140.655273,22.4840501 140.762695,22.3623047 C140.870118,22.2405593 140.973958,22.1295578 141.074219,22.0292969 C139.78515,22.8027382 138.582037,23.7122344 137.464844,24.7578125 Z M144.275391,24.4570312 L148.765625,20.5898438 C149.109377,20.1744771 149.424478,19.7913429 149.710938,19.4404297 C149.997397,19.0895165 150.205077,18.9140625 150.333984,18.9140625 C150.448568,18.9140625 150.552408,18.9462887 150.645508,19.0107422 C150.738607,19.0751956 150.785156,19.1718744 150.785156,19.3007812 C150.785156,19.572918 150.39128,19.9095032 149.603516,20.3105469 C150.061851,20.9980503 150.391275,21.5996068 150.591797,22.1152344 C150.792319,22.630862 150.914062,23.2825481 150.957031,24.0703125 C150.914062,24.5572941 150.856771,24.9654931 150.785156,25.2949219 C151.300784,25.4238288 151.769855,25.4130867 152.192383,25.2626953 C152.614911,25.1123039 153.198564,24.6647173 153.943359,23.9199219 L153.943359,24.2851562 C153.37044,25.0013057 152.840497,25.4453116 152.353516,25.6171875 C151.866534,25.7890634 151.300784,25.781902 150.65625,25.5957031 C150.312498,26.3691445 149.75391,27.0315728 148.980469,27.5830078 C148.207027,28.1344429 147.412113,28.5426419 146.595703,28.8076172 C145.779293,29.0725925 145.077477,29.2050781 144.490234,29.2050781 C143.931638,29.2050781 143.47689,29.0940766 143.125977,28.8720703 C142.775063,28.650064 142.599609,28.3385437 142.599609,27.9375 C142.599609,27.5794253 142.703449,27.2893891 142.911133,27.0673828 C143.118816,26.8453765 143.423175,26.734375 143.824219,26.734375 C144.082033,26.734375 144.293293,26.8024082 144.458008,26.9384766 C144.622722,27.074545 144.705078,27.2571603 144.705078,27.4863281 C144.705078,27.672527 144.615561,27.8372389 144.436523,27.9804688 C144.257486,28.1236986 144.067709,28.1953125 143.867188,28.1953125 C143.595051,28.1953125 143.394532,27.9733095 143.265625,27.5292969 C143.079426,27.6582038 142.986328,27.8515612 142.986328,28.109375 C142.986328,28.2669279 143.133137,28.4388012 143.426758,28.625 C143.720379,28.8111988 144.060545,28.9042969 144.447266,28.9042969 C145.206384,28.9042969 146.008459,28.5784538 146.853516,27.9267578 C147.698572,27.2750618 148.403969,26.4550831 148.969727,25.4667969 C149.535485,24.4785107 149.818359,23.5260463 149.818359,22.609375 C149.818359,21.9505175 149.610679,21.2773472 149.195312,20.5898438 L144.275391,24.8007812 L144.275391,24.4570312 Z" id="chassis" fill="#999999"></path>
                <g id="底盘" transform="translate(76.000000, 46.000000)">
                    <mask id="mask-4" fill="white">
                        <use xlink:href="#path-3"></use>
                    </mask>
                    <g id="Clip-2"></g>
                    <path d="M54.4766,27.0721 L55.6446,20.4481 L52.5406,20.4481 L51.3726,27.0721 L54.4766,27.0721 Z M49.9166,20.4481 L46.9086,20.4481 L45.7406,27.0721 L48.7486,27.0721 L49.9166,20.4481 Z M48.6406,5.1841 C49.7566,5.5041 50.6406,5.8781 51.2906,6.3031 C51.9406,6.7311 52.2116,7.2541 52.1016,7.8721 C51.9936,8.4911 51.7406,8.9871 51.3436,9.3601 C50.9466,9.7331 50.5896,9.9201 50.2686,9.9201 C49.9496,9.9201 49.7516,9.8611 49.6766,9.7441 C49.6006,9.6271 49.5566,9.2691 49.5456,8.6721 C49.5326,8.0751 49.4336,7.5511 49.2456,7.1041 C49.0576,6.6561 48.7616,6.1871 48.3576,5.6961 L48.6406,5.1841 Z M47.3156,11.4241 C48.5096,11.9151 49.4286,12.4221 50.0716,12.9441 C50.7156,13.4671 50.9826,14.0381 50.8736,14.6561 C50.7646,15.2751 50.5116,15.7711 50.1156,16.1441 C49.7186,16.5171 49.3236,16.7041 48.9286,16.7041 C48.5336,16.7041 48.3396,16.3261 48.3456,15.5681 C48.3506,14.8111 48.2506,14.1661 48.0466,13.6321 C47.8416,13.0991 47.5026,12.5441 47.0276,11.9681 L47.3156,11.4241 Z M55.2856,10.1441 L56.1886,5.0241 L46.5566,5.0241 C46.3566,6.1551 45.9806,7.8611 45.4296,10.1441 L55.2856,10.1441 Z M44.4446,20.4481 L41.3406,20.4481 L40.1726,27.0721 L43.2766,27.0721 L44.4446,20.4481 Z M39.9246,18.4961 C40.7006,18.8161 41.2946,19.1351 41.7076,19.4561 L55.7876,19.4561 L56.4616,18.7191 C56.6476,18.5071 56.8106,18.4001 56.9496,18.4001 C57.0886,18.4001 57.4656,18.5871 58.0826,18.9601 C58.6996,19.3341 59.1296,19.6161 59.3736,19.8081 C59.6166,20.0001 59.7216,20.1921 59.6876,20.3841 C59.6546,20.5761 59.1646,20.9271 58.2216,21.4401 L57.2286,27.0721 L57.9006,27.0721 L59.2276,25.5361 C59.4436,25.2801 59.6256,25.1521 59.7756,25.1521 C59.9246,25.1521 60.2296,25.3861 60.6916,25.8561 C61.1526,26.3251 61.5376,26.7091 61.8486,27.0081 C62.1576,27.3061 62.2956,27.5571 62.2596,27.7591 C62.2236,27.9631 62.0136,28.0641 61.6296,28.0641 L33.6936,28.0641 C33.2026,28.0641 32.8296,28.1281 32.5716,28.2561 L32.2966,26.9121 C32.6836,27.0181 33.1216,27.0721 33.6126,27.0721 L37.7406,27.0721 L38.8246,20.9271 C38.9146,20.4161 39.0096,19.7551 39.1096,18.9441 C38.0306,19.4991 36.7896,20.0641 35.3866,20.6401 L35.0296,20.1281 C37.4606,18.6771 39.1876,17.3491 40.2116,16.1441 C41.2346,14.9391 42.0126,13.2481 42.5456,11.0721 L37.3616,11.0721 C36.7866,11.0721 36.3246,11.1471 35.9786,11.2961 L35.6336,9.9841 C36.0626,10.0911 36.5866,10.1441 37.2056,10.1441 L42.7736,10.1441 C43.0546,9.0351 43.2966,7.9041 43.4996,6.7521 C43.7026,5.6001 43.9016,4.3521 44.0956,3.0081 C45.0356,3.2431 45.9206,3.6051 46.7516,4.0951 L47.5526,4.0951 C48.3346,2.5601 48.8996,1.2911 49.2476,0.2881 C51.5526,0.8851 52.6696,1.3861 52.5986,1.7921 C52.5646,1.9841 52.3226,2.1441 51.8736,2.2721 C51.4246,2.4001 51.0526,2.5761 50.7566,2.8001 C50.4606,3.0241 50.0536,3.4561 49.5366,4.0951 L55.9686,4.0951 L56.8636,3.0081 C57.0256,2.8161 57.2026,2.7191 57.3946,2.7191 C57.5866,2.7191 58.0326,2.9441 58.7326,3.3921 C59.4316,3.8401 59.8916,4.1661 60.1126,4.3681 C60.3326,4.5711 60.4256,4.7681 60.3916,4.9601 C60.3576,5.1521 59.8496,5.4941 58.8676,5.9841 L58.1336,10.1441 L59.4456,10.1441 L60.9946,8.2561 C61.2096,8.0001 61.3826,7.8721 61.5106,7.8721 C61.6386,7.8721 61.9696,8.1071 62.5056,8.5761 C63.0416,9.0461 63.4926,9.4831 63.8586,9.8881 C64.2246,10.2941 64.3906,10.5921 64.3566,10.7841 C64.3226,10.9761 64.1246,11.0721 63.7626,11.0721 L57.9706,11.0721 L57.3046,14.8481 C57.1386,15.7871 56.8846,16.5021 56.5416,16.9921 C56.1996,17.4831 55.6546,17.9411 54.9076,18.3681 C54.1606,18.7951 53.6686,19.0081 53.4346,19.0081 C53.1996,19.0081 53.0526,18.8161 52.9926,18.4321 C52.9096,17.8131 52.6996,17.3711 52.3626,17.1041 C52.0256,16.8381 51.5346,16.5971 50.8896,16.3841 L51.1356,15.7121 C52.2746,15.9041 53.0316,16.0001 53.4056,16.0001 C53.7776,16.0001 54.0246,15.9361 54.1436,15.8081 C54.2616,15.6791 54.3506,15.4451 54.4116,15.1041 L55.1226,11.0721 L45.2026,11.0721 C44.6806,13.1841 44.0196,14.7521 43.2206,15.7761 C42.4206,16.8001 41.3226,17.7071 39.9246,18.4961 Z M16.1246,23.7121 C17.5276,24.2241 18.5876,24.7471 19.3046,25.2801 C20.0216,25.8131 20.3296,26.3681 20.2276,26.9441 C20.1256,27.5201 19.7936,28.1011 19.2316,28.6881 C18.6696,29.2741 18.1966,29.5681 17.8126,29.5681 C17.5996,29.5681 17.4626,29.4931 17.4046,29.3431 C17.3456,29.1941 17.2946,28.8431 17.2546,28.2881 C17.2136,27.7331 17.0876,27.1461 16.8766,26.5281 C16.6656,25.9091 16.2766,25.1521 15.7096,24.2561 L16.1246,23.7121 Z M14.0626,15.2631 L19.0226,15.2631 C19.0306,13.7711 19.1296,12.1171 19.3216,10.3031 C17.4486,10.5171 15.9676,10.6351 14.8756,10.6561 L14.0626,15.2631 Z M19.0456,16.2241 L13.8936,16.2241 L12.5566,23.8081 C13.7756,23.0611 15.4986,22.0591 17.7266,20.8001 L18.1536,21.2801 C13.8106,25.0981 11.3466,27.4021 10.7596,28.1921 C10.5316,28.5111 10.3326,28.6721 10.1626,28.6721 C9.8426,28.6721 9.2766,27.8291 8.4646,26.1441 C9.3356,25.3121 9.8456,24.4801 9.9926,23.6481 L12.0916,11.7441 C12.3396,10.3361 12.5166,9.1521 12.6216,8.1921 C14.0996,8.6401 15.1966,9.0781 15.9106,9.5041 C19.7356,8.8641 23.3996,7.8611 26.9046,6.4961 C27.4536,7.1351 27.9206,7.7501 28.3086,8.3361 C28.6956,8.9231 28.8756,9.2911 28.8496,9.4401 C28.8236,9.5901 28.7146,9.6641 28.5226,9.6641 C28.3306,9.6641 28.1136,9.6221 27.8726,9.5361 C27.6316,9.4511 27.3516,9.4081 27.0316,9.4081 C26.7116,9.4081 26.0826,9.4621 25.1466,9.5681 L21.8736,9.9841 C21.6196,12.0321 21.5116,13.7921 21.5506,15.2631 L25.5826,15.2631 L26.9846,13.6641 C27.2756,13.3431 27.5596,13.1841 27.8376,13.1841 C28.1146,13.1841 28.6206,13.5841 29.3536,14.3841 C30.0876,15.1841 30.4356,15.6911 30.3976,15.9041 C30.3606,16.1171 30.1176,16.2241 29.6696,16.2241 L21.5736,16.2241 C21.6956,17.9521 22.0016,19.4191 22.4936,20.6241 C22.9856,21.8301 23.6426,22.8481 24.4666,23.6791 C25.2906,24.5111 25.8146,24.9271 26.0386,24.9271 C26.2626,24.9271 26.4776,24.8001 26.6826,24.5441 C26.8876,24.2881 27.2756,23.6001 27.8466,22.4801 C28.4166,21.3601 28.9116,20.3421 29.3296,19.4241 L29.9846,19.5201 C29.3976,21.3971 28.9766,23.0611 28.7206,24.5111 C28.4646,25.9631 28.5686,27.1891 29.0316,28.1921 C29.1526,28.4681 29.1986,28.6931 29.1686,28.8641 C29.1166,29.1631 28.8126,29.3121 28.2576,29.3121 C27.1696,29.3121 25.8656,28.8161 24.3446,27.8241 C22.8236,26.8321 21.5876,25.3971 20.6396,23.5201 C19.6896,21.6431 19.1586,19.2111 19.0456,16.2241 Z M19.9226,4.3521 C19.5206,2.8801 18.8256,1.6221 17.8366,0.5761 L18.1626,0.0001 C19.5326,0.2141 20.6626,0.4911 21.5516,0.8321 C22.4406,1.1741 22.8306,1.6531 22.7216,2.2721 C22.6576,2.6351 22.4786,3.0131 22.1856,3.4081 C21.8916,3.8021 21.5216,4.1171 21.0746,4.3521 L27.2186,4.3521 L28.9276,2.4641 C29.1396,2.2291 29.3626,2.1121 29.5976,2.1121 C29.8326,2.1121 30.0756,2.2181 30.3256,2.4321 C30.5756,2.6451 30.9016,2.9761 31.3026,3.4241 C31.7036,3.8721 31.9936,4.2241 32.1726,4.4801 C32.3516,4.7361 32.4276,4.9391 32.4016,5.0881 C32.3746,5.2371 32.1266,5.3121 31.6576,5.3121 L11.0816,5.3121 C10.0966,10.1761 9.2786,13.9041 8.6296,16.4961 C7.9806,19.0881 7.0826,21.3651 5.9366,23.3281 C4.7906,25.2911 2.9316,27.4561 0.3596,29.8241 L-0.0004,29.5041 C2.2446,26.4531 3.8276,23.5251 4.7486,20.7191 C5.6696,17.9151 6.5636,14.0591 7.4286,9.1521 C7.8116,6.9761 8.1396,4.8751 8.4126,2.8481 C9.3756,3.1891 10.4076,3.6911 11.5066,4.3521 L19.9226,4.3521 Z" id="Fill-1" fill="#333333" mask="url(#mask-4)"></path>
                </g>
            </g>
        </g>
    </g>
</svg>