<?xml version="1.0" encoding="UTF-8"?>
<svg width="312px" height="78px" viewBox="0 0 312 78" version="1.1" xmlns="http://www.w3.org/2000/svg" xmlns:xlink="http://www.w3.org/1999/xlink">
    <!-- Generator: Sketch 50.2 (55047) - http://www.bohemiancoding.com/sketch -->
    <title>06</title>
    <desc>Created with Sketch.</desc>
    <defs>
        <polygon id="path-1" points="0.0003 0.0003 64.3098888 0.0003 64.3098888 29.92 0.0003 29.92"></polygon>
        <polygon id="path-3" points="0 0.47805 32.0360225 0.47805 32.0360225 62 0 62"></polygon>
        <polygon id="path-5" points="0.0735247464 0.125 36.0887 0.125 36.0887 61.9998 0.0735247464 61.9998"></polygon>
    </defs>
    <g id="Page-1" stroke="none" stroke-width="1" fill="none" fill-rule="evenodd">
        <g id="Artboard-2" transform="translate(-206.000000, -838.000000)">
            <g id="06" transform="translate(303.000000, 842.000000)">
                <g id="外观" transform="translate(60.000000, 43.000000)">
                    <mask id="mask-2" fill="white">
                        <use xlink:href="#path-1"></use>
                    </mask>
                    <g id="Clip-2"></g>
                    <path d="M49.8653,0.8643 C50.7923,1.2913 51.6723,1.8023 52.5063,2.4003 L59.6103,2.4003 L60.8673,0.8953 C61.0333,0.6823 61.1963,0.5763 61.3563,0.5763 C61.5163,0.5763 61.8843,0.7843 62.4623,1.2003 C63.0393,1.6163 63.4993,1.9413 63.8423,2.1763 C64.1843,2.4113 64.3393,2.6243 64.3053,2.8163 C64.2713,3.0083 63.7693,3.3713 62.8013,3.9043 L60.7023,15.8073 C60.5633,16.5973 60.4793,17.1313 60.4523,17.4083 L60.3433,18.2083 C60.3133,18.3793 60.1903,18.5283 59.9763,18.6563 C59.7613,18.7843 59.3453,18.9663 58.7283,19.2003 C58.1103,19.4343 57.7223,19.5513 57.5623,19.5513 C57.4023,19.5513 57.3413,19.4453 57.3783,19.2313 L60.1713,3.3913 L52.0753,3.3913 L49.3843,18.6563 C49.3463,18.8693 49.2363,19.0403 49.0533,19.1683 C48.8713,19.2963 48.4593,19.4833 47.8193,19.7273 C47.1783,19.9733 46.7883,20.0953 46.6503,20.0953 C46.5113,20.0953 46.4593,20.0003 46.4923,19.8073 L46.8163,18.3363 C47.0393,17.3113 47.2263,16.3733 47.3773,15.5193 L49.4763,3.6163 C49.6413,2.6773 49.7713,1.7603 49.8653,0.8643 Z M53.5253,18.4003 C52.5133,20.7473 50.8533,22.8433 48.5443,24.6873 C46.2353,26.5333 43.1433,28.2773 39.2703,29.9203 L39.0663,29.4403 C42.1803,27.6263 44.7463,25.8403 46.7633,24.0803 C48.7803,22.3203 50.3013,20.2613 51.3243,17.9043 C52.3483,15.5473 53.3023,11.6793 54.1863,6.3033 C56.0283,6.6243 57.0903,6.8323 57.3723,6.9273 C57.6533,7.0243 57.7783,7.1633 57.7463,7.3433 C57.7143,7.5253 57.5363,7.6853 57.2143,7.8243 C56.8903,7.9633 56.6363,8.4373 56.4503,9.2483 C55.9333,11.5733 55.2903,13.7703 54.5203,15.8403 C55.5343,16.1383 56.1853,16.3463 56.4743,16.4643 C56.7623,16.5813 56.8973,16.6993 56.8763,16.8163 C56.8553,16.9333 56.6503,17.1313 56.2603,17.4083 L55.0303,24.3843 C54.9363,24.9173 54.9093,25.2743 54.9533,25.4563 C54.9953,25.6363 55.1513,25.7553 55.4193,25.8073 C55.6863,25.8613 56.2253,25.8873 57.0363,25.8873 C57.8473,25.8873 58.4373,25.7763 58.8083,25.5513 C59.1783,25.3283 59.5363,24.8043 59.8843,23.9843 C60.2323,23.1633 60.7453,21.6113 61.4253,19.3283 L62.0333,19.3283 C61.8763,20.0953 61.7213,20.9173 61.5673,21.7923 C61.4123,22.6673 61.3723,23.3493 61.4463,23.8403 C61.5193,24.3313 61.7533,24.7893 62.1473,25.2163 C62.4673,25.5783 62.6103,25.8563 62.5763,26.0483 C62.5423,26.2403 62.2463,26.6183 61.6883,27.1833 C61.1293,27.7493 60.5143,28.1223 59.8433,28.3033 C59.1713,28.4853 58.0773,28.5763 56.5633,28.5763 C55.0483,28.5763 53.9723,28.5073 53.3353,28.3683 C52.6983,28.2283 52.3233,27.9353 52.2103,27.4883 C52.0973,27.0403 52.1443,26.2283 52.3513,25.0553 L53.5253,18.4003 Z M37.6353,7.6163 C39.3503,9.6213 40.7443,11.3913 41.8183,12.9273 C42.7343,10.7523 43.5303,8.2353 44.2053,5.3763 L38.3493,5.3763 C37.7733,5.3763 37.3123,5.4513 36.9663,5.5993 L36.6333,4.2233 C37.0623,4.3313 37.5853,4.3843 38.2043,4.3843 L43.8683,4.3843 L45.2423,2.9443 C45.4543,2.7093 45.6243,2.5923 45.7523,2.5923 C45.8803,2.5923 46.2473,2.8053 46.8553,3.2313 C47.4633,3.6593 47.9093,4.0003 48.1953,4.2563 C48.4803,4.5113 48.6133,4.6993 48.5923,4.8163 C48.5723,4.9333 48.3513,5.0933 47.9313,5.2963 C47.5113,5.4993 47.2243,5.6793 47.0683,5.8403 C46.9113,6.0003 46.7693,6.2613 46.6413,6.6243 C45.3983,10.1653 44.2443,12.9603 43.1793,15.0083 C44.8723,17.8673 45.5743,20.1173 45.2843,21.7603 C45.1453,22.5503 44.8033,23.2483 44.2593,23.8563 C43.7143,24.4643 43.2393,24.7673 42.8343,24.7673 C42.6423,24.7673 42.4943,24.6353 42.3923,24.3683 C42.2903,24.1013 42.1863,23.3863 42.0833,22.2233 C41.9783,21.0613 41.7103,19.7123 41.2763,18.1763 C39.2703,21.2053 36.3623,24.1493 32.5513,27.0083 L32.3533,26.4963 C35.8433,23.0403 38.5733,19.4133 40.5443,15.6163 C39.6513,13.0553 38.5503,10.5283 37.2413,8.0323 L37.6353,7.6163 Z M25.3753,9.6323 C27.3193,10.4643 28.7823,11.2053 29.7673,11.8563 C30.7503,12.5073 31.3833,13.0933 31.6643,13.6163 C31.9453,14.1383 32.0253,14.7473 31.9033,15.4403 C31.7813,16.1343 31.5073,16.8053 31.0833,17.4563 C30.6593,18.1063 30.3083,18.4313 30.0313,18.4313 C29.7543,18.4313 29.5523,18.3363 29.4263,18.1433 C29.3003,17.9523 29.1413,17.4933 28.9483,16.7673 C28.4123,14.8473 27.1443,12.9073 25.1433,10.9443 L22.7573,24.4793 C22.5993,25.3763 22.4653,26.2233 22.3563,27.0243 C22.2473,27.8243 22.1873,28.2563 22.1763,28.3203 C22.1423,28.5113 21.9913,28.6983 21.7253,28.8803 C21.4583,29.0603 20.9963,29.2633 20.3383,29.4883 C19.6793,29.7123 19.2653,29.8243 19.0943,29.8243 C18.9243,29.8243 18.8633,29.6843 18.9123,29.4083 L19.2923,27.6163 C19.4333,26.9323 19.5833,26.1433 19.7413,25.2483 L23.6693,2.9753 C23.8573,1.9093 24.0033,0.9603 24.1073,0.1283 C24.9903,0.3203 25.8613,0.5813 26.7203,0.9123 C27.5793,1.2433 27.9923,1.5043 27.9583,1.6963 C27.9253,1.8873 27.4913,2.1013 26.6613,2.3363 L25.3753,9.6323 Z M11.4813,8.0323 C10.6913,9.2483 9.9853,10.2833 9.3653,11.1353 C10.3413,12.1383 11.0513,12.9493 11.4973,13.5683 C11.9423,14.1863 12.2103,14.6933 12.3013,15.0883 C12.3913,15.4833 12.3913,15.9353 12.3013,16.4483 C12.2113,16.9603 11.8533,17.5363 11.2283,18.1763 C10.6033,18.8163 10.0943,19.1353 9.6993,19.1353 C9.3043,19.1353 9.1843,18.6353 9.3403,17.6323 C9.5963,15.8193 9.4393,13.8673 8.8693,11.7763 C7.5053,13.4623 5.4623,15.4883 2.7413,17.8563 L2.3173,17.5363 C6.8253,12.4163 10.2233,6.5713 12.5133,0.0003 C14.5013,1.0673 15.5913,1.6643 15.7823,1.7923 C15.9723,1.9203 16.0523,2.0693 16.0223,2.2403 C15.9923,2.4113 15.7863,2.5503 15.4053,2.6563 C14.7313,2.8473 14.1813,3.3333 13.7563,4.1123 C13.3313,4.8903 12.7693,5.8673 12.0723,7.0403 L16.8083,7.0403 L17.7753,5.7273 C18.0243,5.4083 18.2703,5.2483 18.5163,5.2483 C18.7613,5.2483 19.0543,5.4293 19.3963,5.7923 L20.5113,6.9123 C20.9123,7.2963 21.0943,7.5943 21.0563,7.8073 C21.0303,7.9573 20.8323,8.0803 20.4643,8.1763 C20.0943,8.2713 19.7903,8.4853 19.5513,8.8163 C19.3113,9.1463 19.1033,9.5683 18.9283,10.0803 C17.0163,15.4773 14.6313,19.4453 11.7733,21.9843 C8.9143,24.5223 5.0333,26.8163 0.1283,28.8643 L0.0003,28.3203 C5.0393,25.6323 8.7073,22.8853 11.0053,20.0803 C13.3023,17.2753 15.2313,13.2593 16.7933,8.0323 L11.4813,8.0323 Z" id="Fill-1" fill="#333333" mask="url(#mask-2)"></path>
                </g>
                <g transform="translate(135.000000, 10.000000)">
                    <g id="Group-3" transform="translate(0.000000, 0.875000)">
                        <mask id="mask-4" fill="white">
                            <use xlink:href="#path-3"></use>
                        </mask>
                        <g id="Clip-2"></g>
                        <path d="M5.9642,51.2773 C6.5262,55.3813 7.5182,57.7253 8.9432,58.3083 C10.3612,58.8963 11.8282,58.8963 13.3382,58.3083 C14.8462,57.7253 16.6662,55.3813 18.7962,51.2773 C20.9252,47.1793 22.8172,40.4393 24.4702,31.0623 C26.1222,21.6913 26.6592,14.6603 26.0802,9.9683 C25.5002,5.2833 23.7432,2.9373 20.8162,2.9373 C17.8822,2.9373 15.3602,5.2833 13.2482,9.9683 C11.1302,14.6603 9.2472,21.6913 7.5952,31.0623 C5.9422,40.4393 5.3962,47.1793 5.9642,51.2773 M30.5982,9.2653 C32.3812,14.4233 32.5052,21.6913 30.9742,31.0623 C29.4362,40.4393 26.7682,47.9373 22.9642,53.5623 C19.1592,59.1873 14.9722,62.0003 10.4012,62.0003 C5.8312,62.0003 2.7512,59.1873 1.1672,53.5623 C-0.4238,47.9373 -0.3868,40.4393 1.2672,31.0623 C2.9192,21.6913 5.4862,14.4233 8.9772,9.2653 C12.4622,4.1123 15.4192,1.3003 17.8482,0.8283 C20.2702,0.3613 22.5552,0.3613 24.7032,0.8283 C26.8452,1.3003 28.8102,4.1123 30.5982,9.2653" id="Fill-1" fill="#0B74B9" mask="url(#mask-4)"></path>
                    </g>
                    <g id="Group-6" transform="translate(42.000000, 0.875000)">
                        <mask id="mask-6" fill="white">
                            <use xlink:href="#path-5"></use>
                        </mask>
                        <g id="Clip-5"></g>
                        <path d="M5.9847,41.2578 C5.3227,45.0098 5.5107,48.5858 6.5547,51.9808 C7.5917,55.3808 8.9887,57.4298 10.7437,58.1328 C12.4927,58.8358 14.7657,58.2538 17.5577,56.3748 C20.3487,54.5018 22.4887,49.3438 23.9767,40.9058 C25.4637,32.4688 24.0387,28.2498 19.7047,28.2498 C15.3647,28.2498 12.3937,28.8378 10.7807,30.0078 C9.1677,31.1838 8.1267,32.4138 7.6697,33.6988 C7.2057,34.9898 6.6457,37.5118 5.9847,41.2578 M28.4527,29.4808 C29.9627,32.8808 30.2317,37.3358 29.2607,42.8398 C28.2897,48.3498 26.2527,52.9198 23.1517,56.5508 C20.0497,60.1878 16.0927,61.9998 11.2927,61.9998 C6.4857,61.9998 3.2467,59.7758 1.5717,55.3208 C-0.1043,50.8708 -0.3743,45.4218 0.7627,38.9728 C1.8987,32.5288 4.1537,26.3768 7.5327,20.5158 C10.9047,14.6598 15.0377,9.8538 19.9187,6.1018 C24.7967,2.3558 30.1867,0.3618 36.0887,0.1248 L35.7167,2.2348 C31.1787,2.7068 27.1477,4.2888 23.6307,6.9808 C20.1067,9.6768 17.1197,13.3088 14.6777,17.8788 C12.2287,22.4488 10.5647,25.9098 9.6847,28.2498 C11.2557,27.3168 12.8167,26.4378 14.3687,25.6128 C15.9197,24.7948 18.2767,24.3828 21.4407,24.3828 C24.6047,24.3828 26.9417,26.0858 28.4527,29.4808" id="Fill-4" fill="#0B74B9" mask="url(#mask-6)"></path>
                    </g>
                </g>
                <path d="M21.9570312,20.3535156 C21.6848945,18.8639248 21.0475311,17.5104228 20.0449219,16.2929688 C19.0423127,15.0755147 17.8033928,14.4667969 16.328125,14.4667969 C15.2682239,14.4667969 14.4554065,14.7639944 13.8896484,15.3583984 C13.3238904,15.9528025 12.9514983,16.5794238 12.7724609,17.2382812 C12.5934236,17.8971387 12.5039062,18.4127586 12.5039062,18.7851562 C12.5039062,20.1458401 12.740232,21.3346303 13.2128906,22.3515625 C13.6855492,23.3684947 14.4876246,24.4641868 15.6191406,25.6386719 C17.1373774,24.4641868 19.2499865,22.7024857 21.9570312,20.3535156 Z M22.2578125,20.0957031 C25.1367331,17.5605342 27.4570224,15.5517652 29.21875,14.0693359 C30.9804776,12.5869067 32.6455,11.2656308 34.2138672,10.1054688 C35.7822344,8.9453067 37.1787048,8.04297197 38.4033203,7.3984375 C39.6279358,6.75390303 40.8059839,6.30989705 41.9375,6.06640625 L42.1523438,6.23828125 L41.5292969,6.81835938 C39.6386624,8.59440992 37.9521558,10.2486903 36.4697266,11.78125 C34.9872973,13.3138097 33.4046308,15.0289619 31.7216797,16.9267578 C30.0387286,18.8245538 28.4703849,20.6757722 27.0166016,22.4804688 C25.5628183,24.2851653 24.0338622,26.261708 22.4296875,28.4101562 C23.1028679,28.4101562 23.8906205,28.1988953 24.7929687,27.7763672 C25.695317,27.353839 26.6083938,26.7952509 27.5322266,26.1005859 C28.4560593,25.405921 29.2975222,24.6790403 30.0566406,23.9199219 L30.0566406,24.2851562 C29.1972613,25.2018275 28.0120518,26.1721954 26.5009766,27.1962891 C24.9899013,28.2203827 23.5755274,28.7324219 22.2578125,28.7324219 L21.3769531,30 L19.4003906,30 L20.5390625,28.4960938 C19.4934844,28.2955719 18.6233759,28.0162778 17.9287109,27.6582031 C17.234046,27.3001284 16.4641969,26.7773472 15.6191406,26.0898438 C14.3730406,26.8919311 13.2200574,27.5901663 12.1601563,28.1845703 C11.1002551,28.7789743 9.9759174,29.2874328 8.78710938,29.7099609 C7.59830135,30.1324891 6.41667254,30.34375 5.2421875,30.34375 C4.05337947,30.34375 3.12597989,30.121747 2.45996094,29.6777344 C1.79394198,29.2337217 1.4609375,28.6250039 1.4609375,27.8515625 C1.4609375,27.3216119 1.62564939,26.8561218 1.95507812,26.4550781 C2.28450686,26.0540345 2.68554451,25.8535156 3.15820312,25.8535156 C3.45898588,25.8535156 3.68815025,25.9322909 3.84570312,26.0898438 C4.003256,26.2473966 4.08203125,26.4049471 4.08203125,26.5625 C4.08203125,27.0065126 3.80989855,27.2285156 3.265625,27.2285156 C2.82161236,27.2285156 2.55664105,26.9921899 2.47070312,26.5195312 C2.02669049,26.8919289 1.8046875,27.3645805 1.8046875,27.9375 C1.8046875,28.5963575 2.09830436,29.1119773 2.68554688,29.484375 C3.27278939,29.8567727 4.11067164,30.0429688 5.19921875,30.0429688 C6.31641184,30.0429688 7.4658144,29.8352885 8.64746094,29.4199219 C9.82910747,29.0045552 10.9498645,28.4960968 12.0097656,27.8945312 C13.0696668,27.2929657 14.1725203,26.612634 15.3183594,25.8535156 C14.2011663,24.6217386 13.399091,23.5045623 12.9121094,22.5019531 C12.4251278,21.4993439 12.1816406,20.3750062 12.1816406,19.1289062 C12.1816406,17.8111913 12.5253872,16.6546274 13.2128906,15.6591797 C13.9003941,14.663732 14.9244724,14.1660156 16.2851562,14.1660156 C17.78907,14.1660156 19.0530548,14.7138617 20.0771484,15.8095703 C21.1012421,16.9052789 21.8281229,18.3339756 22.2578125,20.0957031 Z M33.6230469,14.0371094 L34.1816406,13.4140625 C34.7832061,12.769528 35.9540929,11.6129641 37.6943359,9.94433594 C39.434579,8.2757078 40.5983044,7.17643494 41.1855469,6.64648438 C40.0683538,6.8613292 38.6217537,7.54166094 36.8457031,8.6875 C35.0696526,9.83333906 33.2793059,11.1331308 31.4746094,12.5869141 C29.6699129,14.0406974 27.9905677,15.4550712 26.4365234,16.8300781 C24.8824792,18.205085 23.5325578,19.4010366 22.3867188,20.4179688 C22.5585946,21.7213607 22.5764981,22.8886667 22.4404297,23.9199219 C22.3043613,24.951177 21.992841,26.0683534 21.5058594,27.2714844 C22.0644559,26.5696579 22.7591104,25.7604213 23.5898438,24.84375 C24.4205771,23.9270787 25.1080702,23.1787138 25.6523438,22.5986328 C26.1966173,22.0185518 27.0738872,21.0804101 28.2841797,19.7841797 C29.4944722,18.4879492 31.2740768,16.5722783 33.6230469,14.0371094 Z M22.0429688,20.6757812 C21.4557262,21.2200548 20.5319073,22.0221301 19.2714844,23.0820312 C18.0110614,24.1419324 16.8795623,25.0657513 15.8769531,25.8535156 C16.7506554,26.5553421 17.5455693,27.0888654 18.2617188,27.4541016 C18.9778682,27.8193378 19.8157504,28.0807284 20.7753906,28.2382812 C21.4056021,26.8919204 21.8138012,25.6243549 22,24.4355469 C22.1861988,23.2467388 22.2005216,21.9934962 22.0429688,20.6757812 Z M38.6503906,16.5292969 L39.7460938,16.5292969 L31.7109375,26.21875 C32.9856835,25.2018178 34.0169231,24.3961618 34.8046875,23.8017578 C35.5924519,23.2073538 36.4231727,22.6630884 37.296875,22.1689453 C38.1705773,21.6748022 38.9010387,21.4277344 39.4882812,21.4277344 C40.0182318,21.4277344 40.2832031,21.7929651 40.2832031,22.5234375 C40.2832031,23.153649 40.0719422,23.7659475 39.6494141,24.3603516 C39.2268859,24.9547556 38.5286507,25.6315066 37.5546875,26.390625 C36.2942645,27.3645882 35.6640625,28.0377586 35.6640625,28.4101562 C35.6640625,28.739585 35.8717427,28.9042969 36.2871094,28.9042969 C37.0175818,28.9042969 39.3593552,27.2428552 43.3125,23.9199219 L43.3125,24.2851562 C41.8515552,25.5312562 40.4371813,26.6627553 39.0693359,27.6796875 C37.7014906,28.6966197 36.7597682,29.2050781 36.2441406,29.2050781 C35.5566372,29.1621092 35.2128906,28.825524 35.2128906,28.1953125 C35.2128906,27.2070263 36.1223867,25.8893312 37.9414062,24.2421875 C39.1158913,23.1822864 39.703125,22.4876319 39.703125,22.1582031 C39.703125,21.8717434 39.5598973,21.7285156 39.2734375,21.7285156 C38.8723938,21.7285156 38.005866,22.1546181 36.6738281,23.0068359 C35.3417902,23.8590537 33.9882881,24.8437444 32.6132812,25.9609375 C31.2382744,27.0781306 30.2929713,27.937497 29.7773438,28.5390625 L21.140625,38.6582031 L19.25,38.6582031 L37.296875,18.2480469 C36.7239555,18.7923204 34.2747612,20.9765434 29.9492188,24.8007812 L29.9492188,24.4570312 C30.6223992,23.8841117 32.1513553,22.5198675 34.5361328,20.3642578 C36.9209104,18.2086481 38.2923159,16.9303405 38.6503906,16.5292969 Z M51.4980469,16.5292969 L52.59375,16.5292969 L44.5585938,26.21875 C45.8333397,25.2018178 46.8645794,24.3961618 47.6523438,23.8017578 C48.4401081,23.2073538 49.270829,22.6630884 50.1445312,22.1689453 C51.0182335,21.6748022 51.748695,21.4277344 52.3359375,21.4277344 C52.8658881,21.4277344 53.1308594,21.7929651 53.1308594,22.5234375 C53.1308594,23.153649 52.9195985,23.7659475 52.4970703,24.3603516 C52.0745422,24.9547556 51.376307,25.6315066 50.4023438,26.390625 C49.1419208,27.3645882 48.5117188,28.0377586 48.5117188,28.4101562 C48.5117188,28.739585 48.719399,28.9042969 49.1347656,28.9042969 C49.865238,28.9042969 52.2070115,27.2428552 56.1601562,23.9199219 L56.1601562,24.2851562 C54.6992114,25.5312562 53.2848376,26.6627553 51.9169922,27.6796875 C50.5491468,28.6966197 49.6074245,29.2050781 49.0917969,29.2050781 C48.4042934,29.1621092 48.0605469,28.825524 48.0605469,28.1953125 C48.0605469,27.2070263 48.970043,25.8893312 50.7890625,24.2421875 C51.9635475,23.1822864 52.5507812,22.4876319 52.5507812,22.1582031 C52.5507812,21.8717434 52.4075535,21.7285156 52.1210938,21.7285156 C51.7200501,21.7285156 50.8535223,22.1546181 49.5214844,23.0068359 C48.1894465,23.8590537 46.8359444,24.8437444 45.4609375,25.9609375 C44.0859306,27.0781306 43.1406276,27.937497 42.625,28.5390625 L33.9882812,38.6582031 L32.0976562,38.6582031 L50.1445312,18.2480469 C49.5716117,18.7923204 47.1224175,20.9765434 42.796875,24.8007812 L42.796875,24.4570312 C43.4700554,23.8841117 44.9990115,22.5198675 47.3837891,20.3642578 C49.7685666,18.2086481 51.1399722,16.9303405 51.4980469,16.5292969 Z M57.2558594,24.8867188 C58.4446674,24.8867188 59.4472615,24.7363296 60.2636719,24.4355469 C61.0800822,24.1347641 61.6995422,23.7766948 62.1220703,23.3613281 C62.5445985,22.9459615 62.7558594,22.6093763 62.7558594,22.3515625 C62.7558594,21.9361958 62.5123722,21.7285156 62.0253906,21.7285156 C61.3808562,21.7285156 60.6289105,22.0113904 59.7695312,22.5771484 C58.910152,23.1429065 58.0722697,23.9127555 57.2558594,24.8867188 Z M64.8828125,23.9199219 L64.8828125,24.2851562 C63.2786378,25.8893309 61.8105535,27.1103474 60.4785156,27.9482422 C59.1464777,28.786137 57.800137,29.2050781 56.4394531,29.2050781 C55.2363221,29.2050781 54.6347656,28.517585 54.6347656,27.1425781 C54.6347656,25.9967391 55.0680295,24.9905642 55.9345703,24.1240234 C56.8011111,23.2574826 57.818028,22.5914737 58.9853516,22.1259766 C60.1526751,21.6604794 61.1015588,21.4277344 61.8320312,21.4277344 C62.2473979,21.4277344 62.573241,21.5244131 62.8095703,21.7177734 C63.0458996,21.9111338 63.1640625,22.165363 63.1640625,22.4804688 C63.1640625,22.9674504 62.8990912,23.415037 62.3691406,23.8232422 C61.8391901,24.2314474 61.1015672,24.5680325 60.15625,24.8330078 C59.2109328,25.0979831 58.1009178,25.2519529 56.8261719,25.2949219 C55.7376248,26.5266989 55.1933594,27.4648405 55.1933594,28.109375 C55.1933594,28.3385428 55.3115223,28.5283196 55.5478516,28.6787109 C55.7841809,28.8291023 56.0813784,28.9042969 56.4394531,28.9042969 C58.7454542,28.9042969 61.5598792,27.2428552 64.8828125,23.9199219 Z M70.6621094,21.7285156 C69.8027301,21.7285156 68.846685,22.1510374 67.7939453,22.9960938 C66.7412057,23.8411501 65.8245482,24.8007759 65.0439453,25.875 C64.2633425,26.9492241 63.8730469,27.7083311 63.8730469,28.1523438 C63.8730469,28.3671886 63.9446607,28.5462232 64.0878906,28.6894531 C64.2311205,28.832683 64.4101552,28.9042969 64.625,28.9042969 C65.2122425,28.9042969 66.0572862,28.4960978 67.1601562,27.6796875 C68.2630263,26.8632772 69.2584591,25.9394583 70.1464844,24.9082031 C71.0345096,23.876948 71.4785156,23.0677113 71.4785156,22.4804688 C71.4785156,21.9791642 71.2063829,21.7285156 70.6621094,21.7285156 Z M76.3339844,24.3710938 L75.2382812,25.2949219 C73.5195227,26.7272207 72.2483765,27.7369762 71.4248047,28.3242188 C70.6012329,28.9114613 69.8743521,29.2050781 69.2441406,29.2050781 C68.828774,29.2050781 68.6210938,28.9687524 68.6210938,28.4960938 C68.6210938,27.9947892 68.8144512,27.2929733 69.2011719,26.390625 C67.1529846,28.2669365 65.641932,29.2050781 64.6679688,29.2050781 C64.2382791,29.2050781 63.8873712,29.0367855 63.6152344,28.7001953 C63.3430976,28.3636051 63.2070312,27.8730501 63.2070312,27.2285156 C63.2070312,26.4980432 63.4218729,25.7783239 63.8515625,25.0693359 C64.2812521,24.360348 64.8577438,23.7337267 65.5810547,23.1894531 C66.3043656,22.6451796 67.1136023,22.2154964 68.0087891,21.9003906 C68.9039758,21.5852849 69.7740843,21.4277344 70.6191406,21.4277344 C71.0345073,21.4277344 71.3388662,21.5029289 71.5322266,21.6533203 C71.7255869,21.8037117 71.829427,22.0507795 71.84375,22.3945312 C71.829427,22.4661462 71.8186849,22.5341794 71.8115234,22.5986328 C71.8043619,22.6630863 71.7900392,22.7526036 71.7685547,22.8671875 C71.7470702,22.9817714 71.7291667,23.0748694 71.7148438,23.1464844 L73.0683594,21.5566406 L74.8730469,21.4277344 L74.3144531,22.1152344 C73.8561175,22.6595079 73.4837254,23.1070946 73.1972656,23.4580078 C72.9108059,23.808921 72.6673187,24.0989572 72.4667969,24.328125 C70.2324107,26.74871 69.1152344,28.1666646 69.1152344,28.5820312 C69.1152344,28.7968761 69.2154938,28.9042969 69.4160156,28.9042969 C69.6881524,28.9042969 70.0963514,28.7431657 70.640625,28.4208984 C71.1848986,28.0986312 71.7971971,27.6725287 72.4775391,27.1425781 C73.157881,26.6126276 73.9348915,25.9860062 74.8085938,25.2626953 C75.682296,24.5393844 76.1907545,24.1204433 76.3339844,24.0058594 L76.3339844,24.3710938 Z M75.796875,24.4570312 C76.4414095,23.9414037 77.0823536,23.4186224 77.7197266,22.8886719 C78.3570995,22.3587213 78.9908823,21.8574242 79.6210938,21.3847656 C79.5065098,20.940753 79.5638009,20.543296 79.7929688,20.1923828 C80.0221366,19.8414696 80.3014306,19.6660156 80.6308594,19.6660156 C80.8170582,19.6660156 80.9817701,19.719726 81.125,19.8271484 C81.2682299,19.9345708 81.3398438,20.0670565 81.3398438,20.2246094 C81.3398438,20.4108082 81.278972,20.5611973 81.1572266,20.6757812 C81.0354812,20.7903652 80.8886727,20.8476562 80.7167969,20.8476562 C80.544921,20.8476562 80.3085953,20.7044285 80.0078125,20.4179688 C79.9218746,20.5325527 79.8789062,20.6901032 79.8789062,20.890625 C79.8645833,21.0625009 79.9326164,21.2236321 80.0830078,21.3740234 C80.2333992,21.5244148 80.4016918,21.5996094 80.5878906,21.5996094 C80.7167975,21.5996094 80.910155,21.5709638 81.1679688,21.5136719 C81.4544285,21.4563799 81.6263018,21.4277344 81.6835938,21.4277344 C81.7981777,21.4277344 81.8948564,21.5351552 81.9736328,21.75 C82.0524092,21.9648448 82.0917969,22.2226547 82.0917969,22.5234375 C82.0917969,22.7812513 81.9163429,23.1214172 81.5654297,23.5439453 C81.2145165,23.9664735 80.6093793,24.6575473 79.75,25.6171875 C78.8906207,26.5768277 78.2962256,27.2571595 77.9667969,27.6582031 C77.6373681,28.0592468 77.4726562,28.3671864 77.4726562,28.5820312 C77.4726562,28.7968761 77.615884,28.9042969 77.9023438,28.9042969 C78.3033874,28.9042969 79.1591731,28.435226 80.4697266,27.4970703 C81.78028,26.5589146 83.3020747,25.3665437 85.0351562,23.9199219 L85.0351562,24.2851562 C81.1822724,27.5651206 78.7474009,29.2050781 77.7304688,29.2050781 C77.3437481,29.2050781 77.1503906,28.9687524 77.1503906,28.4960938 C77.1503906,27.8229133 77.2828763,27.1855499 77.5478516,26.5839844 C77.8128268,25.9824189 78.2675749,25.3164099 78.9121094,24.5859375 L81.4257812,21.8144531 C81.1249985,21.929037 80.7848326,21.9791667 80.4052734,21.9648438 C80.0257142,21.9505208 79.7929692,21.8431 79.7070312,21.6425781 C77.8020738,23.2181068 76.4987014,24.2708307 75.796875,24.8007812 L75.796875,24.4570312 Z M90.8144531,21.7285156 C89.9550738,21.7285156 88.9990287,22.1510374 87.9462891,22.9960938 C86.8935494,23.8411501 85.9768919,24.8007759 85.1962891,25.875 C84.4156862,26.9492241 84.0253906,27.7083311 84.0253906,28.1523438 C84.0253906,28.3671886 84.0970045,28.5462232 84.2402344,28.6894531 C84.3834643,28.832683 84.5624989,28.9042969 84.7773438,28.9042969 C85.3645863,28.9042969 86.2096299,28.4960978 87.3125,27.6796875 C88.4153701,26.8632772 89.4108029,25.9394583 90.2988281,24.9082031 C91.1868534,23.876948 91.6308594,23.0677113 91.6308594,22.4804688 C91.6308594,21.9791642 91.3587267,21.7285156 90.8144531,21.7285156 Z M96.4863281,24.3710938 L95.390625,25.2949219 C93.6718664,26.7272207 92.4007203,27.7369762 91.5771484,28.3242188 C90.7535766,28.9114613 90.0266959,29.2050781 89.3964844,29.2050781 C88.9811177,29.2050781 88.7734375,28.9687524 88.7734375,28.4960938 C88.7734375,27.9947892 88.9667949,27.2929733 89.3535156,26.390625 C87.3053283,28.2669365 85.7942757,29.2050781 84.8203125,29.2050781 C84.3906229,29.2050781 84.0397149,29.0367855 83.7675781,28.7001953 C83.4954413,28.3636051 83.359375,27.8730501 83.359375,27.2285156 C83.359375,26.4980432 83.5742166,25.7783239 84.0039062,25.0693359 C84.4335959,24.360348 85.0100875,23.7337267 85.7333984,23.1894531 C86.4567093,22.6451796 87.265946,22.2154964 88.1611328,21.9003906 C89.0563196,21.5852849 89.9264281,21.4277344 90.7714844,21.4277344 C91.186851,21.4277344 91.49121,21.5029289 91.6845703,21.6533203 C91.8779307,21.8037117 91.9817708,22.0507795 91.9960938,22.3945312 C91.9817708,22.4661462 91.9710287,22.5341794 91.9638672,22.5986328 C91.9567057,22.6630863 91.9423829,22.7526036 91.9208984,22.8671875 C91.899414,22.9817714 91.8815105,23.0748694 91.8671875,23.1464844 L93.2207031,21.5566406 L95.0253906,21.4277344 L94.4667969,22.1152344 C94.0084612,22.6595079 93.6360691,23.1070946 93.3496094,23.4580078 C93.0631496,23.808921 92.8196625,24.0989572 92.6191406,24.328125 C90.3847545,26.74871 89.2675781,28.1666646 89.2675781,28.5820312 C89.2675781,28.7968761 89.3678375,28.9042969 89.5683594,28.9042969 C89.8404962,28.9042969 90.2486952,28.7431657 90.7929688,28.4208984 C91.3372423,28.0986312 91.9495409,27.6725287 92.6298828,27.1425781 C93.3102248,26.6126276 94.0872352,25.9860062 94.9609375,25.2626953 C95.8346398,24.5393844 96.3430982,24.1204433 96.4863281,24.0058594 L96.4863281,24.3710938 Z M95.90625,24.8007812 L95.90625,24.4570312 C98.0833442,22.4374899 99.6087196,21.4277344 100.482422,21.4277344 C100.969403,21.4277344 101.212891,21.735674 101.212891,22.3515625 C101.212891,22.8385441 101.062502,23.318357 100.761719,23.7910156 C100.460936,24.2636742 99.8522181,25.0872337 98.9355469,26.2617188 C100.711597,24.786451 102.251296,23.6119835 103.554688,22.7382812 C104.858079,21.864579 105.975256,21.4277344 106.90625,21.4277344 C107.393232,21.4277344 107.636719,21.7643196 107.636719,22.4375 C107.636719,23.0963575 107.407554,23.7516243 106.949219,24.4033203 C106.490883,25.0550163 105.738938,25.7604129 104.693359,26.5195312 C103.576166,27.3645876 103.017578,27.966144 103.017578,28.3242188 C103.017578,28.4674486 103.085611,28.5999343 103.22168,28.7216797 C103.357748,28.8434251 103.497395,28.9042969 103.640625,28.9042969 C104.14193,28.9042969 104.804358,28.6285835 105.62793,28.0771484 C106.451502,27.5257134 107.350256,26.8238975 108.324219,25.9716797 C109.298182,25.1194619 110.085934,24.4355495 110.6875,23.9199219 L110.6875,24.2851562 C109.813798,25.1015666 108.961593,25.8642543 108.130859,26.5732422 C107.300126,27.2822301 106.472986,27.8981094 105.649414,28.4208984 C104.825842,28.9436875 104.14193,29.2050781 103.597656,29.2050781 C103.253905,29.2050781 103.006837,29.0904959 102.856445,28.8613281 C102.706054,28.6321603 102.630859,28.3958346 102.630859,28.1523438 C102.630859,27.6080702 102.845701,26.9957716 103.275391,26.3154297 C103.70508,25.6350877 104.299475,24.9726595 105.058594,24.328125 C105.932296,23.5546836 106.537433,22.9352237 106.874023,22.4697266 C107.210614,22.0042294 107.113935,21.7714844 106.583984,21.7714844 C105.910804,21.7714844 104.893887,22.2262324 103.533203,23.1357422 C102.172519,24.0452519 100.897792,25.0048778 99.7089844,26.0146484 C98.5201763,27.0244191 97.3958386,28.0162712 96.3359375,28.9902344 L94.6601562,28.9902344 L97.5175781,25.7675781 C99.6087344,23.432931 100.654297,22.1582042 100.654297,21.9433594 C100.654297,21.8001295 100.56836,21.7285156 100.396484,21.7285156 C99.7662729,21.7285156 98.2695431,22.7525939 95.90625,24.8007812 Z M119.410156,23.9199219 L119.410156,24.2851562 C116.015608,27.5651206 113.18686,29.2050781 110.923828,29.2050781 C110.322263,29.2050781 109.885418,29.0511083 109.613281,28.7431641 C109.341144,28.4352198 109.205078,27.8873737 109.205078,27.0996094 C109.205078,26.4121059 109.4235,25.7174514 109.860352,25.015625 C110.297203,24.3137986 110.873694,23.6943386 111.589844,23.1572266 C112.305993,22.6201145 113.093746,22.1975927 113.953125,21.8896484 C114.812504,21.5817042 115.650387,21.4277344 116.466797,21.4277344 C116.839195,21.4277344 117.143554,21.5208324 117.379883,21.7070312 C117.616212,21.8932301 117.734375,22.15104 117.734375,22.4804688 C117.734375,22.8528664 117.587567,23.1858709 117.293945,23.4794922 C117.000324,23.7731134 116.674481,23.9199219 116.316406,23.9199219 C115.886717,23.9199219 115.671875,23.7337258 115.671875,23.3613281 C115.671875,22.8027316 115.922524,22.5234375 116.423828,22.5234375 C116.710288,22.5234375 116.882161,22.6523425 116.939453,22.9101562 C116.996745,22.9960942 117.054036,23.0390625 117.111328,23.0390625 C117.182943,23.0390625 117.254557,22.9817714 117.326172,22.8671875 C117.397787,22.7526036 117.433594,22.6236986 117.433594,22.4804688 C117.433594,22.2513009 117.354818,22.0686856 117.197266,21.9326172 C117.039713,21.7965488 116.824871,21.7285156 116.552734,21.7285156 C115.793616,21.7285156 114.873378,22.1367147 113.791992,22.953125 C112.710607,23.7695353 111.776046,24.7005156 110.988281,25.7460938 C110.200517,26.7916719 109.806641,27.60807 109.806641,28.1953125 C109.806641,28.6679711 110.157549,28.9042969 110.859375,28.9042969 C112.162767,28.9042969 113.430332,28.5032592 114.662109,27.7011719 C115.893886,26.8990845 117.476553,25.6386805 119.410156,23.9199219 Z M120.505859,24.8867188 C121.694667,24.8867188 122.697262,24.7363296 123.513672,24.4355469 C124.330082,24.1347641 124.949542,23.7766948 125.37207,23.3613281 C125.794598,22.9459615 126.005859,22.6093763 126.005859,22.3515625 C126.005859,21.9361958 125.762372,21.7285156 125.275391,21.7285156 C124.630856,21.7285156 123.878911,22.0113904 123.019531,22.5771484 C122.160152,23.1429065 121.32227,23.9127555 120.505859,24.8867188 Z M128.132812,23.9199219 L128.132812,24.2851562 C126.528638,25.8893309 125.060554,27.1103474 123.728516,27.9482422 C122.396478,28.786137 121.050137,29.2050781 119.689453,29.2050781 C118.486322,29.2050781 117.884766,28.517585 117.884766,27.1425781 C117.884766,25.9967391 118.31803,24.9905642 119.18457,24.1240234 C120.051111,23.2574826 121.068028,22.5914737 122.235352,22.1259766 C123.402675,21.6604794 124.351559,21.4277344 125.082031,21.4277344 C125.497398,21.4277344 125.823241,21.5244131 126.05957,21.7177734 C126.2959,21.9111338 126.414062,22.165363 126.414062,22.4804688 C126.414062,22.9674504 126.149091,23.415037 125.619141,23.8232422 C125.08919,24.2314474 124.351567,24.5680325 123.40625,24.8330078 C122.460933,25.0979831 121.350918,25.2519529 120.076172,25.2949219 C118.987625,26.5266989 118.443359,27.4648405 118.443359,28.109375 C118.443359,28.3385428 118.561522,28.5283196 118.797852,28.6787109 C119.034181,28.8291023 119.331378,28.9042969 119.689453,28.9042969 C121.995454,28.9042969 124.809879,27.2428552 128.132812,23.9199219 Z" id="Appearance" fill="#999999"></path>
            </g>
        </g>
    </g>
</svg>