<?xml version="1.0" encoding="UTF-8"?>
<svg width="312px" height="78px" viewBox="0 0 312 78" version="1.1" xmlns="http://www.w3.org/2000/svg" xmlns:xlink="http://www.w3.org/1999/xlink">
    <!-- Generator: Sketch 50.2 (55047) - http://www.bohemiancoding.com/sketch -->
    <title>07</title>
    <desc>Created with Sketch.</desc>
    <defs>
        <polygon id="path-1" points="0.000308717793 -3.55271368e-15 126.485 -3.55271368e-15 126.485 30.2719 0.000308717793 30.2719"></polygon>
        <polygon id="path-3" points="0 0.47805 32.0360225 0.47805 32.0360225 62 0 62"></polygon>
        <polygon id="path-5" points="0.1329 0.5315 31.5439 0.5315 31.5439 61 0.1329 61"></polygon>
    </defs>
    <g id="Page-1" stroke="none" stroke-width="1" fill="none" fill-rule="evenodd">
        <g id="Artboard-2" transform="translate(-211.000000, -972.000000)">
            <g id="07" transform="translate(212.000000, 974.000000)">
                <g id="内部空间" transform="translate(80.000000, 44.000000)">
                    <mask id="mask-2" fill="white">
                        <use xlink:href="#path-1"></use>
                    </mask>
                    <g id="Clip-2"></g>
                    <path d="M121.6673,3.3279 L123.0483,1.6639 C123.2683,1.3879 123.4523,1.2479 123.6023,1.2479 C123.7503,1.2479 124.2773,1.5899 125.1813,2.2719 C126.0843,2.9549 126.5193,3.3969 126.4833,3.5999 C126.4473,3.8039 125.8483,4.2349 124.6873,4.8959 L121.1713,24.8319 C120.9763,25.9409 120.7793,26.7519 120.5833,27.2649 C120.3853,27.7759 120.0833,28.1919 119.6743,28.5129 C119.2663,28.8319 118.5473,29.1569 117.5183,29.4879 C116.4893,29.8179 115.8573,29.9839 115.6233,29.9839 C115.4093,29.9839 115.3353,29.8029 115.3983,29.4399 C115.6543,27.9889 114.6113,26.8899 112.2683,26.1439 L112.4823,25.4729 C114.6683,25.8979 116.0703,26.1119 116.6893,26.1119 C117.3083,26.1119 117.7093,26.0159 117.8923,25.8239 C118.0753,25.6319 118.2123,25.2799 118.3023,24.7679 L121.8913,4.4159 L113.1553,4.4159 C112.7503,4.4159 112.3533,4.4909 111.9633,4.6399 L111.3743,3.2649 C111.8783,3.3069 112.4083,3.3279 112.9633,3.3279 L121.6673,3.3279 Z M113.0103,16.6719 L107.2183,16.6719 L106.3043,21.8559 L112.0963,21.8559 L113.0103,16.6719 Z M107.3933,15.6809 L113.1853,15.6809 L114.0543,10.7519 L108.2623,10.7519 L107.3933,15.6809 Z M106.0993,8.3199 C107.7183,8.9389 108.7043,9.4509 109.0603,9.8559 L113.8603,9.8559 L114.8693,8.6719 C115.0303,8.4799 115.1913,8.3839 115.3523,8.3839 C115.5113,8.3839 115.9843,8.6359 116.7713,9.1369 C117.5573,9.6379 117.9333,9.9839 117.8993,10.1759 C117.8663,10.3679 117.4173,10.7309 116.5563,11.2649 L114.8743,20.7999 L114.4103,23.6159 C114.3613,23.8929 114.2563,24.0909 114.0973,24.2079 C113.9383,24.3259 113.5623,24.4909 112.9703,24.7039 C112.3773,24.9169 111.9903,25.0239 111.8093,25.0239 C111.6283,25.0239 111.5883,24.7359 111.6893,24.1599 L111.9323,22.7839 L106.1403,22.7839 L105.8193,24.6079 C105.7853,24.7999 105.6593,24.9709 105.4403,25.1199 C105.2223,25.2689 104.8163,25.4509 104.2253,25.6639 C103.6323,25.8769 103.2613,25.9839 103.1123,25.9839 C102.9623,25.9839 102.9413,25.8029 103.0483,25.4399 C103.2833,24.5869 103.5003,23.6049 103.6953,22.4959 L105.7153,11.0399 C105.8733,10.1439 106.0013,9.2369 106.0993,8.3199 Z M103.9823,-0.0001 C105.6623,0.8749 106.9023,1.6479 107.7013,2.3199 C108.4993,2.9919 108.8253,3.7499 108.6763,4.5919 C108.5273,5.4349 108.1813,6.0969 107.6383,6.5759 C107.0953,7.0569 106.6633,7.2959 106.3433,7.2959 C106.0233,7.2959 105.8103,7.2059 105.7033,7.0239 C105.5963,6.8429 105.5403,6.5279 105.5343,6.0799 C105.5513,4.6509 105.3913,3.5309 105.0543,2.7209 C104.7173,1.9099 104.2373,1.1519 103.6153,0.4479 L103.9823,-0.0001 Z M99.4543,8.2559 C99.6423,7.1889 99.7883,6.2399 99.8923,5.4079 C102.3143,6.0689 103.4993,6.5499 103.4463,6.8489 C103.4133,7.0399 103.0293,7.3389 102.2963,7.7439 L98.6283,28.5439 C98.5873,28.7779 98.4703,28.9599 98.2773,29.0879 C98.0833,29.2159 97.6413,29.3969 96.9493,29.6319 C96.2563,29.8669 95.8363,29.9839 95.6873,29.9839 C95.5373,29.9839 95.4743,29.9199 95.4973,29.7919 C95.5193,29.6639 95.6333,29.1679 95.8393,28.3049 C96.0443,27.4399 96.2453,26.4529 96.4413,25.3449 L99.4543,8.2559 Z M79.9363,9.1519 C82.1213,9.7069 83.8643,10.1979 85.1653,10.6239 C86.4653,11.0509 87.4293,11.4509 88.0573,11.8239 C88.6843,12.1979 89.0783,12.5649 89.2383,12.9289 C89.3983,13.2909 89.4243,13.7819 89.3143,14.3999 C89.2063,15.0189 89.0183,15.5099 88.7513,15.8719 C88.4843,16.2349 88.1913,16.4159 87.8713,16.4159 C87.6363,16.4159 87.3263,16.1179 86.9413,15.5199 C86.3423,14.5599 85.3813,13.5679 84.0583,12.5439 C82.7343,11.5199 81.2353,10.6129 79.5623,9.8239 L79.9363,9.1519 Z M77.2053,0.3199 C78.9193,0.6399 80.1863,0.9919 81.0033,1.3759 C81.8203,1.7609 82.1833,2.2199 82.0883,2.7519 C81.9953,3.2859 81.6903,3.8609 81.1763,4.4799 C80.6613,5.0989 80.1053,5.4079 79.5083,5.4079 C79.2733,5.4079 79.1323,5.1839 79.0833,4.7359 C78.9293,3.3069 78.1883,2.0059 76.8593,0.8319 L77.2053,0.3199 Z M64.3173,17.1519 C67.7903,14.9979 71.1613,12.2139 74.4303,8.7999 C75.3073,9.2689 75.9953,9.6959 76.4923,10.0799 C76.9903,10.4639 77.2733,10.7039 77.3413,10.7999 C77.4103,10.8959 77.4363,10.9919 77.4183,11.0879 C77.4023,11.1839 77.3363,11.2539 77.2223,11.2959 C77.1073,11.3389 76.8963,11.3599 76.5863,11.3599 C76.2773,11.3599 75.9963,11.4139 75.7433,11.5199 C75.4893,11.6269 75.1463,11.8189 74.7133,12.0969 C71.0523,14.4639 67.6563,16.3629 64.5243,17.7919 L64.3173,17.1519 Z M70.6853,3.3599 C70.7393,4.0209 70.7533,4.7249 70.7293,5.4729 L89.1933,5.4729 L90.5843,3.9359 C90.7423,3.7649 90.8693,3.6809 90.9653,3.6809 C91.0613,3.6809 91.3553,3.8509 91.8513,4.1919 C92.3453,4.5339 92.8593,4.9439 93.3943,5.4239 C93.9273,5.9039 94.2413,6.2139 94.3343,6.3519 C94.4263,6.4909 94.4633,6.6129 94.4453,6.7209 C94.4263,6.8269 94.3653,6.9009 94.2613,6.9439 C94.1583,6.9869 93.9353,7.0079 93.5943,7.0079 C92.8053,7.0079 92.0133,7.2319 91.2203,7.6809 C90.4263,8.1279 89.2833,9.0139 87.7913,10.3359 L87.2983,10.0479 L88.9973,6.3999 L70.6613,6.3999 C70.4833,7.8929 70.0043,9.0669 69.2253,9.9199 C68.4443,10.7729 67.6393,11.1999 66.8073,11.1999 C66.3373,11.1999 65.9793,11.0829 65.7333,10.8489 C65.4863,10.6129 65.3863,10.3679 65.4313,10.1119 C65.4763,9.8559 65.7473,9.5249 66.2463,9.1199 C67.5353,8.0969 68.4073,7.1739 68.8623,6.3519 C69.3153,5.5309 69.6783,4.5339 69.9493,3.3599 L70.6853,3.3599 Z M75.9963,18.9759 L69.5963,18.9759 C69.0203,18.9759 68.5593,19.0509 68.2123,19.1999 L67.8683,17.8889 C68.2973,17.9949 68.8203,18.0479 69.4393,18.0479 L82.5913,18.0479 L84.4923,16.1599 C84.7263,15.9259 84.9063,15.8079 85.0343,15.8079 C85.2273,15.8079 85.6863,16.2559 86.4143,17.1519 C87.1403,18.0479 87.4903,18.5759 87.4623,18.7359 C87.4343,18.8959 87.2603,18.9759 86.9403,18.9759 L78.9723,18.9759 L77.4653,27.5199 L84.4093,27.5199 L86.2903,25.5679 C86.5513,25.2909 86.7473,25.1519 86.8753,25.1519 C87.0673,25.1519 87.5973,25.6209 88.4663,26.5599 C89.3353,27.4989 89.7563,28.0479 89.7283,28.2079 C89.7003,28.3679 89.5363,28.4479 89.2383,28.4479 L63.9263,28.4479 C63.3503,28.4479 62.8893,28.5219 62.5423,28.6719 L62.1973,27.3599 C62.6263,27.4669 63.1503,27.5199 63.7693,27.5199 L74.4893,27.5199 L75.9963,18.9759 Z M52.0523,2.1439 C52.9373,2.5709 53.8513,3.0719 54.7943,3.6479 L58.3783,3.6479 L59.4143,2.4959 C59.5763,2.3049 59.7413,2.2079 59.9133,2.2079 C60.0833,2.2079 60.5943,2.5759 61.4463,3.3119 C62.2973,4.0479 62.7063,4.5129 62.6723,4.7039 C62.6463,4.8529 62.4373,4.9809 62.0443,5.0879 C61.6523,5.1949 61.3473,5.3549 61.1283,5.5679 C60.9093,5.7819 60.3113,6.6029 59.3343,8.0319 L56.1593,12.6079 C57.4993,13.7179 58.4503,14.8589 59.0113,16.0319 C59.5723,17.2059 59.7403,18.4319 59.5143,19.7119 C59.2883,20.9919 58.9173,21.9789 58.4003,22.6719 C57.8833,23.3659 57.1503,23.9839 56.2013,24.5279 C55.2513,25.0719 54.6273,25.3449 54.3293,25.3449 C54.0303,25.3449 53.8833,25.1519 53.8863,24.7679 C53.8473,24.0209 53.6833,23.4729 53.3933,23.1199 C53.1033,22.7679 52.4273,22.3359 51.3663,21.8239 L51.6063,21.1839 C52.5423,21.4399 53.3573,21.5679 54.0513,21.5679 C54.7443,21.5679 55.3013,21.3759 55.7203,20.9919 C56.1403,20.6079 56.4423,19.8929 56.6263,18.8489 C56.8113,17.8039 56.7343,16.8109 56.3993,15.8719 C56.0633,14.9329 55.4623,13.9519 54.5983,12.9289 C55.9963,9.9629 57.2243,7.2319 58.2833,4.7359 L54.2833,4.7359 L50.0453,28.7679 C49.9933,29.0659 49.9173,29.2799 49.8203,29.4079 C49.7233,29.5359 49.3193,29.7119 48.6073,29.9359 C47.8963,30.1599 47.4713,30.2719 47.3323,30.2719 C47.1933,30.2719 47.1453,30.1539 47.1863,29.9199 L47.5663,28.1279 C47.7193,27.3809 47.8763,26.5489 48.0383,25.6319 L51.5873,5.5039 C51.8583,3.9679 52.0133,2.8489 52.0523,2.1439 Z M41.6403,24.3519 L42.7063,18.3049 L36.8183,18.3049 L35.7523,24.3519 L41.6403,24.3519 Z M37.0953,6.7519 C38.3613,7.4349 39.2733,8.1009 39.8313,8.7519 C40.3883,9.4029 40.6033,10.0909 40.4753,10.8159 C40.3963,11.2649 40.1153,11.7659 39.6333,12.3199 C39.1513,12.8749 38.7503,13.1519 38.4313,13.1519 C37.9393,13.1519 37.7033,12.7999 37.7213,12.0969 C37.7193,10.7729 37.6363,9.7649 37.4703,9.0719 C37.3043,8.3789 37.0263,7.8079 36.6363,7.3599 L37.0953,6.7519 Z M34.4253,15.9039 C35.5993,16.2669 36.5933,16.7359 37.4093,17.3119 L42.5933,17.3119 L43.4663,16.3519 C43.7073,16.0749 43.8923,15.9359 44.0203,15.9359 C44.2333,15.9359 44.7523,16.1979 45.5783,16.7209 C46.4023,17.2429 46.7993,17.5959 46.7683,17.7759 C46.7353,17.9579 46.3043,18.2829 45.4753,18.7519 L44.4593,24.5129 L44.1913,26.3999 C44.1653,26.5489 44.1123,26.6669 44.0333,26.7519 C43.9543,26.8369 43.7333,26.9649 43.3733,27.1369 C43.0123,27.3069 42.6253,27.4449 42.2113,27.5529 C41.7983,27.6589 41.5003,27.7119 41.3193,27.7119 C41.1383,27.7119 41.0833,27.5089 41.1553,27.1039 L41.4593,25.3759 L35.5713,25.3759 L35.1883,27.5529 C35.1243,27.9149 34.9993,28.1709 34.8123,28.3199 C34.6263,28.4699 34.2453,28.6349 33.6683,28.8159 C33.0933,28.9969 32.6663,29.0879 32.3893,29.0879 C32.2183,29.0879 32.1653,28.9069 32.2293,28.5439 L32.7613,25.8889 L34.0423,18.6239 C34.2003,17.7279 34.3283,16.8209 34.4253,15.9039 Z M41.2793,5.3449 C41.4413,3.7019 40.9743,2.2939 39.8803,1.1199 L40.1943,0.6079 C41.4673,1.0139 42.3993,1.3549 42.9903,1.6319 C43.5813,1.9099 43.9593,2.1819 44.1263,2.4479 C44.2923,2.7149 44.3263,3.1309 44.2263,3.6959 C44.1263,4.2619 43.9113,4.6669 43.5803,4.9119 C43.2493,5.1579 42.9513,5.3019 42.6883,5.3449 L46.5913,5.3449 L47.8163,3.8399 C47.9793,3.6479 48.1123,3.5529 48.2193,3.5529 C48.3903,3.5529 48.8483,3.9469 49.5953,4.7359 C50.3403,5.5249 50.7013,5.9949 50.6743,6.1439 C50.6483,6.2939 50.3893,6.3679 49.8993,6.3679 L35.9473,6.3679 C35.3713,6.3679 34.9103,6.4429 34.5633,6.5919 L34.1723,5.1839 C34.6013,5.2909 35.1253,5.3449 35.7443,5.3449 L41.2793,5.3449 Z M41.6013,13.5039 C42.8563,11.2219 43.9703,8.8959 44.9433,6.5279 C45.4283,6.6779 46.0213,6.9179 46.7203,7.2479 C47.4183,7.5789 47.8583,7.8079 48.0393,7.9359 C48.2183,8.0639 48.2963,8.1979 48.2723,8.3359 C48.2483,8.4749 48.0433,8.6029 47.6603,8.7209 C47.2763,8.8379 46.9563,8.9919 46.6983,9.1839 C46.4403,9.3759 46.0623,9.7709 45.5623,10.3679 C45.0613,10.9659 44.2323,12.0119 43.0733,13.5039 L45.3133,13.5039 L46.6513,11.9039 C46.8963,11.6049 47.0823,11.4559 47.2103,11.4559 C47.3383,11.4559 47.5573,11.5999 47.8703,11.8889 C48.1813,12.1759 48.5383,12.5129 48.9403,12.8959 C49.3413,13.2799 49.5933,13.5469 49.6953,13.6959 C49.7963,13.8459 49.8343,13.9949 49.8083,14.1439 C49.7663,14.3789 49.5853,14.4959 49.2663,14.4959 L33.7723,14.5279 C33.1963,14.5279 32.7353,14.6029 32.3893,14.7519 L32.0293,13.3449 C32.4583,13.4509 32.9813,13.5039 33.6013,13.5039 L41.6013,13.5039 Z M4.3653,5.0879 C5.6313,5.4079 6.8193,6.0479 7.9303,7.0079 L13.9143,7.0079 C14.0853,6.1549 14.2543,5.2589 14.4203,4.3199 C14.5853,3.3819 14.7893,2.0479 15.0293,0.3199 C17.8723,0.8959 19.2633,1.3549 19.2033,1.6959 C19.1803,1.8239 19.0023,1.9519 18.6713,2.0799 C18.3393,2.2079 18.1143,2.3949 17.9963,2.6409 C17.8783,2.8859 17.6963,3.4939 17.4513,4.4639 C17.2053,5.4349 16.9643,6.2829 16.7303,7.0079 L23.5463,7.0079 L24.6253,5.7919 C24.8073,5.5999 24.9743,5.5039 25.1233,5.5039 C25.2723,5.5039 25.7933,5.8129 26.6883,6.4319 C27.5813,7.0509 28.0093,7.4669 27.9723,7.6809 C27.9343,7.8929 27.3943,8.2349 26.3513,8.7039 L23.2143,26.4959 C23.1043,27.1149 22.8933,27.6159 22.5813,27.9999 C22.2683,28.3839 21.6253,28.8159 20.6563,29.2959 C19.6863,29.7759 19.0843,30.0159 18.8493,30.0159 C18.6573,30.0159 18.5563,29.7699 18.5473,29.2799 C18.5383,28.7889 18.4383,28.3839 18.2503,28.0639 C18.0603,27.7439 17.6663,27.4399 17.0663,27.1519 C16.4663,26.8639 15.5573,26.5489 14.3363,26.2079 L14.5783,25.5679 C16.7903,25.8459 18.2433,25.9839 18.9363,25.9839 C19.6293,25.9839 20.0733,25.8889 20.2673,25.6959 C20.4603,25.5039 20.6063,25.1309 20.7043,24.5759 L23.6103,8.0969 L16.4423,8.0969 C15.7173,10.6359 15.0873,12.5759 14.5513,13.9199 C16.6123,14.8159 18.1503,15.6809 19.1663,16.5129 C20.1823,17.3449 20.6113,18.2079 20.4533,19.1039 C20.3713,19.5739 20.1503,20.1229 19.7943,20.7519 C19.4383,21.3819 19.0363,21.6959 18.5883,21.6959 C18.3323,21.6959 18.1473,21.5959 18.0343,21.3919 C17.9203,21.1889 17.8173,20.8639 17.7263,20.4159 C17.2173,18.2199 16.0543,16.2879 14.2353,14.6239 C12.7153,18.1659 9.5563,21.0779 4.7593,23.3599 L4.5413,22.7839 C7.4153,20.7579 9.4893,18.5819 10.7633,16.2559 C12.0373,13.9319 13.0023,11.2109 13.6583,8.0969 L6.6183,8.0969 L3.1083,27.9999 C3.0673,28.2339 3.0123,28.3939 2.9443,28.4799 C2.8753,28.5649 2.6673,28.6929 2.3163,28.8639 C1.9663,29.0349 1.5723,29.1839 1.1333,29.3119 C0.6953,29.4399 0.3903,29.5039 0.2193,29.5039 C0.0483,29.5039 -0.0217,29.4239 0.0063,29.2649 C0.0343,29.1039 0.1433,28.6349 0.3343,27.8559 C0.5243,27.0769 0.7123,26.1649 0.8963,25.1199 L3.9383,7.8719 C4.1223,6.8269 4.2643,5.8989 4.3653,5.0879 Z" id="Fill-1" fill="#333333" mask="url(#mask-2)"></path>
                </g>
                <g transform="translate(0.000000, 9.000000)">
                    <g id="Group-3" transform="translate(0.000000, 0.522000)">
                        <mask id="mask-4" fill="white">
                            <use xlink:href="#path-3"></use>
                        </mask>
                        <g id="Clip-2"></g>
                        <path d="M5.9642,51.2773 C6.5262,55.3813 7.5182,57.7253 8.9432,58.3083 C10.3612,58.8963 11.8282,58.8963 13.3382,58.3083 C14.8462,57.7253 16.6662,55.3813 18.7962,51.2773 C20.9252,47.1793 22.8172,40.4393 24.4702,31.0623 C26.1222,21.6913 26.6592,14.6603 26.0802,9.9683 C25.5002,5.2833 23.7432,2.9373 20.8162,2.9373 C17.8822,2.9373 15.3602,5.2833 13.2482,9.9683 C11.1302,14.6603 9.2472,21.6913 7.5952,31.0623 C5.9422,40.4393 5.3962,47.1793 5.9642,51.2773 M30.5982,9.2653 C32.3812,14.4233 32.5052,21.6913 30.9742,31.0623 C29.4362,40.4393 26.7682,47.9373 22.9642,53.5623 C19.1592,59.1873 14.9722,62.0003 10.4012,62.0003 C5.8312,62.0003 2.7512,59.1873 1.1672,53.5623 C-0.4238,47.9373 -0.3868,40.4393 1.2672,31.0623 C2.9192,21.6913 5.4862,14.4233 8.9772,9.2653 C12.4622,4.1123 15.4192,1.3003 17.8482,0.8283 C20.2702,0.3613 22.5552,0.3613 24.7032,0.8283 C26.8452,1.3003 28.8102,4.1123 30.5982,9.2653" id="Fill-1" fill="#0B74B9" mask="url(#mask-4)"></path>
                    </g>
                    <g id="Group-6" transform="translate(47.000000, 1.522000)">
                        <mask id="mask-6" fill="white">
                            <use xlink:href="#path-5"></use>
                        </mask>
                        <g id="Clip-5"></g>
                        <path d="M6.7499,7.5625 C5.6449,8.5015 4.1029,10.6115 2.1189,13.8905 L0.1329,13.1875 L6.5829,0.5315 L31.5439,0.5315 L5.0619,61.0005 L1.0909,59.5935 L24.9279,6.1565 L11.5679,6.1565 C9.4589,6.1565 7.8479,6.6285 6.7499,7.5625" id="Fill-4" fill="#0B74B9" mask="url(#mask-6)"></path>
                    </g>
                </g>
                <path d="M103.529297,18.3769531 C105.520192,15.7415233 107.281893,13.6826246 108.814453,12.2001953 C110.347013,10.717766 111.782871,9.5468793 113.12207,8.6875 C114.46127,7.8281207 116.104808,6.92578598 118.052734,5.98046875 C115.159491,6.02343771 112.631521,6.38866844 110.46875,7.07617188 C108.305979,7.76367531 106.551439,8.62304172 105.205078,9.65429688 C103.858717,10.685552 102.870446,11.7311145 102.240234,12.7910156 C101.610023,13.8509168 101.294922,14.7604129 101.294922,15.5195312 C101.294922,17.1380289 102.039706,18.0904934 103.529297,18.3769531 Z M89.1992188,30.0429688 C90.9466233,30.0429688 92.5722581,29.6562539 94.0761719,28.8828125 C95.5800856,28.1093711 96.9085229,27.1175191 98.0615234,25.9072266 C99.214524,24.6969341 100.281571,23.343432 101.262695,21.8466797 C102.24382,20.3499274 102.927732,19.3007843 103.314453,18.6992188 C102.397782,18.4843739 101.678063,18.0725942 101.155273,17.4638672 C100.632484,16.8551402 100.371094,16.0924525 100.371094,15.1757812 C100.371094,14.4166629 100.653969,13.5143281 101.219727,12.46875 C101.785485,11.4231719 102.759433,10.3811901 104.141602,9.34277344 C105.52377,8.30435679 107.432279,7.44140969 109.867188,6.75390625 C112.302096,6.06640281 115.324201,5.72265625 118.933594,5.72265625 L118.933594,5.9375 C116.885406,6.82552527 115.084318,7.82811941 113.530273,8.9453125 C111.976229,10.0625056 110.680018,11.1868433 109.641602,12.3183594 C108.603185,13.4498754 107.761722,14.5205028 107.117188,15.5302734 C106.472653,16.5400441 105.849612,17.5963487 105.248047,18.6992188 C108.699887,18.6562498 110.769528,16.6295773 111.457031,12.6191406 L111.757812,12.6191406 C111.184893,16.9017141 108.929056,19.0429688 104.990234,19.0429688 C104.302731,20.4179756 103.429042,21.767897 102.369141,23.0927734 C101.309239,24.4176499 100.0739,25.6350856 98.6630859,26.7451172 C97.2522716,27.8551488 95.741219,28.7324187 94.1298828,29.3769531 C92.5185466,30.0214876 90.8463628,30.34375 89.1132812,30.34375 C87.8528583,30.34375 86.8180379,30.0895208 86.0087891,29.5810547 C85.1995402,29.0725886 84.7949219,28.4029989 84.7949219,27.5722656 C84.7949219,27.085284 84.9309882,26.6878271 85.203125,26.3798828 C85.4752618,26.0719386 85.8190083,25.9179688 86.234375,25.9179688 C86.5351578,25.9179688 86.7750642,25.9931633 86.9541016,26.1435547 C87.1331389,26.2939461 87.2226562,26.505207 87.2226562,26.7773438 C87.2226562,27.3359403 86.8932325,27.6152344 86.234375,27.6152344 C85.8046854,27.6152344 85.5325527,27.3574245 85.4179688,26.8417969 C85.2604159,27.0423187 85.1816406,27.3001286 85.1816406,27.6152344 C85.1816406,28.4173217 85.6005817,29.0224589 86.4384766,29.4306641 C87.2763714,29.8388692 88.1966096,30.0429688 89.1992188,30.0429688 Z M104.345703,24.8007812 L104.345703,24.4570312 C106.522797,22.4374899 108.048173,21.4277344 108.921875,21.4277344 C109.408857,21.4277344 109.652344,21.735674 109.652344,22.3515625 C109.652344,22.8385441 109.501955,23.318357 109.201172,23.7910156 C108.900389,24.2636742 108.291671,25.0872337 107.375,26.2617188 C109.151051,24.786451 110.690749,23.6119835 111.994141,22.7382812 C113.297533,21.864579 114.414709,21.4277344 115.345703,21.4277344 C115.832685,21.4277344 116.076172,21.7643196 116.076172,22.4375 C116.076172,23.0963575 115.847008,23.7516243 115.388672,24.4033203 C114.930336,25.0550163 114.178391,25.7604129 113.132812,26.5195312 C112.015619,27.3645876 111.457031,27.966144 111.457031,28.3242188 C111.457031,28.4674486 111.525064,28.5999343 111.661133,28.7216797 C111.797201,28.8434251 111.936848,28.9042969 112.080078,28.9042969 C112.581383,28.9042969 113.243811,28.6285835 114.067383,28.0771484 C114.890955,27.5257134 115.789709,26.8238975 116.763672,25.9716797 C117.737635,25.1194619 118.525388,24.4355495 119.126953,23.9199219 L119.126953,24.2851562 C118.253251,25.1015666 117.401046,25.8642543 116.570312,26.5732422 C115.739579,27.2822301 114.912439,27.8981094 114.088867,28.4208984 C113.265295,28.9436875 112.581383,29.2050781 112.037109,29.2050781 C111.693358,29.2050781 111.44629,29.0904959 111.295898,28.8613281 C111.145507,28.6321603 111.070312,28.3958346 111.070312,28.1523438 C111.070312,27.6080702 111.285154,26.9957716 111.714844,26.3154297 C112.144533,25.6350877 112.738928,24.9726595 113.498047,24.328125 C114.371749,23.5546836 114.976886,22.9352237 115.313477,22.4697266 C115.650067,22.0042294 115.553388,21.7714844 115.023438,21.7714844 C114.350257,21.7714844 113.33334,22.2262324 111.972656,23.1357422 C110.611972,24.0452519 109.337246,25.0048778 108.148438,26.0146484 C106.959629,27.0244191 105.835292,28.0162712 104.775391,28.9902344 L103.099609,28.9902344 L105.957031,25.7675781 C108.048188,23.432931 109.09375,22.1582042 109.09375,21.9433594 C109.09375,21.8001295 109.007813,21.7285156 108.835938,21.7285156 C108.205726,21.7285156 106.708996,22.7525939 104.345703,24.8007812 Z M125.958984,18.4199219 L129.525391,14.3808594 L131.373047,14.3808594 L127.806641,18.4199219 L130.535156,18.4199219 L130.298828,18.7851562 L127.527344,18.7851562 L122.306641,24.7148438 C121.733721,25.3450552 121.099938,26.1041622 120.405273,26.9921875 C119.710609,27.8802128 119.363281,28.3671871 119.363281,28.453125 C119.363281,28.7539078 119.520832,28.9042969 119.835938,28.9042969 C121.010423,28.9042969 123.531231,27.2428552 127.398438,23.9199219 L127.398438,24.2851562 L126.259766,25.2949219 C123.294907,27.9017057 121.13933,29.2050781 119.792969,29.2050781 C119.46354,29.2050781 119.20573,29.1119801 119.019531,28.9257812 C118.833332,28.7395824 118.740234,28.5247408 118.740234,28.28125 C118.740234,27.7083305 119.144853,26.755866 119.954102,25.4238281 C120.76335,24.0917902 122.349598,22.2441524 124.712891,19.8808594 C123.251946,20.8548226 121.218112,22.4947801 118.611328,24.8007812 L118.611328,24.4570312 C119.48503,23.6262979 120.5664,22.6845756 121.855469,21.6318359 C123.144538,20.5790963 124.404942,19.6302126 125.636719,18.7851562 L124.068359,18.7851562 L124.369141,18.4199219 L125.958984,18.4199219 Z M128.494141,24.8867188 C129.682949,24.8867188 130.685543,24.7363296 131.501953,24.4355469 C132.318363,24.1347641 132.937823,23.7766948 133.360352,23.3613281 C133.78288,22.9459615 133.994141,22.6093763 133.994141,22.3515625 C133.994141,21.9361958 133.750653,21.7285156 133.263672,21.7285156 C132.619137,21.7285156 131.867192,22.0113904 131.007812,22.5771484 C130.148433,23.1429065 129.310551,23.9127555 128.494141,24.8867188 Z M136.121094,23.9199219 L136.121094,24.2851562 C134.516919,25.8893309 133.048835,27.1103474 131.716797,27.9482422 C130.384759,28.786137 129.038418,29.2050781 127.677734,29.2050781 C126.474603,29.2050781 125.873047,28.517585 125.873047,27.1425781 C125.873047,25.9967391 126.306311,24.9905642 127.172852,24.1240234 C128.039392,23.2574826 129.056309,22.5914737 130.223633,22.1259766 C131.390956,21.6604794 132.33984,21.4277344 133.070312,21.4277344 C133.485679,21.4277344 133.811522,21.5244131 134.047852,21.7177734 C134.284181,21.9111338 134.402344,22.165363 134.402344,22.4804688 C134.402344,22.9674504 134.137372,23.415037 133.607422,23.8232422 C133.077471,24.2314474 132.339848,24.5680325 131.394531,24.8330078 C130.449214,25.0979831 129.339199,25.2519529 128.064453,25.2949219 C126.975906,26.5266989 126.431641,27.4648405 126.431641,28.109375 C126.431641,28.3385428 126.549804,28.5283196 126.786133,28.6787109 C127.022462,28.8291023 127.31966,28.9042969 127.677734,28.9042969 C129.983735,28.9042969 132.79816,27.2428552 136.121094,23.9199219 Z M135.605469,24.4570312 C136.250003,23.9414037 136.890947,23.4186224 137.52832,22.8886719 C138.165693,22.3587213 138.799476,21.8574242 139.429688,21.3847656 C139.315104,20.940753 139.372395,20.543296 139.601562,20.1923828 C139.83073,19.8414696 140.110024,19.6660156 140.439453,19.6660156 C140.625652,19.6660156 140.790364,19.719726 140.933594,19.8271484 C141.076824,19.9345708 141.148438,20.0670565 141.148438,20.2246094 C141.148438,20.4108082 141.087566,20.5611973 140.96582,20.6757812 C140.844075,20.7903652 140.697266,20.8476562 140.525391,20.8476562 C140.353515,20.8476562 140.117189,20.7044285 139.816406,20.4179688 C139.730468,20.5325527 139.6875,20.6901032 139.6875,20.890625 C139.673177,21.0625009 139.74121,21.2236321 139.891602,21.3740234 C140.041993,21.5244148 140.210286,21.5996094 140.396484,21.5996094 C140.525391,21.5996094 140.718749,21.5709638 140.976562,21.5136719 C141.263022,21.4563799 141.434896,21.4277344 141.492188,21.4277344 C141.606771,21.4277344 141.70345,21.5351552 141.782227,21.75 C141.861003,21.9648448 141.900391,22.2226547 141.900391,22.5234375 C141.900391,22.7812513 141.724937,23.1214172 141.374023,23.5439453 C141.02311,23.9664735 140.417973,24.6575473 139.558594,25.6171875 C138.699214,26.5768277 138.104819,27.2571595 137.775391,27.6582031 C137.445962,28.0592468 137.28125,28.3671864 137.28125,28.5820312 C137.28125,28.7968761 137.424478,28.9042969 137.710938,28.9042969 C138.111981,28.9042969 138.967767,28.435226 140.27832,27.4970703 C141.588874,26.5589146 143.110668,25.3665437 144.84375,23.9199219 L144.84375,24.2851562 C140.990866,27.5651206 138.555995,29.2050781 137.539062,29.2050781 C137.152342,29.2050781 136.958984,28.9687524 136.958984,28.4960938 C136.958984,27.8229133 137.09147,27.1855499 137.356445,26.5839844 C137.621421,25.9824189 138.076169,25.3164099 138.720703,24.5859375 L141.234375,21.8144531 C140.933592,21.929037 140.593426,21.9791667 140.213867,21.9648438 C139.834308,21.9505208 139.601563,21.8431 139.515625,21.6425781 C137.610668,23.2181068 136.307295,24.2708307 135.605469,24.8007812 L135.605469,24.4570312 Z M144.285156,24.8007812 L144.285156,24.4570312 C146.46225,22.4374899 147.987626,21.4277344 148.861328,21.4277344 C149.34831,21.4277344 149.591797,21.735674 149.591797,22.3515625 C149.591797,22.8385441 149.441408,23.318357 149.140625,23.7910156 C148.839842,24.2636742 148.231124,25.0872337 147.314453,26.2617188 C149.090504,24.786451 150.630202,23.6119835 151.933594,22.7382812 C153.236986,21.864579 154.354162,21.4277344 155.285156,21.4277344 C155.772138,21.4277344 156.015625,21.7643196 156.015625,22.4375 C156.015625,23.0963575 155.786461,23.7516243 155.328125,24.4033203 C154.869789,25.0550163 154.117844,25.7604129 153.072266,26.5195312 C151.955073,27.3645876 151.396484,27.966144 151.396484,28.3242188 C151.396484,28.4674486 151.464518,28.5999343 151.600586,28.7216797 C151.736654,28.8434251 151.876301,28.9042969 152.019531,28.9042969 C152.520836,28.9042969 153.183264,28.6285835 154.006836,28.0771484 C154.830408,27.5257134 155.729162,26.8238975 156.703125,25.9716797 C157.677088,25.1194619 158.464841,24.4355495 159.066406,23.9199219 L159.066406,24.2851562 C158.192704,25.1015666 157.340499,25.8642543 156.509766,26.5732422 C155.679032,27.2822301 154.851892,27.8981094 154.02832,28.4208984 C153.204748,28.9436875 152.520836,29.2050781 151.976562,29.2050781 C151.632811,29.2050781 151.385743,29.0904959 151.235352,28.8613281 C151.08496,28.6321603 151.009766,28.3958346 151.009766,28.1523438 C151.009766,27.6080702 151.224607,26.9957716 151.654297,26.3154297 C152.083987,25.6350877 152.678382,24.9726595 153.4375,24.328125 C154.311202,23.5546836 154.916339,22.9352237 155.25293,22.4697266 C155.58952,22.0042294 155.492841,21.7714844 154.962891,21.7714844 C154.28971,21.7714844 153.272793,22.2262324 151.912109,23.1357422 C150.551425,24.0452519 149.276699,25.0048778 148.087891,26.0146484 C146.899083,27.0244191 145.774745,28.0162712 144.714844,28.9902344 L143.039062,28.9902344 L145.896484,25.7675781 C147.987641,23.432931 149.033203,22.1582042 149.033203,21.9433594 C149.033203,21.8001295 148.947266,21.7285156 148.775391,21.7285156 C148.145179,21.7285156 146.648449,22.7525939 144.285156,24.8007812 Z M164.845703,21.7285156 C163.986324,21.7285156 163.030279,22.1510374 161.977539,22.9960938 C160.924799,23.8411501 160.008142,24.8007759 159.227539,25.875 C158.446936,26.9492241 158.056641,27.7083311 158.056641,28.1523438 C158.056641,28.3671886 158.128254,28.5462232 158.271484,28.6894531 C158.414714,28.832683 158.593749,28.9042969 158.808594,28.9042969 C159.395836,28.9042969 160.24088,28.4960978 161.34375,27.6796875 C162.44662,26.8632772 163.442053,25.9394583 164.330078,24.9082031 C165.218103,23.876948 165.662109,23.0677113 165.662109,22.4804688 C165.662109,21.9791642 165.389977,21.7285156 164.845703,21.7285156 Z M170.517578,24.3710938 L169.421875,25.2949219 C167.703116,26.7272207 166.43197,27.7369762 165.608398,28.3242188 C164.784827,28.9114613 164.057946,29.2050781 163.427734,29.2050781 C163.012368,29.2050781 162.804688,28.9687524 162.804688,28.4960938 C162.804688,27.9947892 162.998045,27.2929733 163.384766,26.390625 C161.336578,28.2669365 159.825526,29.2050781 158.851562,29.2050781 C158.421873,29.2050781 158.070965,29.0367855 157.798828,28.7001953 C157.526691,28.3636051 157.390625,27.8730501 157.390625,27.2285156 C157.390625,26.4980432 157.605467,25.7783239 158.035156,25.0693359 C158.464846,24.360348 159.041338,23.7337267 159.764648,23.1894531 C160.487959,22.6451796 161.297196,22.2154964 162.192383,21.9003906 C163.08757,21.5852849 163.957678,21.4277344 164.802734,21.4277344 C165.218101,21.4277344 165.52246,21.5029289 165.71582,21.6533203 C165.909181,21.8037117 166.013021,22.0507795 166.027344,22.3945312 C166.013021,22.4661462 166.002279,22.5341794 165.995117,22.5986328 C165.987956,22.6630863 165.973633,22.7526036 165.952148,22.8671875 C165.930664,22.9817714 165.91276,23.0748694 165.898438,23.1464844 L167.251953,21.5566406 L169.056641,21.4277344 L168.498047,22.1152344 C168.039711,22.6595079 167.667319,23.1070946 167.380859,23.4580078 C167.0944,23.808921 166.850912,24.0989572 166.650391,24.328125 C164.416004,26.74871 163.298828,28.1666646 163.298828,28.5820312 C163.298828,28.7968761 163.399088,28.9042969 163.599609,28.9042969 C163.871746,28.9042969 164.279945,28.7431657 164.824219,28.4208984 C165.368492,28.0986312 165.980791,27.6725287 166.661133,27.1425781 C167.341475,26.6126276 168.118485,25.9860062 168.992188,25.2626953 C169.86589,24.5393844 170.374348,24.1204433 170.517578,24.0058594 L170.517578,24.3710938 Z M183.472656,11.3945312 L184.546875,10.234375 L186.201172,10.234375 L172.666016,25.3808594 C171.047518,27.1569099 170.238281,28.195311 170.238281,28.4960938 C170.238281,28.7682305 170.381509,28.9042969 170.667969,28.9042969 C171.169273,28.9042969 171.742184,28.693036 172.386719,28.2705078 C173.031253,27.8479797 173.901362,27.1425831 174.99707,26.1542969 C176.092779,25.1660107 176.898435,24.449872 177.414062,24.0058594 L177.414062,24.3710938 C175.466136,26.1614673 174.04102,27.41471 173.138672,28.1308594 C172.236324,28.8470088 171.412764,29.2050781 170.667969,29.2050781 C170.410155,29.2050781 170.191733,29.1083994 170.012695,28.9150391 C169.833658,28.7216787 169.744141,28.496095 169.744141,28.2382812 C169.744141,27.5078088 170.10221,26.6556038 170.818359,25.6816406 C171.534509,24.7076774 172.501296,23.5690169 173.71875,22.265625 C173.804688,22.1510411 174.062498,21.8466822 174.492188,21.3525391 C174.921877,20.858396 175.337238,20.367841 175.738281,19.8808594 C174.749995,20.6256548 172.845066,22.2512896 170.023438,24.7578125 L170.023438,24.4140625 L176.125,19.1289062 C176.869795,18.4986948 179.31899,15.9205955 183.472656,11.3945312 Z M183.708984,24.4570312 L188.199219,20.5898438 C188.54297,20.1744771 188.858071,19.7913429 189.144531,19.4404297 C189.430991,19.0895165 189.638671,18.9140625 189.767578,18.9140625 C189.882162,18.9140625 189.986002,18.9462887 190.079102,19.0107422 C190.172201,19.0751956 190.21875,19.1718744 190.21875,19.3007812 C190.21875,19.572918 189.824874,19.9095032 189.037109,20.3105469 C189.495445,20.9980503 189.824869,21.5996068 190.025391,22.1152344 C190.225912,22.630862 190.347656,23.2825481 190.390625,24.0703125 C190.347656,24.5572941 190.290365,24.9654931 190.21875,25.2949219 C190.734378,25.4238288 191.203448,25.4130867 191.625977,25.2626953 C192.048505,25.1123039 192.632158,24.6647173 193.376953,23.9199219 L193.376953,24.2851562 C192.804034,25.0013057 192.274091,25.4453116 191.787109,25.6171875 C191.300128,25.7890634 190.734378,25.781902 190.089844,25.5957031 C189.746092,26.3691445 189.187504,27.0315728 188.414062,27.5830078 C187.640621,28.1344429 186.845707,28.5426419 186.029297,28.8076172 C185.212887,29.0725925 184.511071,29.2050781 183.923828,29.2050781 C183.365232,29.2050781 182.910484,29.0940766 182.55957,28.8720703 C182.208657,28.650064 182.033203,28.3385437 182.033203,27.9375 C182.033203,27.5794253 182.137043,27.2893891 182.344727,27.0673828 C182.55241,26.8453765 182.856769,26.734375 183.257812,26.734375 C183.515626,26.734375 183.726887,26.8024082 183.891602,26.9384766 C184.056316,27.074545 184.138672,27.2571603 184.138672,27.4863281 C184.138672,27.672527 184.049155,27.8372389 183.870117,27.9804688 C183.69108,28.1236986 183.501303,28.1953125 183.300781,28.1953125 C183.028644,28.1953125 182.828126,27.9733095 182.699219,27.5292969 C182.51302,27.6582038 182.419922,27.8515612 182.419922,28.109375 C182.419922,28.2669279 182.56673,28.4388012 182.860352,28.625 C183.153973,28.8111988 183.494139,28.9042969 183.880859,28.9042969 C184.639978,28.9042969 185.442053,28.5784538 186.287109,27.9267578 C187.132166,27.2750618 187.837562,26.4550831 188.40332,25.4667969 C188.969078,24.4785107 189.251953,23.5260463 189.251953,22.609375 C189.251953,21.9505175 189.044273,21.2773472 188.628906,20.5898438 L183.708984,24.8007812 L183.708984,24.4570312 Z M201.5625,16.5292969 L202.658203,16.5292969 L194.623047,26.21875 C195.897793,25.2018178 196.929033,24.3961618 197.716797,23.8017578 C198.504561,23.2073538 199.335282,22.6630884 200.208984,22.1689453 C201.082687,21.6748022 201.813148,21.4277344 202.400391,21.4277344 C202.930341,21.4277344 203.195312,21.7929651 203.195312,22.5234375 C203.195312,23.153649 202.984052,23.7659475 202.561523,24.3603516 C202.138995,24.9547556 201.44076,25.6315066 200.466797,26.390625 C199.206374,27.3645882 198.576172,28.0377586 198.576172,28.4101562 C198.576172,28.739585 198.783852,28.9042969 199.199219,28.9042969 C199.929691,28.9042969 202.271465,27.2428552 206.224609,23.9199219 L206.224609,24.2851562 C204.763665,25.5312562 203.349291,26.6627553 201.981445,27.6796875 C200.6136,28.6966197 199.671878,29.2050781 199.15625,29.2050781 C198.468747,29.1621092 198.125,28.825524 198.125,28.1953125 C198.125,27.2070263 199.034496,25.8893312 200.853516,24.2421875 C202.028001,23.1822864 202.615234,22.4876319 202.615234,22.1582031 C202.615234,21.8717434 202.472007,21.7285156 202.185547,21.7285156 C201.784503,21.7285156 200.917975,22.1546181 199.585938,23.0068359 C198.2539,23.8590537 196.900397,24.8437444 195.525391,25.9609375 C194.150384,27.0781306 193.205081,27.937497 192.689453,28.5390625 L184.052734,38.6582031 L182.162109,38.6582031 L200.208984,18.2480469 C199.636065,18.7923204 197.186871,20.9765434 192.861328,24.8007812 L192.861328,24.4570312 C193.534509,23.8841117 195.063465,22.5198675 197.448242,20.3642578 C199.83302,18.2086481 201.204425,16.9303405 201.5625,16.5292969 Z M212.003906,21.7285156 C211.144527,21.7285156 210.188482,22.1510374 209.135742,22.9960938 C208.083003,23.8411501 207.166345,24.8007759 206.385742,25.875 C205.605139,26.9492241 205.214844,27.7083311 205.214844,28.1523438 C205.214844,28.3671886 205.286458,28.5462232 205.429688,28.6894531 C205.572917,28.832683 205.751952,28.9042969 205.966797,28.9042969 C206.554039,28.9042969 207.399083,28.4960978 208.501953,27.6796875 C209.604823,26.8632772 210.600256,25.9394583 211.488281,24.9082031 C212.376307,23.876948 212.820312,23.0677113 212.820312,22.4804688 C212.820312,21.9791642 212.54818,21.7285156 212.003906,21.7285156 Z M217.675781,24.3710938 L216.580078,25.2949219 C214.86132,26.7272207 213.590173,27.7369762 212.766602,28.3242188 C211.94303,28.9114613 211.216149,29.2050781 210.585938,29.2050781 C210.170571,29.2050781 209.962891,28.9687524 209.962891,28.4960938 C209.962891,27.9947892 210.156248,27.2929733 210.542969,26.390625 C208.494781,28.2669365 206.983729,29.2050781 206.009766,29.2050781 C205.580076,29.2050781 205.229168,29.0367855 204.957031,28.7001953 C204.684894,28.3636051 204.548828,27.8730501 204.548828,27.2285156 C204.548828,26.4980432 204.76367,25.7783239 205.193359,25.0693359 C205.623049,24.360348 206.199541,23.7337267 206.922852,23.1894531 C207.646162,22.6451796 208.455399,22.2154964 209.350586,21.9003906 C210.245773,21.5852849 211.115881,21.4277344 211.960938,21.4277344 C212.376304,21.4277344 212.680663,21.5029289 212.874023,21.6533203 C213.067384,21.8037117 213.171224,22.0507795 213.185547,22.3945312 C213.171224,22.4661462 213.160482,22.5341794 213.15332,22.5986328 C213.146159,22.6630863 213.131836,22.7526036 213.110352,22.8671875 C213.088867,22.9817714 213.070964,23.0748694 213.056641,23.1464844 L214.410156,21.5566406 L216.214844,21.4277344 L215.65625,22.1152344 C215.197914,22.6595079 214.825522,23.1070946 214.539062,23.4580078 C214.252603,23.808921 214.009116,24.0989572 213.808594,24.328125 C211.574208,26.74871 210.457031,28.1666646 210.457031,28.5820312 C210.457031,28.7968761 210.557291,28.9042969 210.757812,28.9042969 C211.029949,28.9042969 211.438148,28.7431657 211.982422,28.4208984 C212.526695,28.0986312 213.138994,27.6725287 213.819336,27.1425781 C214.499678,26.6126276 215.276688,25.9860062 216.150391,25.2626953 C217.024093,24.5393844 217.532551,24.1204433 217.675781,24.0058594 L217.675781,24.3710938 Z M226.376953,23.9199219 L226.376953,24.2851562 C222.982405,27.5651206 220.153657,29.2050781 217.890625,29.2050781 C217.289059,29.2050781 216.852215,29.0511083 216.580078,28.7431641 C216.307941,28.4352198 216.171875,27.8873737 216.171875,27.0996094 C216.171875,26.4121059 216.390297,25.7174514 216.827148,25.015625 C217.264,24.3137986 217.840491,23.6943386 218.556641,23.1572266 C219.27279,22.6201145 220.060543,22.1975927 220.919922,21.8896484 C221.779301,21.5817042 222.617183,21.4277344 223.433594,21.4277344 C223.805991,21.4277344 224.11035,21.5208324 224.34668,21.7070312 C224.583009,21.8932301 224.701172,22.15104 224.701172,22.4804688 C224.701172,22.8528664 224.554363,23.1858709 224.260742,23.4794922 C223.967121,23.7731134 223.641278,23.9199219 223.283203,23.9199219 C222.853513,23.9199219 222.638672,23.7337258 222.638672,23.3613281 C222.638672,22.8027316 222.88932,22.5234375 223.390625,22.5234375 C223.677085,22.5234375 223.848958,22.6523425 223.90625,22.9101562 C223.963542,22.9960942 224.020833,23.0390625 224.078125,23.0390625 C224.14974,23.0390625 224.221354,22.9817714 224.292969,22.8671875 C224.364584,22.7526036 224.400391,22.6236986 224.400391,22.4804688 C224.400391,22.2513009 224.321615,22.0686856 224.164062,21.9326172 C224.00651,21.7965488 223.791668,21.7285156 223.519531,21.7285156 C222.760413,21.7285156 221.840175,22.1367147 220.758789,22.953125 C219.677403,23.7695353 218.742842,24.7005156 217.955078,25.7460938 C217.167314,26.7916719 216.773438,27.60807 216.773438,28.1953125 C216.773438,28.6679711 217.124345,28.9042969 217.826172,28.9042969 C219.129564,28.9042969 220.397129,28.5032592 221.628906,27.7011719 C222.860683,26.8990845 224.44335,25.6386805 226.376953,23.9199219 Z M227.472656,24.8867188 C228.661464,24.8867188 229.664058,24.7363296 230.480469,24.4355469 C231.296879,24.1347641 231.916339,23.7766948 232.338867,23.3613281 C232.761395,22.9459615 232.972656,22.6093763 232.972656,22.3515625 C232.972656,21.9361958 232.729169,21.7285156 232.242188,21.7285156 C231.597653,21.7285156 230.845707,22.0113904 229.986328,22.5771484 C229.126949,23.1429065 228.289067,23.9127555 227.472656,24.8867188 Z M235.099609,23.9199219 L235.099609,24.2851562 C233.495435,25.8893309 232.02735,27.1103474 230.695312,27.9482422 C229.363275,28.786137 228.016934,29.2050781 226.65625,29.2050781 C225.453119,29.2050781 224.851562,28.517585 224.851562,27.1425781 C224.851562,25.9967391 225.284826,24.9905642 226.151367,24.1240234 C227.017908,23.2574826 228.034825,22.5914737 229.202148,22.1259766 C230.369472,21.6604794 231.318356,21.4277344 232.048828,21.4277344 C232.464195,21.4277344 232.790038,21.5244131 233.026367,21.7177734 C233.262696,21.9111338 233.380859,22.165363 233.380859,22.4804688 C233.380859,22.9674504 233.115888,23.415037 232.585938,23.8232422 C232.055987,24.2314474 231.318364,24.5680325 230.373047,24.8330078 C229.42773,25.0979831 228.317715,25.2519529 227.042969,25.2949219 C225.954422,26.5266989 225.410156,27.4648405 225.410156,28.109375 C225.410156,28.3385428 225.528319,28.5283196 225.764648,28.6787109 C226.000978,28.8291023 226.298175,28.9042969 226.65625,28.9042969 C228.962251,28.9042969 231.776676,27.2428552 235.099609,23.9199219 Z" id="Internal-space" fill="#999999"></path>
            </g>
        </g>
    </g>
</svg>