<?xml version="1.0" encoding="UTF-8"?>
<svg width="312px" height="78px" viewBox="0 0 312 78" version="1.1" xmlns="http://www.w3.org/2000/svg" xmlns:xlink="http://www.w3.org/1999/xlink">
    <!-- Generator: Sketch 50.2 (55047) - http://www.bohemiancoding.com/sketch -->
    <title>08</title>
    <desc>Created with Sketch.</desc>
    <defs>
        <polygon id="path-1" points="0 0.4773 32.0360225 0.4773 32.0360225 62 0 62"></polygon>
        <polygon id="path-3" points="0.883104815 0.426333806 35.5855491 0.426333806 35.5855491 62 0.883104815 62"></polygon>
        <polygon id="path-5" points="0.0004 0 127.531 0 127.531 30.784 0.0004 30.784"></polygon>
    </defs>
    <g id="Page-1" stroke="none" stroke-width="1" fill="none" fill-rule="evenodd">
        <g id="Artboard-2" transform="translate(-208.000000, -1123.000000)">
            <g id="08" transform="translate(308.000000, 1131.000000)">
                <g transform="translate(135.000000, 6.000000)">
                    <g id="Group-3" transform="translate(0.000000, 0.573800)">
                        <mask id="mask-2" fill="white">
                            <use xlink:href="#path-1"></use>
                        </mask>
                        <g id="Clip-2"></g>
                        <path d="M5.9642,51.2773 C6.5262,55.3803 7.5182,57.7253 8.9432,58.3083 C10.3612,58.8963 11.8282,58.8963 13.3382,58.3083 C14.8462,57.7253 16.6662,55.3803 18.7962,51.2773 C20.9252,47.1793 22.8172,40.4383 24.4702,31.0613 C26.1222,21.6903 26.6592,14.6593 26.0802,9.9673 C25.5002,5.2823 23.7442,2.9373 20.8162,2.9373 C17.8822,2.9373 15.3592,5.2823 13.2482,9.9673 C11.1302,14.6593 9.2472,21.6903 7.5952,31.0613 C5.9422,40.4383 5.3962,47.1793 5.9642,51.2773 M30.5982,9.2653 C32.3812,14.4233 32.5052,21.6903 30.9742,31.0613 C29.4362,40.4383 26.7682,47.9373 22.9642,53.5623 C19.1592,59.1873 14.9722,62.0003 10.4012,62.0003 C5.8312,62.0003 2.7512,59.1873 1.1672,53.5623 C-0.4238,47.9373 -0.3868,40.4383 1.2672,31.0613 C2.9192,21.6903 5.4862,14.4233 8.9772,9.2653 C12.4622,4.1123 15.4192,1.2993 17.8482,0.8283 C20.2702,0.3603 22.5552,0.3603 24.7032,0.8283 C26.8442,1.2993 28.8102,4.1123 30.5982,9.2653" id="Fill-1" fill="#0B74B9" mask="url(#mask-2)"></path>
                    </g>
                    <g id="Group-6" transform="translate(40.000000, 0.573800)">
                        <mask id="mask-4" fill="white">
                            <use xlink:href="#path-3"></use>
                        </mask>
                        <g id="Clip-5"></g>
                        <path d="M28.2069,19.2842 C29.0989,17.5272 29.7679,15.4172 30.2019,12.9562 C30.6359,10.4962 30.2639,8.2702 29.0939,6.2772 C27.9179,4.2882 26.1599,3.2892 23.8199,3.2892 C21.4749,3.2892 19.3349,4.1122 17.4099,5.7502 C15.4779,7.3912 14.2879,9.5022 13.8329,12.0782 C13.3779,14.6592 13.6079,16.9992 14.5269,19.1092 C15.4399,21.2192 17.3709,23.9152 20.3089,27.1942 C24.6739,23.6802 27.3089,21.0432 28.2069,19.2842 M16.6689,33.8752 C12.0199,37.6272 9.2799,40.2032 8.4499,41.6092 C7.6139,43.0142 6.9609,45.0692 6.4859,47.7612 C6.0109,50.4592 6.3949,52.9202 7.6449,55.1442 C8.8889,57.3752 10.9239,58.4842 13.7359,58.4842 C16.5489,58.4842 18.8969,57.7802 20.7879,56.3742 C22.6729,54.9692 23.8579,52.9202 24.3339,50.2222 C24.8089,47.5302 24.4389,44.9492 23.2369,42.4882 C22.0279,40.0272 19.8359,37.1592 16.6689,33.8752 M22.3349,29.6552 C26.9689,35.2812 29.5459,38.9172 30.0819,40.5542 C30.6099,42.1962 30.5469,44.8942 29.8859,48.6402 C29.2249,52.3912 27.1999,55.5552 23.8179,58.1332 C20.4289,60.7152 16.6319,62.0002 12.4139,62.0002 C8.1949,62.0002 5.1119,60.5392 3.1689,57.6052 C1.2239,54.6772 0.5199,51.6882 1.0579,48.6402 C1.5949,45.5972 2.7439,42.7242 4.5109,40.0272 C6.2699,37.3352 9.5349,34.4632 14.2909,31.4142 C10.7449,26.2612 8.6359,22.9222 7.9719,21.3942 C7.3009,19.8732 7.2879,17.2972 7.9289,13.6602 C8.5689,10.0292 10.2559,7.1012 12.9949,4.8712 C15.7269,2.6452 18.3099,1.3002 20.7389,0.8282 C23.1609,0.3602 25.2809,0.3002 27.0979,0.6522 C28.9089,1.0042 30.8859,2.4102 33.0339,4.8712 C35.1759,7.3322 35.9709,10.1442 35.4129,13.3082 C34.8549,16.4722 33.7919,19.1692 32.2289,21.3942 C30.6609,23.6252 27.3629,26.3762 22.3349,29.6552" id="Fill-4" fill="#0B74B9" mask="url(#mask-4)"></path>
                    </g>
                </g>
                <path d="M32,12.6464844 C34.3489701,12.0592419 36.6406138,11.321619 38.875,10.4335938 C41.1093862,9.54556848 43.0572834,8.61100751 44.71875,7.62988281 C46.3802166,6.64875812 47.6621049,5.69629368 48.5644531,4.77246094 C49.4668014,3.84862819 49.9179688,2.99284248 49.9179688,2.20507812 C49.9179688,1.41731377 49.4739628,1.0234375 48.5859375,1.0234375 C47.1393157,1.0234375 45.431325,1.61067121 43.4619141,2.78515625 C41.4925032,3.95964129 39.5231218,5.41698349 37.5537109,7.15722656 C35.5843,8.89746964 33.7330816,10.7272039 32,12.6464844 Z M29.2285156,13.3339844 C26.7506387,13.4915372 24.9960989,13.1263065 23.9648438,12.2382812 C22.9335886,11.350256 22.4179688,10.2187569 22.4179688,8.84375 C22.4179688,8.09895461 22.6471331,7.26823375 23.1054688,6.3515625 C23.5638044,5.43489125 24.3551376,4.55045999 25.4794922,3.69824219 C26.6038468,2.84602438 28.1686098,2.1370471 30.1738281,1.57128906 C32.1790465,1.00553103 34.6783704,0.72265625 37.671875,0.72265625 L37.671875,1.0234375 C34.5494636,1.0234375 31.9642029,1.32779644 29.9160156,1.93652344 C27.8678283,2.54525044 26.3424529,3.27571188 25.3398438,4.12792969 C24.3372346,4.98014749 23.6497414,5.82877182 23.2773438,6.67382812 C22.9049461,7.51888443 22.71875,8.27083004 22.71875,8.9296875 C22.71875,10.2617254 23.2522733,11.3216106 24.3193359,12.109375 C25.3863986,12.8971394 27.1087121,13.2194018 29.4863281,13.0761719 C30.6751362,11.8014259 32.1074135,10.4371817 33.7832031,8.98339844 C35.4589928,7.52961513 37.195629,6.17969373 38.9931641,4.93359375 C40.7906991,3.68749377 42.5273354,2.67415755 44.203125,1.89355469 C45.8789146,1.11295183 47.3398375,0.72265625 48.5859375,0.72265625 C49.6744846,0.72265625 50.21875,1.23111471 50.21875,2.24804688 C50.21875,3.33659398 49.3450608,4.59341735 47.5976562,6.01855469 C45.8502517,7.44369202 43.5586079,8.77929064 40.7226562,10.0253906 C37.8867046,11.2714906 34.8789221,12.2454392 31.6992188,12.9472656 C30.3098889,14.4798254 29.1998739,15.8082626 28.3691406,16.9326172 C27.5384073,18.0569718 26.922528,19.0595659 26.5214844,19.9404297 C26.1204407,20.8212935 25.9199219,21.6269495 25.9199219,22.3574219 C25.9199219,23.0735713 26.2529264,23.7001926 26.9189453,24.2373047 C27.5849643,24.7744167 28.4550728,25.0429688 29.5292969,25.0429688 C30.9902417,25.0429688 32.4654873,24.6598346 33.9550781,23.8935547 C35.4446689,23.1272748 36.6800081,22.1783911 37.6611328,21.046875 C38.6422575,19.9153589 39.1328125,18.8697965 39.1328125,17.9101562 C39.1328125,17.1367149 38.9108095,16.5566426 38.4667969,16.1699219 C38.0227842,15.7832012 37.3925822,15.5898438 36.5761719,15.5898438 C35.4876248,15.5898438 34.1949945,16.0803987 32.6982422,17.0615234 C31.2014899,18.0426481 29.7369863,19.8652211 28.3046875,22.5292969 L28.0039062,22.3144531 C29.3072982,19.8508991 30.7180914,18.0605525 32.2363281,16.9433594 C33.7545649,15.8261663 35.2154878,15.2675781 36.6191406,15.2675781 C37.5501349,15.2675781 38.2519508,15.5039039 38.7246094,15.9765625 C39.197268,16.4492211 39.4335938,17.0794231 39.4335938,17.8671875 C39.4335938,18.6835978 39.1435576,19.5286415 38.5634766,20.4023438 C37.9833955,21.276046 37.1920623,22.0924441 36.1894531,22.8515625 C35.1868439,23.6106809 34.1054746,24.2158181 32.9453125,24.6669922 C31.7851504,25.1181663 30.6751355,25.34375 29.6152344,25.34375 C28.1972585,25.34375 27.0979857,24.9964227 26.3173828,24.3017578 C25.53678,23.6070929 25.1464844,22.5794339 25.1464844,21.21875 C25.1464844,20.001296 25.4472626,18.8053444 26.0488281,17.6308594 C26.6503936,16.4563743 27.7102789,15.024097 29.2285156,13.3339844 Z M47.1464844,16.7285156 C46.344397,16.7285156 45.4241588,17.1832637 44.3857422,18.0927734 C43.3473255,19.0022832 42.4163453,20.0012966 41.5927734,21.0898438 C40.7692016,22.1783909 40.3574219,22.8515612 40.3574219,23.109375 C40.3574219,23.3385428 40.461262,23.5283196 40.6689453,23.6787109 C40.8766286,23.8291023 41.1380193,23.9042969 41.453125,23.9042969 C42.2122434,23.9042969 43.1253202,23.5283241 44.1923828,22.7763672 C45.2594454,22.0244103 46.2011678,21.1363983 47.0175781,20.1123047 C47.8339885,19.088211 48.2421875,18.282555 48.2421875,17.6953125 C48.2421875,17.4088527 48.1383474,17.1761077 47.9306641,16.9970703 C47.7229807,16.818033 47.4615901,16.7285156 47.1464844,16.7285156 Z M50.5625,18.9199219 L50.5625,19.2851562 C49.7604127,20.2447965 48.8652393,20.7246094 47.8769531,20.7246094 L47.5761719,20.6816406 C47.475911,20.6673176 47.3613288,20.6529949 47.2324219,20.6386719 C44.9407438,23.0162879 42.9570396,24.2050781 41.28125,24.2050781 C40.9661443,24.2050781 40.6761081,24.1227222 40.4111328,23.9580078 C40.1461575,23.7932934 39.9456387,23.5748712 39.8095703,23.3027344 C39.6735019,23.0305976 39.6054688,22.7154966 39.6054688,22.3574219 C39.6054688,21.3977817 40.0279906,20.45964 40.8730469,19.5429688 C41.7181032,18.6262975 42.7386008,17.8779326 43.9345703,17.2978516 C45.1305398,16.7177705 46.179683,16.4277344 47.0820312,16.4277344 C48.0559945,16.4277344 48.5429688,16.8789017 48.5429688,17.78125 C48.5429688,18.5117224 48.1920608,19.3639274 47.4902344,20.3378906 C47.6334643,20.3951826 47.7910148,20.4238281 47.9628906,20.4238281 C48.8652389,20.4238281 49.7317667,19.9225311 50.5625,18.9199219 Z M50.046875,19.4570312 L54.5371094,15.5898438 C54.8808611,15.1744771 55.1959621,14.7913429 55.4824219,14.4404297 C55.7688816,14.0895165 55.9765619,13.9140625 56.1054688,13.9140625 C56.2200527,13.9140625 56.3238928,13.9462887 56.4169922,14.0107422 C56.5100916,14.0751956 56.5566406,14.1718744 56.5566406,14.3007812 C56.5566406,14.572918 56.1627644,14.9095032 55.375,15.3105469 C55.8333356,15.9980503 56.1627594,16.5996068 56.3632812,17.1152344 C56.5638031,17.630862 56.6855467,18.2825481 56.7285156,19.0703125 C56.6855467,19.5572941 56.6282556,19.9654931 56.5566406,20.2949219 C57.0722682,20.4238288 57.541339,20.4130867 57.9638672,20.2626953 C58.3863953,20.1123039 58.9700484,19.6647173 59.7148438,18.9199219 L59.7148438,19.2851562 C59.1419242,20.0013057 58.6119816,20.4453116 58.125,20.6171875 C57.6380184,20.7890634 57.0722688,20.781902 56.4277344,20.5957031 C56.0839827,21.3691445 55.5253945,22.0315728 54.7519531,22.5830078 C53.9785118,23.1344429 53.1835978,23.5426419 52.3671875,23.8076172 C51.5507772,24.0725925 50.8489613,24.2050781 50.2617188,24.2050781 C49.7031222,24.2050781 49.2483742,24.0940766 48.8974609,23.8720703 C48.5465477,23.650064 48.3710938,23.3385437 48.3710938,22.9375 C48.3710938,22.5794253 48.4749339,22.2893891 48.6826172,22.0673828 C48.8903005,21.8453765 49.1946595,21.734375 49.5957031,21.734375 C49.8535169,21.734375 50.0647778,21.8024082 50.2294922,21.9384766 C50.3942066,22.074545 50.4765625,22.2571603 50.4765625,22.4863281 C50.4765625,22.672527 50.3870452,22.8372389 50.2080078,22.9804688 C50.0289705,23.1236986 49.8391937,23.1953125 49.6386719,23.1953125 C49.3665351,23.1953125 49.1660163,22.9733095 49.0371094,22.5292969 C48.8509105,22.6582038 48.7578125,22.8515612 48.7578125,23.109375 C48.7578125,23.2669279 48.9046209,23.4388012 49.1982422,23.625 C49.4918634,23.8111988 49.8320293,23.9042969 50.21875,23.9042969 C50.9778684,23.9042969 51.7799437,23.5784538 52.625,22.9267578 C53.4700563,22.2750618 54.1754529,21.4550831 54.7412109,20.4667969 C55.306969,19.4785107 55.5898438,18.5260463 55.5898438,17.609375 C55.5898438,16.9505175 55.3821635,16.2773472 54.9667969,15.5898438 L50.046875,19.8007812 L50.046875,19.4570312 Z M66.546875,13.4199219 L70.1132812,9.38085938 L71.9609375,9.38085938 L68.3945312,13.4199219 L71.1230469,13.4199219 L70.8867188,13.7851562 L68.1152344,13.7851562 L62.8945312,19.7148438 C62.3216117,20.3450552 61.687829,21.1041622 60.9931641,21.9921875 C60.2984991,22.8802128 59.9511719,23.3671871 59.9511719,23.453125 C59.9511719,23.7539078 60.1087224,23.9042969 60.4238281,23.9042969 C61.5983132,23.9042969 64.1191213,22.2428552 67.9863281,18.9199219 L67.9863281,19.2851562 L66.8476562,20.2949219 C63.8827977,22.9017057 61.7272203,24.2050781 60.3808594,24.2050781 C60.0514306,24.2050781 59.7936207,24.1119801 59.6074219,23.9257812 C59.421223,23.7395824 59.328125,23.5247408 59.328125,23.28125 C59.328125,22.7083305 59.7327433,21.755866 60.5419922,20.4238281 C61.351241,19.0917902 62.9374882,17.2441524 65.3007812,14.8808594 C63.8398364,15.8548226 61.8060026,17.4947801 59.1992188,19.8007812 L59.1992188,19.4570312 C60.072921,18.6262979 61.1542904,17.6845756 62.4433594,16.6318359 C63.7324283,15.5790963 64.9928324,14.6302126 66.2246094,13.7851562 L64.65625,13.7851562 L64.9570312,13.4199219 L66.546875,13.4199219 Z M80.5976562,16.7285156 C79.7955689,16.7285156 78.8753307,17.1832637 77.8369141,18.0927734 C76.7984974,19.0022832 75.8675171,20.0012966 75.0439453,21.0898438 C74.2203735,22.1783909 73.8085938,22.8515612 73.8085938,23.109375 C73.8085938,23.3385428 73.9124339,23.5283196 74.1201172,23.6787109 C74.3278005,23.8291023 74.5891911,23.9042969 74.9042969,23.9042969 C75.6634153,23.9042969 76.5764921,23.5283241 77.6435547,22.7763672 C78.7106173,22.0244103 79.6523397,21.1363983 80.46875,20.1123047 C81.2851603,19.088211 81.6933594,18.282555 81.6933594,17.6953125 C81.6933594,17.4088527 81.5895193,17.1761077 81.3818359,16.9970703 C81.1741526,16.818033 80.912762,16.7285156 80.5976562,16.7285156 Z M84.0136719,18.9199219 L84.0136719,19.2851562 C83.2115845,20.2447965 82.3164112,20.7246094 81.328125,20.7246094 L81.0273438,20.6816406 C80.9270828,20.6673176 80.8125006,20.6529949 80.6835938,20.6386719 C78.3919156,23.0162879 76.4082115,24.2050781 74.7324219,24.2050781 C74.4173161,24.2050781 74.12728,24.1227222 73.8623047,23.9580078 C73.5973294,23.7932934 73.3968106,23.5748712 73.2607422,23.3027344 C73.1246738,23.0305976 73.0566406,22.7154966 73.0566406,22.3574219 C73.0566406,21.3977817 73.4791624,20.45964 74.3242188,19.5429688 C75.1692751,18.6262975 76.1897727,17.8779326 77.3857422,17.2978516 C78.5817117,16.7177705 79.6308549,16.4277344 80.5332031,16.4277344 C81.5071663,16.4277344 81.9941406,16.8789017 81.9941406,17.78125 C81.9941406,18.5117224 81.6432327,19.3639274 80.9414062,20.3378906 C81.0846361,20.3951826 81.2421866,20.4238281 81.4140625,20.4238281 C82.3164108,20.4238281 83.1829386,19.9225311 84.0136719,18.9199219 Z M83.4980469,19.6289062 L83.4980469,19.2421875 C83.5266929,19.2135415 83.7522765,19.0595717 84.1748047,18.7802734 C84.5973328,18.5009752 84.8229165,18.3470054 84.8515625,18.3183594 C84.8658855,17.8743467 84.9912098,17.462567 85.2275391,17.0830078 C85.4638684,16.7034486 85.7037748,16.5136719 85.9472656,16.5136719 C86.3339863,16.5136719 86.4700527,16.792966 86.3554688,17.3515625 C88.2604262,16.3919223 89.31315,15.8619797 89.5136719,15.7617188 L94.6699219,9.76757812 C98.4225448,5.37042072 101.179679,3.171875 102.941406,3.171875 C103.270835,3.171875 103.550129,3.27213441 103.779297,3.47265625 C104.008465,3.67317809 104.123047,3.93814939 104.123047,4.26757812 C104.123047,5.14128041 103.553717,6.20832703 102.415039,7.46875 C101.276361,8.72917297 99.693695,10.0683523 97.6669922,11.4863281 C95.6402893,12.904304 93.4095174,14.2148377 90.9746094,15.4179688 L86.3554688,20.9609375 C86.9140653,21.2473973 87.4296851,21.390625 87.9023438,21.390625 C88.9335989,21.390625 89.7571584,21.2008483 90.3730469,20.8212891 C90.9889354,20.4417299 91.7766879,19.8079471 92.7363281,18.9199219 L92.7363281,19.2851562 C91.8196569,20.2018275 91.0319043,20.8248681 90.3730469,21.1542969 C89.7141894,21.4837256 88.9049527,21.6484375 87.9453125,21.6484375 C87.315101,21.6484375 86.7135445,21.5052098 86.140625,21.21875 L75.7851562,33.6152344 L74.0664062,33.6152344 L78.0410156,29.0390625 C78.7285191,28.2369752 79.5377558,27.2128969 80.46875,25.9667969 C81.3997442,24.7206969 82.2054002,23.5927785 82.8857422,22.5830078 C83.5660841,21.5732371 84.2070282,20.5455781 84.8085938,19.5 L84.765625,18.7910156 C84.5507802,18.9199225 84.3395193,19.0524082 84.1318359,19.1884766 C83.9241526,19.324545 83.7128917,19.4713534 83.4980469,19.6289062 Z M88.9121094,16.3847656 C88.2962209,16.6712254 87.4296931,17.1223928 86.3125,17.7382812 C86.298177,17.8671881 86.2480473,18.0104159 86.1621094,18.1679688 C86.0761714,18.3255216 85.9866541,18.4687494 85.8935547,18.5976562 C85.8004553,18.7265631 85.6894538,18.8841137 85.5605469,19.0703125 C85.3313791,19.3424493 85.2167969,19.5429681 85.2167969,19.671875 C85.2597658,19.8723968 85.3886708,20.0800771 85.6035156,20.2949219 C85.7467455,20.0944 86.2981723,19.4427138 87.2578125,18.3398438 C88.2174527,17.2369737 88.7688795,16.5852875 88.9121094,16.3847656 Z M93.5742188,12.28125 L91.4902344,14.7949219 C93.1087321,13.9785115 94.6448495,13.1012417 96.0986328,12.1630859 C97.5524161,11.2249302 98.8665306,10.2617237 100.041016,9.2734375 C101.215501,8.28515131 102.13932,7.35775173 102.8125,6.49121094 C103.48568,5.62467015 103.822266,4.89778939 103.822266,4.31054688 C103.822266,4.05273309 103.74349,3.85221426 103.585938,3.70898438 C103.428385,3.56575449 103.213543,3.49414062 102.941406,3.49414062 C101.996089,3.49414062 100.767911,4.26757039 99.2568359,5.81445312 C97.7457607,7.36133586 95.8515739,9.51691326 93.5742188,12.28125 Z M85.3457031,20.5957031 L84.9375,19.8867188 C84.894531,19.9583337 84.6403018,20.35221 84.1748047,21.0683594 C83.7093076,21.7845088 83.3225927,22.3824846 83.0146484,22.8623047 C82.7067042,23.3421248 82.3665383,23.8756481 81.9941406,24.4628906 L85.3457031,20.5957031 Z M99.0957031,19.8007812 L99.0957031,19.4570312 C100.04102,18.54036 101.358716,17.5878956 103.048828,16.5996094 L104.853516,16.5996094 L100.0625,22.0566406 C99.2604127,22.9733119 98.859375,23.5032545 98.859375,23.6464844 C98.859375,23.7897143 98.9811186,23.8613281 99.2246094,23.8613281 C100.012374,23.8613281 101.301423,23.1630929 103.091797,21.7666016 C104.88217,20.3701102 106.865875,18.6477967 109.042969,16.5996094 L110.740234,16.5996094 L105.734375,22.3144531 C105.677083,22.3860681 105.55892,22.5221344 105.379883,22.7226562 C105.200845,22.9231781 105.064779,23.1057934 104.97168,23.2705078 C104.87858,23.4352222 104.839193,23.5748692 104.853516,23.6894531 C104.853516,23.832683 104.968098,23.9042969 105.197266,23.9042969 C105.727216,23.9042969 106.722649,23.4280647 108.183594,22.4755859 C109.644539,21.5231072 111.069655,20.3378977 112.458984,18.9199219 L112.458984,19.2851562 C111.041009,20.7031321 109.626635,21.8775995 108.21582,22.8085938 C106.805006,23.739588 105.770186,24.2050781 105.111328,24.2050781 C104.610024,24.2050781 104.359375,23.9544296 104.359375,23.453125 C104.359375,22.9804664 104.577797,22.3860713 105.014648,21.6699219 C105.4515,20.9537725 106.128251,20.037115 107.044922,18.9199219 L107.453125,18.4472656 L106.658203,19.15625 C104.925122,20.7031327 103.431972,21.9313106 102.178711,22.8408203 C100.925449,23.7503301 99.9407588,24.2050781 99.2246094,24.2050781 C98.6946588,24.2050781 98.4296875,23.8971385 98.4296875,23.28125 C98.4296875,22.8802063 98.5478504,22.439781 98.7841797,21.9599609 C99.020509,21.4801408 99.33561,20.9824245 99.7294922,20.4667969 C100.123374,19.9511693 100.542315,19.4462915 100.986328,18.9521484 C101.430341,18.4580053 101.881508,17.9531276 102.339844,17.4375 L101.244141,18.0820312 C100.255854,18.8125037 99.5397158,19.3854146 99.0957031,19.8007812 Z M111.943359,19.4570312 L116.433594,15.5898438 C116.777345,15.1744771 117.092446,14.7913429 117.378906,14.4404297 C117.665366,14.0895165 117.873046,13.9140625 118.001953,13.9140625 C118.116537,13.9140625 118.220377,13.9462887 118.313477,14.0107422 C118.406576,14.0751956 118.453125,14.1718744 118.453125,14.3007812 C118.453125,14.572918 118.059249,14.9095032 117.271484,15.3105469 C117.72982,15.9980503 118.059244,16.5996068 118.259766,17.1152344 C118.460287,17.630862 118.582031,18.2825481 118.625,19.0703125 C118.582031,19.5572941 118.52474,19.9654931 118.453125,20.2949219 C118.968753,20.4238288 119.437823,20.4130867 119.860352,20.2626953 C120.28288,20.1123039 120.866533,19.6647173 121.611328,18.9199219 L121.611328,19.2851562 C121.038409,20.0013057 120.508466,20.4453116 120.021484,20.6171875 C119.534503,20.7890634 118.968753,20.781902 118.324219,20.5957031 C117.980467,21.3691445 117.421879,22.0315728 116.648438,22.5830078 C115.874996,23.1344429 115.080082,23.5426419 114.263672,23.8076172 C113.447262,24.0725925 112.745446,24.2050781 112.158203,24.2050781 C111.599607,24.2050781 111.144859,24.0940766 110.793945,23.8720703 C110.443032,23.650064 110.267578,23.3385437 110.267578,22.9375 C110.267578,22.5794253 110.371418,22.2893891 110.579102,22.0673828 C110.786785,21.8453765 111.091144,21.734375 111.492188,21.734375 C111.750001,21.734375 111.961262,21.8024082 112.125977,21.9384766 C112.290691,22.074545 112.373047,22.2571603 112.373047,22.4863281 C112.373047,22.672527 112.28353,22.8372389 112.104492,22.9804688 C111.925455,23.1236986 111.735678,23.1953125 111.535156,23.1953125 C111.263019,23.1953125 111.062501,22.9733095 110.933594,22.5292969 C110.747395,22.6582038 110.654297,22.8515612 110.654297,23.109375 C110.654297,23.2669279 110.801105,23.4388012 111.094727,23.625 C111.388348,23.8111988 111.728514,23.9042969 112.115234,23.9042969 C112.874353,23.9042969 113.676428,23.5784538 114.521484,22.9267578 C115.366541,22.2750618 116.071937,21.4550831 116.637695,20.4667969 C117.203453,19.4785107 117.486328,18.5260463 117.486328,17.609375 C117.486328,16.9505175 117.278648,16.2773472 116.863281,15.5898438 L111.943359,19.8007812 L111.943359,19.4570312 Z M122.707031,19.8867188 C123.895839,19.8867188 124.898433,19.7363296 125.714844,19.4355469 C126.531254,19.1347641 127.150714,18.7766948 127.573242,18.3613281 C127.99577,17.9459615 128.207031,17.6093763 128.207031,17.3515625 C128.207031,16.9361958 127.963544,16.7285156 127.476562,16.7285156 C126.832028,16.7285156 126.080082,17.0113904 125.220703,17.5771484 C124.361324,18.1429065 123.523442,18.9127555 122.707031,19.8867188 Z M130.333984,18.9199219 L130.333984,19.2851562 C128.72981,20.8893309 127.261725,22.1103474 125.929688,22.9482422 C124.59765,23.786137 123.251309,24.2050781 121.890625,24.2050781 C120.687494,24.2050781 120.085938,23.517585 120.085938,22.1425781 C120.085938,20.9967391 120.519201,19.9905642 121.385742,19.1240234 C122.252283,18.2574826 123.2692,17.5914737 124.436523,17.1259766 C125.603847,16.6604794 126.552731,16.4277344 127.283203,16.4277344 C127.69857,16.4277344 128.024413,16.5244131 128.260742,16.7177734 C128.497071,16.9111338 128.615234,17.165363 128.615234,17.4804688 C128.615234,17.9674504 128.350263,18.415037 127.820312,18.8232422 C127.290362,19.2314474 126.552739,19.5680325 125.607422,19.8330078 C124.662105,20.0979831 123.55209,20.2519529 122.277344,20.2949219 C121.188797,21.5266989 120.644531,22.4648405 120.644531,23.109375 C120.644531,23.3385428 120.762694,23.5283196 120.999023,23.6787109 C121.235353,23.8291023 121.53255,23.9042969 121.890625,23.9042969 C124.196626,23.9042969 127.011051,22.2428552 130.333984,18.9199219 Z" id="Cost-of-use" fill="#999999"></path>
                <g id="使用成本" transform="translate(0.000000, 37.000000)">
                    <mask id="mask-6" fill="white">
                        <use xlink:href="#path-5"></use>
                    </mask>
                    <g id="Clip-2"></g>
                    <path d="M114.8034,6.9764 L122.0354,6.9764 L124.0074,4.8644 C124.2414,4.6294 124.4744,4.5114 124.7094,4.5114 C124.9444,4.5114 125.4834,4.9594 126.3284,5.8564 C127.1734,6.7514 127.5734,7.3284 127.5284,7.5834 C127.4834,7.8394 127.2794,7.9674 126.9164,7.9674 L116.5804,7.9674 C117.2884,11.9364 118.3784,15.0134 119.8484,17.2004 C121.3194,19.3864 123.4054,20.9814 126.1094,21.9844 L125.9114,22.5604 C125.5524,22.5394 125.1164,22.5284 124.6054,22.5284 C124.0934,22.5284 123.5964,22.6194 123.1164,22.7994 C122.6364,22.9814 122.1934,23.3174 121.7874,23.8084 C121.6504,23.9794 121.5184,24.0644 121.3904,24.0644 C121.1344,24.0644 120.4264,23.3604 119.2664,21.9524 C118.1064,20.5434 117.2454,18.8314 116.6844,16.8164 C116.1224,14.7994 115.7674,11.8514 115.6204,7.9674 L114.6284,7.9674 L112.3154,21.0874 L114.5544,21.0874 L115.6334,19.8724 C115.9814,19.4664 116.2314,19.2634 116.3804,19.2634 C116.5294,19.2634 116.7724,19.4614 117.1084,19.8564 C117.4434,20.2504 117.7854,20.6394 118.1344,21.0244 C118.4824,21.4084 118.6394,21.6964 118.6054,21.8874 C118.5724,22.0804 118.3524,22.1754 117.9474,22.1754 L112.1234,22.1754 C111.8674,23.6264 111.6544,24.8964 111.4834,25.9844 L111.0514,28.7994 C111.0174,28.9924 110.8984,29.1524 110.6944,29.2804 C110.4904,29.4084 110.0854,29.5564 109.4794,29.7284 C108.8734,29.8984 108.4314,29.9844 108.1544,29.9844 C108.0264,29.9844 107.9874,29.8444 108.0354,29.5684 L108.5684,26.9124 C108.7544,25.9724 109.0434,24.3954 109.4354,22.1754 L104.7314,22.1754 C104.1764,22.1754 103.7084,22.2294 103.3264,22.3354 L103.0314,20.9274 C103.4604,21.0354 103.9844,21.0874 104.6024,21.0874 L109.6274,21.0874 L111.4944,10.4964 C109.5824,13.7174 107.4044,16.5434 104.9594,18.9764 C102.5144,21.4084 99.5404,23.7224 96.0384,25.9194 L95.7394,25.4404 C102.1134,20.7474 106.7664,14.9224 109.7004,7.9674 L101.4444,7.9674 C100.8894,7.9674 100.4214,8.0214 100.0404,8.1274 L99.7274,6.8164 C100.1564,6.9224 100.6804,6.9764 101.2994,6.9764 L112.1154,6.9764 C112.6724,3.8194 113.0044,1.7494 113.1144,0.7684 C115.5324,1.0874 116.7134,1.4084 116.6564,1.7284 C116.6264,1.8994 116.2534,2.2614 115.5364,2.8164 L114.8034,6.9764 Z M86.9214,1.9524 C88.1134,2.2074 89.0324,2.4694 89.6784,2.7364 C90.3244,3.0024 90.7584,3.2954 90.9794,3.6164 C91.2004,3.9364 91.2654,4.3524 91.1754,4.8644 C91.0854,5.3754 90.7974,5.8874 90.3124,6.4004 C89.8274,6.9124 89.4354,7.1674 89.1374,7.1674 C89.0094,7.1674 88.8924,6.9224 88.7874,6.4314 C88.6004,5.4294 88.3274,4.6514 87.9674,4.0954 C87.6054,3.5414 87.1394,3.0074 86.5694,2.4964 L86.9214,1.9524 Z M70.5394,6.1124 C71.5884,6.4544 72.4974,6.9224 73.2674,7.5204 L81.7794,7.5204 C82.0184,5.1954 82.3194,2.8274 82.6794,0.4154 C83.4894,0.5434 84.2864,0.7094 85.0724,0.9124 C85.8574,1.1154 86.3324,1.2634 86.4974,1.3604 C86.6614,1.4554 86.7344,1.5574 86.7164,1.6644 C86.6784,1.8774 86.2454,2.1554 85.4174,2.4964 C85.0534,4.7994 84.8114,6.4754 84.6914,7.5204 L90.6114,7.5204 L91.9984,5.8244 C92.3004,5.4404 92.5364,5.2474 92.7074,5.2474 C92.8784,5.2474 93.3994,5.6794 94.2714,6.5434 C95.1434,7.4084 95.5604,7.9474 95.5224,8.1604 C95.4844,8.3734 95.1784,8.4804 94.6024,8.4804 L84.5864,8.4804 C84.1024,12.9174 84.0914,16.4264 84.5534,19.0074 C86.1784,16.8114 87.7274,13.9524 89.2014,10.4314 C91.3684,11.3284 92.4264,11.9254 92.3734,12.2234 C92.3474,12.3734 92.1274,12.5014 91.7144,12.6084 C91.3004,12.7144 90.8584,13.1954 90.3884,14.0474 C88.5604,17.3974 86.8624,19.9474 85.2954,21.6964 C85.8514,23.0194 86.5634,23.9734 87.4304,24.5604 C88.2974,25.1464 88.8914,25.4404 89.2114,25.4404 C89.3394,25.4404 89.4504,25.3804 89.5464,25.2634 C89.6414,25.1464 89.9144,24.6884 90.3654,23.8874 C90.8154,23.0874 91.4734,21.8024 92.3414,20.0324 L92.9324,20.1274 C92.2544,22.1554 91.8444,23.5734 91.7014,24.3834 C91.5584,25.1944 91.5084,25.8724 91.5514,26.4154 C91.5944,26.9594 91.7174,27.4984 91.9224,28.0324 C92.1274,28.5654 92.2064,28.9594 92.1614,29.2154 C92.0904,29.6214 91.8464,29.8244 91.4304,29.8244 C91.0144,29.8244 90.2684,29.6364 89.1934,29.2634 C88.1174,28.8904 87.0444,28.2604 85.9744,27.3754 C84.9034,26.4904 83.9644,25.3124 83.1574,23.8394 C80.7084,25.9944 76.8674,27.9364 71.6354,29.6634 L71.2864,29.2804 C76.0314,26.9334 79.6854,24.4154 82.2504,21.7284 C81.3094,18.9554 81.1284,14.5384 81.7064,8.4804 L73.0664,8.4804 C72.6354,10.6774 72.2924,12.3834 72.0354,13.6004 L75.9074,13.6004 L76.9324,12.3204 C77.1234,12.0854 77.3034,11.9674 77.4744,11.9674 C77.6454,11.9674 78.0484,12.1334 78.6834,12.4634 C79.3184,12.7944 79.7144,13.0294 79.8714,13.1674 C80.0284,13.3064 80.0914,13.4614 80.0614,13.6314 C80.0014,13.9734 79.5904,14.3684 78.8284,14.8164 C78.5404,16.3304 78.1674,17.9894 77.7114,19.7914 C77.2544,21.5944 76.9054,22.7314 76.6624,23.2004 C76.4194,23.6694 76.0884,24.0954 75.6684,24.4804 C75.2494,24.8644 74.6154,25.2524 73.7664,25.6484 C72.9184,26.0424 72.4084,26.2404 72.2384,26.2404 C72.0674,26.2404 71.9524,26.0474 71.8914,25.6634 C71.8014,25.0874 71.6524,24.6664 71.4434,24.4004 C71.2344,24.1334 70.7484,23.8614 69.9874,23.5834 L70.1264,22.9764 C70.9814,23.0824 71.7084,23.1354 72.3054,23.1354 C72.9024,23.1354 73.3614,23.0454 73.6814,22.8644 C74.0014,22.6834 74.2404,22.3834 74.3994,21.9674 C74.5584,21.5514 74.8024,20.6194 75.1334,19.1674 C75.4634,17.7174 75.7914,16.1924 76.1164,14.5914 L71.8284,14.5914 L70.9424,18.5284 C70.5714,20.1494 70.1004,21.5794 69.5304,22.8164 C68.9604,24.0534 68.1734,25.2154 67.1714,26.3034 C66.1684,27.3924 64.7504,28.5964 62.9174,29.9194 L62.4674,29.5684 C64.6694,27.6054 66.1674,25.5204 66.9624,23.3124 C67.7574,21.1044 68.6494,17.1954 69.6384,11.5834 C69.8684,10.2834 70.1684,8.4584 70.5394,6.1124 Z M57.7144,10.9764 L50.7054,10.9764 L49.6844,16.7684 L56.6924,16.7684 L57.7144,10.9764 Z M50.8864,9.9524 L57.8944,9.9524 L59.0394,3.4554 L52.0324,3.4554 L50.8864,9.9524 Z M43.0724,3.4554 C42.8204,4.8854 42.4164,7.0504 41.8624,9.9524 L48.0384,9.9524 L49.1834,3.4554 L43.0724,3.4554 Z M47.8584,10.9764 L41.6504,10.9764 C41.2754,13.3434 40.8914,15.2754 40.5004,16.7684 L46.8364,16.7684 L47.8584,10.9764 Z M40.2214,0.9274 C41.1504,1.2274 42.1854,1.7064 43.3274,2.3684 L58.9434,2.3684 L59.7644,1.3434 C60.0094,1.0454 60.2164,0.8964 60.3874,0.8964 C60.5574,0.8964 61.0044,1.1154 61.7274,1.5514 C62.4504,1.9894 62.9214,2.3154 63.1394,2.5284 C63.3584,2.7414 63.4504,2.9444 63.4164,3.1354 C63.3824,3.3284 62.8364,3.7014 61.7794,4.2554 L57.8514,26.5284 C57.6714,27.5514 57.4614,28.2554 57.2234,28.6394 C56.9844,29.0244 56.4464,29.4454 55.6084,29.9044 C54.7704,30.3624 54.2224,30.5914 53.9674,30.5914 C53.7114,30.5914 53.5754,30.3884 53.5624,29.9844 C53.4874,28.5964 52.2524,27.5514 49.8594,26.8474 L50.0644,26.0474 C51.9104,26.3464 53.1214,26.4964 53.6974,26.4964 C54.2734,26.4964 54.6404,26.4374 54.8004,26.3204 C54.9594,26.2024 55.0654,25.9944 55.1184,25.6964 L56.5114,17.7914 L49.5044,17.7914 L48.2344,24.9924 C48.0424,26.0804 47.9214,26.8264 47.8714,27.2324 L47.7004,28.3834 C47.6474,28.6824 47.2144,28.9644 46.3994,29.2324 C45.5834,29.4984 45.0274,29.6314 44.7284,29.6314 C44.5574,29.6314 44.4914,29.5254 44.5294,29.3124 L44.8244,27.9994 C45.0034,27.1044 45.1874,26.1224 45.3754,25.0554 L46.6564,17.7914 L40.2884,17.7914 C39.6674,20.5864 38.8014,22.8964 37.6904,24.7194 C36.5794,26.5434 34.7404,28.5654 32.1734,30.7844 L31.7084,30.3354 C33.9644,27.9464 35.5574,24.9594 36.4884,21.3754 C37.4184,17.7914 38.2394,13.9844 38.9504,9.9524 C39.2854,8.0534 39.7084,5.0454 40.2214,0.9274 Z M25.9164,16.5434 L26.7904,11.5834 L21.5424,11.5834 C21.0504,14.0164 20.7044,15.6694 20.5084,16.5434 L25.9164,16.5434 Z M17.9484,16.5434 C18.2604,15.1354 18.5834,13.4834 18.9184,11.5834 L15.1424,11.5834 L14.2684,16.5434 L17.9484,16.5434 Z M12.9904,9.0874 C13.8904,9.4294 14.7144,9.8994 15.4624,10.4964 L19.1104,10.4964 C19.3474,9.1524 19.5544,7.9144 19.7334,6.7844 L13.9084,6.7844 C13.3544,6.7844 12.8864,6.8374 12.5054,6.9444 L12.1924,5.6314 C12.6214,5.7394 13.1454,5.7914 13.7634,5.7914 L19.8764,5.7914 L20.7184,0.2884 C21.7434,0.5234 22.6064,0.7414 23.3064,0.9444 C24.0074,1.1474 24.4194,1.2854 24.5454,1.3604 C24.6704,1.4354 24.7234,1.5314 24.7024,1.6484 C24.6814,1.7654 24.4424,1.9474 23.9824,2.1924 C23.5234,2.4374 23.2414,2.8594 23.1364,3.4554 L22.6924,5.7914 L26.9484,5.7914 L28.5814,3.9674 C28.7724,3.7334 28.9844,3.6164 29.2204,3.6164 C29.4544,3.6164 29.9884,4.0384 30.8214,4.8794 C31.6534,5.7224 32.0514,6.2504 32.0134,6.4634 C31.9754,6.6774 31.8074,6.7844 31.5094,6.7844 L22.4854,6.7844 L21.7664,10.4964 L26.6304,10.4964 L27.6014,9.3434 C27.7634,9.1524 27.9404,9.0554 28.1324,9.0554 C28.3244,9.0554 28.7064,9.2474 29.2794,9.6314 L30.5084,10.4634 C30.7384,10.6134 30.8374,10.7734 30.8074,10.9444 C30.7774,11.1154 30.3394,11.4234 29.4914,11.8724 L28.8314,15.6164 C28.7494,16.0854 28.6784,16.5434 28.6214,16.9924 L28.4934,18.0804 C28.4514,18.3154 28.3154,18.5114 28.0844,18.6714 C27.8534,18.8314 27.4654,19.0074 26.9194,19.2004 C26.3734,19.3924 25.9624,19.4884 25.6854,19.4884 C25.4924,19.4884 25.4254,19.3284 25.4814,19.0074 L25.7244,17.6314 L20.2204,17.6314 C19.4654,20.7044 18.6244,22.8694 17.6994,24.1274 C20.3984,25.8764 24.1994,26.8794 29.1044,27.1354 L28.9804,27.8394 C27.6114,27.8614 26.6644,27.9994 26.1384,28.2554 C25.6144,28.5114 25.1074,28.9924 24.6214,29.6964 C24.5014,29.8874 24.3674,29.9844 24.2184,29.9844 C24.0044,29.9844 22.8794,29.5304 20.8424,28.6234 C18.8044,27.7164 17.2594,26.8044 16.2044,25.8874 C14.1294,27.9784 10.8724,29.5684 6.4354,30.6564 L6.3504,30.0474 C9.9704,28.6394 12.7774,26.7514 14.7734,24.3834 C13.7614,23.1044 13.0904,21.3434 12.7614,19.1044 L13.3824,18.8474 C14.0834,20.5544 14.9164,21.8774 15.8824,22.8164 C16.5254,21.7064 17.1294,19.9794 17.6924,17.6314 L14.0764,17.6314 C14.0084,18.0164 13.6454,18.3204 12.9874,18.5434 C12.3284,18.7684 11.8774,18.8794 11.6324,18.8794 C11.3864,18.8794 11.2844,18.7624 11.3264,18.5284 L11.8344,16.1924 L12.6464,11.5834 C12.7894,10.7734 12.9044,9.9414 12.9904,9.0874 Z M6.2654,11.8394 C4.3024,14.1444 2.3474,16.0954 0.4014,17.6964 L0.0004,17.2474 C4.2944,12.4914 7.8684,6.7414 10.7214,-0.0006 C11.5284,0.3834 12.2814,0.7734 12.9794,1.1674 C13.6784,1.5634 14.0614,1.8024 14.1324,1.8874 C14.2024,1.9734 14.2304,2.0594 14.2154,2.1444 C14.1774,2.3574 13.9064,2.5064 13.4004,2.5914 C13.1154,2.6344 12.8744,2.7624 12.6764,2.9764 C12.4784,3.1894 12.2714,3.4884 12.0544,3.8724 C11.1724,5.3654 10.1184,6.9224 8.8944,8.5434 C9.6874,8.8854 10.0704,9.1354 10.0424,9.2954 C10.0134,9.4554 9.7534,9.6644 9.2604,9.9194 L5.8684,29.1524 C5.8464,29.2804 5.8094,29.3654 5.7604,29.4084 C5.7094,29.4504 5.4884,29.5564 5.0954,29.7284 C4.7024,29.8984 4.2934,30.0424 3.8674,30.1604 C3.4414,30.2774 3.1644,30.3354 3.0364,30.3354 C2.9084,30.3354 2.8654,30.2184 2.9064,29.9844 L3.3014,28.2884 C3.5474,27.1354 3.8034,25.8024 4.0704,24.2884 L6.2654,11.8394 Z" id="Fill-1" fill="#333333" mask="url(#mask-6)"></path>
                </g>
            </g>
        </g>
    </g>
</svg>