<?xml version="1.0" encoding="UTF-8"?>
<svg width="312px" height="78px" viewBox="0 0 312 78" version="1.1" xmlns="http://www.w3.org/2000/svg" xmlns:xlink="http://www.w3.org/1999/xlink">
    <!-- Generator: Sketch 50.2 (55047) - http://www.bohemiancoding.com/sketch -->
    <title>09</title>
    <desc>Created with Sketch.</desc>
    <defs>
        <polygon id="path-1" points="0 0.47805 32.0357778 0.47805 32.0357778 62 0 62"></polygon>
        <polygon id="path-3" points="0.7569 0.389 36.291 0.389 36.291 61.9998 0.7569 61.9998"></polygon>
        <polygon id="path-5" points="0 0 126.471762 0 126.471762 29.8879 0 29.8879"></polygon>
    </defs>
    <g id="Page-1" stroke="none" stroke-width="1" fill="none" fill-rule="evenodd">
        <g id="Artboard-2" transform="translate(-208.000000, -1293.000000)">
            <g id="09" transform="translate(209.000000, 1292.000000)">
                <g transform="translate(0.000000, 11.000000)">
                    <g id="Group-3" transform="translate(0.000000, 0.611300)">
                        <mask id="mask-2" fill="white">
                            <use xlink:href="#path-1"></use>
                        </mask>
                        <g id="Clip-2"></g>
                        <path d="M5.9643,51.2773 C6.5263,55.3803 7.5183,57.7253 8.9433,58.3083 C10.3603,58.8963 11.8273,58.8963 13.3383,58.3083 C14.8463,57.7253 16.6663,55.3803 18.7963,51.2773 C20.9253,47.1793 22.8173,40.4383 24.4703,31.0623 C26.1223,21.6913 26.6593,14.6603 26.0803,9.9683 C25.5003,5.2833 23.7433,2.9373 20.8163,2.9373 C17.8823,2.9373 15.3593,5.2833 13.2483,9.9683 C11.1303,14.6603 9.2473,21.6913 7.5953,31.0623 C5.9423,40.4383 5.3963,47.1793 5.9643,51.2773 M30.5983,9.2653 C32.3803,14.4233 32.5053,21.6913 30.9743,31.0623 C29.4363,40.4383 26.7683,47.9373 22.9633,53.5623 C19.1593,59.1873 14.9723,62.0003 10.4013,62.0003 C5.8313,62.0003 2.7513,59.1873 1.1663,53.5623 C-0.4237,47.9373 -0.3867,40.4383 1.2673,31.0623 C2.9193,21.6913 5.4853,14.4233 8.9773,9.2653 C12.4623,4.1123 15.4193,1.3003 17.8483,0.8283 C20.2703,0.3613 22.5553,0.3613 24.7033,0.8283 C26.8443,1.3003 28.8103,4.1123 30.5983,9.2653" id="Fill-1" fill="#0B74B9" mask="url(#mask-2)"></path>
                    </g>
                    <g id="Group-6" transform="translate(39.000000, 0.611300)">
                        <mask id="mask-4" fill="white">
                            <use xlink:href="#path-3"></use>
                        </mask>
                        <g id="Clip-5"></g>
                        <path d="M29.7739,9.0898 C28.8539,4.9908 26.3019,3.1738 22.1219,3.6408 C17.9349,4.1118 15.0299,8.6228 13.4069,17.1758 C11.7769,25.7348 11.8279,30.7718 13.5539,32.2928 C15.2729,33.8198 17.1649,34.4018 19.2199,34.0508 C21.2709,33.6988 23.1419,33.0568 24.8349,32.1168 C26.5209,31.1838 27.6769,29.9528 28.2979,28.4258 C28.9179,26.9038 29.5479,24.3278 30.1899,20.6918 C30.8299,17.0608 30.6879,13.1938 29.7739,9.0898 M35.6079,23.8558 C34.4709,30.3048 32.1349,36.5718 28.5999,42.6638 C25.0639,48.7618 20.9729,53.3318 16.3389,56.3748 C11.6979,59.4238 6.5059,61.2968 0.7569,61.9998 L1.1289,59.8908 C6.4879,58.7208 10.9339,56.4358 14.4669,53.0358 C17.9929,49.6408 20.7439,46.0038 22.7169,42.1368 C24.6839,38.2698 26.0679,35.4018 26.8719,33.5238 C24.5149,34.9298 22.4889,36.1058 20.8029,37.0388 C19.1099,37.9788 16.9389,38.3298 14.2889,38.0938 C11.6319,37.8628 9.5629,35.9848 8.0739,32.4688 C6.5849,28.9528 6.3039,24.5588 7.2339,19.2848 C8.1639,14.0118 10.2129,9.6768 13.3949,6.2768 C16.5699,2.8828 19.3009,1.0038 21.5939,0.6518 C23.8799,0.3008 26.2259,0.3008 28.6259,0.6518 C31.0239,1.0038 33.0709,3.3498 34.7679,7.6838 C36.4639,12.0228 36.7439,17.4118 35.6079,23.8558" id="Fill-4" fill="#0B74B9" mask="url(#mask-4)"></path>
                    </g>
                </g>
                <g id="时尚配置" transform="translate(81.000000, 48.000000)">
                    <mask id="mask-6" fill="white">
                        <use xlink:href="#path-5"></use>
                    </mask>
                    <g id="Clip-2"></g>
                    <path d="M121.4126,6.6559 L122.1236,2.6239 L118.3476,2.6239 L117.6366,6.6559 L121.4126,6.6559 Z M111.8836,2.6239 L111.1726,6.6559 L115.1406,6.6559 L115.8516,2.6239 L111.8836,2.6239 Z M114.9336,27.0719 L115.2996,24.9919 L104.3236,24.9919 L103.9566,27.0719 L114.9336,27.0719 Z M115.4966,23.8719 L115.9146,21.5049 L104.9386,21.5049 L104.5206,23.8719 L115.4966,23.8719 Z M116.1126,20.3849 L116.5016,18.1769 L105.5256,18.1769 L105.1366,20.3849 L116.1126,20.3849 Z M116.6936,17.0889 L117.1166,14.6879 L106.1406,14.6879 L105.7176,17.0889 L116.6936,17.0889 Z M108.6766,6.6559 L109.3876,2.6239 L105.5476,2.6239 L104.8366,6.6559 L108.6766,6.6559 Z M103.5746,12.5439 C105.1266,13.0559 106.1506,13.4189 106.6466,13.6329 L109.8466,13.6329 L110.4506,11.2969 L100.1786,11.2969 C99.6876,11.2969 99.3136,11.3599 99.0566,11.4879 L98.7816,10.1439 C99.1676,10.2509 99.6066,10.3039 100.0976,10.3039 L110.7216,10.3039 C111.0486,9.1739 111.2416,8.3199 111.3006,7.7439 L104.6446,7.7439 L104.5716,8.1599 C104.5456,8.3089 104.5066,8.4059 104.4566,8.4479 C104.4066,8.4909 104.2266,8.5709 103.9186,8.6879 C103.6096,8.8049 103.2226,8.9179 102.7556,9.0239 C102.2886,9.1319 101.9696,9.1839 101.7996,9.1839 C101.6276,9.1839 101.5686,9.0989 101.6206,8.9279 C101.8696,8.1179 102.0676,7.2969 102.2146,6.4649 L102.8406,2.9119 C102.9656,2.2079 103.0606,1.4829 103.1286,0.7359 C104.2556,1.1199 105.0166,1.3969 105.4136,1.5679 L122.1496,1.5679 L122.9426,0.7039 C123.1246,0.5119 123.2976,0.4159 123.4566,0.4159 C123.6176,0.4159 124.1446,0.7199 125.0406,1.3279 C125.9356,1.9359 126.3646,2.3469 126.3276,2.5599 C126.2896,2.7729 125.7436,3.0829 124.6916,3.4879 L124.2236,6.1439 C124.1666,6.4649 124.1246,6.7629 124.0976,7.0399 L124.0426,7.7119 C123.9936,7.9899 123.5826,8.2349 122.8086,8.4479 C122.0356,8.6619 121.5466,8.7679 121.3446,8.7679 C121.1416,8.7679 121.0606,8.6509 121.1026,8.4159 L121.2216,7.7439 L112.1006,7.7439 C113.9376,8.2139 114.8376,8.5549 114.8006,8.7679 C114.7776,8.8959 114.5106,9.0779 114.0006,9.3119 L113.6656,10.3039 L121.7936,10.3039 L123.1636,8.7039 C123.3756,8.4689 123.5666,8.3519 123.7376,8.3519 C124.0576,8.3519 124.6006,8.7469 125.3696,9.5359 C126.1366,10.3259 126.5036,10.8159 126.4696,11.0089 C126.4356,11.1999 126.2266,11.2969 125.8426,11.2969 L113.3306,11.2969 L112.5346,13.6329 L117.1426,13.6329 L117.9896,12.6399 C118.1226,12.4909 118.2746,12.4159 118.4456,12.4159 C118.6156,12.4159 119.1746,12.6939 120.1226,13.2479 C121.0696,13.8029 121.5256,14.1809 121.4906,14.3849 C121.4546,14.5869 120.9366,15.0399 119.9386,15.7439 L117.9406,27.0719 L119.3806,27.0719 L121.1996,24.9279 C121.4116,24.6929 121.5696,24.5759 121.6776,24.5759 C121.7836,24.5759 121.9826,24.7149 122.2756,24.9919 C122.5676,25.2689 122.9466,25.6639 123.4116,26.1769 C123.8746,26.6879 124.1966,27.0719 124.3756,27.3279 C124.5546,27.5839 124.6286,27.7979 124.5996,27.9679 C124.5686,28.1379 124.3616,28.2239 123.9776,28.2239 L95.9456,28.2239 C95.4546,28.2239 95.0806,28.2879 94.8236,28.4159 L94.5776,26.9119 C94.9636,27.0179 95.4016,27.0719 95.8926,27.0719 L101.1086,27.0719 L103.1346,15.5839 C103.3266,14.4959 103.4736,13.4829 103.5746,12.5439 Z M90.9586,11.6799 L92.4146,3.4249 L85.5026,3.4249 C84.9266,3.4249 84.4656,3.4989 84.1196,3.6479 L83.7856,2.2719 C84.2146,2.3799 84.7386,2.4319 85.3576,2.4319 L92.4936,2.4319 L93.4666,1.0889 C93.5786,0.9389 93.6866,0.8639 93.7936,0.8639 C93.9646,0.8639 94.4286,1.1949 95.1866,1.8559 C95.9456,2.5169 96.3106,2.9239 96.2846,3.0719 C96.2546,3.2429 95.8236,3.5099 94.9916,3.8719 L93.7446,10.9439 L93.3626,13.4719 C93.3216,13.7069 93.1966,13.8989 92.9896,14.0489 C92.7816,14.1979 92.4116,14.3569 91.8806,14.5279 C91.3496,14.6989 90.9716,14.7839 90.7476,14.7839 C90.5236,14.7839 90.4356,14.6449 90.4846,14.3679 L90.7616,12.8009 L85.2896,12.8009 L83.0996,25.2169 C83.0326,25.5999 83.0356,25.8559 83.1086,25.9839 C83.1826,26.1119 83.3946,26.2029 83.7486,26.2569 C84.1016,26.3089 84.9506,26.3359 86.2946,26.3359 C87.6386,26.3359 88.4966,26.2769 88.8696,26.1599 C89.2426,26.0429 89.6096,25.6209 89.9726,24.8959 C90.3346,24.1719 90.8886,22.4859 91.6326,19.8409 L92.1766,19.8409 C91.9416,21.2909 91.8216,22.3949 91.8156,23.1519 C91.8106,23.9099 91.8946,24.4589 92.0696,24.8009 C92.2446,25.1409 92.5386,25.4079 92.9526,25.5999 C93.1856,25.7279 93.2876,25.8769 93.2576,26.0489 C93.2276,26.2179 92.9486,26.5929 92.4196,27.1679 C91.8916,27.7439 91.3836,28.1439 90.8966,28.3679 C90.4086,28.5929 89.5836,28.7359 88.4206,28.8009 C87.2566,28.8639 86.0726,28.8959 84.8676,28.8959 C83.6616,28.8959 82.6296,28.8209 81.7706,28.6729 C80.9116,28.5219 80.3926,28.3199 80.2136,28.0639 C80.0356,27.8079 80.0036,27.3489 80.1206,26.6879 L82.4006,13.7599 C82.6556,12.3089 82.8346,11.1149 82.9356,10.1769 C84.0766,10.6029 85.0766,11.1039 85.9346,11.6799 L90.9586,11.6799 Z M76.8496,8.5759 L75.6486,15.3919 C75.5846,15.7559 75.6706,15.9899 75.9086,16.0959 C76.1456,16.2029 76.5326,16.2459 77.0696,16.2239 L78.4186,8.5759 L76.8496,8.5759 Z M75.7046,3.4559 L74.5206,3.4559 L73.8046,7.5199 L74.9886,7.5199 L75.7046,3.4559 Z M75.4896,25.1839 L76.1046,21.6959 L67.9126,21.6959 L67.2976,25.1839 L75.4896,25.1839 Z M68.4996,18.3679 C69.1746,17.6849 69.7546,16.5709 70.2416,15.0239 C70.7266,13.4769 71.2126,11.3279 71.6986,8.5759 L70.2256,8.5759 L68.4996,18.3679 Z M76.7366,18.1119 C75.5806,18.1339 74.7646,18.1069 74.2876,18.0319 C73.8086,17.9579 73.5176,17.8239 73.4136,17.6329 C73.3086,17.4399 73.2956,17.1199 73.3746,16.6729 L74.8026,8.5759 L73.6186,8.5759 C73.0026,11.9469 72.3346,14.3149 71.6136,15.6799 C70.8926,17.0459 69.7986,18.2609 68.3306,19.3279 L68.0996,20.6399 L76.2906,20.6399 L76.7366,18.1119 Z M72.6006,3.4559 L68.8896,3.4559 C68.3126,3.4559 67.8536,3.5199 67.5116,3.6479 L67.1556,2.3999 C67.5846,2.5079 68.1076,2.5599 68.7266,2.5599 L78.7746,2.5599 L80.1886,0.8959 C80.4046,0.6399 80.5866,0.5119 80.7366,0.5119 C80.8426,0.5119 81.1366,0.7199 81.6186,1.1359 C82.0996,1.5519 82.5076,1.9259 82.8446,2.2569 C83.1806,2.5869 83.3286,2.8699 83.2876,3.1039 C83.2456,3.3399 83.0436,3.4559 82.6816,3.4559 L77.7526,3.4559 L77.0366,7.5199 L78.3806,7.5199 L79.3086,6.4319 C79.4446,6.2609 79.5826,6.1769 79.7216,6.1769 C79.8596,6.1769 80.2586,6.4589 80.9156,7.0239 C81.5736,7.5899 81.8876,7.9579 81.8576,8.1279 C81.8276,8.2999 81.4996,8.5229 80.8746,8.8009 L78.0536,24.8009 L77.6386,27.5199 C77.5886,27.7979 77.5126,27.9889 77.4086,28.0959 C77.3046,28.2029 76.9306,28.3849 76.2886,28.6399 C75.6456,28.8959 75.2396,29.0239 75.0686,29.0239 C74.8976,29.0239 74.8406,28.8639 74.8976,28.5439 L75.3036,26.2399 L67.1116,26.2399 L66.6946,28.6079 C66.6566,28.8209 66.5756,28.9759 66.4526,29.0719 C66.3286,29.1679 65.9706,29.3229 65.3786,29.5359 C64.7866,29.7489 64.3726,29.8559 64.1386,29.8559 C64.0106,29.8559 63.9806,29.7179 64.0516,29.4399 C64.2676,28.6929 64.4916,27.6689 64.7216,26.3679 L67.8076,8.8639 C67.9616,7.9899 68.0876,7.0929 68.1856,6.1769 C69.2096,6.5389 70.1326,6.9869 70.9566,7.5199 L71.8846,7.5199 L72.6006,3.4559 Z M43.9256,20.8959 L50.0696,20.8959 L50.9556,15.8719 L44.8116,15.8719 L43.9256,20.8959 Z M49.8776,21.9839 L43.7336,21.9839 L43.5146,23.2319 C43.4686,23.4879 43.3876,23.6759 43.2716,23.7919 C43.1546,23.9099 42.7696,24.0959 42.1166,24.3519 C41.4636,24.6079 41.0616,24.7359 40.9126,24.7359 C40.7636,24.7359 40.6986,24.6819 40.7176,24.5759 C40.7356,24.4689 40.8006,24.1919 40.9116,23.7439 C41.0226,23.2969 41.1366,22.7419 41.2526,22.0799 L42.3136,16.0639 C42.4726,15.1679 42.5996,14.2609 42.6976,13.3439 C43.7676,13.6849 44.6796,14.1439 45.4316,14.7199 L51.0306,14.7199 L51.8026,13.7919 C51.9386,13.6219 52.0816,13.5359 52.2316,13.5359 C52.3806,13.5359 52.7006,13.7179 53.1916,14.0799 C53.6826,14.4429 54.0586,14.7249 54.3226,14.9279 C54.5846,15.1319 54.7026,15.3119 54.6746,15.4719 C54.6456,15.6329 54.2066,15.9469 53.3556,16.4159 L52.6056,20.6729 C52.5226,21.1409 52.4636,21.5359 52.4286,21.8559 L52.3576,22.6239 C52.3386,22.7309 52.2976,22.8109 52.2346,22.8639 C52.1716,22.9179 51.9586,23.0399 51.5946,23.2319 C51.2286,23.4249 50.8426,23.5899 50.4346,23.7279 C50.0256,23.8669 49.7736,23.9359 49.6776,23.9359 C49.5816,23.9359 49.5546,23.8189 49.5966,23.5839 L49.8776,21.9839 Z M39.6526,2.3039 C41.4516,2.9869 42.7696,3.5569 43.6066,4.0159 C44.4426,4.4749 44.9646,4.9019 45.1726,5.2969 C45.3796,5.6909 45.4256,6.2189 45.3096,6.8809 C45.1926,7.5419 44.9006,8.1389 44.4336,8.6729 C43.9656,9.2059 43.6096,9.4719 43.3646,9.4719 C43.1186,9.4719 42.9336,9.4029 42.8086,9.2639 C42.6836,9.1259 42.4546,8.5549 42.1186,7.5519 C41.7836,6.5499 41.4066,5.7229 40.9886,5.0719 C40.5696,4.4219 39.9756,3.7339 39.2076,3.0089 L39.6526,2.3039 Z M47.2616,10.1439 L48.4296,3.5199 C48.7306,1.8129 48.9106,0.6729 48.9696,0.0959 C50.0876,0.2879 51.0356,0.5079 51.8136,0.7519 C52.5916,0.9979 52.9696,1.1839 52.9476,1.3119 C52.9206,1.4619 52.4426,1.7499 51.5146,2.1769 L50.1096,10.1439 L51.1656,10.1439 C52.9436,8.2879 55.3966,5.5049 58.5266,1.7919 C59.1806,2.1979 59.8456,2.6619 60.5206,3.1839 C61.1966,3.7069 61.5636,4.0159 61.6216,4.1119 C61.6796,4.2079 61.7006,4.2999 61.6856,4.3849 C61.6476,4.5969 61.5116,4.7039 61.2766,4.7039 C61.2126,4.7039 61.1256,4.6829 61.0166,4.6399 C60.9066,4.5969 60.7986,4.5759 60.6916,4.5759 C60.3496,4.5759 59.6556,4.9179 58.6066,5.5999 C57.5586,6.2829 55.4196,7.7979 52.1896,10.1439 L57.4696,10.1439 L58.5336,8.8319 C58.7776,8.5339 58.9956,8.3849 59.1876,8.3849 C59.3366,8.3849 59.7006,8.5929 60.2786,9.0089 C60.8556,9.4249 61.3106,9.7759 61.6436,10.0639 C61.9766,10.3519 62.1346,10.5499 62.1156,10.6559 C62.0786,10.8699 61.6226,11.2109 60.7506,11.6799 L58.4436,24.7679 C58.2056,26.1119 57.9356,27.0399 57.6326,27.5519 C57.3286,28.0639 56.6506,28.5809 55.5986,29.1039 C54.5466,29.6269 53.8926,29.8879 53.6366,29.8879 C53.4016,29.8879 53.2576,29.6479 53.2036,29.1679 C53.1486,28.6879 53.0346,28.3089 52.8596,28.0319 C52.6846,27.7549 52.3566,27.4989 51.8746,27.2639 C51.3936,27.0289 50.6076,26.7409 49.5156,26.3999 L49.8206,25.7599 C51.6486,26.0369 52.9196,26.1769 53.6346,26.1769 C54.3496,26.1769 54.8266,26.0689 55.0676,25.8559 C55.3076,25.6419 55.4766,25.2589 55.5746,24.7039 L57.9556,11.1999 L39.5876,11.1999 L36.6306,27.9679 C36.5856,28.2239 36.5216,28.4049 36.4386,28.5119 C36.3566,28.6189 35.9066,28.8099 35.0896,29.0889 C34.2726,29.3649 33.7846,29.5049 33.6236,29.5049 C33.4646,29.5049 33.4006,29.4079 33.4346,29.2169 L33.9236,27.1679 C34.1016,26.3999 34.2586,25.6329 34.3936,24.8639 L36.7756,11.3599 C36.9636,10.2939 37.1096,9.3439 37.2136,8.5119 C38.2586,8.8749 39.2936,9.4189 40.3176,10.1439 L47.2616,10.1439 Z M16.2516,11.9679 C17.4836,12.9709 18.4006,13.8779 19.0046,14.6879 C19.6076,15.4989 19.8496,16.2459 19.7296,16.9279 C19.6096,17.6109 19.2776,18.2189 18.7356,18.7519 C18.1936,19.2859 17.6666,19.5519 17.1546,19.5519 C16.6856,19.5519 16.4826,19.1889 16.5466,18.4649 C16.8086,16.0109 16.4446,13.9639 15.4546,12.3199 L16.2516,11.9679 Z M26.7816,7.9679 L27.6136,7.9679 L29.0906,6.3039 C29.2776,6.0919 29.4516,5.9839 29.6116,5.9839 C29.7716,5.9839 30.1706,6.4109 30.8096,7.2639 C31.4486,8.1179 31.7546,8.6189 31.7286,8.7679 C31.7026,8.9179 31.4856,8.9919 31.0806,8.9919 L26.6006,8.9919 L23.5876,26.0799 C23.4676,26.7619 23.3276,27.2849 23.1676,27.6479 C23.0076,28.0099 22.7396,28.3199 22.3636,28.5759 C21.9876,28.8319 21.3906,29.1039 20.5716,29.3919 C19.7526,29.6799 19.2526,29.8239 19.0716,29.8239 C18.8906,29.8239 18.7766,29.6529 18.7296,29.3119 C18.6356,28.3939 18.3066,27.7489 17.7436,27.3759 C17.1796,27.0029 16.3706,26.6559 15.3186,26.3359 L15.5276,25.6959 C17.5186,26.0159 18.8136,26.1769 19.4116,26.1769 C20.0076,26.1769 20.3976,26.0849 20.5796,25.9039 C20.7596,25.7219 20.8936,25.3859 20.9806,24.8959 L23.7856,8.9919 L15.5926,8.9919 C15.0596,8.9919 14.5916,9.0459 14.1886,9.1519 L13.8816,7.8079 C14.3106,7.9149 14.8346,7.9679 15.4536,7.9679 L23.9656,7.9679 L24.7726,3.3919 C24.9786,2.2189 25.1576,1.0889 25.3066,-0.0001 C25.8806,0.1279 26.6466,0.3199 27.6046,0.5759 C28.5626,0.8319 29.1026,1.0029 29.2266,1.0889 C29.3496,1.1739 29.4046,1.2599 29.3896,1.3439 C29.3446,1.5999 28.7986,1.9729 27.7516,2.4649 L26.7816,7.9679 Z M8.3916,21.3439 L9.7276,13.7599 L5.0246,13.7599 L3.6866,21.3439 L8.3916,21.3439 Z M9.9036,12.7679 L11.3196,4.7359 L6.6156,4.7359 L5.1996,12.7679 L9.9036,12.7679 Z M4.4506,1.9519 C5.7486,2.5709 6.7206,3.1679 7.3666,3.7439 L11.1416,3.7439 L12.1036,2.4649 C12.2696,2.2509 12.4376,2.1439 12.6086,2.1439 C12.7366,2.1439 13.0716,2.3309 13.6136,2.7039 C14.1556,3.0779 14.5836,3.4029 14.8976,3.6799 C15.2106,3.9579 15.3546,4.1719 15.3286,4.3199 C15.3026,4.4689 14.8356,4.7579 13.9286,5.1839 L11.1356,21.0239 L10.6916,23.9039 C10.6466,24.1599 10.5976,24.3149 10.5456,24.3679 C10.4936,24.4219 10.2626,24.5499 9.8536,24.7519 C9.4446,24.9549 9.0266,25.1199 8.5986,25.2479 C8.1706,25.3759 7.9086,25.4399 7.8126,25.4399 C7.7166,25.4399 7.6916,25.3119 7.7366,25.0559 L8.2156,22.3359 L3.5126,22.3359 L2.9646,25.4399 C2.9306,25.6329 2.8856,25.7649 2.8296,25.8409 C2.7736,25.9149 2.5646,26.0429 2.2026,26.2239 C1.8396,26.4049 1.4216,26.5709 0.9466,26.7199 C0.4726,26.8689 0.1876,26.9439 0.0916,26.9439 C-0.0044,26.9439 -0.0254,26.8479 0.0306,26.6559 C0.3216,25.6109 0.5626,24.5439 0.7546,23.4559 L4.0666,4.6729 C4.2246,3.7759 4.3526,2.8699 4.4506,1.9519 Z" id="Fill-1" fill="#333333" mask="url(#mask-6)"></path>
                </g>
                <path d="M106.867188,9.84765625 L107.082031,9.93359375 C106.265621,11.4231845 105.295253,12.7659445 104.170898,13.9619141 C103.046544,15.1578836 101.843431,16.0781218 100.561523,16.7226562 C99.279616,17.3671907 97.936856,17.6894531 96.5332031,17.6894531 C94.212879,17.6894531 93.0527344,16.779957 93.0527344,14.9609375 C93.0527344,14.0299433 93.3964809,13.0380912 94.0839844,11.9853516 C94.7714878,10.9326119 95.7812433,9.94792125 97.1132812,9.03125 C98.4453192,8.11457875 100.038728,7.37695592 101.893555,6.81835938 C103.748382,6.25976283 105.821603,5.98046875 108.113281,5.98046875 C109.201828,5.98046875 110.677074,6.12369648 112.539062,6.41015625 C114.329436,6.710939 115.826166,6.86132812 117.029297,6.86132812 C118.43295,6.86132812 119.772129,6.51042018 121.046875,5.80859375 L121.21875,5.98046875 C119.528637,7.18359977 117.681,7.78515625 115.675781,7.78515625 C114.744787,7.78515625 113.291026,7.57747604 111.314453,7.16210938 C110.082676,6.91861857 109.148115,6.76106807 108.510742,6.68945312 C107.873369,6.61783818 107.225264,6.58203125 106.566406,6.58203125 C104.503896,6.58203125 102.634774,6.87564811 100.958984,7.46289062 C99.2831947,8.05013314 97.8867243,8.78775598 96.7695312,9.67578125 C95.6523382,10.5638065 94.8037138,11.4876254 94.2236328,12.4472656 C93.6435518,13.4069058 93.3535156,14.2304653 93.3535156,14.9179688 C93.3535156,16.5507894 94.4277236,17.3671875 96.5761719,17.3671875 C97.636073,17.3671875 98.7675721,17.0950548 99.9707031,16.5507812 C101.173834,16.0065077 102.380528,15.1686254 103.59082,14.0371094 C104.801113,12.9055933 105.893224,11.5091229 106.867188,9.84765625 Z M106.265625,18.3769531 C107.397141,18.2050773 108.149087,17.9186218 108.521484,17.5175781 C108.893882,17.1165345 109.080078,16.7871107 109.080078,16.5292969 C109.080078,15.9993463 108.82943,15.734375 108.328125,15.734375 C107.912758,15.734375 107.543947,15.9599587 107.22168,16.4111328 C106.899412,16.8623069 106.580731,17.5175738 106.265625,18.3769531 Z M96.4472656,21.234375 L96.2324219,21.0625 C97.7506586,19.859369 99.8919133,19.100262 102.65625,18.7851562 C104.747406,15.7200368 106.41959,13.4498772 107.672852,11.9746094 C108.926113,10.4993416 110.46223,9.18880781 112.28125,8.04296875 L112.496094,8.171875 C110.290354,10.0625095 108.764978,11.5592393 107.919922,12.6621094 C107.074866,13.7649795 105.85743,15.7630064 104.267578,18.65625 L105.599609,18.4628906 C106.029299,17.4746044 106.462563,16.7226588 106.899414,16.2070312 C107.336265,15.6914037 107.82682,15.4335938 108.371094,15.4335938 C109.044274,15.4335938 109.380859,15.7988245 109.380859,16.5292969 C109.380859,17.1308624 109.069339,17.6106753 108.446289,17.96875 C107.823239,18.3268247 107.060551,18.5846346 106.158203,18.7421875 C106.014973,19.6015668 105.900391,20.5540312 105.814453,21.5996094 L104.546875,22.0722656 C104.933596,20.4537679 105.241535,19.3723986 105.470703,18.828125 L104.095703,19 C102.076162,22.8672068 99.6233868,25.7246001 96.7373047,27.5722656 C93.8512225,29.4199311 90.6751475,30.34375 87.2089844,30.34375 C85.9485614,30.34375 84.9352252,30.1324891 84.1689453,29.7099609 C83.4026654,29.2874328 83.0195312,28.6393273 83.0195312,27.765625 C83.0195312,27.2929664 83.1591783,26.8811867 83.4384766,26.5302734 C83.7177748,26.1793602 84.0794249,26.0039062 84.5234375,26.0039062 C84.8671892,26.0039062 85.1285798,26.0898429 85.3076172,26.2617188 C85.4866545,26.4335946 85.5761719,26.6699204 85.5761719,26.9707031 C85.5761719,27.5292997 85.2395867,27.8085938 84.5664062,27.8085938 C84.1367166,27.8085938 83.8574225,27.5006541 83.7285156,26.8847656 C83.4707018,27.1998714 83.3417969,27.4934882 83.3417969,27.765625 C83.3417969,28.4101595 83.714189,28.9508442 84.4589844,29.3876953 C85.2037798,29.8245465 86.1777284,30.0429688 87.3808594,30.0429688 C88.8418042,30.0429688 90.2633394,29.7959009 91.6455078,29.3017578 C93.0276762,28.8076147 94.3346293,28.0950567 95.5664062,27.1640625 C96.7981832,26.2330683 97.9762314,25.1051499 99.1005859,23.7802734 C100.224941,22.455397 101.331375,20.9049568 102.419922,19.1289062 C99.856107,19.486981 97.8652415,20.1887969 96.4472656,21.234375 Z M111.314453,21.7285156 C110.455074,21.7285156 109.499029,22.1510374 108.446289,22.9960938 C107.393549,23.8411501 106.476892,24.8007759 105.696289,25.875 C104.915686,26.9492241 104.525391,27.7083311 104.525391,28.1523438 C104.525391,28.3671886 104.597004,28.5462232 104.740234,28.6894531 C104.883464,28.832683 105.062499,28.9042969 105.277344,28.9042969 C105.864586,28.9042969 106.70963,28.4960978 107.8125,27.6796875 C108.91537,26.8632772 109.910803,25.9394583 110.798828,24.9082031 C111.686853,23.876948 112.130859,23.0677113 112.130859,22.4804688 C112.130859,21.9791642 111.858727,21.7285156 111.314453,21.7285156 Z M116.986328,24.3710938 L115.890625,25.2949219 C114.171866,26.7272207 112.90072,27.7369762 112.077148,28.3242188 C111.253577,28.9114613 110.526696,29.2050781 109.896484,29.2050781 C109.481118,29.2050781 109.273438,28.9687524 109.273438,28.4960938 C109.273438,27.9947892 109.466795,27.2929733 109.853516,26.390625 C107.805328,28.2669365 106.294276,29.2050781 105.320312,29.2050781 C104.890623,29.2050781 104.539715,29.0367855 104.267578,28.7001953 C103.995441,28.3636051 103.859375,27.8730501 103.859375,27.2285156 C103.859375,26.4980432 104.074217,25.7783239 104.503906,25.0693359 C104.933596,24.360348 105.510088,23.7337267 106.233398,23.1894531 C106.956709,22.6451796 107.765946,22.2154964 108.661133,21.9003906 C109.55632,21.5852849 110.426428,21.4277344 111.271484,21.4277344 C111.686851,21.4277344 111.99121,21.5029289 112.18457,21.6533203 C112.377931,21.8037117 112.481771,22.0507795 112.496094,22.3945312 C112.481771,22.4661462 112.471029,22.5341794 112.463867,22.5986328 C112.456706,22.6630863 112.442383,22.7526036 112.420898,22.8671875 C112.399414,22.9817714 112.38151,23.0748694 112.367188,23.1464844 L113.720703,21.5566406 L115.525391,21.4277344 L114.966797,22.1152344 C114.508461,22.6595079 114.136069,23.1070946 113.849609,23.4580078 C113.56315,23.808921 113.319662,24.0989572 113.119141,24.328125 C110.884754,26.74871 109.767578,28.1666646 109.767578,28.5820312 C109.767578,28.7968761 109.867838,28.9042969 110.068359,28.9042969 C110.340496,28.9042969 110.748695,28.7431657 111.292969,28.4208984 C111.837242,28.0986312 112.449541,27.6725287 113.129883,27.1425781 C113.810225,26.6126276 114.587235,25.9860062 115.460938,25.2626953 C116.33464,24.5393844 116.843098,24.1204433 116.986328,24.0058594 L116.986328,24.3710938 Z M116.449219,24.4570312 L120.939453,20.5898438 C121.283205,20.1744771 121.598306,19.7913429 121.884766,19.4404297 C122.171225,19.0895165 122.378906,18.9140625 122.507812,18.9140625 C122.622396,18.9140625 122.726237,18.9462887 122.819336,19.0107422 C122.912435,19.0751956 122.958984,19.1718744 122.958984,19.3007812 C122.958984,19.572918 122.565108,19.9095032 121.777344,20.3105469 C122.235679,20.9980503 122.565103,21.5996068 122.765625,22.1152344 C122.966147,22.630862 123.08789,23.2825481 123.130859,24.0703125 C123.08789,24.5572941 123.030599,24.9654931 122.958984,25.2949219 C123.474612,25.4238288 123.943683,25.4130867 124.366211,25.2626953 C124.788739,25.1123039 125.372392,24.6647173 126.117188,23.9199219 L126.117188,24.2851562 C125.544268,25.0013057 125.014325,25.4453116 124.527344,25.6171875 C124.040362,25.7890634 123.474613,25.781902 122.830078,25.5957031 C122.486326,26.3691445 121.927738,27.0315728 121.154297,27.5830078 C120.380856,28.1344429 119.585942,28.5426419 118.769531,28.8076172 C117.953121,29.0725925 117.251305,29.2050781 116.664062,29.2050781 C116.105466,29.2050781 115.650718,29.0940766 115.299805,28.8720703 C114.948891,28.650064 114.773438,28.3385437 114.773438,27.9375 C114.773438,27.5794253 114.877278,27.2893891 115.084961,27.0673828 C115.292644,26.8453765 115.597003,26.734375 115.998047,26.734375 C116.255861,26.734375 116.467122,26.8024082 116.631836,26.9384766 C116.79655,27.074545 116.878906,27.2571603 116.878906,27.4863281 C116.878906,27.672527 116.789389,27.8372389 116.610352,27.9804688 C116.431314,28.1236986 116.241537,28.1953125 116.041016,28.1953125 C115.768879,28.1953125 115.56836,27.9733095 115.439453,27.5292969 C115.253254,27.6582038 115.160156,27.8515612 115.160156,28.109375 C115.160156,28.2669279 115.306965,28.4388012 115.600586,28.625 C115.894207,28.8111988 116.234373,28.9042969 116.621094,28.9042969 C117.380212,28.9042969 118.182287,28.5784538 119.027344,27.9267578 C119.8724,27.2750618 120.577797,26.4550831 121.143555,25.4667969 C121.709313,24.4785107 121.992188,23.5260463 121.992188,22.609375 C121.992188,21.9505175 121.784507,21.2773472 121.369141,20.5898438 L116.449219,24.8007812 L116.449219,24.4570312 Z M140.855469,10.234375 L142.617188,10.234375 L128.330078,26.4335938 C129.690762,25.2877547 131.212557,24.1669977 132.895508,23.0712891 C134.578459,21.9755805 135.706377,21.4277344 136.279297,21.4277344 C136.923831,21.4277344 137.246094,21.7786423 137.246094,22.4804688 C137.246094,23.2968791 136.981122,24.0201791 136.451172,24.6503906 C135.921221,25.2806021 135.205083,25.9322883 134.302734,26.6054688 C133.185541,27.4218791 132.626953,28.0377583 132.626953,28.453125 C132.626953,28.7539078 132.805988,28.9042969 133.164062,28.9042969 C133.851566,28.9042969 134.775385,28.4960978 135.935547,27.6796875 C137.095709,26.8632772 138.563793,25.63868 140.339844,24.0058594 L140.339844,24.3710938 L139.716797,24.9296875 C138.284498,26.2474024 136.999029,27.2893842 135.860352,28.0556641 C134.721674,28.8219439 133.82292,29.2050781 133.164062,29.2050781 C132.519528,29.2050781 132.197266,28.8971385 132.197266,28.28125 C132.197266,27.106765 132.827468,25.9752659 134.087891,24.8867188 C135.047531,24.0416624 135.706378,23.4329446 136.064453,23.0605469 C136.422528,22.6881492 136.601562,22.3587254 136.601562,22.0722656 C136.601562,22.0006507 136.562175,21.9254561 136.483398,21.8466797 C136.404622,21.7679033 136.307943,21.7285156 136.193359,21.7285156 C135.634763,21.7285156 134.066419,22.6523345 131.488281,24.5 C129.368479,26.0325597 127.520841,27.6009034 125.945312,29.2050781 L124.097656,29.2050781 L135.505859,16.2285156 L125.601562,24.8007812 L125.601562,24.4570312 L131.746094,19.0429688 C133.479175,17.539055 134.804032,16.3717489 135.720703,15.5410156 C136.637374,14.7102823 137.453772,13.9225298 138.169922,13.1777344 C138.886071,12.432939 139.781245,11.451829 140.855469,10.234375 Z M147.300781,17.0664062 C147.615887,17.0664062 147.773438,17.2597637 147.773438,17.6464844 C147.773438,17.8756522 147.708985,18.0618482 147.580078,18.2050781 C147.451171,18.348308 147.286459,18.4199219 147.085938,18.4199219 C146.699217,18.4199219 146.505859,18.2480486 146.505859,17.9042969 C146.505859,17.703775 146.584635,17.5139983 146.742188,17.3349609 C146.89974,17.1559236 147.085936,17.0664062 147.300781,17.0664062 Z M139.867188,24.7578125 L139.824219,24.4140625 C140.912766,23.4257763 142.187493,22.4876346 143.648438,21.5996094 L145.582031,21.5996094 L140.511719,27.2714844 C140.153644,27.672528 139.92448,28.0449202 139.824219,28.3886719 C139.723958,28.7324236 139.809894,28.9042969 140.082031,28.9042969 C140.798181,28.9042969 141.865227,28.3743543 143.283203,27.3144531 C144.701179,26.254552 146.011713,25.1373757 147.214844,23.9628906 L147.214844,24.328125 C145.825514,25.6601629 144.486335,26.8059848 143.197266,27.765625 C141.908197,28.7252652 140.855473,29.2050781 140.039062,29.2050781 C139.566404,29.2050781 139.330078,28.9544296 139.330078,28.453125 C139.330078,26.9635342 140.490223,25.0586054 142.810547,22.7382812 C142.939454,22.6093744 143.057617,22.4840501 143.165039,22.3623047 C143.272461,22.2405593 143.376302,22.1295578 143.476562,22.0292969 C142.187494,22.8027382 140.984381,23.7122344 139.867188,24.7578125 Z M152.929688,21.7285156 C152.1276,21.7285156 151.207362,22.1832637 150.168945,23.0927734 C149.130529,24.0022832 148.199548,25.0012966 147.375977,26.0898438 C146.552405,27.1783909 146.140625,27.8515612 146.140625,28.109375 C146.140625,28.3385428 146.244465,28.5283196 146.452148,28.6787109 C146.659832,28.8291023 146.921222,28.9042969 147.236328,28.9042969 C147.995447,28.9042969 148.908523,28.5283241 149.975586,27.7763672 C151.042649,27.0244103 151.984371,26.1363983 152.800781,25.1123047 C153.617192,24.088211 154.025391,23.282555 154.025391,22.6953125 C154.025391,22.4088527 153.921551,22.1761077 153.713867,21.9970703 C153.506184,21.818033 153.244793,21.7285156 152.929688,21.7285156 Z M156.345703,23.9199219 L156.345703,24.2851562 C155.543616,25.2447965 154.648442,25.7246094 153.660156,25.7246094 L153.359375,25.6816406 C153.259114,25.6673176 153.144532,25.6529949 153.015625,25.6386719 C150.723947,28.0162879 148.740243,29.2050781 147.064453,29.2050781 C146.749347,29.2050781 146.459311,29.1227222 146.194336,28.9580078 C145.929361,28.7932934 145.728842,28.5748712 145.592773,28.3027344 C145.456705,28.0305976 145.388672,27.7154966 145.388672,27.3574219 C145.388672,26.3977817 145.811194,25.45964 146.65625,24.5429688 C147.501306,23.6262975 148.521804,22.8779326 149.717773,22.2978516 C150.913743,21.7177705 151.962886,21.4277344 152.865234,21.4277344 C153.839198,21.4277344 154.326172,21.8789017 154.326172,22.78125 C154.326172,23.5117224 153.975264,24.3639274 153.273438,25.3378906 C153.416667,25.3951826 153.574218,25.4238281 153.746094,25.4238281 C154.648442,25.4238281 155.51497,24.9225311 156.345703,23.9199219 Z M155.787109,24.8007812 L155.787109,24.4570312 C157.964204,22.4374899 159.489579,21.4277344 160.363281,21.4277344 C160.850263,21.4277344 161.09375,21.735674 161.09375,22.3515625 C161.09375,22.8385441 160.943361,23.318357 160.642578,23.7910156 C160.341795,24.2636742 159.733078,25.0872337 158.816406,26.2617188 C160.592457,24.786451 162.132155,23.6119835 163.435547,22.7382812 C164.738939,21.864579 165.856115,21.4277344 166.787109,21.4277344 C167.274091,21.4277344 167.517578,21.7643196 167.517578,22.4375 C167.517578,23.0963575 167.288414,23.7516243 166.830078,24.4033203 C166.371742,25.0550163 165.619797,25.7604129 164.574219,26.5195312 C163.457026,27.3645876 162.898438,27.966144 162.898438,28.3242188 C162.898438,28.4674486 162.966471,28.5999343 163.102539,28.7216797 C163.238607,28.8434251 163.378254,28.9042969 163.521484,28.9042969 C164.022789,28.9042969 164.685217,28.6285835 165.508789,28.0771484 C166.332361,27.5257134 167.231115,26.8238975 168.205078,25.9716797 C169.179041,25.1194619 169.966794,24.4355495 170.568359,23.9199219 L170.568359,24.2851562 C169.694657,25.1015666 168.842452,25.8642543 168.011719,26.5732422 C167.180985,27.2822301 166.353845,27.8981094 165.530273,28.4208984 C164.706702,28.9436875 164.022789,29.2050781 163.478516,29.2050781 C163.134764,29.2050781 162.887696,29.0904959 162.737305,28.8613281 C162.586913,28.6321603 162.511719,28.3958346 162.511719,28.1523438 C162.511719,27.6080702 162.72656,26.9957716 163.15625,26.3154297 C163.58594,25.6350877 164.180335,24.9726595 164.939453,24.328125 C165.813155,23.5546836 166.418293,22.9352237 166.754883,22.4697266 C167.091473,22.0042294 166.994794,21.7714844 166.464844,21.7714844 C165.791663,21.7714844 164.774746,22.2262324 163.414062,23.1357422 C162.053379,24.0452519 160.778652,25.0048778 159.589844,26.0146484 C158.401036,27.0244191 157.276698,28.0162712 156.216797,28.9902344 L154.541016,28.9902344 L157.398438,25.7675781 C159.489594,23.432931 160.535156,22.1582042 160.535156,21.9433594 C160.535156,21.8001295 160.44922,21.7285156 160.277344,21.7285156 C159.647132,21.7285156 158.150402,22.7525939 155.787109,24.8007812 Z M186.166016,23.9199219 L186.166016,24.2851562 C182.771467,27.5651206 179.94272,29.2050781 177.679688,29.2050781 C177.078122,29.2050781 176.641277,29.0511083 176.369141,28.7431641 C176.097004,28.4352198 175.960938,27.8873737 175.960938,27.0996094 C175.960938,26.4121059 176.17936,25.7174514 176.616211,25.015625 C177.053062,24.3137986 177.629554,23.6943386 178.345703,23.1572266 C179.061853,22.6201145 179.849605,22.1975927 180.708984,21.8896484 C181.568364,21.5817042 182.406246,21.4277344 183.222656,21.4277344 C183.595054,21.4277344 183.899413,21.5208324 184.135742,21.7070312 C184.372071,21.8932301 184.490234,22.15104 184.490234,22.4804688 C184.490234,22.8528664 184.343426,23.1858709 184.049805,23.4794922 C183.756183,23.7731134 183.43034,23.9199219 183.072266,23.9199219 C182.642576,23.9199219 182.427734,23.7337258 182.427734,23.3613281 C182.427734,22.8027316 182.678383,22.5234375 183.179688,22.5234375 C183.466147,22.5234375 183.638021,22.6523425 183.695312,22.9101562 C183.752604,22.9960942 183.809896,23.0390625 183.867188,23.0390625 C183.938802,23.0390625 184.010416,22.9817714 184.082031,22.8671875 C184.153646,22.7526036 184.189453,22.6236986 184.189453,22.4804688 C184.189453,22.2513009 184.110678,22.0686856 183.953125,21.9326172 C183.795572,21.7965488 183.580731,21.7285156 183.308594,21.7285156 C182.549475,21.7285156 181.629237,22.1367147 180.547852,22.953125 C179.466466,23.7695353 178.531905,24.7005156 177.744141,25.7460938 C176.956376,26.7916719 176.5625,27.60807 176.5625,28.1953125 C176.5625,28.6679711 176.913408,28.9042969 177.615234,28.9042969 C178.918626,28.9042969 180.186192,28.5032592 181.417969,27.7011719 C182.649746,26.8990845 184.232412,25.6386805 186.166016,23.9199219 Z M191.902344,21.7285156 C191.100256,21.7285156 190.180018,22.1832637 189.141602,23.0927734 C188.103185,24.0022832 187.172205,25.0012966 186.348633,26.0898438 C185.525061,27.1783909 185.113281,27.8515612 185.113281,28.109375 C185.113281,28.3385428 185.217121,28.5283196 185.424805,28.6787109 C185.632488,28.8291023 185.893879,28.9042969 186.208984,28.9042969 C186.968103,28.9042969 187.88118,28.5283241 188.948242,27.7763672 C190.015305,27.0244103 190.957027,26.1363983 191.773438,25.1123047 C192.589848,24.088211 192.998047,23.282555 192.998047,22.6953125 C192.998047,22.4088527 192.894207,22.1761077 192.686523,21.9970703 C192.47884,21.818033 192.217449,21.7285156 191.902344,21.7285156 Z M195.318359,23.9199219 L195.318359,24.2851562 C194.516272,25.2447965 193.621099,25.7246094 192.632812,25.7246094 L192.332031,25.6816406 C192.23177,25.6673176 192.117188,25.6529949 191.988281,25.6386719 C189.696603,28.0162879 187.712899,29.2050781 186.037109,29.2050781 C185.722004,29.2050781 185.431967,29.1227222 185.166992,28.9580078 C184.902017,28.7932934 184.701498,28.5748712 184.56543,28.3027344 C184.429361,28.0305976 184.361328,27.7154966 184.361328,27.3574219 C184.361328,26.3977817 184.78385,25.45964 185.628906,24.5429688 C186.473963,23.6262975 187.49446,22.8779326 188.69043,22.2978516 C189.886399,21.7177705 190.935542,21.4277344 191.837891,21.4277344 C192.811854,21.4277344 193.298828,21.8789017 193.298828,22.78125 C193.298828,23.5117224 192.94792,24.3639274 192.246094,25.3378906 C192.389324,25.3951826 192.546874,25.4238281 192.71875,25.4238281 C193.621098,25.4238281 194.487626,24.9225311 195.318359,23.9199219 Z M194.759766,24.8007812 L194.759766,24.4570312 C196.93686,22.4374899 198.462235,21.4277344 199.335938,21.4277344 C199.822919,21.4277344 200.066406,21.735674 200.066406,22.3515625 C200.066406,22.8385441 199.916017,23.318357 199.615234,23.7910156 C199.314452,24.2636742 198.705734,25.0872337 197.789062,26.2617188 C199.565113,24.786451 201.104811,23.6119835 202.408203,22.7382812 C203.711595,21.864579 204.828771,21.4277344 205.759766,21.4277344 C206.246747,21.4277344 206.490234,21.7643196 206.490234,22.4375 C206.490234,23.0963575 206.26107,23.7516243 205.802734,24.4033203 C205.344399,25.0550163 204.592453,25.7604129 203.546875,26.5195312 C202.429682,27.3645876 201.871094,27.966144 201.871094,28.3242188 C201.871094,28.4674486 201.939127,28.5999343 202.075195,28.7216797 C202.211264,28.8434251 202.350911,28.9042969 202.494141,28.9042969 C202.995445,28.9042969 203.657873,28.6285835 204.481445,28.0771484 C205.305017,27.5257134 206.203771,26.8238975 207.177734,25.9716797 C208.151698,25.1194619 208.93945,24.4355495 209.541016,23.9199219 L209.541016,24.2851562 C208.667313,25.1015666 207.815108,25.8642543 206.984375,26.5732422 C206.153642,27.2822301 205.326502,27.8981094 204.50293,28.4208984 C203.679358,28.9436875 202.995445,29.2050781 202.451172,29.2050781 C202.10742,29.2050781 201.860352,29.0904959 201.709961,28.8613281 C201.55957,28.6321603 201.484375,28.3958346 201.484375,28.1523438 C201.484375,27.6080702 201.699217,26.9957716 202.128906,26.3154297 C202.558596,25.6350877 203.152991,24.9726595 203.912109,24.328125 C204.785812,23.5546836 205.390949,22.9352237 205.727539,22.4697266 C206.064129,22.0042294 205.967451,21.7714844 205.4375,21.7714844 C204.76432,21.7714844 203.747403,22.2262324 202.386719,23.1357422 C201.026035,24.0452519 199.751308,25.0048778 198.5625,26.0146484 C197.373692,27.0244191 196.249354,28.0162712 195.189453,28.9902344 L193.513672,28.9902344 L196.371094,25.7675781 C198.46225,23.432931 199.507812,22.1582042 199.507812,21.9433594 C199.507812,21.8001295 199.421876,21.7285156 199.25,21.7285156 C198.619789,21.7285156 197.123059,22.7525939 194.759766,24.8007812 Z M209.025391,24.6289062 L209.025391,24.2421875 C209.054037,24.2135415 209.27962,24.0595717 209.702148,23.7802734 C210.124677,23.5009752 210.35026,23.3470054 210.378906,23.3183594 C210.393229,22.8743467 210.518554,22.462567 210.754883,22.0830078 C210.991212,21.7034486 211.231119,21.5136719 211.474609,21.5136719 C211.86133,21.5136719 211.997396,21.792966 211.882812,22.3515625 C213.78777,21.3919223 214.840494,20.8619797 215.041016,20.7617188 L220.197266,14.7675781 C223.949889,10.3704207 226.707022,8.171875 228.46875,8.171875 C228.798179,8.171875 229.077473,8.27213441 229.306641,8.47265625 C229.535808,8.67317809 229.650391,8.93814939 229.650391,9.26757812 C229.650391,10.1412804 229.08106,11.208327 227.942383,12.46875 C226.803705,13.729173 225.221039,15.0683523 223.194336,16.4863281 C221.167633,17.904304 218.936861,19.2148377 216.501953,20.4179688 L211.882812,25.9609375 C212.441409,26.2473973 212.957029,26.390625 213.429688,26.390625 C214.460943,26.390625 215.284502,26.2008483 215.900391,25.8212891 C216.516279,25.4417299 217.304032,24.8079471 218.263672,23.9199219 L218.263672,24.2851562 C217.347001,25.2018275 216.559248,25.8248681 215.900391,26.1542969 C215.241533,26.4837256 214.432296,26.6484375 213.472656,26.6484375 C212.842445,26.6484375 212.240888,26.5052098 211.667969,26.21875 L201.3125,38.6152344 L199.59375,38.6152344 L203.568359,34.0390625 C204.255863,33.2369752 205.0651,32.2128969 205.996094,30.9667969 C206.927088,29.7206969 207.732744,28.5927785 208.413086,27.5830078 C209.093428,26.5732371 209.734372,25.5455781 210.335938,24.5 L210.292969,23.7910156 C210.078124,23.9199225 209.866863,24.0524082 209.65918,24.1884766 C209.451496,24.324545 209.240235,24.4713534 209.025391,24.6289062 Z M214.439453,21.3847656 C213.823565,21.6712254 212.957037,22.1223928 211.839844,22.7382812 C211.825521,22.8671881 211.775391,23.0104159 211.689453,23.1679688 C211.603515,23.3255216 211.513998,23.4687494 211.420898,23.5976562 C211.327799,23.7265631 211.216798,23.8841137 211.087891,24.0703125 C210.858723,24.3424493 210.744141,24.5429681 210.744141,24.671875 C210.78711,24.8723968 210.916015,25.0800771 211.130859,25.2949219 C211.274089,25.0944 211.825516,24.4427138 212.785156,23.3398438 C213.744796,22.2369737 214.296223,21.5852875 214.439453,21.3847656 Z M219.101562,17.28125 L217.017578,19.7949219 C218.636076,18.9785115 220.172193,18.1012417 221.625977,17.1630859 C223.07976,16.2249302 224.393874,15.2617237 225.568359,14.2734375 C226.742844,13.2851513 227.666663,12.3577517 228.339844,11.4912109 C229.013024,10.6246701 229.349609,9.89778939 229.349609,9.31054688 C229.349609,9.05273309 229.270834,8.85221426 229.113281,8.70898438 C228.955728,8.56575449 228.740887,8.49414062 228.46875,8.49414062 C227.523433,8.49414062 226.295255,9.26757039 224.78418,10.8144531 C223.273104,12.3613359 221.378918,14.5169133 219.101562,17.28125 Z M210.873047,25.5957031 L210.464844,24.8867188 C210.421875,24.9583337 210.167646,25.35221 209.702148,26.0683594 C209.236651,26.7845088 208.849936,27.3824846 208.541992,27.8623047 C208.234048,28.3421248 207.893882,28.8756481 207.521484,29.4628906 L210.873047,25.5957031 Z M225.224609,17.0664062 C225.539715,17.0664062 225.697266,17.2597637 225.697266,17.6464844 C225.697266,17.8756522 225.632813,18.0618482 225.503906,18.2050781 C225.374999,18.348308 225.210287,18.4199219 225.009766,18.4199219 C224.623045,18.4199219 224.429688,18.2480486 224.429688,17.9042969 C224.429688,17.703775 224.508463,17.5139983 224.666016,17.3349609 C224.823568,17.1559236 225.009765,17.0664062 225.224609,17.0664062 Z M217.791016,24.7578125 L217.748047,24.4140625 C218.836594,23.4257763 220.111321,22.4876346 221.572266,21.5996094 L223.505859,21.5996094 L218.435547,27.2714844 C218.077472,27.672528 217.848308,28.0449202 217.748047,28.3886719 C217.647786,28.7324236 217.733723,28.9042969 218.005859,28.9042969 C218.722009,28.9042969 219.789055,28.3743543 221.207031,27.3144531 C222.625007,26.254552 223.935541,25.1373757 225.138672,23.9628906 L225.138672,24.328125 C223.749342,25.6601629 222.410163,26.8059848 221.121094,27.765625 C219.832025,28.7252652 218.779301,29.2050781 217.962891,29.2050781 C217.490232,29.2050781 217.253906,28.9544296 217.253906,28.453125 C217.253906,26.9635342 218.414051,25.0586054 220.734375,22.7382812 C220.863282,22.6093744 220.981445,22.4840501 221.088867,22.3623047 C221.19629,22.2405593 221.30013,22.1295578 221.400391,22.0292969 C220.111322,22.8027382 218.908209,23.7122344 217.791016,24.7578125 Z M231.777344,22.5664062 C231.777344,22.3372384 231.680665,22.1546231 231.487305,22.0185547 C231.293944,21.8824863 231.061199,21.8144531 230.789062,21.8144531 C229.986975,21.8144531 229.059576,22.2226522 228.006836,23.0390625 C226.954096,23.8554728 226.041019,24.7936145 225.267578,25.8535156 C224.494137,26.9134168 224.107422,27.6940079 224.107422,28.1953125 C224.107422,28.3671884 224.196939,28.5211582 224.375977,28.6572266 C224.555014,28.793295 224.744791,28.8613281 224.945312,28.8613281 C225.518232,28.8613281 226.356114,28.4531291 227.458984,27.6367188 C228.561854,26.8203084 229.557287,25.9000702 230.445312,24.8759766 C231.333338,23.8518829 231.777344,23.0820338 231.777344,22.5664062 Z M224.365234,32.234375 C221.701159,33.3802141 219.738939,34.2861295 218.478516,34.9521484 C217.218093,35.6181674 216.165369,36.4023392 215.320312,37.3046875 C214.604163,38.1067748 214.246094,38.794268 214.246094,39.3671875 C214.246094,39.6679703 214.353515,39.904296 214.568359,40.0761719 C214.783204,40.2480477 215.062498,40.3339844 215.40625,40.3339844 C216.093753,40.3339844 216.863603,40.0403675 217.71582,39.453125 C218.568038,38.8658825 219.588536,37.9277408 220.777344,36.6386719 C222.553394,34.5618386 223.749346,33.0937543 224.365234,32.234375 Z M224.773438,31.7617188 L227.974609,27.7226562 C227.731119,27.8658861 227.5306,27.9947911 227.373047,28.109375 C226.341792,28.8112014 225.532555,29.1621094 224.945312,29.1621094 C223.942703,29.1621094 223.441406,28.5032618 223.441406,27.1855469 C223.441406,26.3834595 223.688474,25.6315139 224.182617,24.9296875 C224.67676,24.2278611 225.310543,23.6227239 226.083984,23.1142578 C226.857426,22.6057917 227.659501,22.2119155 228.490234,21.9326172 C229.320968,21.6533189 230.087236,21.5136719 230.789062,21.5136719 C231.648442,21.5136719 232.078125,21.8216115 232.078125,22.4375 C232.078125,22.6093759 232.020834,22.8743472 231.90625,23.2324219 L233.388672,21.5136719 L235.193359,21.5136719 L227.201172,30.6230469 C228.547533,29.9641894 229.940422,29.1084037 231.379883,28.0556641 C232.819343,27.0029244 234.548818,25.6243575 236.568359,23.9199219 L236.568359,24.2851562 C235.17903,25.4882873 233.990239,26.4801393 233.001953,27.2607422 C232.013667,28.041345 230.99675,28.7610644 229.951172,29.4199219 C228.905594,30.0787793 227.824224,30.666013 226.707031,31.1816406 C224.873689,33.186859 223.337571,34.8089131 222.098633,36.0478516 C220.859694,37.28679 219.828455,38.2356738 219.004883,38.8945312 C218.181311,39.5533887 217.490237,40.0117175 216.931641,40.2695312 C216.373044,40.527345 215.850263,40.65625 215.363281,40.65625 C214.933592,40.65625 214.589845,40.5345064 214.332031,40.2910156 C214.074217,40.0475248 213.945312,39.7395852 213.945312,39.3671875 C213.945312,38.765622 214.246091,38.1067744 214.847656,37.390625 C215.449222,36.6744756 216.308588,35.9619176 217.425781,35.2529297 C218.542974,34.5439418 219.846347,33.8815135 221.335938,33.265625 L224.472656,31.9335938 L224.773438,31.7617188 Z M236.03125,24.8007812 L236.03125,24.4570312 C236.976567,23.54036 238.294262,22.5878956 239.984375,21.5996094 L241.789062,21.5996094 L236.998047,27.0566406 C236.19596,27.9733119 235.794922,28.5032545 235.794922,28.6464844 C235.794922,28.7897143 235.916665,28.8613281 236.160156,28.8613281 C236.947921,28.8613281 238.23697,28.1630929 240.027344,26.7666016 C241.817717,25.3701102 243.801421,23.6477967 245.978516,21.5996094 L247.675781,21.5996094 L242.669922,27.3144531 C242.61263,27.3860681 242.494467,27.5221344 242.31543,27.7226562 C242.136392,27.9231781 242.000326,28.1057934 241.907227,28.2705078 C241.814127,28.4352222 241.77474,28.5748692 241.789062,28.6894531 C241.789062,28.832683 241.903645,28.9042969 242.132812,28.9042969 C242.662763,28.9042969 243.658196,28.4280647 245.119141,27.4755859 C246.580085,26.5231072 248.005201,25.3378977 249.394531,23.9199219 L249.394531,24.2851562 C247.976555,25.7031321 246.562182,26.8775995 245.151367,27.8085938 C243.740553,28.739588 242.705732,29.2050781 242.046875,29.2050781 C241.54557,29.2050781 241.294922,28.9544296 241.294922,28.453125 C241.294922,27.9804664 241.513344,27.3860713 241.950195,26.6699219 C242.387046,25.9537725 243.063798,25.037115 243.980469,23.9199219 L244.388672,23.4472656 L243.59375,24.15625 C241.860668,25.7031327 240.367519,26.9313106 239.114258,27.8408203 C237.860996,28.7503301 236.876306,29.2050781 236.160156,29.2050781 C235.630206,29.2050781 235.365234,28.8971385 235.365234,28.28125 C235.365234,27.8802063 235.483397,27.439781 235.719727,26.9599609 C235.956056,26.4801408 236.271157,25.9824245 236.665039,25.4667969 C237.058921,24.9511693 237.477862,24.4462915 237.921875,23.9521484 C238.365888,23.4580053 238.817055,22.9531276 239.275391,22.4375 L238.179688,23.0820312 C237.191401,23.8125037 236.475263,24.3854146 236.03125,24.8007812 Z M248.878906,24.4570312 C249.523441,23.9414037 250.164385,23.4186224 250.801758,22.8886719 C251.439131,22.3587213 252.072914,21.8574242 252.703125,21.3847656 C252.588541,20.940753 252.645832,20.543296 252.875,20.1923828 C253.104168,19.8414696 253.383462,19.6660156 253.712891,19.6660156 C253.899089,19.6660156 254.063801,19.719726 254.207031,19.8271484 C254.350261,19.9345708 254.421875,20.0670565 254.421875,20.2246094 C254.421875,20.4108082 254.361003,20.5611973 254.239258,20.6757812 C254.117512,20.7903652 253.970704,20.8476562 253.798828,20.8476562 C253.626952,20.8476562 253.390627,20.7044285 253.089844,20.4179688 C253.003906,20.5325527 252.960938,20.6901032 252.960938,20.890625 C252.946615,21.0625009 253.014648,21.2236321 253.165039,21.3740234 C253.31543,21.5244148 253.483723,21.5996094 253.669922,21.5996094 C253.798829,21.5996094 253.992186,21.5709638 254.25,21.5136719 C254.53646,21.4563799 254.708333,21.4277344 254.765625,21.4277344 C254.880209,21.4277344 254.976888,21.5351552 255.055664,21.75 C255.13444,21.9648448 255.173828,22.2226547 255.173828,22.5234375 C255.173828,22.7812513 254.998374,23.1214172 254.647461,23.5439453 C254.296548,23.9664735 253.691411,24.6575473 252.832031,25.6171875 C251.972652,26.5768277 251.378257,27.2571595 251.048828,27.6582031 C250.719399,28.0592468 250.554688,28.3671864 250.554688,28.5820312 C250.554688,28.7968761 250.697915,28.9042969 250.984375,28.9042969 C251.385419,28.9042969 252.241204,28.435226 253.551758,27.4970703 C254.862311,26.5589146 256.384106,25.3665437 258.117188,23.9199219 L258.117188,24.2851562 C254.264304,27.5651206 251.829432,29.2050781 250.8125,29.2050781 C250.425779,29.2050781 250.232422,28.9687524 250.232422,28.4960938 C250.232422,27.8229133 250.364908,27.1855499 250.629883,26.5839844 C250.894858,25.9824189 251.349606,25.3164099 251.994141,24.5859375 L254.507812,21.8144531 C254.20703,21.929037 253.866864,21.9791667 253.487305,21.9648438 C253.107745,21.9505208 252.875,21.8431 252.789062,21.6425781 C250.884105,23.2181068 249.580733,24.2708307 248.878906,24.8007812 L248.878906,24.4570312 Z M263.896484,21.7285156 C263.037105,21.7285156 262.08106,22.1510374 261.02832,22.9960938 C259.975581,23.8411501 259.058923,24.8007759 258.27832,25.875 C257.497717,26.9492241 257.107422,27.7083311 257.107422,28.1523438 C257.107422,28.3671886 257.179036,28.5462232 257.322266,28.6894531 C257.465496,28.832683 257.64453,28.9042969 257.859375,28.9042969 C258.446618,28.9042969 259.291661,28.4960978 260.394531,27.6796875 C261.497401,26.8632772 262.492834,25.9394583 263.380859,24.9082031 C264.268885,23.876948 264.712891,23.0677113 264.712891,22.4804688 C264.712891,21.9791642 264.440758,21.7285156 263.896484,21.7285156 Z M269.568359,24.3710938 L268.472656,25.2949219 C266.753898,26.7272207 265.482752,27.7369762 264.65918,28.3242188 C263.835608,28.9114613 263.108727,29.2050781 262.478516,29.2050781 C262.063149,29.2050781 261.855469,28.9687524 261.855469,28.4960938 C261.855469,27.9947892 262.048826,27.2929733 262.435547,26.390625 C260.38736,28.2669365 258.876307,29.2050781 257.902344,29.2050781 C257.472654,29.2050781 257.121746,29.0367855 256.849609,28.7001953 C256.577473,28.3636051 256.441406,27.8730501 256.441406,27.2285156 C256.441406,26.4980432 256.656248,25.7783239 257.085938,25.0693359 C257.515627,24.360348 258.092119,23.7337267 258.81543,23.1894531 C259.538741,22.6451796 260.347977,22.2154964 261.243164,21.9003906 C262.138351,21.5852849 263.008459,21.4277344 263.853516,21.4277344 C264.268882,21.4277344 264.573241,21.5029289 264.766602,21.6533203 C264.959962,21.8037117 265.063802,22.0507795 265.078125,22.3945312 C265.063802,22.4661462 265.05306,22.5341794 265.045898,22.5986328 C265.038737,22.6630863 265.024414,22.7526036 265.00293,22.8671875 C264.981445,22.9817714 264.963542,23.0748694 264.949219,23.1464844 L266.302734,21.5566406 L268.107422,21.4277344 L267.548828,22.1152344 C267.090492,22.6595079 266.7181,23.1070946 266.431641,23.4580078 C266.145181,23.808921 265.901694,24.0989572 265.701172,24.328125 C263.466786,26.74871 262.349609,28.1666646 262.349609,28.5820312 C262.349609,28.7968761 262.449869,28.9042969 262.650391,28.9042969 C262.922527,28.9042969 263.330726,28.7431657 263.875,28.4208984 C264.419274,28.0986312 265.031572,27.6725287 265.711914,27.1425781 C266.392256,26.6126276 267.169266,25.9860062 268.042969,25.2626953 C268.916671,24.5393844 269.425129,24.1204433 269.568359,24.0058594 L269.568359,24.3710938 Z M276.378906,18.4199219 L279.945312,14.3808594 L281.792969,14.3808594 L278.226562,18.4199219 L280.955078,18.4199219 L280.71875,18.7851562 L277.947266,18.7851562 L272.726562,24.7148438 C272.153643,25.3450552 271.51986,26.1041622 270.825195,26.9921875 C270.13053,27.8802128 269.783203,28.3671871 269.783203,28.453125 C269.783203,28.7539078 269.940754,28.9042969 270.255859,28.9042969 C271.430344,28.9042969 273.951153,27.2428552 277.818359,23.9199219 L277.818359,24.2851562 L276.679688,25.2949219 C273.714829,27.9017057 271.559252,29.2050781 270.212891,29.2050781 C269.883462,29.2050781 269.625652,29.1119801 269.439453,28.9257812 C269.253254,28.7395824 269.160156,28.5247408 269.160156,28.28125 C269.160156,27.7083305 269.564775,26.755866 270.374023,25.4238281 C271.183272,24.0917902 272.769519,22.2441524 275.132812,19.8808594 C273.671868,20.8548226 271.638034,22.4947801 269.03125,24.8007812 L269.03125,24.4570312 C269.904952,23.6262979 270.986322,22.6845756 272.275391,21.6318359 C273.56446,20.5790963 274.824864,19.6302126 276.056641,18.7851562 L274.488281,18.7851562 L274.789062,18.4199219 L276.378906,18.4199219 Z M284.779297,17.0664062 C285.094403,17.0664062 285.251953,17.2597637 285.251953,17.6464844 C285.251953,17.8756522 285.187501,18.0618482 285.058594,18.2050781 C284.929687,18.348308 284.764975,18.4199219 284.564453,18.4199219 C284.177732,18.4199219 283.984375,18.2480486 283.984375,17.9042969 C283.984375,17.703775 284.06315,17.5139983 284.220703,17.3349609 C284.378256,17.1559236 284.564452,17.0664062 284.779297,17.0664062 Z M277.345703,24.7578125 L277.302734,24.4140625 C278.391281,23.4257763 279.666008,22.4876346 281.126953,21.5996094 L283.060547,21.5996094 L277.990234,27.2714844 C277.63216,27.672528 277.402995,28.0449202 277.302734,28.3886719 C277.202473,28.7324236 277.28841,28.9042969 277.560547,28.9042969 C278.276696,28.9042969 279.343743,28.3743543 280.761719,27.3144531 C282.179695,26.254552 283.490228,25.1373757 284.693359,23.9628906 L284.693359,24.328125 C283.30403,25.6601629 281.96485,26.8059848 280.675781,27.765625 C279.386712,28.7252652 278.333988,29.2050781 277.517578,29.2050781 C277.04492,29.2050781 276.808594,28.9544296 276.808594,28.453125 C276.808594,26.9635342 277.968738,25.0586054 280.289062,22.7382812 C280.417969,22.6093744 280.536132,22.4840501 280.643555,22.3623047 C280.750977,22.2405593 280.854817,22.1295578 280.955078,22.0292969 C279.666009,22.8027382 278.462896,23.7122344 277.345703,24.7578125 Z M290.408203,21.7285156 C289.606116,21.7285156 288.685878,22.1832637 287.647461,23.0927734 C286.609044,24.0022832 285.678064,25.0012966 284.854492,26.0898438 C284.03092,27.1783909 283.619141,27.8515612 283.619141,28.109375 C283.619141,28.3385428 283.722981,28.5283196 283.930664,28.6787109 C284.138347,28.8291023 284.399738,28.9042969 284.714844,28.9042969 C285.473962,28.9042969 286.387039,28.5283241 287.454102,27.7763672 C288.521164,27.0244103 289.462887,26.1363983 290.279297,25.1123047 C291.095707,24.088211 291.503906,23.282555 291.503906,22.6953125 C291.503906,22.4088527 291.400066,22.1761077 291.192383,21.9970703 C290.984699,21.818033 290.723309,21.7285156 290.408203,21.7285156 Z M293.824219,23.9199219 L293.824219,24.2851562 C293.022131,25.2447965 292.126958,25.7246094 291.138672,25.7246094 L290.837891,25.6816406 C290.73763,25.6673176 290.623048,25.6529949 290.494141,25.6386719 C288.202463,28.0162879 286.218758,29.2050781 284.542969,29.2050781 C284.227863,29.2050781 283.937827,29.1227222 283.672852,28.9580078 C283.407876,28.7932934 283.207357,28.5748712 283.071289,28.3027344 C282.935221,28.0305976 282.867188,27.7154966 282.867188,27.3574219 C282.867188,26.3977817 283.289709,25.45964 284.134766,24.5429688 C284.979822,23.6262975 286.00032,22.8779326 287.196289,22.2978516 C288.392259,21.7177705 289.441402,21.4277344 290.34375,21.4277344 C291.317713,21.4277344 291.804688,21.8789017 291.804688,22.78125 C291.804688,23.5117224 291.45378,24.3639274 290.751953,25.3378906 C290.895183,25.3951826 291.052734,25.4238281 291.224609,25.4238281 C292.126958,25.4238281 292.993485,24.9225311 293.824219,23.9199219 Z M293.265625,24.8007812 L293.265625,24.4570312 C295.442719,22.4374899 296.968095,21.4277344 297.841797,21.4277344 C298.328778,21.4277344 298.572266,21.735674 298.572266,22.3515625 C298.572266,22.8385441 298.421877,23.318357 298.121094,23.7910156 C297.820311,24.2636742 297.211593,25.0872337 296.294922,26.2617188 C298.070972,24.786451 299.610671,23.6119835 300.914062,22.7382812 C302.217454,21.864579 303.334631,21.4277344 304.265625,21.4277344 C304.752607,21.4277344 304.996094,21.7643196 304.996094,22.4375 C304.996094,23.0963575 304.766929,23.7516243 304.308594,24.4033203 C303.850258,25.0550163 303.098313,25.7604129 302.052734,26.5195312 C300.935541,27.3645876 300.376953,27.966144 300.376953,28.3242188 C300.376953,28.4674486 300.444986,28.5999343 300.581055,28.7216797 C300.717123,28.8434251 300.85677,28.9042969 301,28.9042969 C301.501305,28.9042969 302.163733,28.6285835 302.987305,28.0771484 C303.810877,27.5257134 304.709631,26.8238975 305.683594,25.9716797 C306.657557,25.1194619 307.445309,24.4355495 308.046875,23.9199219 L308.046875,24.2851562 C307.173173,25.1015666 306.320968,25.8642543 305.490234,26.5732422 C304.659501,27.2822301 303.832361,27.8981094 303.008789,28.4208984 C302.185217,28.9436875 301.501305,29.2050781 300.957031,29.2050781 C300.61328,29.2050781 300.366212,29.0904959 300.21582,28.8613281 C300.065429,28.6321603 299.990234,28.3958346 299.990234,28.1523438 C299.990234,27.6080702 300.205076,26.9957716 300.634766,26.3154297 C301.064455,25.6350877 301.65885,24.9726595 302.417969,24.328125 C303.291671,23.5546836 303.896808,22.9352237 304.233398,22.4697266 C304.569989,22.0042294 304.47331,21.7714844 303.943359,21.7714844 C303.270179,21.7714844 302.253262,22.2262324 300.892578,23.1357422 C299.531894,24.0452519 298.257167,25.0048778 297.068359,26.0146484 C295.879551,27.0244191 294.755214,28.0162712 293.695312,28.9902344 L292.019531,28.9902344 L294.876953,25.7675781 C296.968109,23.432931 298.013672,22.1582042 298.013672,21.9433594 C298.013672,21.8001295 297.927735,21.7285156 297.755859,21.7285156 C297.125648,21.7285156 295.628918,22.7525939 293.265625,24.8007812 Z" id="Fashion-configuratio" fill="#999999"></path>
            </g>
        </g>
    </g>
</svg>