<?xml version="1.0" encoding="UTF-8"?>
<svg width="312px" height="78px" viewBox="0 0 312 78" version="1.1" xmlns="http://www.w3.org/2000/svg" xmlns:xlink="http://www.w3.org/1999/xlink">
    <!-- Generator: Sketch 50.2 (55047) - http://www.bohemiancoding.com/sketch -->
    <title>10</title>
    <desc>Created with Sketch.</desc>
    <defs>
        <polygon id="path-1" points="0.0005 0.125 25.7795 0.125 25.7795 60.5936 0.0005 60.5936"></polygon>
        <polygon id="path-3" points="0.939982765 0.47805 32.976 0.47805 32.976 62 0.939982765 62"></polygon>
        <polygon id="path-5" points="0 0.632 33.4257557 0.632 33.4257557 32.864 0 32.864"></polygon>
    </defs>
    <g id="Page-1" stroke="none" stroke-width="1" fill="none" fill-rule="evenodd">
        <g id="Artboard-2" transform="translate(-208.000000, -1426.000000)">
            <g id="10" transform="translate(256.000000, 1429.000000)">
                <g transform="translate(182.000000, 11.000000)">
                    <g id="Group-3" transform="translate(0.000000, 0.875000)">
                        <mask id="mask-2" fill="white">
                            <use xlink:href="#path-1"></use>
                        </mask>
                        <g id="Clip-2"></g>
                        <path d="M17.9025,14.8906 C18.5225,11.3746 17.7065,9.6776 15.4615,9.7926 C13.2095,9.9136 10.7375,10.3206 8.0375,11.0236 L8.4095,8.9136 C14.4065,6.8046 20.1955,3.8766 25.7795,0.1246 L16.2335,54.2656 C16.2035,57.0786 19.1195,58.4846 24.9815,58.4846 L24.6095,60.5936 L0.0005,60.5936 L0.3715,58.4846 C6.4635,58.4846 9.9495,57.3146 10.8355,54.9686 L17.9025,14.8906 Z" id="Fill-1" fill="#0B74B9" mask="url(#mask-2)"></path>
                    </g>
                    <g id="Group-6" transform="translate(48.000000, 0.875000)">
                        <mask id="mask-4" fill="white">
                            <use xlink:href="#path-3"></use>
                        </mask>
                        <g id="Clip-5"></g>
                        <path d="M6.9044,51.2773 C7.4664,55.3813 8.4584,57.7263 9.8834,58.3083 C11.3014,58.8963 12.7684,58.8963 14.2784,58.3083 C15.7864,57.7263 17.6064,55.3813 19.7364,51.2773 C21.8654,47.1793 23.7574,40.4393 25.4104,31.0623 C27.0624,21.6913 27.5994,14.6603 27.0204,9.9683 C26.4404,5.2833 24.6834,2.9373 21.7564,2.9373 C18.8224,2.9373 16.2994,5.2833 14.1884,9.9683 C12.0704,14.6603 10.1874,21.6913 8.5354,31.0623 C6.8824,40.4393 6.3364,47.1793 6.9044,51.2773 M31.5384,9.2653 C33.3214,14.4233 33.4454,21.6913 31.9144,31.0623 C30.3764,40.4393 27.7084,47.9373 23.9044,53.5623 C20.0994,59.1873 15.9124,62.0003 11.3414,62.0003 C6.7714,62.0003 3.6914,59.1873 2.1074,53.5623 C0.5164,47.9373 0.5534,40.4393 2.2074,31.0623 C3.8594,21.6913 6.4264,14.4233 9.9174,9.2653 C13.4024,4.1133 16.3594,1.3003 18.7884,0.8283 C21.2104,0.3613 23.4954,0.3613 25.6434,0.8283 C27.7844,1.3003 29.7504,4.1133 31.5384,9.2653" id="Fill-4" fill="#0B74B9" mask="url(#mask-4)"></path>
                    </g>
                </g>
                <g id="车辆参数" transform="translate(43.000000, 39.000000)">
                    <g id="Group-3" transform="translate(0.000000, 0.368200)">
                        <mask id="mask-6" fill="white">
                            <use xlink:href="#path-5"></use>
                        </mask>
                        <g id="Clip-2"></g>
                        <path d="M13.2657,7.874 L6.8397,7.874 C6.0687,7.874 5.4897,7.942 5.1037,8.078 L4.7677,6.515 C5.2237,6.628 5.7807,6.685 6.4377,6.685 L14.0537,6.685 C15.1157,5.03 16.2657,3.013 17.5007,0.632 C18.9187,1.199 19.8817,1.658 20.3857,2.009 C20.8907,2.361 21.1287,2.616 21.1007,2.774 C21.0687,2.956 20.8387,3.069 20.4117,3.114 C19.9847,3.16 19.6217,3.353 19.3247,3.692 C19.0257,4.032 18.3237,5.03 17.2157,6.685 L28.6057,6.685 L29.8957,5.154 C30.2127,4.77 30.4787,4.576 30.6947,4.576 C30.9097,4.576 31.4287,5.007 32.2517,5.868 C33.0737,6.729 33.4647,7.279 33.4227,7.518 C33.3807,7.755 33.0767,7.874 32.5097,7.874 L16.3937,7.874 C15.1707,9.665 13.2737,12.328 10.7017,15.864 L16.9567,15.864 L17.4727,12.94 C17.6727,11.807 17.8277,10.798 17.9377,9.914 C19.4047,10.209 20.4547,10.492 21.0857,10.765 C21.7187,11.036 22.0197,11.252 21.9927,11.41 C21.9607,11.592 21.5497,11.864 20.7607,12.227 L20.1197,15.864 L24.7087,15.864 L26.1687,14.334 C26.4737,14.017 26.7167,13.858 26.8987,13.858 C27.2157,13.858 27.7937,14.306 28.6337,15.201 C29.4737,16.097 29.8717,16.663 29.8297,16.901 C29.7877,17.14 29.5287,17.258 29.0537,17.258 L19.8727,17.258 L18.9077,22.732 L26.8637,22.732 L28.4617,20.998 C28.7707,20.658 29.0497,20.488 29.2997,20.488 C29.5487,20.488 30.0457,20.947 30.7907,21.865 C31.5357,22.783 31.8847,23.373 31.8387,23.633 C31.7927,23.895 31.5097,24.024 30.9887,24.024 L18.6807,24.024 L18.1107,27.254 C17.9267,28.297 17.7897,29.136 17.7017,29.77 L17.5157,31.402 C17.4917,31.538 17.3767,31.674 17.1707,31.811 C16.9657,31.946 16.4477,32.155 15.6157,32.439 C14.7837,32.723 14.2767,32.864 14.0957,32.864 C13.9137,32.864 13.8397,32.773 13.8717,32.592 C13.9037,32.41 14.0297,31.821 14.2507,30.824 C14.4727,29.826 14.7047,28.637 14.9487,27.254 L15.5177,24.024 L2.0547,24.024 C1.2837,24.024 0.7047,24.092 0.3177,24.228 L-0.0003,22.562 C0.4557,22.676 1.0127,22.732 1.6697,22.732 L15.7457,22.732 L16.7107,17.258 L9.8427,17.258 L8.4937,18.55 C8.3557,18.687 8.2197,18.754 8.0837,18.754 C7.9477,18.754 7.7347,18.579 7.4457,18.228 C7.1557,17.876 6.6117,17.077 5.8107,15.83 C7.2867,15.173 8.3647,14.493 9.0437,13.79 C9.7227,13.088 11.1297,11.116 13.2657,7.874" id="Fill-1" fill="#333333" mask="url(#mask-6)"></path>
                    </g>
                    <path d="M55.2286,11.6768 L58.0506,11.6768 C58.4456,9.8188 58.8516,7.7098 59.2676,5.3528 L56.5816,5.3528 C56.0876,7.8918 55.6376,9.9988 55.2286,11.6768 Z M57.8186,12.7988 L54.9626,12.7988 C54.5506,14.3628 54.1236,15.8238 53.6796,17.1848 C54.8796,18.0908 55.5926,18.9298 55.8196,19.6998 C56.5166,17.9328 57.1836,15.6318 57.8186,12.7988 Z M52.6846,12.7988 L50.5426,12.7988 L48.3006,25.5148 C49.3896,23.8368 50.2466,22.0638 50.8706,20.1938 C51.4946,18.3228 52.0996,15.8588 52.6846,12.7988 Z M60.2326,12.7988 C59.6976,14.9298 59.1446,16.7198 58.5716,18.1698 C59.3346,18.8508 59.8826,19.5078 60.2126,20.1428 C60.5426,20.7778 60.6446,21.4508 60.5186,22.1648 C60.3926,22.8798 60.1436,23.4568 59.7706,23.8998 C59.3976,24.3418 59.0476,24.5628 58.7196,24.5628 C58.3906,24.5628 58.1876,24.4898 58.1116,24.3418 C58.0356,24.1948 58.0486,23.8368 58.1476,23.2708 C58.4756,21.4118 58.4556,20.1088 58.0896,19.3608 C56.7986,22.3078 54.5436,25.1978 51.3246,28.0308 L50.8646,27.5548 C52.3726,25.9458 53.6016,24.2448 54.5516,22.4538 C54.4256,22.5228 54.3306,22.5568 54.2616,22.5568 C54.0806,22.5568 53.9766,22.1828 53.9496,21.4348 C53.8466,19.5758 53.6556,18.4768 53.3746,18.1368 C52.2466,21.1968 50.6276,23.8828 48.5206,26.1948 L48.2046,26.0588 L47.4186,30.5128 C47.3276,31.0328 47.2096,31.3798 47.0656,31.5498 C46.9226,31.7198 46.5696,31.9238 46.0066,32.1608 C45.4426,32.3998 44.9796,32.5188 44.6176,32.5188 C44.3906,32.5188 44.3076,32.3488 44.3676,32.0088 L44.7696,30.3088 C45.0146,29.1748 45.1986,28.2568 45.3226,27.5548 L47.7866,13.5798 C47.9866,12.4478 48.1396,11.4498 48.2466,10.5888 C49.3316,10.8608 50.3546,11.2238 51.3186,11.6768 L52.8826,11.6768 C53.0686,10.7468 53.4526,8.6398 54.0316,5.3528 L50.7676,5.3528 C50.1556,5.3528 49.6656,5.4318 49.2976,5.5908 L48.9436,4.1278 C49.3996,4.2418 49.9556,4.2988 50.6136,4.2988 L63.2946,4.2988 L65.1116,2.2918 C65.3096,2.0668 65.4776,1.9518 65.6136,1.9518 C65.8626,1.9518 66.3946,2.4348 67.2116,3.3978 C68.0276,4.3618 68.4206,4.9278 68.3906,5.0978 C68.3606,5.2678 68.1186,5.3528 67.6656,5.3528 L61.8856,5.3528 C61.4296,7.5508 60.9666,9.6588 60.4986,11.6768 L62.4706,11.6768 L63.1366,10.7918 C63.3426,10.5208 63.5306,10.3848 63.7006,10.3848 C63.8706,10.3848 64.2186,10.5668 64.7446,10.9288 L66.0436,11.8468 C66.3896,12.0728 66.5446,12.2878 66.5086,12.4918 C66.4726,12.6968 66.0566,13.0598 65.2626,13.5798 L62.6726,28.2688 C62.4166,29.7188 62.1636,30.6428 61.9126,31.0388 C61.6606,31.4358 61.0826,31.8898 60.1756,32.3998 C59.2706,32.9088 58.6756,33.1638 58.3926,33.1638 C58.1086,33.1638 57.9576,32.9598 57.9386,32.5528 C57.8936,31.7808 57.6966,31.2318 57.3466,30.9038 C56.9966,30.5738 56.0686,30.0478 54.5646,29.3228 L54.7586,28.6088 C56.8626,29.0168 58.1636,29.2208 58.6626,29.2208 C59.1606,29.2208 59.4746,29.1468 59.6026,28.9988 C59.7306,28.8518 59.8296,28.5858 59.8966,28.1998 L62.6126,12.7988 L60.2326,12.7988 Z M40.2556,8.8548 L39.1336,8.8548 C38.3176,8.8548 37.7386,8.9228 37.3976,9.0588 L37.0736,7.4268 C37.5296,7.5398 38.0856,7.5968 38.7436,7.5968 L40.8516,7.5968 C41.7666,5.6238 42.6426,3.4828 43.4806,1.1698 C44.2816,1.5108 45.0046,1.8448 45.6496,2.1738 C46.2946,2.5018 46.6646,2.7178 46.7596,2.8198 C46.8546,2.9218 46.8916,3.0348 46.8706,3.1588 C46.8486,3.2838 46.6246,3.4258 46.2006,3.5838 C45.7756,3.7428 45.3856,4.1858 45.0316,4.9098 L43.6396,7.5968 L46.1896,7.5968 L47.2616,6.3388 C47.5176,6.0438 47.7526,5.8968 47.9686,5.8968 C48.1836,5.8968 48.6426,6.2818 49.3456,7.0528 C50.0476,7.8228 50.3806,8.3168 50.3426,8.5308 C50.3046,8.7468 49.9916,8.8548 49.4016,8.8548 L42.9416,8.8548 C41.8526,10.9168 40.5066,13.3428 38.9046,16.1308 L41.2506,16.1308 L41.5806,14.2608 C41.7526,13.2858 41.8866,12.3338 41.9816,11.4048 C42.9396,11.6308 43.6996,11.8528 44.2626,12.0678 C44.8246,12.2828 45.0946,12.4578 45.0706,12.5948 C45.0426,12.7528 44.7486,13.0018 44.1906,13.3428 L43.6986,16.1308 L44.2086,16.1308 L45.0926,14.9748 C45.2946,14.7258 45.4706,14.6008 45.6176,14.6008 C45.7646,14.6008 46.0566,14.9408 46.4926,15.6198 C46.9276,16.3008 47.1276,16.7378 47.0946,16.9298 C47.0606,17.1218 46.8836,17.2188 46.5666,17.2188 L43.5066,17.2188 L42.6616,22.0128 L45.7796,21.2988 L45.9656,21.9788 L42.3746,23.6448 L41.0006,31.4308 C40.9496,31.7248 40.8786,31.9288 40.7916,32.0418 C40.7036,32.1558 40.2956,32.3768 39.5696,32.7048 C38.8426,33.0338 38.4226,33.1978 38.3096,33.1978 C38.1956,33.1978 38.1596,33.0848 38.1996,32.8588 L38.5736,31.1238 C38.6996,30.5348 38.8766,29.5948 39.1046,28.3028 L39.7216,24.8008 C38.2626,25.3668 37.3226,25.7468 36.9036,25.9398 C36.4836,26.1318 36.1416,26.3078 35.8756,26.4668 C35.6096,26.6248 35.4306,26.7038 35.3406,26.7038 C35.2496,26.7038 35.1786,26.6588 35.1266,26.5688 C35.0746,26.4788 34.9776,26.1258 34.8366,25.5148 C34.6946,24.9028 34.5766,24.2898 34.4796,23.6788 C36.1786,23.4298 37.6876,23.1568 39.0096,22.8628 L40.1056,22.6238 L41.0586,17.2188 L38.9166,17.2188 L38.2586,17.8638 C38.0996,17.9998 37.9736,18.0688 37.8836,18.0688 C37.7926,18.0688 37.4676,17.9208 36.9076,17.6258 C36.3476,17.3318 35.7716,16.9918 35.1836,16.6068 C35.8586,16.2438 36.3326,15.8988 36.6066,15.5698 C36.8796,15.2408 37.3506,14.4708 38.0176,13.2578 C38.6846,12.0448 39.4306,10.5768 40.2556,8.8548 Z" id="Fill-4" fill="#333333"></path>
                    <path d="M85.8492,15.9942 C87.5352,17.3542 88.3512,18.1932 88.2952,18.5112 C88.2712,18.6462 88.1472,18.7032 87.9252,18.6812 L87.5852,18.6812 C86.7462,18.6812 85.6822,19.1282 84.3912,20.0232 C83.0992,20.9192 81.6432,21.7182 80.0242,22.4202 C78.4042,23.1232 76.3812,23.8602 73.9562,24.6312 L73.9522,23.8832 C76.6362,22.5452 78.8372,21.3102 80.5552,20.1772 C82.2742,19.0432 84.0382,17.6492 85.8492,15.9942 M87.8612,20.0072 C88.4952,20.5282 89.0182,20.9982 89.4322,21.4172 C89.8452,21.8372 90.0732,22.0862 90.1162,22.1652 C90.1582,22.2452 90.1702,22.3412 90.1502,22.4542 C90.1302,22.5682 90.0502,22.6642 89.9122,22.7432 C89.7732,22.8232 89.6172,22.8402 89.4442,22.7942 C89.2702,22.7492 89.1272,22.7262 89.0142,22.7262 C88.5832,22.7262 87.6632,23.1232 86.2542,23.9162 C83.5912,25.3902 81.5642,26.4102 80.1722,26.9762 C78.7802,27.5432 76.3992,28.3252 73.0272,29.3222 L73.0292,28.5402 C76.0652,27.3852 78.6902,26.1892 80.9032,24.9532 C83.1162,23.7182 85.4352,22.0692 87.8612,20.0072 M91.0222,23.6792 C91.6782,24.2002 92.2592,24.6932 92.7672,25.1572 C93.2742,25.6222 93.5582,25.9052 93.6202,26.0082 C93.6822,26.1092 93.7042,26.2062 93.6882,26.2972 C93.6522,26.5002 93.4532,26.6022 93.0902,26.6022 C92.9762,26.6022 92.8272,26.5852 92.6402,26.5522 C92.4532,26.5172 92.2692,26.5002 92.0882,26.5002 C91.5672,26.5002 90.7682,26.7842 89.6952,27.3502 C86.1712,29.2092 82.9282,30.5352 79.9662,31.3282 C77.0042,32.1212 73.4452,32.7332 69.2892,33.1642 L69.3852,32.6202 C78.4412,30.6262 85.6532,27.6442 91.0222,23.6792 M92.4282,9.5342 C88.7902,9.8522 86.4182,10.0672 85.3102,10.1812 C86.4042,10.6562 87.0272,10.9512 87.1772,11.0642 C87.3272,11.1782 87.3842,11.3362 87.3482,11.5402 C87.3122,11.7442 87.1422,11.8692 86.8402,11.9142 C86.1182,12.0282 85.5332,12.3222 85.0862,12.7992 L84.5422,13.3762 L94.7432,13.3762 L96.0782,11.7782 C96.4002,11.3702 96.7072,11.1662 97.0022,11.1662 C97.2962,11.1662 97.6512,11.4042 98.0662,11.8812 C98.4802,12.3562 98.8812,12.7872 99.2662,13.1732 C99.6522,13.5572 99.8282,13.8472 99.7942,14.0392 C99.7602,14.2322 99.5382,14.3282 99.1302,14.3282 L89.1352,14.3282 C91.3462,17.3432 95.0982,19.2702 100.3902,20.1082 L100.2822,20.7212 C99.3862,20.7882 98.6262,20.9472 98.0042,21.1962 C97.3832,21.4462 96.7922,21.9332 96.2342,22.6582 C96.0882,22.8402 95.9022,22.9312 95.6762,22.9312 C95.2002,22.9312 94.0352,22.1142 92.1812,20.4822 C90.3262,18.8502 88.9142,16.7992 87.9442,14.3282 L83.6262,14.3282 C81.3212,16.7312 78.9472,18.7212 76.5062,20.2952 C74.0622,21.8712 71.2102,23.2362 67.9462,24.3922 L67.7252,23.7132 C73.1152,21.1742 77.4292,18.0462 80.6682,14.3282 L72.8142,14.3282 C72.2472,14.3282 71.7512,14.3852 71.3232,14.4982 L70.9732,13.2062 C71.4282,13.3202 71.9852,13.3762 72.6422,13.3762 L81.4492,13.3762 C82.1932,12.4922 82.9262,11.4842 83.6482,10.3502 C79.8362,10.7592 77.6132,11.0872 76.9802,11.3362 C76.7602,11.4282 76.5932,11.4732 76.4802,11.4732 C76.3662,11.4732 76.2722,11.3032 76.1962,10.9632 C76.1202,10.6222 76.0012,9.8182 75.8392,8.5492 C79.9012,8.1402 83.7162,5.6582 87.2852,1.1022 C89.5342,2.0992 90.6192,2.8252 90.5392,3.2782 C90.5032,3.4822 90.2792,3.5962 89.8672,3.6182 C89.4542,3.6412 89.0912,3.7092 88.7772,3.8222 C88.4622,3.9362 88.0352,4.1742 87.4952,4.5362 C85.6012,5.7612 83.2772,7.1202 80.5202,8.6162 L92.0502,8.7862 C91.6272,7.9712 90.6992,6.8712 89.2662,5.4882 L89.5592,4.9782 C91.5862,5.9532 93.0362,6.7232 93.9122,7.2902 C94.7862,7.8572 95.3322,8.3612 95.5492,8.8042 C95.7652,9.2452 95.8262,9.7382 95.7302,10.2822 C95.6342,10.8262 95.4252,11.3032 95.1042,11.7102 C94.7832,12.1182 94.4862,12.3222 94.2142,12.3222 C93.9422,12.3222 93.7162,12.1922 93.5352,11.9322 C93.3542,11.6712 92.9852,10.8722 92.4282,9.5342" id="Fill-6" fill="#333333"></path>
                    <path d="M128.8565,10.9961 L125.5585,10.9961 L124.2065,13.0701 C123.7985,16.9241 123.9585,19.9381 124.6865,22.1141 C126.0375,19.8481 127.4275,16.1421 128.8565,10.9961 Z M120.9055,2.8701 C121.4235,3.1421 121.9855,3.4601 122.5895,3.8221 C123.1945,4.1851 123.5385,4.4231 123.6205,4.5361 C123.7025,4.6501 123.7315,4.7691 123.7105,4.8931 C123.6885,5.0181 123.6265,5.1091 123.5265,5.1651 C123.4255,5.2231 123.1825,5.2501 122.7975,5.2501 C122.4125,5.2501 121.9795,5.4541 121.4995,5.8621 C120.0055,7.1321 118.4105,8.2761 116.7115,9.2971 L116.4615,8.7861 C118.4095,6.6101 119.8905,4.6391 120.9055,2.8701 Z M126.1515,9.9421 L130.9125,9.9421 L132.6065,8.2421 C132.8765,7.9931 133.1195,7.8681 133.3345,7.8681 C133.5495,7.8681 134.0595,8.2931 134.8605,9.1431 C135.6635,9.9931 136.0435,10.5321 136.0035,10.7591 C135.9765,10.9171 135.6905,10.9961 135.1465,10.9961 L129.8085,10.9961 C131.8015,11.5181 132.7625,11.9821 132.6905,12.3911 C132.6665,12.5261 132.4755,12.6451 132.1175,12.7471 C131.7595,12.8501 131.4845,13.0251 131.2935,13.2741 C131.1025,13.5241 130.9195,13.8871 130.7445,14.3621 C129.0055,19.2131 127.3625,22.6131 125.8185,24.5621 C127.1915,27.0561 129.5815,29.1181 132.9895,30.7501 L132.5635,31.4311 C132.0015,31.2711 131.4605,31.1921 130.9395,31.1921 C129.9635,31.1921 129.0495,31.4981 128.1935,32.1101 C127.9615,32.2681 127.7995,32.3491 127.7095,32.3491 C127.4825,32.3491 126.8525,31.6171 125.8175,30.1551 C124.7835,28.6931 124.1215,27.5651 123.8305,26.7721 C122.3995,28.2001 120.7875,29.4071 118.9935,30.3931 C117.1985,31.3801 114.9215,32.3711 112.1615,33.3681 L111.9815,32.6541 C116.7695,30.1831 120.4375,27.4401 122.9865,24.4271 C122.4135,22.2731 122.3855,19.0891 122.9025,14.8721 C121.8615,16.2781 120.6095,17.7851 119.1475,19.3941 L118.6285,19.0551 C122.1145,14.0681 124.7385,8.1861 126.5015,1.4081 C127.2655,1.5671 128.0345,1.7711 128.8075,2.0201 C129.5795,2.2701 130.0645,2.4681 130.2665,2.6151 C130.4665,2.7631 130.5525,2.9161 130.5245,3.0741 C130.4975,3.2331 130.2825,3.3581 129.8805,3.4481 C129.4795,3.5391 129.1625,3.7321 128.9285,4.0261 C128.6955,4.3211 128.3635,5.0471 127.9335,6.2021 C127.5025,7.3581 126.9095,8.6051 126.1515,9.9421 Z M111.1095,20.8221 L108.2205,24.2901 C109.8865,24.6081 111.1005,24.8571 111.8625,25.0381 C113.0435,23.8601 114.1655,22.4541 115.2235,20.8221 L111.1095,20.8221 Z M107.7985,3.3471 C109.5195,4.0041 110.6635,4.5541 111.2315,4.9951 C111.7995,5.4371 112.0285,5.9711 111.9185,6.5941 C111.8085,7.2171 111.5645,7.7671 111.1855,8.2421 C110.8075,8.7191 110.4705,8.9561 110.1755,8.9561 C109.8805,8.9561 109.6785,8.8891 109.5655,8.7521 C109.4535,8.6161 109.3685,8.2991 109.3085,7.8011 C109.2495,7.3021 109.0345,6.6561 108.6645,5.8621 C108.2945,5.0691 107.8665,4.3781 107.3815,3.7881 L107.7985,3.3471 Z M115.9435,9.6021 L118.8345,9.6021 L120.1515,8.1061 C120.3505,7.8801 120.5635,7.7671 120.7895,7.7671 C121.0165,7.7671 121.4365,8.1521 122.0475,8.9231 C122.6605,9.6931 122.9495,10.1691 122.9185,10.3501 C122.8855,10.5321 122.6545,10.6221 122.2245,10.6221 L115.7645,10.6221 L115.6565,11.2341 C116.9825,11.5521 118.1135,11.9201 119.0485,12.3401 C119.9825,12.7591 120.3925,13.2971 120.2765,13.9541 C120.1925,14.4311 120.0005,14.9401 119.7005,15.4841 C119.4005,16.0281 119.1315,16.3011 118.8945,16.3011 C118.6555,16.3011 118.4855,16.2381 118.3835,16.1131 C118.2795,15.9891 118.1405,15.7231 117.9625,15.3141 C117.7855,14.9061 117.4475,14.3801 116.9495,13.7331 C116.4515,13.0881 115.9665,12.5601 115.4945,12.1521 C115.2435,13.8301 115.0815,14.8841 115.0045,15.3141 C114.9295,15.7451 114.8565,16.0281 114.7865,16.1641 C114.7175,16.3011 114.3775,16.4651 113.7645,16.6571 C113.1525,16.8501 112.6935,16.9801 112.3875,17.0491 C113.4435,17.4791 113.9445,17.8531 113.8895,18.1701 C113.8565,18.3521 113.7245,18.4591 113.4925,18.4931 C113.2595,18.5271 113.0505,18.6181 112.8665,18.7661 C112.6815,18.9131 112.3995,19.2251 112.0215,19.7001 L115.4555,19.7001 L116.5135,18.7151 C116.7305,18.5111 116.9075,18.4081 117.0435,18.4081 C117.1795,18.4081 117.6455,18.7541 118.4415,19.4451 C119.2375,20.1371 119.6175,20.5841 119.5825,20.7881 C119.5455,20.9921 119.3225,21.1341 118.9115,21.2141 C118.5005,21.2931 118.1815,21.4001 117.9535,21.5361 C117.7255,21.6731 117.4755,21.9341 117.2035,22.3181 C116.2425,23.6561 115.3085,24.7781 114.3995,25.6841 C115.7645,26.0471 116.5585,26.5231 116.7835,27.1121 C117.0075,27.7011 117.0795,28.2341 116.9955,28.7101 C116.9115,29.1861 116.7785,29.5491 116.5995,29.7991 C116.4185,30.0481 116.2445,30.1731 116.0745,30.1731 C115.9045,30.1731 115.4495,29.8891 114.7105,29.3221 C113.9715,28.7561 113.1215,28.1781 112.1605,27.5891 C109.6485,29.4921 106.0005,31.1581 101.2155,32.5861 L101.0515,31.9751 C104.9255,30.1831 107.9745,28.3821 110.1985,26.5681 C108.7735,25.9111 107.0525,25.3221 105.0355,24.8011 C106.5365,23.1001 107.6315,21.7741 108.3215,20.8221 L104.9215,20.8221 C104.3095,20.8221 103.8235,20.8791 103.4635,20.9921 L103.0975,19.5991 C103.4475,19.6661 104.0085,19.7001 104.7795,19.7001 L109.0975,19.7001 C109.9985,18.3181 110.6275,17.2521 110.9865,16.5051 C111.4165,16.6411 111.7155,16.7421 111.8855,16.8101 C112.2895,14.9061 112.6025,13.3201 112.8265,12.0511 C110.7035,14.7021 107.4655,16.9351 103.1115,18.7481 L103.0035,18.2041 C106.3335,16.0281 109.0905,13.5011 111.2765,10.6221 L106.1765,10.6221 C105.7455,10.6221 105.3845,10.6801 105.0925,10.7921 L104.8565,9.4331 C105.2435,9.5461 105.6765,9.6021 106.1515,9.6021 L113.2575,9.6021 L114.0195,5.2841 C114.3625,3.3351 114.5685,2.0431 114.6345,1.4081 C117.0775,1.9521 118.2765,2.3501 118.2325,2.5991 C118.2055,2.7571 117.8055,3.0291 117.0355,3.4141 L115.9435,9.6021 Z" id="Fill-8" fill="#333333"></path>
                </g>
                <path d="M4.14648438,28.3242188 L2.64257812,29.8710938 C4.61915051,29.0403604 6.61001602,27.8086019 8.61523438,26.1757812 C10.6204527,24.5429606 12.4322836,22.8815189 14.0507812,21.1914062 C15.6692789,19.5012936 17.6458217,17.360039 19.9804688,14.7675781 C20.89714,13.736323 21.7923133,12.7695358 22.6660156,11.8671875 C23.5397179,10.9648392 24.5351507,10.0517624 25.6523438,9.12792969 C26.7695368,8.20409694 27.9869726,7.40560232 29.3046875,6.73242188 C30.6224024,6.05924143 31.8828065,5.72265625 33.0859375,5.72265625 C35.0481869,5.72265625 36.0292969,6.41014938 36.0292969,7.78515625 C36.0292969,8.085939 35.9433602,8.33658754 35.7714844,8.53710938 C35.5996085,8.73763121 35.3776055,8.83789062 35.1054688,8.83789062 C34.5755182,8.83789062 34.3105469,8.60156486 34.3105469,8.12890625 C34.3105469,7.8281235 34.4036449,7.62760467 34.5898438,7.52734375 C34.7760426,7.42708283 35.0410139,7.37695312 35.3847656,7.37695312 C35.5279955,7.37695312 35.5996094,7.34830758 35.5996094,7.29101562 C35.5996094,6.99023287 35.370445,6.7037774 34.9121094,6.43164062 C34.4537737,6.15950385 33.8593787,6.0234375 33.1289062,6.0234375 C31.7682224,6.0234375 30.3144609,6.48892764 28.7675781,7.41992188 C27.2206954,8.35091611 25.6881586,9.52538354 24.1699219,10.9433594 C22.6516851,12.3613352 21.3089251,13.7363215 20.1416016,15.0683594 C18.974278,16.4003973 18.168622,17.3170548 17.7246094,17.8183594 C16.8795531,18.7636766 15.8626362,19.8593688 14.6738281,21.1054688 C13.4850201,22.3515687 12.2353581,23.5546817 10.9248047,24.7148438 C9.61425126,25.8750058 8.19987738,26.9599559 6.68164062,27.9697266 C5.16340387,28.9794972 3.59506018,29.7708305 1.9765625,30.34375 L1.84765625,30.1289062 C3.380216,28.6249925 4.63703937,27.2858132 5.61816406,26.1113281 C6.59928876,24.9368431 7.61262498,23.5332113 8.65820312,21.9003906 L9.28125,20.9335938 C10.8567787,18.4700398 12.2532491,16.5221426 13.4707031,15.0898438 L14.1582031,14.2519531 C15.0032594,13.220698 16.514312,11.4589968 18.6914062,8.96679688 C17.8749959,9.53971641 17.1982449,9.95507684 16.6611328,10.2128906 C16.1240208,10.4707044 15.4544311,10.5996094 14.6523438,10.5996094 C13.091138,10.5996094 12.3105469,10.0410212 12.3105469,8.92382812 C12.3105469,8.86653617 12.3427731,8.66601734 12.4072266,8.32226562 C12.47168,7.97851391 12.5039062,7.74218814 12.5039062,7.61328125 C12.5039062,7.11197666 12.2604191,6.72168108 11.7734375,6.44238281 C11.2864559,6.16308454 10.6634153,6.0234375 9.90429688,6.0234375 C8.7727808,6.0234375 7.73796042,6.19173009 6.79980469,6.52832031 C5.86164896,6.86491054 5.05599295,7.31249721 4.3828125,7.87109375 C3.70963205,8.42969029 3.18327013,9.02766608 2.80371094,9.66503906 C2.42415175,10.302412 2.234375,10.921872 2.234375,11.5234375 C2.234375,12.2968789 2.52799186,12.9306616 3.11523438,13.4248047 C3.70247689,13.9189478 4.42577695,14.1660156 5.28515625,14.1660156 C6.35938037,14.1660156 7.43358838,13.8437532 8.5078125,13.1992188 C9.58203662,12.5546843 10.5273397,11.7884159 11.34375,10.9003906 L11.5800781,10.9863281 C10.7350218,12.0891982 9.74316976,12.9449839 8.60449219,13.5537109 C7.46581462,14.1624379 6.37370314,14.4667969 5.328125,14.4667969 C4.3541618,14.4667969 3.5449251,14.1946642 2.90039062,13.6503906 C2.25585615,13.1061171 1.93359375,12.4257853 1.93359375,11.609375 C1.93359375,10.5781198 2.32030863,9.60775194 3.09375,8.69824219 C3.86719137,7.78873243 4.86978551,7.06543237 6.1015625,6.52832031 C7.33333949,5.99120825 8.54361385,5.72265625 9.73242188,5.72265625 C11.2936276,5.72265625 12.2854797,6.06998351 12.7080078,6.76464844 C13.130536,7.45931337 13.3417969,8.29361492 13.3417969,9.26757812 C13.3417969,9.65429881 13.4169914,9.91927012 13.5673828,10.0625 C13.7177742,10.2057299 13.9934876,10.2773438 14.3945312,10.2773438 C15.6119853,10.2773438 16.7112581,9.94791996 17.6923828,9.2890625 C18.6735075,8.63020504 19.6080685,7.80664557 20.4960938,6.81835938 C20.6250006,6.67512949 20.7431635,6.54264384 20.8505859,6.42089844 C20.9580083,6.29915304 21.0654292,6.18099016 21.1728516,6.06640625 C21.280274,5.95182234 21.3841141,5.8658857 21.484375,5.80859375 C21.5846359,5.7513018 21.6848953,5.72265625 21.7851562,5.72265625 C21.9713551,5.72265625 21.9785165,5.82649636 21.8066406,6.03417969 C21.6347648,6.24186302 21.3304058,6.55696403 20.8935547,6.97949219 C20.4567035,7.40202034 20.0162783,7.8567684 19.5722656,8.34375 C19.085284,8.91666953 18.4694048,9.73306762 17.7246094,10.7929688 C16.979814,11.8528699 16.3782575,12.7695274 15.9199219,13.5429688 C14.9889276,15.1614664 14.1331419,16.5364527 13.3525391,17.6679688 C12.5719362,18.7994848 11.7412153,19.9130805 10.8603516,21.0087891 C9.97948778,22.1044977 9.12728276,23.0963497 8.30371094,23.984375 C7.48013911,24.8724003 6.09441078,26.3190004 4.14648438,28.3242188 Z M16.9296875,24.8867188 C18.1184955,24.8867188 19.1210897,24.7363296 19.9375,24.4355469 C20.7539103,24.1347641 21.3733703,23.7766948 21.7958984,23.3613281 C22.2184266,22.9459615 22.4296875,22.6093763 22.4296875,22.3515625 C22.4296875,21.9361958 22.1862004,21.7285156 21.6992188,21.7285156 C21.0546843,21.7285156 20.3027387,22.0113904 19.4433594,22.5771484 C18.5839801,23.1429065 17.7460978,23.9127555 16.9296875,24.8867188 Z M24.5566406,23.9199219 L24.5566406,24.2851562 C22.9524659,25.8893309 21.4843817,27.1103474 20.1523438,27.9482422 C18.8203058,28.786137 17.4739651,29.2050781 16.1132812,29.2050781 C14.9101502,29.2050781 14.3085938,28.517585 14.3085938,27.1425781 C14.3085938,25.9967391 14.7418576,24.9905642 15.6083984,24.1240234 C16.4749392,23.2574826 17.4918561,22.5914737 18.6591797,22.1259766 C19.8265032,21.6604794 20.775387,21.4277344 21.5058594,21.4277344 C21.921226,21.4277344 22.2470691,21.5244131 22.4833984,21.7177734 C22.7197277,21.9111338 22.8378906,22.165363 22.8378906,22.4804688 C22.8378906,22.9674504 22.5729193,23.415037 22.0429688,23.8232422 C21.5130182,24.2314474 20.7753954,24.5680325 19.8300781,24.8330078 C18.8847609,25.0979831 17.774746,25.2519529 16.5,25.2949219 C15.4114529,26.5266989 14.8671875,27.4648405 14.8671875,28.109375 C14.8671875,28.3385428 14.9853504,28.5283196 15.2216797,28.6787109 C15.458009,28.8291023 15.7552065,28.9042969 16.1132812,28.9042969 C18.4192824,28.9042969 21.2337073,27.2428552 24.5566406,23.9199219 Z M39.2949219,10.234375 L41.0566406,10.234375 L26.7695312,26.4335938 C28.1302151,25.2877547 29.6520098,24.1669977 31.3349609,23.0712891 C33.0179121,21.9755805 34.1458305,21.4277344 34.71875,21.4277344 C35.3632845,21.4277344 35.6855469,21.7786423 35.6855469,22.4804688 C35.6855469,23.2968791 35.4205756,24.0201791 34.890625,24.6503906 C34.3606744,25.2806021 33.6445358,25.9322883 32.7421875,26.6054688 C31.6249944,27.4218791 31.0664062,28.0377583 31.0664062,28.453125 C31.0664062,28.7539078 31.2454409,28.9042969 31.6035156,28.9042969 C32.2910191,28.9042969 33.2148379,28.4960978 34.375,27.6796875 C35.5351621,26.8632772 37.0032463,25.63868 38.7792969,24.0058594 L38.7792969,24.3710938 L38.15625,24.9296875 C36.7239512,26.2474024 35.4384823,27.2893842 34.2998047,28.0556641 C33.1611271,28.8219439 32.2623731,29.2050781 31.6035156,29.2050781 C30.9589812,29.2050781 30.6367188,28.8971385 30.6367188,28.28125 C30.6367188,27.106765 31.2669208,25.9752659 32.5273438,24.8867188 C33.486984,24.0416624 34.1458315,23.4329446 34.5039062,23.0605469 C34.861981,22.6881492 35.0410156,22.3587254 35.0410156,22.0722656 C35.0410156,22.0006507 35.001628,21.9254561 34.9228516,21.8466797 C34.8440751,21.7679033 34.7473964,21.7285156 34.6328125,21.7285156 C34.074216,21.7285156 32.5058723,22.6523345 29.9277344,24.5 C27.8079321,26.0325597 25.9602943,27.6009034 24.3847656,29.2050781 L22.5371094,29.2050781 L33.9453125,16.2285156 L24.0410156,24.8007812 L24.0410156,24.4570312 L30.1855469,19.0429688 C31.9186285,17.539055 33.243485,16.3717489 34.1601562,15.5410156 C35.0768275,14.7102823 35.8932256,13.9225298 36.609375,13.1777344 C37.3255244,12.432939 38.2206978,11.451829 39.2949219,10.234375 Z M45.7402344,17.0664062 C46.0553401,17.0664062 46.2128906,17.2597637 46.2128906,17.6464844 C46.2128906,17.8756522 46.1484381,18.0618482 46.0195312,18.2050781 C45.8906244,18.348308 45.7259125,18.4199219 45.5253906,18.4199219 C45.1386699,18.4199219 44.9453125,18.2480486 44.9453125,17.9042969 C44.9453125,17.703775 45.0240878,17.5139983 45.1816406,17.3349609 C45.3391935,17.1559236 45.5253896,17.0664062 45.7402344,17.0664062 Z M38.3066406,24.7578125 L38.2636719,24.4140625 C39.352219,23.4257763 40.6269458,22.4876346 42.0878906,21.5996094 L44.0214844,21.5996094 L38.9511719,27.2714844 C38.5930972,27.672528 38.3639328,28.0449202 38.2636719,28.3886719 C38.163411,28.7324236 38.2493476,28.9042969 38.5214844,28.9042969 C39.2376338,28.9042969 40.3046804,28.3743543 41.7226562,27.3144531 C43.1406321,26.254552 44.4511659,25.1373757 45.6542969,23.9628906 L45.6542969,24.328125 C44.264967,25.6601629 42.9257877,26.8059848 41.6367188,27.765625 C40.3476498,28.7252652 39.294926,29.2050781 38.4785156,29.2050781 C38.005857,29.2050781 37.7695312,28.9544296 37.7695312,28.453125 C37.7695312,26.9635342 38.9296759,25.0586054 41.25,22.7382812 C41.3789069,22.6093744 41.4970698,22.4840501 41.6044922,22.3623047 C41.7119146,22.2405593 41.8157547,22.1295578 41.9160156,22.0292969 C40.6269467,22.8027382 39.4238337,23.7122344 38.3066406,24.7578125 Z M54.3554688,23.9199219 L54.3554688,24.2851562 C50.9609205,27.5651206 48.1321728,29.2050781 45.8691406,29.2050781 C45.2675751,29.2050781 44.8307305,29.0511083 44.5585938,28.7431641 C44.286457,28.4352198 44.1503906,27.8873737 44.1503906,27.0996094 C44.1503906,26.4121059 44.3688129,25.7174514 44.8056641,25.015625 C45.2425152,24.3137986 45.8190068,23.6943386 46.5351562,23.1572266 C47.2513057,22.6201145 48.0390582,22.1975927 48.8984375,21.8896484 C49.7578168,21.5817042 50.595699,21.4277344 51.4121094,21.4277344 C51.7845071,21.4277344 52.088866,21.5208324 52.3251953,21.7070312 C52.5615246,21.8932301 52.6796875,22.15104 52.6796875,22.4804688 C52.6796875,22.8528664 52.5328791,23.1858709 52.2392578,23.4794922 C51.9456366,23.7731134 51.6197935,23.9199219 51.2617188,23.9199219 C50.8320291,23.9199219 50.6171875,23.7337258 50.6171875,23.3613281 C50.6171875,22.8027316 50.867836,22.5234375 51.3691406,22.5234375 C51.6556004,22.5234375 51.8274737,22.6523425 51.8847656,22.9101562 C51.9420576,22.9960942 51.9993487,23.0390625 52.0566406,23.0390625 C52.1282556,23.0390625 52.1998694,22.9817714 52.2714844,22.8671875 C52.3430993,22.7526036 52.3789062,22.6236986 52.3789062,22.4804688 C52.3789062,22.2513009 52.300131,22.0686856 52.1425781,21.9326172 C51.9850253,21.7965488 51.7701837,21.7285156 51.4980469,21.7285156 C50.7389285,21.7285156 49.8186903,22.1367147 48.7373047,22.953125 C47.6559191,23.7695353 46.7213581,24.7005156 45.9335938,25.7460938 C45.1458294,26.7916719 44.7519531,27.60807 44.7519531,28.1953125 C44.7519531,28.6679711 45.1028611,28.9042969 45.8046875,28.9042969 C47.1080794,28.9042969 48.3756449,28.5032592 49.6074219,27.7011719 C50.8391989,26.8990845 52.4218653,25.6386805 54.3554688,23.9199219 Z M67.3320312,11.3945312 L68.40625,10.234375 L70.0605469,10.234375 L56.5253906,25.3808594 C54.9068929,27.1569099 54.0976562,28.195311 54.0976562,28.4960938 C54.0976562,28.7682305 54.240884,28.9042969 54.5273438,28.9042969 C55.0286483,28.9042969 55.6015593,28.693036 56.2460938,28.2705078 C56.8906282,27.8479797 57.7607367,27.1425831 58.8564453,26.1542969 C59.9521539,25.1660107 60.7578099,24.449872 61.2734375,24.0058594 L61.2734375,24.3710938 C59.3255111,26.1614673 57.9003951,27.41471 56.9980469,28.1308594 C56.0956986,28.8470088 55.2721391,29.2050781 54.5273438,29.2050781 C54.26953,29.2050781 54.0511077,29.1083994 53.8720703,28.9150391 C53.693033,28.7216787 53.6035156,28.496095 53.6035156,28.2382812 C53.6035156,27.5078088 53.961585,26.6556038 54.6777344,25.6816406 C55.3938838,24.7076774 56.360671,23.5690169 57.578125,22.265625 C57.6640629,22.1510411 57.9218729,21.8466822 58.3515625,21.3525391 C58.7812521,20.858396 59.1966126,20.367841 59.5976562,19.8808594 C58.6093701,20.6256548 56.7044412,22.2512896 53.8828125,24.7578125 L53.8828125,24.4140625 L59.984375,19.1289062 C60.7291704,18.4986948 63.1783646,15.9205955 67.3320312,11.3945312 Z M62.3046875,24.8867188 C63.4934955,24.8867188 64.4960897,24.7363296 65.3125,24.4355469 C66.1289103,24.1347641 66.7483703,23.7766948 67.1708984,23.3613281 C67.5934266,22.9459615 67.8046875,22.6093763 67.8046875,22.3515625 C67.8046875,21.9361958 67.5612004,21.7285156 67.0742188,21.7285156 C66.4296843,21.7285156 65.6777387,22.0113904 64.8183594,22.5771484 C63.9589801,23.1429065 63.1210978,23.9127555 62.3046875,24.8867188 Z M69.9316406,23.9199219 L69.9316406,24.2851562 C68.3274659,25.8893309 66.8593817,27.1103474 65.5273438,27.9482422 C64.1953058,28.786137 62.8489651,29.2050781 61.4882812,29.2050781 C60.2851502,29.2050781 59.6835938,28.517585 59.6835938,27.1425781 C59.6835938,25.9967391 60.1168576,24.9905642 60.9833984,24.1240234 C61.8499392,23.2574826 62.8668561,22.5914737 64.0341797,22.1259766 C65.2015032,21.6604794 66.150387,21.4277344 66.8808594,21.4277344 C67.296226,21.4277344 67.6220691,21.5244131 67.8583984,21.7177734 C68.0947277,21.9111338 68.2128906,22.165363 68.2128906,22.4804688 C68.2128906,22.9674504 67.9479193,23.415037 67.4179688,23.8232422 C66.8880182,24.2314474 66.1503954,24.5680325 65.2050781,24.8330078 C64.2597609,25.0979831 63.149746,25.2519529 61.875,25.2949219 C60.7864529,26.5266989 60.2421875,27.4648405 60.2421875,28.109375 C60.2421875,28.3385428 60.3603504,28.5283196 60.5966797,28.6787109 C60.833009,28.8291023 61.1302065,28.9042969 61.4882812,28.9042969 C63.7942824,28.9042969 66.6087073,27.2428552 69.9316406,23.9199219 Z M84.9921875,16.5292969 L86.0878906,16.5292969 L78.0527344,26.21875 C79.3274803,25.2018178 80.35872,24.3961618 81.1464844,23.8017578 C81.9342487,23.2073538 82.7649696,22.6630884 83.6386719,22.1689453 C84.5123742,21.6748022 85.2428356,21.4277344 85.8300781,21.4277344 C86.3600287,21.4277344 86.625,21.7929651 86.625,22.5234375 C86.625,23.153649 86.4137391,23.7659475 85.9912109,24.3603516 C85.5686828,24.9547556 84.8704476,25.6315066 83.8964844,26.390625 C82.6360614,27.3645882 82.0058594,28.0377586 82.0058594,28.4101562 C82.0058594,28.739585 82.2135396,28.9042969 82.6289062,28.9042969 C83.3593787,28.9042969 85.7011521,27.2428552 89.6542969,23.9199219 L89.6542969,24.2851562 C88.1933521,25.5312562 86.7789782,26.6627553 85.4111328,27.6796875 C84.0432874,28.6966197 83.1015651,29.2050781 82.5859375,29.2050781 C81.8984341,29.1621092 81.5546875,28.825524 81.5546875,28.1953125 C81.5546875,27.2070263 82.4641836,25.8893312 84.2832031,24.2421875 C85.4576882,23.1822864 86.0449219,22.4876319 86.0449219,22.1582031 C86.0449219,21.8717434 85.9016941,21.7285156 85.6152344,21.7285156 C85.2141907,21.7285156 84.3476629,22.1546181 83.015625,23.0068359 C81.6835871,23.8590537 80.330085,24.8437444 78.9550781,25.9609375 C77.5800713,27.0781306 76.6347682,27.937497 76.1191406,28.5390625 L67.4824219,38.6582031 L65.5917969,38.6582031 L83.6386719,18.2480469 C83.0657523,18.7923204 80.6165581,20.9765434 76.2910156,24.8007812 L76.2910156,24.4570312 C76.9641961,23.8841117 78.4931521,22.5198675 80.8779297,20.3642578 C83.2627072,18.2086481 84.6341128,16.9303405 84.9921875,16.5292969 Z M95.4335938,21.7285156 C94.5742145,21.7285156 93.6181693,22.1510374 92.5654297,22.9960938 C91.51269,23.8411501 90.5960325,24.8007759 89.8154297,25.875 C89.0348268,26.9492241 88.6445312,27.7083311 88.6445312,28.1523438 C88.6445312,28.3671886 88.7161451,28.5462232 88.859375,28.6894531 C89.0026049,28.832683 89.1816396,28.9042969 89.3964844,28.9042969 C89.9837269,28.9042969 90.8287705,28.4960978 91.9316406,27.6796875 C93.0345107,26.8632772 94.0299435,25.9394583 94.9179688,24.9082031 C95.805994,23.876948 96.25,23.0677113 96.25,22.4804688 C96.25,21.9791642 95.9778673,21.7285156 95.4335938,21.7285156 Z M101.105469,24.3710938 L100.009766,25.2949219 C98.291007,26.7272207 97.0198609,27.7369762 96.1962891,28.3242188 C95.3727172,28.9114613 94.6458365,29.2050781 94.015625,29.2050781 C93.6002583,29.2050781 93.3925781,28.9687524 93.3925781,28.4960938 C93.3925781,27.9947892 93.5859356,27.2929733 93.9726562,26.390625 C91.9244689,28.2669365 90.4134163,29.2050781 89.4394531,29.2050781 C89.0097635,29.2050781 88.6588555,29.0367855 88.3867188,28.7001953 C88.114582,28.3636051 87.9785156,27.8730501 87.9785156,27.2285156 C87.9785156,26.4980432 88.1933572,25.7783239 88.6230469,25.0693359 C89.0527365,24.360348 89.6292282,23.7337267 90.3525391,23.1894531 C91.07585,22.6451796 91.8850867,22.2154964 92.7802734,21.9003906 C93.6754602,21.5852849 94.5455687,21.4277344 95.390625,21.4277344 C95.8059917,21.4277344 96.1103506,21.5029289 96.3037109,21.6533203 C96.4970713,21.8037117 96.6009114,22.0507795 96.6152344,22.3945312 C96.6009114,22.4661462 96.5901693,22.5341794 96.5830078,22.5986328 C96.5758463,22.6630863 96.5615235,22.7526036 96.5400391,22.8671875 C96.5185546,22.9817714 96.5006511,23.0748694 96.4863281,23.1464844 L97.8398438,21.5566406 L99.6445312,21.4277344 L99.0859375,22.1152344 C98.6276019,22.6595079 98.2552098,23.1070946 97.96875,23.4580078 C97.6822902,23.808921 97.4388031,24.0989572 97.2382812,24.328125 C95.0038951,26.74871 93.8867188,28.1666646 93.8867188,28.5820312 C93.8867188,28.7968761 93.9869782,28.9042969 94.1875,28.9042969 C94.4596368,28.9042969 94.8678358,28.7431657 95.4121094,28.4208984 C95.9563829,28.0986312 96.5686815,27.6725287 97.2490234,27.1425781 C97.9293654,26.6126276 98.7063758,25.9860062 99.5800781,25.2626953 C100.45378,24.5393844 100.962239,24.1204433 101.105469,24.0058594 L101.105469,24.3710938 Z M100.568359,24.4570312 C101.212894,23.9414037 101.853838,23.4186224 102.491211,22.8886719 C103.128584,22.3587213 103.762367,21.8574242 104.392578,21.3847656 C104.277994,20.940753 104.335285,20.543296 104.564453,20.1923828 C104.793621,19.8414696 105.072915,19.6660156 105.402344,19.6660156 C105.588543,19.6660156 105.753254,19.719726 105.896484,19.8271484 C106.039714,19.9345708 106.111328,20.0670565 106.111328,20.2246094 C106.111328,20.4108082 106.050456,20.5611973 105.928711,20.6757812 C105.806966,20.7903652 105.660157,20.8476562 105.488281,20.8476562 C105.316405,20.8476562 105.08008,20.7044285 104.779297,20.4179688 C104.693359,20.5325527 104.650391,20.6901032 104.650391,20.890625 C104.636068,21.0625009 104.704101,21.2236321 104.854492,21.3740234 C105.004884,21.5244148 105.173176,21.5996094 105.359375,21.5996094 C105.488282,21.5996094 105.681639,21.5709638 105.939453,21.5136719 C106.225913,21.4563799 106.397786,21.4277344 106.455078,21.4277344 C106.569662,21.4277344 106.666341,21.5351552 106.745117,21.75 C106.823894,21.9648448 106.863281,22.2226547 106.863281,22.5234375 C106.863281,22.7812513 106.687827,23.1214172 106.336914,23.5439453 C105.986001,23.9664735 105.380864,24.6575473 104.521484,25.6171875 C103.662105,26.5768277 103.06771,27.2571595 102.738281,27.6582031 C102.408853,28.0592468 102.244141,28.3671864 102.244141,28.5820312 C102.244141,28.7968761 102.387368,28.9042969 102.673828,28.9042969 C103.074872,28.9042969 103.930658,28.435226 105.241211,27.4970703 C106.551764,26.5589146 108.073559,25.3665437 109.806641,23.9199219 L109.806641,24.2851562 C105.953757,27.5651206 103.518885,29.2050781 102.501953,29.2050781 C102.115232,29.2050781 101.921875,28.9687524 101.921875,28.4960938 C101.921875,27.8229133 102.054361,27.1855499 102.319336,26.5839844 C102.584311,25.9824189 103.039059,25.3164099 103.683594,24.5859375 L106.197266,21.8144531 C105.896483,21.929037 105.556317,21.9791667 105.176758,21.9648438 C104.797199,21.9505208 104.564454,21.8431 104.478516,21.6425781 C102.573558,23.2181068 101.270186,24.2708307 100.568359,24.8007812 L100.568359,24.4570312 Z M115.585938,21.7285156 C114.726558,21.7285156 113.770513,22.1510374 112.717773,22.9960938 C111.665034,23.8411501 110.748376,24.8007759 109.967773,25.875 C109.187171,26.9492241 108.796875,27.7083311 108.796875,28.1523438 C108.796875,28.3671886 108.868489,28.5462232 109.011719,28.6894531 C109.154949,28.832683 109.333983,28.9042969 109.548828,28.9042969 C110.136071,28.9042969 110.981114,28.4960978 112.083984,27.6796875 C113.186854,26.8632772 114.182287,25.9394583 115.070312,24.9082031 C115.958338,23.876948 116.402344,23.0677113 116.402344,22.4804688 C116.402344,21.9791642 116.130211,21.7285156 115.585938,21.7285156 Z M121.257812,24.3710938 L120.162109,25.2949219 C118.443351,26.7272207 117.172205,27.7369762 116.348633,28.3242188 C115.525061,28.9114613 114.79818,29.2050781 114.167969,29.2050781 C113.752602,29.2050781 113.544922,28.9687524 113.544922,28.4960938 C113.544922,27.9947892 113.738279,27.2929733 114.125,26.390625 C112.076813,28.2669365 110.56576,29.2050781 109.591797,29.2050781 C109.162107,29.2050781 108.811199,29.0367855 108.539062,28.7001953 C108.266926,28.3636051 108.130859,27.8730501 108.130859,27.2285156 C108.130859,26.4980432 108.345701,25.7783239 108.775391,25.0693359 C109.20508,24.360348 109.781572,23.7337267 110.504883,23.1894531 C111.228194,22.6451796 112.03743,22.2154964 112.932617,21.9003906 C113.827804,21.5852849 114.697912,21.4277344 115.542969,21.4277344 C115.958335,21.4277344 116.262694,21.5029289 116.456055,21.6533203 C116.649415,21.8037117 116.753255,22.0507795 116.767578,22.3945312 C116.753255,22.4661462 116.742513,22.5341794 116.735352,22.5986328 C116.72819,22.6630863 116.713867,22.7526036 116.692383,22.8671875 C116.670898,22.9817714 116.652995,23.0748694 116.638672,23.1464844 L117.992188,21.5566406 L119.796875,21.4277344 L119.238281,22.1152344 C118.779946,22.6595079 118.407554,23.1070946 118.121094,23.4580078 C117.834634,23.808921 117.591147,24.0989572 117.390625,24.328125 C115.156239,26.74871 114.039062,28.1666646 114.039062,28.5820312 C114.039062,28.7968761 114.139322,28.9042969 114.339844,28.9042969 C114.611981,28.9042969 115.02018,28.7431657 115.564453,28.4208984 C116.108727,28.0986312 116.721025,27.6725287 117.401367,27.1425781 C118.081709,26.6126276 118.85872,25.9860062 119.732422,25.2626953 C120.606124,24.5393844 121.114583,24.1204433 121.257812,24.0058594 L121.257812,24.3710938 Z M120.720703,24.8007812 L120.720703,24.4140625 C121.780604,23.4544223 122.668616,22.7167995 123.384766,22.2011719 C124.100915,21.6855443 124.738278,21.4277344 125.296875,21.4277344 C125.755211,21.4277344 125.984375,21.735674 125.984375,22.3515625 C125.984375,22.8671901 125.833986,23.3649065 125.533203,23.8447266 C125.23242,24.3245467 124.723962,25.0156205 124.007812,25.9179688 C126.013031,24.2708251 127.520503,23.1106804 128.530273,22.4375 C129.540044,21.7643196 130.410153,21.4277344 131.140625,21.4277344 C131.670576,21.4277344 131.935547,21.6712215 131.935547,22.1582031 C131.935547,23.1321663 131.219408,24.4713456 129.787109,26.1757812 L130.388672,25.7246094 C131.348312,25.0227829 132.26497,24.3496126 133.138672,23.7050781 C134.012374,23.0605437 134.853837,22.519859 135.663086,22.0830078 C136.472335,21.6461567 137.12044,21.4277344 137.607422,21.4277344 C137.83659,21.4277344 138.019205,21.5172517 138.155273,21.6962891 C138.291342,21.8753264 138.359375,22.136717 138.359375,22.4804688 C138.359375,23.1393262 138.140953,23.7874317 137.704102,24.4248047 C137.26725,25.0621777 136.518886,25.7747356 135.458984,26.5625 C135.029295,26.8776057 134.621096,27.2428365 134.234375,27.6582031 C133.847654,28.0735698 133.654297,28.3528639 133.654297,28.4960938 C133.654297,28.7682305 133.854816,28.9042969 134.255859,28.9042969 C134.886071,28.9042969 135.720372,28.5211627 136.758789,27.7548828 C137.797206,26.9886029 139.340485,25.738941 141.388672,24.0058594 L141.388672,24.3710938 C139.440745,26.0468834 137.947596,27.2714805 136.90918,28.0449219 C135.870763,28.8183632 134.957686,29.2050781 134.169922,29.2050781 C133.611325,29.2050781 133.332031,28.925784 133.332031,28.3671875 C133.332031,27.751299 133.539711,27.1282584 133.955078,26.4980469 C134.370445,25.8678354 135.072261,25.0872442 136.060547,24.15625 C137.206386,23.0820259 137.779297,22.4016941 137.779297,22.1152344 C137.779297,21.8574206 137.664715,21.7285156 137.435547,21.7285156 C137.063149,21.7285156 136.253912,22.1259726 135.007812,22.9208984 C133.761713,23.7158243 132.383146,24.6969343 130.87207,25.8642578 C129.360995,27.0315814 128.118494,28.0735631 127.144531,28.9902344 L125.339844,28.9902344 L128.669922,25.3378906 C128.89909,25.0943998 129.246417,24.7291691 129.711914,24.2421875 C130.177411,23.7552059 130.574868,23.3147806 130.904297,22.9208984 C131.233726,22.5270163 131.398438,22.2584643 131.398438,22.1152344 C131.398438,22.0436194 131.366211,21.9684249 131.301758,21.8896484 C131.237304,21.810872 131.140626,21.7714844 131.011719,21.7714844 C130.209631,21.7714844 129.01368,22.394525 127.423828,23.640625 C125.833976,24.886725 123.964854,26.4765528 121.816406,28.4101562 L121.193359,28.9902344 L119.345703,28.9902344 L123.878906,23.9199219 C124.910161,22.8600207 125.425781,22.2298187 125.425781,22.0292969 C125.425781,21.828775 125.339845,21.7285156 125.167969,21.7285156 C124.924478,21.7285156 124.559247,21.8824854 124.072266,22.1904297 C123.585284,22.4983739 123.055341,22.8815081 122.482422,23.3398438 C121.909502,23.7981794 121.322269,24.2851537 120.720703,24.8007812 Z M142.484375,24.8867188 C143.673183,24.8867188 144.675777,24.7363296 145.492188,24.4355469 C146.308598,24.1347641 146.928058,23.7766948 147.350586,23.3613281 C147.773114,22.9459615 147.984375,22.6093763 147.984375,22.3515625 C147.984375,21.9361958 147.740888,21.7285156 147.253906,21.7285156 C146.609372,21.7285156 145.857426,22.0113904 144.998047,22.5771484 C144.138668,23.1429065 143.300785,23.9127555 142.484375,24.8867188 Z M150.111328,23.9199219 L150.111328,24.2851562 C148.507153,25.8893309 147.039069,27.1103474 145.707031,27.9482422 C144.374993,28.786137 143.028653,29.2050781 141.667969,29.2050781 C140.464838,29.2050781 139.863281,28.517585 139.863281,27.1425781 C139.863281,25.9967391 140.296545,24.9905642 141.163086,24.1240234 C142.029627,23.2574826 143.046544,22.5914737 144.213867,22.1259766 C145.381191,21.6604794 146.330074,21.4277344 147.060547,21.4277344 C147.475914,21.4277344 147.801757,21.5244131 148.038086,21.7177734 C148.274415,21.9111338 148.392578,22.165363 148.392578,22.4804688 C148.392578,22.9674504 148.127607,23.415037 147.597656,23.8232422 C147.067706,24.2314474 146.330083,24.5680325 145.384766,24.8330078 C144.439448,25.0979831 143.329433,25.2519529 142.054688,25.2949219 C140.96614,26.5266989 140.421875,27.4648405 140.421875,28.109375 C140.421875,28.3385428 140.540038,28.5283196 140.776367,28.6787109 C141.012696,28.8291023 141.309894,28.9042969 141.667969,28.9042969 C143.97397,28.9042969 146.788395,27.2428552 150.111328,23.9199219 Z M156.943359,18.4199219 L160.509766,14.3808594 L162.357422,14.3808594 L158.791016,18.4199219 L161.519531,18.4199219 L161.283203,18.7851562 L158.511719,18.7851562 L153.291016,24.7148438 C152.718096,25.3450552 152.084313,26.1041622 151.389648,26.9921875 C150.694984,27.8802128 150.347656,28.3671871 150.347656,28.453125 C150.347656,28.7539078 150.505207,28.9042969 150.820312,28.9042969 C151.994798,28.9042969 154.515606,27.2428552 158.382812,23.9199219 L158.382812,24.2851562 L157.244141,25.2949219 C154.279282,27.9017057 152.123705,29.2050781 150.777344,29.2050781 C150.447915,29.2050781 150.190105,29.1119801 150.003906,28.9257812 C149.817707,28.7395824 149.724609,28.5247408 149.724609,28.28125 C149.724609,27.7083305 150.129228,26.755866 150.938477,25.4238281 C151.747725,24.0917902 153.333973,22.2441524 155.697266,19.8808594 C154.236321,20.8548226 152.202487,22.4947801 149.595703,24.8007812 L149.595703,24.4570312 C150.469405,23.6262979 151.550775,22.6845756 152.839844,21.6318359 C154.128913,20.5790963 155.389317,19.6302126 156.621094,18.7851562 L155.052734,18.7851562 L155.353516,18.4199219 L156.943359,18.4199219 Z M159.478516,24.8867188 C160.667324,24.8867188 161.669918,24.7363296 162.486328,24.4355469 C163.302738,24.1347641 163.922198,23.7766948 164.344727,23.3613281 C164.767255,22.9459615 164.978516,22.6093763 164.978516,22.3515625 C164.978516,21.9361958 164.735028,21.7285156 164.248047,21.7285156 C163.603512,21.7285156 162.851567,22.0113904 161.992188,22.5771484 C161.132808,23.1429065 160.294926,23.9127555 159.478516,24.8867188 Z M167.105469,23.9199219 L167.105469,24.2851562 C165.501294,25.8893309 164.03321,27.1103474 162.701172,27.9482422 C161.369134,28.786137 160.022793,29.2050781 158.662109,29.2050781 C157.458978,29.2050781 156.857422,28.517585 156.857422,27.1425781 C156.857422,25.9967391 157.290686,24.9905642 158.157227,24.1240234 C159.023767,23.2574826 160.040684,22.5914737 161.208008,22.1259766 C162.375331,21.6604794 163.324215,21.4277344 164.054688,21.4277344 C164.470054,21.4277344 164.795897,21.5244131 165.032227,21.7177734 C165.268556,21.9111338 165.386719,22.165363 165.386719,22.4804688 C165.386719,22.9674504 165.121747,23.415037 164.591797,23.8232422 C164.061846,24.2314474 163.324223,24.5680325 162.378906,24.8330078 C161.433589,25.0979831 160.323574,25.2519529 159.048828,25.2949219 C157.960281,26.5266989 157.416016,27.4648405 157.416016,28.109375 C157.416016,28.3385428 157.534179,28.5283196 157.770508,28.6787109 C158.006837,28.8291023 158.304035,28.9042969 158.662109,28.9042969 C160.96811,28.9042969 163.782535,27.2428552 167.105469,23.9199219 Z M166.589844,24.4570312 C167.234378,23.9414037 167.875322,23.4186224 168.512695,22.8886719 C169.150068,22.3587213 169.783851,21.8574242 170.414062,21.3847656 C170.299479,20.940753 170.35677,20.543296 170.585938,20.1923828 C170.815105,19.8414696 171.094399,19.6660156 171.423828,19.6660156 C171.610027,19.6660156 171.774739,19.719726 171.917969,19.8271484 C172.061199,19.9345708 172.132812,20.0670565 172.132812,20.2246094 C172.132812,20.4108082 172.071941,20.5611973 171.950195,20.6757812 C171.82845,20.7903652 171.681641,20.8476562 171.509766,20.8476562 C171.33789,20.8476562 171.101564,20.7044285 170.800781,20.4179688 C170.714843,20.5325527 170.671875,20.6901032 170.671875,20.890625 C170.657552,21.0625009 170.725585,21.2236321 170.875977,21.3740234 C171.026368,21.5244148 171.194661,21.5996094 171.380859,21.5996094 C171.509766,21.5996094 171.703124,21.5709638 171.960938,21.5136719 C172.247397,21.4563799 172.419271,21.4277344 172.476562,21.4277344 C172.591146,21.4277344 172.687825,21.5351552 172.766602,21.75 C172.845378,21.9648448 172.884766,22.2226547 172.884766,22.5234375 C172.884766,22.7812513 172.709312,23.1214172 172.358398,23.5439453 C172.007485,23.9664735 171.402348,24.6575473 170.542969,25.6171875 C169.683589,26.5768277 169.089194,27.2571595 168.759766,27.6582031 C168.430337,28.0592468 168.265625,28.3671864 168.265625,28.5820312 C168.265625,28.7968761 168.408853,28.9042969 168.695312,28.9042969 C169.096356,28.9042969 169.952142,28.435226 171.262695,27.4970703 C172.573249,26.5589146 174.095043,25.3665437 175.828125,23.9199219 L175.828125,24.2851562 C171.975241,27.5651206 169.54037,29.2050781 168.523438,29.2050781 C168.136717,29.2050781 167.943359,28.9687524 167.943359,28.4960938 C167.943359,27.8229133 168.075845,27.1855499 168.34082,26.5839844 C168.605796,25.9824189 169.060544,25.3164099 169.705078,24.5859375 L172.21875,21.8144531 C171.917967,21.929037 171.577801,21.9791667 171.198242,21.9648438 C170.818683,21.9505208 170.585938,21.8431 170.5,21.6425781 C168.595043,23.2181068 167.29167,24.2708307 166.589844,24.8007812 L166.589844,24.4570312 Z M175.3125,24.4570312 L179.802734,20.5898438 C180.146486,20.1744771 180.461587,19.7913429 180.748047,19.4404297 C181.034507,19.0895165 181.242187,18.9140625 181.371094,18.9140625 C181.485678,18.9140625 181.589518,18.9462887 181.682617,19.0107422 C181.775717,19.0751956 181.822266,19.1718744 181.822266,19.3007812 C181.822266,19.572918 181.428389,19.9095032 180.640625,20.3105469 C181.098961,20.9980503 181.428384,21.5996068 181.628906,22.1152344 C181.829428,22.630862 181.951172,23.2825481 181.994141,24.0703125 C181.951172,24.5572941 181.893881,24.9654931 181.822266,25.2949219 C182.337893,25.4238288 182.806964,25.4130867 183.229492,25.2626953 C183.65202,25.1123039 184.235673,24.6647173 184.980469,23.9199219 L184.980469,24.2851562 C184.407549,25.0013057 183.877607,25.4453116 183.390625,25.6171875 C182.903643,25.7890634 182.337894,25.781902 181.693359,25.5957031 C181.349608,26.3691445 180.791019,27.0315728 180.017578,27.5830078 C179.244137,28.1344429 178.449223,28.5426419 177.632812,28.8076172 C176.816402,29.0725925 176.114586,29.2050781 175.527344,29.2050781 C174.968747,29.2050781 174.513999,29.0940766 174.163086,28.8720703 C173.812173,28.650064 173.636719,28.3385437 173.636719,27.9375 C173.636719,27.5794253 173.740559,27.2893891 173.948242,27.0673828 C174.155926,26.8453765 174.460284,26.734375 174.861328,26.734375 C175.119142,26.734375 175.330403,26.8024082 175.495117,26.9384766 C175.659832,27.074545 175.742188,27.2571603 175.742188,27.4863281 C175.742188,27.672527 175.65267,27.8372389 175.473633,27.9804688 C175.294595,28.1236986 175.104819,28.1953125 174.904297,28.1953125 C174.63216,28.1953125 174.431641,27.9733095 174.302734,27.5292969 C174.116536,27.6582038 174.023438,27.8515612 174.023438,28.109375 C174.023438,28.2669279 174.170246,28.4388012 174.463867,28.625 C174.757488,28.8111988 175.097654,28.9042969 175.484375,28.9042969 C176.243493,28.9042969 177.045569,28.5784538 177.890625,27.9267578 C178.735681,27.2750618 179.441078,26.4550831 180.006836,25.4667969 C180.572594,24.4785107 180.855469,23.5260463 180.855469,22.609375 C180.855469,21.9505175 180.647789,21.2773472 180.232422,20.5898438 L175.3125,24.8007812 L175.3125,24.4570312 Z" id="Vehicle-parameters" fill="#999999"></path>
            </g>
        </g>
    </g>
</svg>