<?xml version="1.0" encoding="UTF-8"?>
<svg width="104px" height="104px" viewBox="0 0 104 104" version="1.1" xmlns="http://www.w3.org/2000/svg" xmlns:xlink="http://www.w3.org/1999/xlink">
    <!-- Generator: Sketch 50.2 (55047) - http://www.bohemiancoding.com/sketch -->
    <title>售后服务</title>
    <desc>Created with Sketch.</desc>
    <defs>
        <path d="M43.2170975,0 C46.5328093,0 49.2194722,2.6866629 49.2206727,6.00237466 L49.2206727,36.9050004 L27.6109234,55.2218469 C27.6109234,55.2218469 26.2087687,56.4223218 24.7597955,56.4223218 C23.2111828,56.4223218 21.6085488,55.2218469 21.6085488,55.2218469 L0,38.3395679 L0,6.00237466 C0,2.6866629 2.6866629,0 6.00237466,0 L43.2170975,0 Z M30.1943455,8.42733402 L22.5785325,8.42733402 L22.5785325,12.2724552 L30.1943455,12.2724552 L30.1943455,8.42733402 Z M22.8090237,42.0154221 L22.8090237,33.6120976 C22.8090237,31.388818 17.481316,28.7213627 14.6638013,27.609723 C11.8450862,26.5016846 10.8042744,21.6085488 10.8042744,21.6085488 L8.40332452,21.6085488 C8.40332452,21.6085488 8.40332452,28.7609784 10.0083595,31.2111478 C11.6133945,33.6613171 16.806649,36.0130475 16.806649,36.0130475 L16.806649,42.0154221 L22.8090237,42.0154221 Z M38.4151978,31.2111478 C40.0706528,28.7609784 39.6156728,21.6085488 39.6156728,21.6085488 L37.2147229,21.6085488 C37.2147229,21.6085488 36.5184474,26.5016846 33.6132981,27.609723 C30.7069483,28.7213627 25.2099736,31.388818 25.2099736,33.6120976 L25.2099736,42.0154221 L31.2123482,42.0154221 L31.2123482,36.0130475 C31.2123482,36.0130475 36.7597429,33.6613171 38.4151978,31.2111478 Z" id="path-1"></path>
        <filter x="-4.1%" y="-1.8%" width="108.1%" height="107.1%" filterUnits="objectBoundingBox" id="filter-2">
            <feOffset dx="0" dy="1" in="SourceAlpha" result="shadowOffsetOuter1"></feOffset>
            <feGaussianBlur stdDeviation="0.5" in="shadowOffsetOuter1" result="shadowBlurOuter1"></feGaussianBlur>
            <feColorMatrix values="0 0 0 0 0   0 0 0 0 0.525490196   0 0 0 0 0.364705882  0 0 0 1 0" type="matrix" in="shadowBlurOuter1"></feColorMatrix>
        </filter>
    </defs>
    <g id="Page-1" stroke="none" stroke-width="1" fill="none" fill-rule="evenodd">
        <g id="切图" transform="translate(-453.000000, -13.000000)">
            <g id="售后服务icon-copy" transform="translate(455.000000, 15.000000)">
                <circle id="Oval-Copy-3" stroke="#CCCCCC" cx="50" cy="50" r="50"></circle>
                <g id="售后服务" transform="translate(25.000000, 22.000000)">
                    <g id="Shape" fill-rule="nonzero">
                        <use fill="black" fill-opacity="1" filter="url(#filter-2)" xlink:href="#path-1"></use>
                        <use fill="#00D494" fill-rule="evenodd" xlink:href="#path-1"></use>
                    </g>
                    <polygon id="Rectangle-15" fill="#00D494" points="13.2075472 4.71698113 34.9056604 4.71698113 34.9056604 25.4716981 13.2075472 25.4716981"></polygon>
                    <g id="保障-02" transform="translate(15.094340, 6.603774)" fill="#FFFFFF" fill-rule="nonzero">
                        <path d="M4.02417453,0.221108491 C4.02417453,0.221108491 2.82134434,5.45695755 0.191627358,9.15683962 L0.763561321,10.6662736 C1.36455658,9.76949775 1.91761177,8.84150658 2.42040094,7.88620283 L2.42040094,18.1839623 L3.74705189,18.1839623 L3.74705189,5.16214623 C4.39813894,3.68966545 4.94584861,2.17361298 5.38620283,0.625 L4.02417453,0.221108491 Z" id="Shape"></path>
                        <path d="M13.5908019,11.0141509 L18.5229953,11.0141509 L18.5229953,9.76415094 L12.4498821,9.72877358 L12.4498821,7.28478774 L15.5454009,7.28478774 L15.5454009,7.98643868 L16.9457547,7.98643868 L16.9457547,1.03183962 L6.65978774,1.03183962 L6.65978774,8.10731132 L8.06014151,8.10731132 L8.06014151,7.29068396 L11.1025943,7.29068396 L11.1025943,9.77889151 L4.98231132,9.77889151 L4.98231132,11.0318396 L9.80837264,11.0318396 C9.80837264,11.0318396 7.94221698,14.3042453 4.48408019,16.067217 L5.51591981,17.1904481 C7.87862224,15.6729722 9.80351632,13.5641257 11.0996462,11.0731132 L11.0996462,18.2783019 L12.4439858,18.2783019 L12.4439858,11.146816 C12.4439858,11.146816 14.245283,14.8525943 17.7505896,16.821934 L18.6704009,15.4599057 C18.6704009,15.4599057 14.84375,13.8561321 13.5908019,11.0141509 Z M8.0571934,6.04363208 L8.0571934,2.26709906 L15.5395047,2.26709906 L15.5395047,6.04363208 L8.0571934,6.04363208 Z" id="Shape"></path>
                    </g>
                </g>
            </g>
        </g>
    </g>
</svg>