<?xml version="1.0" encoding="UTF-8"?>
<svg width="104px" height="104px" viewBox="0 0 104 104" version="1.1" xmlns="http://www.w3.org/2000/svg" xmlns:xlink="http://www.w3.org/1999/xlink">
    <!-- Generator: Sketch 50.2 (55047) - http://www.bohemiancoding.com/sketch -->
    <title>业务咨询</title>
    <desc>Created with Sketch.</desc>
    <defs>
        <path d="M49.9922384,23 C62.4037444,23 72.8946068,31.0593645 76.3647482,42.157043 C78.6833501,44.1962273 80,47.0849542 80,50.1514923 C80,54.766117 77.0364795,58.6948985 72.8790837,60.2062939 C74.2634711,57.1284662 75.0438649,53.7274737 75.0438649,50.1514923 C75.0438649,36.5263541 63.8290567,25.4837124 49.9894161,25.4837124 C36.1497754,25.4837124 24.9490792,36.5263541 24.9490792,50.1514923 C24.9490792,62.1509278 33.6575958,72.153515 45.2068584,74.3549873 C45.7134793,73.3022319 47.6609356,72.5034926 49.9922384,72.5034926 C52.7087989,72.5034926 54.9130936,73.5872944 54.9130936,74.9081778 C54.9130936,76.2177716 52.7073876,77.2959285 49.9922384,77.2959285 C49.9372016,77.2959285 49.869464,77.2959285 49.8158384,77.2959285 C37.486182,77.2154901 27.0898699,69.1688265 23.6338406,58.1402967 C21.3984995,56.1815508 20,53.3182256 20,50.1500811 C20,46.9748806 21.3984994,44.1115553 23.6338406,42.1556318 C27.1025708,31.0593645 37.5934332,23 49.9922384,23 Z M57.4236187,48.7445257 C59.6885951,48.7445257 61.5245666,50.5409836 61.5245666,52.7692687 C61.5245666,54.9947315 59.6885951,56.8053013 57.4236187,56.8053013 C55.162876,56.8053013 53.3367829,54.9947315 53.3367829,52.7692687 C53.3367829,50.5409836 55.162876,48.7445257 57.4236187,48.7445257 Z M55.8614201,50.6369452 C56.6277019,50.6369452 57.2443964,51.2451725 57.2443964,51.9987534 C57.2443964,52.7565679 56.6262907,53.363384 55.8614201,53.363384 C55.0909048,53.363384 54.4600983,52.7565679 54.4600983,51.9987534 C54.4600983,51.2437613 55.0909048,50.6369452 55.8614201,50.6369452 Z M42.1191524,48.7445257 C44.3827175,48.7445257 46.218689,50.5409836 46.218689,52.7692687 C46.218689,54.9947315 44.3813063,56.8053013 42.1191524,56.8053013 C39.8569984,56.8053013 38.0182045,54.9947315 38.0182045,52.7692687 C38.0182045,50.5409836 39.8555872,48.7445257 42.1191524,48.7445257 Z M40.5428417,50.6369452 C41.3091234,50.6369452 41.93993,51.2451725 41.93993,51.9987534 C41.93993,52.7565679 41.3091235,53.363384 40.5428417,53.363384 C39.7751488,53.363384 39.1570431,52.7565679 39.1570431,51.9987534 C39.1570431,51.2437613 39.7737376,50.6369452 40.5428417,50.6369452 Z M63.4339205,59.9776795 C63.7076934,59.4922266 64.3384999,59.3299386 64.8324199,59.6121786 C65.32634,59.8817178 65.4872168,60.5026459 65.2035656,60.9909212 C63.6244326,63.6891361 61.3749794,65.8652068 58.7275678,67.361079 L58.6570078,67.4020038 C56.0265306,68.8894088 53.0079733,69.6994377 49.8680528,69.6994377 C46.7140203,69.6994377 43.6686502,68.8724744 41.0198274,67.361079 C38.373827,65.8652067 36.1243738,63.689136 34.546652,60.9909212 C34.2587671,60.5026459 34.4238776,59.883129 34.9163864,59.6121786 C35.4117177,59.3299386 36.0284122,59.4922266 36.3148858,59.9776795 C37.7147964,62.3654303 39.7017664,64.2860738 42.0485923,65.619658 C44.3798951,66.9419526 47.0682315,67.6729543 49.8652304,67.6729543 C52.6495284,67.6729543 55.3237528,66.9574759 57.6395324,65.6464708 L57.6959804,65.6182468 C60.0286944,64.2860738 62.0325987,62.3654303 63.4339205,59.9776795 Z M70.549192,59.720841 C69.4004751,54.1988146 68.9474798,52.1483406 65.1188936,47.8258344 C63.2123621,45.694922 60.6609121,44.3683938 59.0563774,40.2801468 C58.905379,43.8307266 61.6656867,47.5026695 61.8533763,48.0304584 C53.1603829,47.0595527 45.7120682,48.3141097 37.373286,40.133382 C37.5793212,48.7064233 33.1481526,55.3729332 28.4446223,57.2907543 C27.6769293,55.0511796 27.2507469,52.6450832 27.2507469,50.1514924 C27.2507469,37.7837337 37.4410237,27.7656232 49.9894161,27.7656232 C62.549098,27.7656232 72.7280853,37.7837336 72.7280853,50.1514924 C72.7294964,53.5778865 71.9491027,56.8194134 70.549192,59.720841 Z" id="path-1"></path>
        <filter x="-3.3%" y="-1.8%" width="106.7%" height="107.4%" filterUnits="objectBoundingBox" id="filter-2">
            <feOffset dx="0" dy="1" in="SourceAlpha" result="shadowOffsetOuter1"></feOffset>
            <feGaussianBlur stdDeviation="0.5" in="shadowOffsetOuter1" result="shadowBlurOuter1"></feGaussianBlur>
            <feColorMatrix values="0 0 0 0 0.633901998   0 0 0 0 0.382827089   0 0 0 0 0  0 0 0 1 0" type="matrix" in="shadowBlurOuter1"></feColorMatrix>
        </filter>
    </defs>
    <g id="Page-1" stroke="none" stroke-width="1" fill="none" fill-rule="evenodd">
        <g id="切图" transform="translate(-305.000000, -13.000000)">
            <g id="业务咨询icon-copy" transform="translate(307.000000, 15.000000)">
                <circle id="Oval-Copy-2" stroke="#CCCCCC" cx="50" cy="50" r="50"></circle>
                <g id="售后服务" fill-rule="nonzero">
                    <use fill="black" fill-opacity="1" filter="url(#filter-2)" xlink:href="#path-1"></use>
                    <use fill="#FF9A00" fill-rule="evenodd" xlink:href="#path-1"></use>
                </g>
            </g>
        </g>
    </g>
</svg>