<?xml version="1.0" encoding="UTF-8"?>
<svg width="112px" height="112px" viewBox="0 0 112 112" version="1.1" xmlns="http://www.w3.org/2000/svg" xmlns:xlink="http://www.w3.org/1999/xlink">
    <!-- Generator: Sketch 50.2 (55047) - http://www.bohemiancoding.com/sketch -->
    <title>客服电话</title>
    <desc>Created with Sketch.</desc>
    <defs></defs>
    <g id="Page-1" stroke="none" stroke-width="1" fill="none" fill-rule="evenodd">
        <g id="切图" transform="translate(-609.000000, -20.000000)" fill-rule="nonzero">
            <g id="客服电话icon-copy" transform="translate(610.000000, 21.000000)">
                <path d="M24.9487705,0.0307376742 L85.0143443,0.0307376742 C98.9159837,0.0307376742 109.932377,11.3094262 109.932377,24.9487705 L109.932377,85.0143443 C109.932377,98.9159837 98.6536886,109.932377 85.0143443,109.932377 L24.9487705,109.932377 C11.3094263,110.194672 0.0307376742,98.9159836 0.0307376742,85.2766394 L0.0307376742,24.9487705 C0.0307376742,11.3094263 11.3094263,0.0307376742 24.9487705,0.0307376742 Z" id="Shape" fill="#343434" opacity="0.343917411"></path>
                <path d="M14.9815574,53.8012295 C14.9808101,67.6706607 22.3796344,80.4868634 34.3907896,87.4217948 C46.4019449,94.3567262 61.2005142,94.3567262 73.2116694,87.4217948 C85.2228247,80.4868634 92.621649,67.6706607 92.6209016,53.8012295 C92.621649,39.9317982 85.2228247,27.1155955 73.2116694,20.1806641 C61.2005142,13.2457328 46.4019449,13.2457328 34.3907896,20.1806641 C22.3796344,27.1155955 14.9808101,39.9317982 14.9815574,53.8012295 Z" id="Shape" fill="#FFFFFF"></path>
                <path d="M55.375,68.4897541 L56.1618853,68.4897541 C58.522541,68.227459 60.3586066,66.6536885 60.8831967,64.5553278 C60.8831967,64.2930327 60.8831967,64.2930327 60.6209016,64.0307377 C60.3586065,64.0307377 60.3586065,64.0307377 60.0963115,64.2930327 C60.0963115,64.2930327 59.3094263,65.8668032 55.637295,66.1290984 L54.0635246,66.1290984 C51.7028688,66.1290984 50.6536886,65.3422132 50.6536886,65.0799181 L50.1290983,65.0799181 C50.1290983,65.0799181 49.8668032,65.3422132 50.1290983,65.6045082 C51.4405738,67.4405738 53.2766394,68.4897541 55.375,68.4897541 Z M73.9979508,47.2438524 C73.9979508,47.2438524 73.7356557,47.2438524 73.9979508,47.2438524 C71.8995901,38.5881147 64.0307376,32.0307377 54.8504098,32.0307377 C45.4077869,32.0307377 37.2766393,38.8504098 35.7028688,48.0307377 C33.8668033,48.2930328 32.8176229,49.8668032 32.8176229,51.7028689 L32.8176229,59.0471312 C32.8176229,61.1454918 34.3913934,62.7192623 36.4897541,62.7192623 C37.5389344,62.7192623 38.5881147,62.1946722 39.375,61.4077868 C40.9487704,65.6045082 44.3586065,69.0143442 48.5553279,70.8504099 C48.5553279,70.8504099 48.5553279,70.5881148 48.817623,70.5881148 L49.079918,70.3258197 L49.3422131,70.3258197 C48.2930328,69.5389344 44.8831968,65.8668033 44.0963114,60.8831967 C43.8340163,58.5225409 45.4077869,56.4241804 47.5061476,56.1618853 C50.6536886,55.6372951 53.8012295,54.8504098 56.9487705,54.3258197 C59.0471312,54.0635246 60.3586065,52.7520492 61.1454918,50.9159836 C61.4077869,50.3913935 61.6700819,49.6045081 61.6700819,48.2930328 C61.6700819,48.0307377 61.9323771,48.0307377 61.9323771,48.0307377 C61.9323771,48.0307377 62.1946722,48.0307377 62.1946722,48.2930328 C63.5061476,50.1290983 65.8668033,54.0635246 66.3913934,58.2602459 C66.9159835,62.9815574 66.6536885,66.3913935 62.9815574,69.8012295 L62.9815574,70.0635245 C62.9815574,70.0635245 62.9815574,70.3258197 63.2438525,70.3258197 L63.5061475,70.3258197 C67.1782786,68.227459 70.0635245,64.817623 71.375,60.6209016 C71.8995901,61.4077868 72.6864754,61.9323771 73.7356558,62.1946722 C72.1618853,69.2766394 65.8668033,73.7356558 57.9979508,74.522541 C57.4733607,73.4733607 56.4241804,72.4241803 55.1127049,72.4241803 C53.2766394,72.4241803 51.9651639,73.7356558 51.9651639,75.5717213 C51.9651639,77.4077869 53.5389345,78.7192622 55.1127049,78.7192622 C56.4241804,78.7192622 57.7356557,77.6700819 58.2602459,76.6209017 C67.4405738,75.8340165 74.7848361,70.5881148 76.0963115,61.9323771 C77.4077869,61.4077869 78.4569672,60.0963115 78.4569672,58.5225409 L78.4569672,51.1782787 C77.670082,48.8176229 76.0963115,47.2438524 73.9979508,47.2438524 Z M70.5881148,49.3422131 C68.227459,42.7848361 61.9323771,38.3258196 54.8504098,38.3258196 C47.5061476,38.3258196 41.4733606,42.784836 39.112705,49.3422131 C39.112705,49.079918 38.8504098,49.079918 38.5881147,48.817623 C39.8995902,40.9487705 46.7192623,35.1782787 54.8504098,35.1782787 C62.9815573,35.1782787 69.5389344,40.9487705 71.1127049,48.817623 C70.8504098,48.817623 70.5881148,49.0799181 70.5881148,49.3422131 Z" id="Shape" fill="#0B74B9"></path>
            </g>
        </g>
    </g>
</svg>