<?xml version="1.0" encoding="UTF-8"?>
<svg width="28px" height="30px" viewBox="0 0 28 30" version="1.1" xmlns="http://www.w3.org/2000/svg" xmlns:xlink="http://www.w3.org/1999/xlink">
    <!-- Generator: Sketch 50.2 (55047) - http://www.bohemiancoding.com/sketch -->
    <title>左滑</title>
    <desc>Created with Sketch.</desc>
    <defs></defs>
    <g id="Page-1" stroke="none" stroke-width="1" fill="none" fill-rule="evenodd">
        <g id="切图" transform="translate(-694.000000, -170.000000)" fill="#888888" fill-rule="nonzero">
            <path d="M705.832581,185.497312 C705.821572,185.734754 705.913283,185.988035 706.108029,186.1835 L719.634586,199.718408 C719.97678,200.06125 720.496782,200.095607 720.79679,199.796317 C721.095323,199.496365 721.061198,198.976387 720.719004,198.633891 L707.593952,185.500272 L720.719004,172.366212 C721.061198,172.023339 721.095323,171.503265 720.79679,171.203471 C720.498225,170.903835 719.976811,170.939672 719.634586,171.281034 L706.109441,184.816446 C705.914726,185.010273 705.823642,185.261413 705.83255,185.497312 L705.832581,185.497312 Z M695.276333,186.1835 L708.802953,199.718408 C709.145178,200.06125 709.66518,200.095607 709.965156,199.796317 C710.263721,199.496365 710.229564,198.976387 709.887371,198.633891 L696.762319,185.500272 L709.887371,172.366212 C710.229564,172.023339 710.263721,171.503265 709.965156,171.203471 C709.666623,170.903835 709.145178,170.939672 708.802953,171.281034 L695.277839,184.816446 C695.083093,185.010273 694.991977,185.261445 695.000885,185.497375 C694.989875,185.734722 695.081618,185.988004 695.276365,186.1835 L695.276333,186.1835 Z" id="左滑icon-copy"></path>
        </g>
    </g>
</svg>