<?xml version="1.0" encoding="UTF-8"?>
<svg width="30px" height="30px" viewBox="0 0 30 30" version="1.1" xmlns="http://www.w3.org/2000/svg" xmlns:xlink="http://www.w3.org/1999/xlink">
    <!-- Generator: Sketch 50.2 (55047) - http://www.bohemiancoding.com/sketch -->
    <title>公司地址</title>
    <desc>Created with Sketch.</desc>
    <defs></defs>
    <g id="Page-1" stroke="none" stroke-width="1" fill="none" fill-rule="evenodd">
        <g id="联系我们（切片）" transform="translate(-287.000000, -31.000000)" fill="#666666" fill-rule="nonzero">
            <path d="M314.047751,45.0633122 L314.994666,58.0140476 C315.029251,58.3179695 314.893804,58.6163148 314.641894,58.7910918 C314.487294,58.895973 314.308319,58.9596655 314.122019,58.9761023 L313.787814,58.9761023 L307.809253,56.6449699 L302.350567,58.495075 L301.645022,58.495075 L296.186336,56.6449699 L290.207775,58.9761023 C290.098668,59.0079659 289.982677,59.0079659 289.87357,58.9761023 C289.68727,58.9596655 289.508295,58.895973 289.353695,58.7910918 C289.118635,58.6028316 288.987626,58.3142608 289.000923,58.0140476 L290.040673,45.0633122 C290.045729,44.6962687 290.296685,44.378003 290.653382,44.2862681 L292.80715,43.6757334 C293.258813,43.5879315 293.705152,43.8500191 293.846899,44.2862681 C293.920974,44.7284071 293.67264,45.1614477 293.252757,45.3223269 L292.510078,45.7478511 L291.637431,55.8309237 L295.852131,53.8328102 C296.043159,53.7585051 296.255245,53.7585051 296.446274,53.8328102 L302.016362,55.6829153 L307.586449,53.8328102 C307.777478,53.7585051 307.989564,53.7585051 308.180592,53.8328102 L312.395292,55.8309237 L311.61548,46.5803984 L311.61548,45.5073374 C311.1769,45.3752209 310.921075,44.9217973 311.035716,44.4797626 C311.150357,44.0377278 311.594615,43.7645821 312.04252,43.8607439 L313.435042,44.3047692 C313.791739,44.3965041 314.042695,44.7147698 314.047751,45.0818133 L314.047751,45.0633122 Z M301.960661,33.0006272 C300.129072,32.9759358 298.363436,33.6811494 297.056043,34.9595827 C295.748651,36.2380161 295.007785,37.9837854 294.998051,39.8090138 C294.998051,43.3427145 300.67954,49.2260486 301.366518,49.8920864 C301.504089,50.0777623 301.730441,50.1764398 301.960661,50.1511011 C302.191217,50.14881 302.411494,50.055691 302.57337,49.8920864 C303.260348,49.2260486 308.923271,43.3242135 308.923271,39.8090138 C308.913537,37.9837854 308.17267,36.2380161 306.865278,34.9595827 C305.557886,33.6811494 303.79225,32.9759358 301.960661,33.0006272 Z M301.960661,42.2511525 C300.473795,42.2511525 299.268452,41.0500882 299.268452,39.5685002 C299.268452,38.0869122 300.473795,36.8858479 301.960661,36.8858479 C303.447527,36.8858479 304.65287,38.0869122 304.65287,39.5685002 C304.663277,40.2895795 304.37783,40.9836434 303.862588,41.4900716 C303.347346,41.9964999 302.646964,42.2713992 301.923527,42.2511525 L301.960661,42.2511525 Z" id="公司地址-copy"></path>
        </g>
    </g>
</svg>