<?xml version="1.0" encoding="UTF-8"?>
<svg width="30px" height="30px" viewBox="0 0 30 30" version="1.1" xmlns="http://www.w3.org/2000/svg" xmlns:xlink="http://www.w3.org/1999/xlink">
    <!-- Generator: Sketch 50.2 (55047) - http://www.bohemiancoding.com/sketch -->
    <title>服务热线</title>
    <desc>Created with Sketch.</desc>
    <defs></defs>
    <g id="Page-1" stroke="none" stroke-width="1" fill="none" fill-rule="evenodd">
        <g id="联系我们（切片）" transform="translate(-117.000000, -31.000000)" fill="#666666" fill-rule="nonzero">
            <path d="M132.142819,54.8060613 C132.285676,54.8060613 132.418329,54.8060613 132.581594,54.7856532 C133.969345,54.6121842 135.153015,53.6427991 135.59179,52.316272 C135.622402,52.2142315 135.571381,52.1019869 135.489749,52.0713747 C135.397913,52.0203545 135.275464,52.0713747 135.224444,52.1632112 C135.224444,52.1632112 134.663221,53.0509639 132.530573,53.3570855 C132.214248,53.3876977 131.897922,53.4285139 131.602004,53.428514 C130.091804,53.428514 129.428541,52.867291 129.418337,52.8468829 C129.346908,52.7754545 129.22446,52.7754545 129.153031,52.8468829 C129.081603,52.9183112 129.050991,53.0203518 129.122419,53.1121882 C129.734662,54.1632058 130.908129,54.8060613 132.142819,54.8060613 Z M143.693809,41.4999745 L143.642788,41.4999745 C142.38769,36.0612136 137.571376,32 131.816289,32 C125.897938,32 120.979584,36.2857028 119.877546,41.9591569 C118.80612,42.153034 118,43.0816029 118,44.2040489 L118,48.7244449 C118,49.9897477 119.010201,51.0203571 120.255096,51.0203571 C120.959176,51.0203571 121.581623,50.6836233 122.010193,50.1836247 C123.010191,52.8264747 125.051001,54.9591221 127.632627,56.1019762 C127.632627,56.081568 127.683647,55.9999356 127.734668,55.9080991 C127.76528,55.8570789 127.826504,55.8162626 127.857116,55.8162626 C127.887729,55.8162626 127.928545,55.8366707 127.959157,55.8468748 C127.367322,55.4081004 125.214266,53.1121882 124.734676,49.9285233 C124.520391,48.5305679 125.571408,47.1428165 126.795895,46.9183273 C128.755073,46.5509814 130.714252,46.1326151 132.67343,45.7754733 C133.918325,45.5509841 134.775465,44.8673124 135.295872,43.7244583 C135.418321,43.4591529 135.59179,42.9183381 135.683626,42.1326259 C135.704034,42.0101772 135.806075,41.9183407 135.928523,41.9183407 C136.02036,41.9183407 136.081584,41.9489529 136.1224,42.0203813 L136.173421,41.9897691 C136.938725,43.1122151 138.479537,45.6122084 138.71423,48.2346503 C138.98974,51.2142342 138.857087,53.2754531 136.540767,55.3774883 L136.520358,55.3774883 C136.489746,55.4081005 136.469338,55.4693248 136.469338,55.4999369 C136.469338,55.5713653 136.49995,55.6223856 136.561175,55.6529978 C136.581583,55.6529978 136.591787,55.6734059 136.612195,55.6734059 L136.704031,55.6734059 C136.734644,55.6529977 136.77546,55.6427937 136.795868,55.6223856 C139.122392,54.3468788 140.908102,52.2040274 141.73463,49.6326058 C142.071364,50.1224004 142.591771,50.4897463 143.204014,50.612195 C142.224425,55.0407545 138.28566,57.8060532 133.397918,58.2244194 C133.102,57.4897275 132.387716,56.9795248 131.54078,56.9795248 C130.438742,56.9795248 129.540785,57.8570735 129.540785,58.9387033 C129.540785,60.020333 130.428538,60.8978817 131.54078,60.8978817 C132.428533,60.8978817 133.183633,60.3162506 133.42853,59.5305384 C139.081576,59.071356 143.632584,55.7142221 144.581561,50.4795422 C145.418294,50.1326044 145.999925,49.306076 145.999925,48.3468949 L145.999925,43.7958867 C146.010129,42.540788 144.979519,41.4999745 143.693809,41.4999745 M141.601977,42.8162975 C140.132594,38.8265123 136.295869,35.959173 131.795881,35.959173 C127.316302,35.959173 123.499985,38.7959001 122.010193,42.7652772 C121.938765,42.6734408 121.857132,42.5918083 121.765296,42.5203799 C122.602028,37.6734542 126.775487,33.9999946 131.795881,33.9999946 C136.806072,33.9999946 140.948918,37.642842 141.826467,42.4591556 C141.73463,42.5714002 141.663202,42.6734408 141.601977,42.8162975" id="服务热线-copy-2"></path>
        </g>
    </g>
</svg>