<?xml version="1.0" encoding="UTF-8"?>
<svg width="28px" height="28px" viewBox="0 0 28 28" version="1.1" xmlns="http://www.w3.org/2000/svg" xmlns:xlink="http://www.w3.org/1999/xlink">
    <!-- Generator: Sketch 50.2 (55047) - http://www.bohemiancoding.com/sketch -->
    <title>企业官网</title>
    <desc>Created with Sketch.</desc>
    <defs></defs>
    <g id="Page-1" stroke="none" stroke-width="1" fill="none" fill-rule="evenodd">
        <g id="联系我们（切片）" transform="translate(-198.000000, -32.000000)" fill="#666666" fill-rule="nonzero">
            <g id="企业官网-copy" transform="translate(199.000000, 35.000000)">
                <path d="M9.89401906,6.38339763 C10.3464641,4.83837916 11.3400089,3.73610315 13.1528461,3.58037994 C13.2781856,3.56816636 13.4524381,3.58037994 13.59612,3.55289937 C13.7184024,3.52847221 13.8681984,3.43992372 14.0118803,3.38190919 C14.5866078,3.14679768 15.8552881,2.7345892 16.4972709,3.24145297 C17.053656,3.68114201 16.949716,4.75288407 16.6073251,5.4490584 C16.8824606,6.00172311 17.0842267,6.76812554 16.9650013,7.62918327 C15.3539301,7.69635798 13.4738376,7.63834345 11.9086223,7.65666383 C11.9605923,8.48718759 12.4864068,9.12534739 13.2629003,9.21389588 C14.0210515,9.30244437 14.546866,8.8749689 14.8923139,8.39253231 L16.8243765,8.39253231 C16.3230185,9.83068191 15.0451669,10.9451715 13.0672484,10.7986085 C12.6178605,10.7650211 12.2662984,10.6337251 11.8780517,10.4871621 C11.2299547,10.841356 9.7961931,11.3634868 9.22757975,10.6276183 C8.79347708,10.0688468 9.07166963,9.05206588 9.31012039,8.38947891 C9.79007898,7.04903799 10.7071973,5.71775726 11.6029162,4.96356841 C11.6090303,4.93914124 11.6304297,4.93608784 11.6304297,4.90555388 C10.9273057,5.26890802 10.4504042,5.86432028 9.89401906,6.38339763 Z M16.6898658,4.28571446 C16.6623522,3.32084127 15.4150713,3.41549655 14.7547461,3.80327786 C15.4914978,4.09640389 16.0264835,4.59410747 16.4667003,5.18951972 C16.5645263,4.8902869 16.699037,4.63990841 16.6898658,4.28571446 Z M11.9116794,6.63682951 L14.9779116,6.63682951 C14.8861998,4.66738898 12.0064482,4.82616558 11.9116794,6.63682951 Z M9.64639711,10.093274 C9.79925016,10.9665453 11.0251316,10.71006 11.5815168,10.3192253 C10.8539362,9.9131236 10.4014912,9.22610946 10.0346439,8.45054684 C9.86344845,8.86886211 9.54245704,9.5161821 9.64639711,10.093274 Z" id="Shape"></path>
                <path d="M24.7432024,0 L1.25970684,0 C0.564395211,0 0,0.551837353 0,1.23146862 L0,17.6616997 C0,18.3442354 0.564395211,18.8931683 1.25970684,18.8931683 L9.22524337,18.8931683 L9.22524337,20.9465842 L7.54660401,22.5875742 L7.54660401,23 L18.4475775,23 L18.4475775,22.5875742 L16.7689381,20.9494886 L16.7689381,18.8960727 L24.7402932,18.8960727 C25.4356048,18.8960727 26,18.3442354 26,17.6646041 L26,1.23146862 C26,0.551837353 25.4356048,0 24.7432024,0 Z M24.3213606,1.64679884 L24.3213606,14.6294987 L1.67863936,14.6294987 L1.67863936,1.64679884 L24.3213606,1.64679884 Z M1.67863936,15.6111883 L1.67863936,15.0593509 L24.3213606,15.0593509 L24.3213606,15.6111883 L1.67863936,15.6111883 Z" id="Shape"></path>
            </g>
        </g>
    </g>
</svg>