<?xml version="1.0" encoding="UTF-8"?>
<svg width="30px" height="30px" viewBox="0 0 30 30" version="1.1" xmlns="http://www.w3.org/2000/svg" xmlns:xlink="http://www.w3.org/1999/xlink">
    <!-- Generator: Sketch 50.2 (55047) - http://www.bohemiancoding.com/sketch -->
    <title>二维码</title>
    <desc>Created with Sketch.</desc>
    <defs></defs>
    <g id="Page-1" stroke="none" stroke-width="1" fill="none" fill-rule="evenodd">
        <g id="联系我们（切片）" transform="translate(-25.000000, -30.000000)" fill="#666666" fill-rule="nonzero">
            <path d="M27,57.9991892 L36.4696473,57.9991892 L36.4696473,48.4875226 L27,48.4875226 L27,57.9991892 Z M30.5311075,52.0351527 L32.9385118,52.0351527 L32.9385118,54.4532086 L30.5311075,54.4532086 L30.5311075,52.0351527 Z M30.5311075,35.5467634 L36.4688365,35.5467634 L36.4688365,32 L27,32 L27,41.5124215 L30.5311075,41.5124215 L30.5311075,35.5467634 Z M43.5311075,57.9999441 L47.3831333,57.9999441 L47.3831333,54.4532366 L43.5311075,54.4532366 L43.5311075,57.9999441 Z M43.5311075,32 L43.5311075,35.5467634 L49.4688365,35.5467634 L49.4688365,41.5123935 L53,41.5123935 L53,32 L43.5311075,32 Z M27,46.1879484 L53,46.1879484 L53,43.9304774 L27,43.9304774 L27,46.1879484 Z M49.4688365,57.9999441 L53,57.9999441 L53,48.4875226 L49.4688365,48.4875226 L49.4688365,57.9999441 Z" id="二维码-copy"></path>
        </g>
    </g>
</svg>