<?xml version="1.0" encoding="UTF-8"?>
<svg width="64px" height="64px" viewBox="0 0 64 64" version="1.1" xmlns="http://www.w3.org/2000/svg" xmlns:xlink="http://www.w3.org/1999/xlink">
    <!-- Generator: Sketch 50.2 (55047) - http://www.bohemiancoding.com/sketch -->
    <title>播放（二级页面）</title>
    <desc>Created with Sketch.</desc>
    <defs></defs>
    <g id="Page-1" stroke="none" stroke-width="1" fill="none" fill-rule="evenodd">
        <g id="Artboard" transform="translate(-349.000000, -23.000000)" fill="#FFFFFF" fill-rule="nonzero">
            <path d="M372.464286,63.8214286 C372.464286,66.2678571 374.205357,67.2678572 376.3125,66.0446428 L391.580357,57.2321429 C393.696429,56.0089286 393.696429,54.0089286 391.580357,52.7857143 L376.3125,43.9642857 C374.196429,42.7410715 372.464286,43.7410714 372.464286,46.1875 L372.464286,63.8214286 Z M381,24 C363.901786,24 350,37.9017857 350,55 C350,72.0982142 363.901786,86 381,86 C398.098214,86 412,72.0982143 412,55 C412,37.9017857 398.098214,24 381,24 Z M381,81.5535714 C366.357143,81.5535714 354.446429,69.6428571 354.446429,55 C354.446429,40.3571428 366.357143,28.4464285 381,28.4464285 C395.642857,28.4464285 407.553571,40.3571429 407.553571,55 C407.553571,69.6428571 395.642857,81.5535714 381,81.5535714 Z" id="播放"></path>
        </g>
    </g>
</svg>