<?xml version="1.0" encoding="UTF-8"?>
<svg width="28px" height="30px" viewBox="0 0 28 30" version="1.1" xmlns="http://www.w3.org/2000/svg" xmlns:xlink="http://www.w3.org/1999/xlink">
    <!-- Generator: Sketch 50.2 (55047) - http://www.bohemiancoding.com/sketch -->
    <title>右滑</title>
    <desc>Created with Sketch.</desc>
    <defs></defs>
    <g id="Page-1" stroke="none" stroke-width="1" fill="none" fill-rule="evenodd">
        <g id="切图" transform="translate(-625.000000, -171.000000)" fill="#888888" fill-rule="nonzero">
            <path d="M636.832581,186.497312 C636.821572,186.734754 636.913283,186.988035 637.108029,187.1835 L650.634586,200.718408 C650.97678,201.06125 651.496782,201.095607 651.79679,200.796317 C652.095323,200.496365 652.061198,199.976387 651.719004,199.633891 L638.593952,186.500272 L651.719004,173.366212 C652.061198,173.023339 652.095323,172.503265 651.79679,172.203471 C651.498225,171.903835 650.976811,171.939672 650.634586,172.281034 L637.109441,185.816446 C636.914726,186.010273 636.823642,186.261413 636.83255,186.497312 L636.832581,186.497312 Z M626.276333,187.1835 L639.802953,200.718408 C640.145178,201.06125 640.66518,201.095607 640.965156,200.796317 C641.263721,200.496365 641.229564,199.976387 640.887371,199.633891 L627.762319,186.500272 L640.887371,173.366212 C641.229564,173.023339 641.263721,172.503265 640.965156,172.203471 C640.666623,171.903835 640.145178,171.939672 639.802953,172.281034 L626.277839,185.816446 C626.083093,186.010273 625.991977,186.261445 626.000885,186.497375 C625.989875,186.734722 626.081618,186.988004 626.276365,187.1835 L626.276333,187.1835 Z" id="右滑icon-copy" transform="translate(639.000000, 186.500000) rotate(-180.000000) translate(-639.000000, -186.500000) "></path>
        </g>
    </g>
</svg>