<?xml version="1.0" encoding="UTF-8"?>
<svg width="114px" height="114px" viewBox="0 0 114 114" version="1.1" xmlns="http://www.w3.org/2000/svg" xmlns:xlink="http://www.w3.org/1999/xlink">
    <!-- Generator: Sketch 50.2 (55047) - http://www.bohemiancoding.com/sketch -->
    <title>技术支持索赔保障</title>
    <desc>Created with Sketch.</desc>
    <defs></defs>
    <g id="Page-1" stroke="none" stroke-width="1" fill="none" fill-rule="evenodd">
        <g id="售后服务（切片）" transform="translate(-80.000000, -267.000000)" fill="#0B74B9" fill-rule="nonzero">
            <g id="技术支持索赔保障" transform="translate(82.000000, 269.000000)">
                <path d="M55,111 C24.072054,111 -1,85.927946 -1,55 C-1,24.072054 24.072054,-1 55,-1 C85.927946,-1 111,24.072054 111,55 C111,85.927946 85.927946,111 55,111 Z M55,109 C84.8233765,109 109,84.8233765 109,55 C109,25.1766235 84.8233765,1 55,1 C25.1766235,1 1,25.1766235 1,55 C1,84.8233765 25.1766235,109 55,109 Z" id="Oval-3"></path>
                <path d="M62.9198117,32.9865037 L52.1055924,32.9865037 L52.1055924,38.4464571 L62.9198117,38.4464571 L62.9198117,32.9865037 Z M81.4117175,21.0199496 L28.56796,21.0199496 C23.8597517,21.0199496 20.0447734,24.8349279 20.0447734,29.5431363 L20.0447734,75.4609522 L50.7282454,99.4332671 C50.7282454,99.4332671 53.0039363,101.137904 55.2029184,101.137904 C57.2604157,101.137904 59.2514321,99.4332671 59.2514321,99.4332671 L89.9366088,73.4239106 L89.9366088,29.5431363 C89.9349042,24.8349279 86.1199258,21.0199496 81.4117175,21.0199496 Z M46.2723234,30.0289579 L48.2428842,30.6153532 C47.515004,32.9592295 46.7240523,35.1513931 45.8717337,37.1935486 L45.8717337,55.9974031 L43.9540166,55.9974031 L43.9540166,41.2147881 C43.1903391,42.616 42.3908642,43.9217522 41.5572966,45.1303401 C41.3084195,44.3837089 41.0322683,43.6558288 40.7322521,42.9466996 C43.1119258,39.3942354 44.9597527,35.0900262 46.2723234,30.0289579 Z M52.4328828,80.6805517 L43.9096961,80.6805517 L43.9096961,72.157365 C43.9096961,72.157365 36.535435,68.8179805 34.2563348,65.3388157 C31.9772347,61.8596509 31.9772347,51.7034216 31.9772347,51.7034216 L35.3865094,51.7034216 C35.3865094,51.7034216 36.86443,58.6515234 40.8669184,60.2249037 C44.8677023,61.8033979 52.4328828,65.591102 52.4328828,68.7480904 C52.4328828,71.908488 52.4328828,80.6805517 52.4328828,80.6805517 Z M48.4303943,54.5603938 C48.022986,54.0626397 47.5252319,53.5222697 46.9388366,52.9358744 C50.0992342,51.1954397 52.6647134,48.7629222 54.6369788,45.638322 L47.6581936,45.638322 L47.6581936,43.8262925 L56.5018521,43.8262925 L56.5018521,40.2312124 L52.107297,40.2312124 L52.107297,41.4295724 L50.0821879,41.4295724 L50.0821879,31.2017484 L64.9449208,31.2017484 L64.9449208,41.2437669 L62.9198117,41.2437669 L62.9198117,40.2312124 L58.443434,40.2312124 L58.443434,43.8262925 L67.2342488,43.8262925 L67.2342488,45.638322 L59.9878354,45.638322 C61.620878,48.3555139 64.1079439,50.4948338 67.4473284,52.0579862 C66.8950259,52.8199591 66.4518202,53.4779491 66.1160067,54.028547 C62.7766221,52.0034378 60.2213707,49.2691995 58.443434,45.8241275 L58.443434,56.1320694 L56.5001474,56.1320694 L56.5001474,45.71844 C54.3523044,49.5879667 51.660682,52.5352847 48.4303943,54.5603938 Z M74.5931681,65.3388157 C72.2424732,68.8179805 64.3653441,72.157365 64.3653441,72.157365 L64.3653441,80.6805517 L55.8421574,80.6805517 C55.8421574,80.6805517 55.8421574,71.908488 55.8421574,68.7480904 C55.8421574,65.591102 63.6476918,61.8033979 67.7746188,60.2249037 C71.8998411,58.6515234 72.8885308,51.7034216 72.8885308,51.7034216 L76.2978055,51.7034216 C76.2978055,51.7034216 76.943863,61.8596509 74.5931681,65.3388157 Z" id="Shape"></path>
            </g>
        </g>
    </g>
</svg>