<?xml version="1.0" encoding="UTF-8"?>
<svg width="114px" height="114px" viewBox="0 0 114 114" version="1.1" xmlns="http://www.w3.org/2000/svg" xmlns:xlink="http://www.w3.org/1999/xlink">
    <!-- Generator: Sketch 50.2 (55047) - http://www.bohemiancoding.com/sketch -->
    <title>服务培训支持</title>
    <desc>Created with Sketch.</desc>
    <defs></defs>
    <g id="Page-1" stroke="none" stroke-width="1" fill="none" fill-rule="evenodd">
        <g id="售后服务（切片）" transform="translate(-436.000000, -259.000000)" fill="#0B74B9" fill-rule="nonzero">
            <g id="服务培训支持" transform="translate(438.000000, 261.000000)">
                <path d="M55,111 C24.072054,111 -1,85.927946 -1,55 C-1,24.072054 24.072054,-1 55,-1 C85.927946,-1 111,24.072054 111,55 C111,85.927946 85.927946,111 55,111 Z M55,109 C84.8233765,109 109,84.8233765 109,55 C109,25.1766235 84.8233765,1 55,1 C25.1766235,1 1,25.1766235 1,55 C1,84.8233765 25.1766235,109 55,109 Z" id="Oval-3"></path>
                <path d="M37.8263873,50.2026464 C39.6590158,55.7389786 44.7339869,55.7389786 46.5025375,50.2026464 C47.1757651,49.7247531 47.6356431,49.0027446 47.7840959,48.1905998 C47.8609894,47.3960336 47.7840959,46.3195245 47.0279764,46.3195245 C46.8485582,43.7564078 45.4132129,41.5264962 42.2349481,41.5264962 C39.0566833,41.5264962 37.4803665,43.4360182 37.3009484,46.3195245 C36.5063822,46.3195245 36.4038575,47.3960336 36.5448289,48.1905998 C36.6739255,49.0102036 37.1382166,49.7391407 37.8263873,50.2026464 Z M68.1993208,59.6733628 C67.7876458,59.2778923 67.1372037,59.2778923 66.7255287,59.6733628 L53.3076125,73.1297258 L53.3076125,60.467929 C53.2746174,57.6356054 51.2565512,55.2160671 48.4761374,54.6752852 L46.425644,54.2395553 C45.6263376,55.8668995 43.9711018,56.8980151 42.1580546,56.8980151 C40.3450074,56.8980151 38.6897717,55.8668995 37.8904652,54.2395553 L35.8399718,54.6752852 C33.0832024,55.2163588 31.0862137,57.6202407 31.0597591,60.4294823 L31.0597591,76.1926502 C31.0597591,78.3160057 32.7810787,80.0373254 34.9044342,80.0373254 C34.8938506,80.5469329 35.0916314,81.0388008 35.4520561,81.3992255 C35.8124807,81.7596501 36.3043486,81.9574309 36.8139562,81.9468473 L47.6046777,81.9468473 C48.6563693,81.9398592 49.5072115,81.0890171 49.5141997,80.0373254 C51.6375551,80.0373254 53.3588748,78.3160057 53.3588748,76.1926502 L53.3588748,76.07731 L68.2249519,61.1727861 C68.4407006,60.9806758 68.5641073,60.7055505 68.5641073,60.4166667 C68.5641073,60.1277828 68.4407006,59.8526576 68.2249519,59.6605472 L68.1993208,59.6733628 Z M80.3356786,29.0441176 L29.6244137,29.0441176 C23.7527312,29.0582493 19.0002777,33.8221682 19.0002947,39.6938677 L19.0002947,68.6314559 C18.9685642,72.8601041 21.4655426,76.6988931 25.3440087,78.3841151 C26.1166705,78.6975152 26.9934893,78.6154899 27.694617,78.1642185 C28.3957448,77.7129472 28.8335473,76.9488345 28.8682942,76.1157568 C28.8646732,75.321101 28.3458474,74.6206862 27.5867359,74.385653 C25.1445933,73.522305 23.5049223,71.2216416 23.4857491,68.6314559 L23.4857491,39.6938677 C23.4785283,36.3446838 26.172882,33.6160071 29.521889,33.5808343 L80.2716007,33.5808343 C81.8871237,33.5774224 83.4374614,34.2176762 84.5798112,35.360026 C85.7221611,36.5023758 86.3624148,38.0527136 86.359003,39.6682366 L86.359003,68.6314559 C86.3522616,71.9798733 83.6582079,74.7024657 80.3100474,74.7444893 L60.0998719,74.7444893 C59.2894568,74.7444762 58.5405968,75.17682 58.1353855,75.8786579 C57.7301742,76.5804958 57.7301742,77.4451995 58.1353855,78.1470373 C58.5405968,78.8488752 59.2894568,79.281219 60.0998719,79.281206 L80.3356786,79.281206 C86.2023532,79.2600265 90.9470202,74.4981687 90.9469819,68.6314559 L90.9469819,39.6938677 C90.9470202,33.8271549 86.2023532,29.0652971 80.3356786,29.0441176 Z" id="Shape"></path>
            </g>
        </g>
    </g>
</svg>