<?xml version="1.0" encoding="UTF-8"?>
<svg width="114px" height="114px" viewBox="0 0 114 114" version="1.1" xmlns="http://www.w3.org/2000/svg" xmlns:xlink="http://www.w3.org/1999/xlink">
    <!-- Generator: Sketch 50.2 (55047) - http://www.bohemiancoding.com/sketch -->
    <title>服务质量提升</title>
    <desc>Created with Sketch.</desc>
    <defs></defs>
    <g id="Page-1" stroke="none" stroke-width="1" fill="none" fill-rule="evenodd">
        <g id="售后服务（切片）" transform="translate(-258.000000, -89.000000)" fill="#0B74B9" fill-rule="nonzero">
            <g id="服务质量提升" transform="translate(260.000000, 91.000000)">
                <path d="M55,111 C24.072054,111 -1,85.927946 -1,55 C-1,24.072054 24.072054,-1 55,-1 C85.927946,-1 111,24.072054 111,55 C111,85.927946 85.927946,111 55,111 Z M55,109 C84.8233765,109 109,84.8233765 109,55 C109,25.1766235 84.8233765,1 55,1 C25.1766235,1 1,25.1766235 1,55 C1,84.8233765 25.1766235,109 55,109 Z" id="Oval-3"></path>
                <path d="M55.2064924,98.7413943 C50.6048693,91.6469172 43.4959804,88.6223529 36.226122,86.3610022 C24.20061,82.6194336 20.8696623,73.1032462 22.0200871,61.6850871 C22.4794336,57.1236492 23.3065468,52.5835621 24.2323312,48.0886166 C25.4508497,42.1721678 23.3043355,37.0023856 21.1331155,31.7741176 C20.5957625,30.4799564 18.9690632,28.9953159 21.0988017,27.7417974 C23.2928214,26.4494662 24.3024074,22.7797277 28.0502288,24.5285076 C36.5977015,28.5184314 45.178878,28.6328105 53.7583007,24.4498911 C54.544085,24.0671024 55.8407625,24.0658824 56.6264706,24.4492048 C65.2051307,28.6322004 73.8078867,28.5621242 82.3184532,24.4971678 C84.9921024,23.2195534 86.0263943,25.1645316 87.6704793,26.2325272 C90.1923856,27.8695207 90.6376253,29.6645098 89.0518736,32.371939 C84.5878105,39.9948475 86.1215577,47.968671 87.5534314,56.1095643 C88.4426144,61.1632135 88.4522222,66.5314815 87.8666013,71.6454466 C87.1431917,77.9576471 83.433268,82.6027342 77.3578322,85.0453377 C75.5164815,85.7859041 73.6180174,86.3862418 71.7887146,87.1537255 C65.5125817,89.7869608 59.1707952,92.3400545 55.2064924,98.7413943 Z M64.9596732,56.6762745 C64.3621569,53.4101416 64.3621569,53.4101416 67.2287255,53.2468083 C72.6477778,52.9363834 74.4737255,51.0309041 74.5259586,45.5993464 C74.5450218,43.6083115 74.4509259,41.6136166 74.5419717,39.6269281 C74.6304248,37.699183 73.7935512,37.0810784 71.9274183,37.112342 C66.8985512,37.1983551 61.866939,37.1394118 56.8362418,37.1394118 C48.3817211,37.1387255 48.3817211,37.1394118 48.3817211,45.6508932 C48.3817211,52.7846405 48.3856863,52.7343137 55.6702614,53.3272549 C56.4722113,53.3923747 57.1934096,54.4487037 57.9517429,55.0453813 C57.1467429,55.5873856 56.364695,56.5526688 55.532244,56.5981917 C52.2240959,56.7788344 48.9000109,56.6725381 45.4551416,56.6725381 L45.4551416,60.7374946 C47.3215795,60.8511874 48.9602505,60.9512309 50.9041612,61.0699564 C50.6091394,64.9622767 49.0363508,67.9818845 46.8498802,70.8742266 C45.8941285,72.138878 45.5972767,73.9012309 45.0012854,75.4375708 C52.8463181,73.3721895 55.56061,67.6610131 57.3023747,60.9776906 C57.8472004,62.1838562 58.0071786,63.2549782 58.0176253,64.3273203 C58.0553704,68.2047712 58.1039434,72.0841285 58.0271569,75.9598257 C57.9779739,78.4337691 59.467342,78.4995752 61.3184532,78.5124619 C63.2421569,78.5253486 64.5643028,78.2905664 64.4887364,75.8504793 C64.3651307,71.872146 64.4432898,67.8864161 64.4754684,63.9044989 C64.4830937,62.947146 64.6441394,61.9915468 64.7347277,61.0354139 C65.0530065,60.918061 65.3712854,60.8005556 65.6899455,60.6832789 C66.8529521,67.7064597 69.8594444,73.2399673 76.4428758,75.8842593 C76.8346623,75.6673203 77.2267538,75.4497712 77.6183878,75.2326797 C75.4505229,70.6675817 73.2825054,66.1024837 70.8059695,60.8878649 C72.8821024,60.8878649 73.8093355,60.8620153 74.7348911,60.8933551 C76.1872767,60.9424619 77.4694662,60.9295752 77.4836492,58.8833333 C77.4988998,56.7060893 76.1516667,56.6453159 74.5595098,56.6643791 C71.3363072,56.703268 68.1124183,56.6762745 64.9596732,56.6762745 Z M37.7464488,52.7048039 C37.7464488,60.4677124 37.7928867,67.7902614 37.7185403,75.1107516 C37.6960458,77.3284096 38.0477996,78.5886383 40.7796296,78.5666013 C43.401427,78.5457843 44.2534749,77.7039542 44.2153486,75.1242484 C44.0992157,67.2622876 44.025098,59.3936166 44.2482135,51.5366122 C44.3412418,48.2569826 45.1628649,44.9878758 45.7728867,41.7358497 C46.1289107,39.8363943 46.7216993,37.9819281 47.2062092,36.1125163 C42.2932462,34.8356645 42.036122,35.3082026 40.4374837,39.1672004 C38.9537582,42.7491721 36.5245752,45.932342 34.621841,49.352658 C33.9286275,50.5982462 33.5534641,52.020207 33.032963,53.3622549 L33.9316776,53.8194662 C35.0039434,53.5060675 36.0762092,53.1926688 37.7464488,52.7048039 Z M68.2518083,41.3665577 C68.3744227,42.3091939 68.4613508,42.718976 68.4757625,43.1313508 C68.6621242,48.3528322 68.4642484,48.5518519 63.1618627,48.5544444 C61.6941503,48.5556645 60.2264379,48.5561983 58.7587255,48.5544444 C54.7253377,48.550098 53.1681808,46.3545534 54.5770261,42.4893028 C54.7594989,41.989085 55.607963,41.4280174 56.1595752,41.4151307 C60.1180065,41.3234749 64.0793355,41.3665577 68.251732,41.3665577 L68.2518083,41.3665577 Z" id="Shape"></path>
            </g>
        </g>
    </g>
</svg>