<?xml version="1.0" encoding="UTF-8"?>
<svg width="114px" height="114px" viewBox="0 0 114 114" version="1.1" xmlns="http://www.w3.org/2000/svg" xmlns:xlink="http://www.w3.org/1999/xlink">
    <!-- Generator: Sketch 50.2 (55047) - http://www.bohemiancoding.com/sketch -->
    <title>配件供应保障</title>
    <desc>Created with Sketch.</desc>
    <defs></defs>
    <g id="Page-1" stroke="none" stroke-width="1" fill="none" fill-rule="evenodd">
        <g id="售后服务（切片）" transform="translate(-258.000000, -259.000000)" fill="#0B74B9" fill-rule="nonzero">
            <g id="配件供应保障" transform="translate(259.000000, 260.000000)">
                <path d="M56,112 C25.072054,112 0,86.927946 0,56 C0,25.072054 25.072054,0 56,0 C86.927946,0 112,25.072054 112,56 C112,86.927946 86.927946,112 56,112 Z M56,110 C85.8233765,110 110,85.8233765 110,56 C110,26.1766235 85.8233765,2 56,2 C26.1766235,2 2,26.1766235 2,56 C2,85.8233765 26.1766235,110 56,110 Z" id="Oval-3"></path>
                <path d="M89,27.3005053 L89,65.371907 C89,67.655493 88.4587556,69.9266927 87.3751408,72.186632 C86.2915259,74.446196 84.8731052,76.6359463 83.1176267,78.7588855 C81.3632741,80.8810741 79.3585679,82.8914104 77.1050094,84.7857658 C74.8522015,86.6801213 72.5663635,88.3699148 70.24712,89.8528945 C67.9290025,91.3366248 65.6761946,92.5711275 63.4875704,93.551523 C61.3000722,94.5330446 59.3816948,95.204533 57.7346903,95.571243 L56.9566046,95.7074924 L56.2415764,95.571243 C54.5506569,95.204533 52.5898657,94.5330446 50.3584524,93.551523 C48.1270391,92.5715028 45.8077956,91.3370001 43.4044752,89.8528945 C40.9985275,88.3699148 38.6372456,86.6801213 36.3195034,84.7857658 C34.0002599,82.8914104 31.9309947,80.8806987 30.1117078,78.7588855 C28.2916703,76.6359463 26.8188249,74.446196 25.692421,72.186632 C24.566017,69.9266927 24,67.655493 24,65.371907 L24,27.3005053 L26.6660603,26.8876281 L56.5654973,21 L87.0500938,26.8876281 L89,27.3005053 Z M56.5730042,26.5122853 L56.2153024,26.436466 L30.5523603,31.0314133 L30.5523603,55.0541071 L56.5730042,55.0541071 L56.5730042,26.5122853 Z M82.449141,55.0544825 L56.5730042,55.0544825 L56.5730042,89.2444637 C58.2395265,88.8413455 60.0509311,88.2261585 62.0057168,87.3985275 C63.9987647,86.549996 65.932732,85.5689055 67.7946297,84.461845 C69.7081563,83.3262548 71.5467445,82.0688938 73.2990328,80.6975314 C75.0623935,79.3170204 76.6234445,77.8340407 77.982561,76.2534719 C79.3413022,74.6721524 80.4252923,73.0285261 81.2352822,71.3218421 C82.0437708,69.6136567 82.449141,67.8822001 82.449141,66.1248448 L82.449141,55.0544825 Z" id="Shape"></path>
            </g>
        </g>
    </g>
</svg>