<?xml version="1.0" encoding="UTF-8"?>
<svg width="114px" height="114px" viewBox="0 0 114 114" version="1.1" xmlns="http://www.w3.org/2000/svg" xmlns:xlink="http://www.w3.org/1999/xlink">
    <!-- Generator: Sketch 50.2 (55047) - http://www.bohemiancoding.com/sketch -->
    <title>客户关系推系</title>
    <desc>Created with Sketch.</desc>
    <defs></defs>
    <g id="Page-1" stroke="none" stroke-width="1" fill="none" fill-rule="evenodd">
        <g id="售后服务（切片）" transform="translate(-436.000000, -89.000000)" fill="#0B74B9" fill-rule="nonzero">
            <g id="客户关系推系" transform="translate(438.000000, 91.000000)">
                <path d="M55,111 C24.072054,111 -1,85.927946 -1,55 C-1,24.072054 24.072054,-1 55,-1 C85.927946,-1 111,24.072054 111,55 C111,85.927946 85.927946,111 55,111 Z M55,109 C84.8233765,109 109,84.8233765 109,55 C109,25.1766235 84.8233765,1 55,1 C25.1766235,1 1,25.1766235 1,55 C1,84.8233765 25.1766235,109 55,109 Z" id="Oval-3"></path>
                <path d="M15.8648446,52.6173998 L20.2691457,55.0197458 C20.2691457,55.0197458 22.2711007,56.2209189 23.4722737,53.8185728 L34.6832219,27.7931574 C34.6832219,27.7931574 35.8843949,25.3908113 33.8824399,24.5900293 L29.0777478,22.1876833 C29.0777478,22.1876833 27.4761838,21.3869013 26.6754018,23.3888563 C26.6754018,24.1896383 15.0640626,49.8146628 15.0640626,49.8146628 C15.0640626,49.8146628 14.6636716,51.8166178 15.8648446,52.6173998 Z" id="Shape"></path>
                <path d="M89.1363988,55.4201369 L93.5406999,53.0177908 C93.5406999,53.0177908 95.5426549,52.2170088 94.7418729,49.4142717 L83.5309247,23.7892473 C83.5309247,23.7892473 82.7301427,21.3869013 80.7281877,22.1876833 L75.9234956,24.9904203 C75.9234956,24.9904203 74.3219316,25.7912023 75.1227136,27.7931574 C75.5231046,28.1935484 86.7340528,54.2189638 86.7340528,54.2189638 C86.7340528,54.2189638 87.5348348,56.2209189 89.1363988,55.4201369 Z" id="Shape"></path>
                <path d="M26.6754018,55.0197458 L28.2769658,51.4162268 L33.4820489,59.0236559 C33.4820489,59.0236559 37.0855679,58.2228739 38.286741,60.6252199 C38.286741,60.6252199 39.487914,62.226784 39.087523,65.029521 C39.087523,65.029521 39.888305,65.429912 39.888305,65.830303 C39.888305,65.830303 42.290651,65.029521 43.491824,67.0314761 C43.491824,67.0314761 44.6929971,68.2326491 44.6929971,70.6349951 C44.6929971,70.6349951 45.4937791,71.0353861 45.8941701,71.8361681 C45.8941701,71.8361681 48.2965161,71.0353861 49.4976891,72.6369501 C49.4976891,72.6369501 50.6988622,74.2385142 50.6988622,75.8400782 L52.7008172,77.4416422 C52.7008172,77.4416422 54.7027722,77.4416422 55.1031632,79.4435973 L57.1051183,81.0451613 C57.1051183,81.0451613 60.3082463,82.2463343 60.3082463,79.0432063 L53.1012082,72.6369501 C53.1012082,72.6369501 52.3004262,70.2346041 55.1031632,70.6349951 L65.9137204,79.0432063 C65.9137204,79.0432063 67.5152845,79.8439883 68.7164575,77.8420332 C68.7164575,77.8420332 69.9176305,76.2404692 68.3160665,74.6389052 L56.7047273,65.429912 C56.7047273,65.429912 55.5035543,62.627175 58.3062913,63.027566 L71.9195855,73.8381232 C71.9195855,73.8381232 73.9215406,74.6389052 74.7223226,73.0373412 C74.7223226,73.0373412 75.9234956,71.4357771 74.7223226,69.8342131 L59.5074643,57.4220919 C59.5074643,57.4220919 58.7066823,54.6193548 61.5094194,55.4201369 L77.1246686,67.8322581 C77.1246686,67.8322581 79.5270147,68.6330401 80.7281877,66.631085 C80.7281877,66.631085 81.9293607,64.228739 80.3277967,62.226784 L58.3062913,40.6056696 C58.3062913,40.6056696 54.3023812,38.6037146 51.9000352,43.0080156 C51.9000352,43.0080156 51.4996442,50.6154448 43.8922151,51.8166178 C43.8922151,51.8166178 38.687132,51.4162268 39.888305,47.8127077 C39.888305,47.8127077 41.489869,45.4103617 41.089478,41.0060606 C41.089478,41.0060606 41.089478,37.8029326 43.491824,35.0001955 L35.0836129,35.0001955 L36.6851769,30.9962854 L48.6969071,30.9962854 C48.6969071,30.9962854 53.5015992,27.7931574 57.5055093,28.1935484 C57.5055093,28.1935484 62.3102014,28.5939394 63.5113744,29.3947214 C63.5113744,29.3947214 69.9176305,31.7970674 72.7203675,30.9962854 L83.5309247,55.8205279 L81.9293607,60.2248289 C81.9293607,60.2248289 85.1324888,63.828348 82.7301427,68.2326491 C81.9293607,69.8342131 80.3277967,71.0353861 77.5250596,71.4357771 C77.5250596,71.4357771 77.9254506,74.2385142 75.9234956,76.2404692 C75.9234956,76.2404692 74.7223226,78.2424242 71.1188035,77.8420332 C71.1188035,77.8420332 71.1188035,80.6447703 69.1168485,82.2463343 C69.1168485,82.2463343 66.3141114,84.6486804 62.3102014,81.8459433 C62.3102014,81.8459433 61.5094194,84.6486804 58.3062913,85.4494624 C58.3062913,85.4494624 55.9039453,85.8498534 54.7027722,84.2482893 C54.7027722,84.2482893 52.3004262,89.4533724 48.6969071,86.6506354 C48.6969071,86.6506354 46.2945611,84.6486804 47.8961251,81.4455523 C47.8961251,81.4455523 44.6929971,86.6506354 41.089478,82.6467253 C41.089478,82.6467253 39.087523,81.0451613 41.089478,77.4416422 C41.089478,77.4416422 38.286741,81.0451613 35.0836129,77.8420332 C35.0836129,77.8420332 33.0816579,75.8400782 34.6832219,72.2365591 C34.6832219,72.2365591 31.8804848,76.2404692 28.2769658,72.2365591 C28.2769658,72.2365591 26.6754018,70.6349951 27.4761838,67.4318671 L30.6793118,62.226784 L26.6754018,55.0197458 Z" id="Shape"></path>
            </g>
        </g>
    </g>
</svg>