<?xml version="1.0" encoding="UTF-8"?>
<svg width="114px" height="114px" viewBox="0 0 114 114" version="1.1" xmlns="http://www.w3.org/2000/svg" xmlns:xlink="http://www.w3.org/1999/xlink">
    <!-- Generator: Sketch 50.2 (55047) - http://www.bohemiancoding.com/sketch -->
    <title>服务网络建设</title>
    <desc>Created with Sketch.</desc>
    <defs></defs>
    <g id="Page-1" stroke="none" stroke-width="1" fill="none" fill-rule="evenodd">
        <g id="售后服务（切片）" transform="translate(-80.000000, -89.000000)" fill="#0B74B9" fill-rule="nonzero">
            <g id="服务网络建设" transform="translate(82.000000, 91.000000)">
                <path d="M55,111 C24.072054,111 -1,85.927946 -1,55 C-1,24.072054 24.072054,-1 55,-1 C85.927946,-1 111,24.072054 111,55 C111,85.927946 85.927946,111 55,111 Z M55,109 C84.8233765,109 109,84.8233765 109,55 C109,25.1766235 84.8233765,1 55,1 C25.1766235,1 1,25.1766235 1,55 C1,84.8233765 25.1766235,109 55,109 Z" id="Oval-3"></path>
                <path d="M36.6176,52.6576 L52.7056,52.6576 L52.7056,37.9312 L38.4624,37.9312 C37.3344818,42.7620353 36.7161685,47.6978164 36.6176,52.6576 Z M38.5472,71.016 L52.704,71.016 L52.704,55.9088 L36.6176,55.9088 C36.7168466,60.9991841 37.3637734,66.0640951 38.5472,71.016 Z M39.3152,34.6816 L52.704,34.6816 L52.704,15.0544 C51.534651,15.1210595 50.3687511,15.2385036 49.2096,15.4064 C44.928,20.5376 41.5088,27.1344 39.3152,34.6816 Z M35.2032,37.9312 L18.7968,37.9312 C16.6135226,42.5536907 15.3417877,47.5537114 15.0512,52.6576 L33.3584,52.6576 C33.4704,47.5168 34.1104,42.5728 35.2032,37.9312 Z M70.8096,37.9312 L55.6208,37.9312 L55.6208,52.6576 L72.5328,52.6576 C72.4719917,47.7022375 71.8944669,42.766733 70.8096,37.9312 Z M89.4752,34.6816 C84.0096,25.4304 74.9296,18.576 64.1744,16.0528 C68.0992,21.1296 71.2272,27.488 73.2432,34.6816 L89.4752,34.6816 Z M60.3632,15.3536 C58.7908259,15.141649 57.2072198,15.0235731 55.6208,15 L55.6208,34.6816 L69.9952,34.6816 C67.8848,27.1504 64.5504,20.5376 60.3632,15.3536 Z M33.3584,55.9088 L15,55.9088 C15.12,61.272 16.2912,66.3728 18.3216,71.016 L35.296,71.016 C34.1098539,66.0643933 33.4602442,60.9994757 33.3584,55.9088 Z M19.9184,74.2672 C25.4656,84.3408 35.224,91.7696 46.824,94.1776 C42.2096,88.9984 38.5168,82.1568 36.1712,74.2672 L19.9184,74.2672 Z M45.3216,16.1696 C34.7856,18.7856 25.904,25.5744 20.5216,34.6816 L36.056,34.6816 C38.1392,27.5072 41.3328,21.1856 45.3216,16.1696 Z M61.5136,94.48 C73.84,92.4608 84.272,84.8176 90.0816,74.2672 L72.7984,74.2672 C70.3072,82.3664 66.3904,89.3296 61.5136,94.48 Z M75.792,52.6576 L94.9472,52.6576 C94.6563608,47.5539344 93.3852064,42.5540604 91.2032,37.9312 L74.0704,37.9312 C75.1540288,42.7669087 75.7310087,47.7023391 75.792,52.6576 Z M55.6208,74.2672 L55.6208,95 C56.3628678,94.9882102 57.1044765,94.9561983 57.8448,94.904 C62.9136,89.7152 66.9776,82.5904 69.5376,74.2672 L55.6208,74.2672 Z M50.6288,94.7728 C51.3194576,94.8483322 52.0119567,94.9059516 52.7056,94.9456 L52.7056,74.2672 L39.432,74.2672 C41.8688,82.4656 45.7568,89.5296 50.6288,94.7728 Z M72.5136,55.9088 L55.6208,55.9088 L55.6208,71.016 L70.448,71.016 C71.6802235,66.069666 72.3727998,61.0043638 72.5136,55.9088 Z M82.9728,55.9088 L75.768,55.9088 C75.6274463,61.0041814 74.9359549,66.0693957 73.7056,71.016 L91.6784,71.016 C93.7088,66.3728 94.8784,61.272 95,55.9088 L82.9728,55.9088 Z" id="Shape"></path>
            </g>
        </g>
    </g>
</svg>