<?xml version="1.0" encoding="UTF-8"?>
<svg width="16px" height="30px" viewBox="0 0 16 30" version="1.1" xmlns="http://www.w3.org/2000/svg" xmlns:xlink="http://www.w3.org/1999/xlink">
    <!-- Generator: Sketch 50.2 (55047) - http://www.bohemiancoding.com/sketch -->
    <title>展开</title>
    <desc>Created with Sketch.</desc>
    <defs></defs>
    <g id="Page-1" stroke="none" stroke-width="1" fill="none" fill-rule="evenodd">
        <g id="联系我们（切片）" transform="translate(-570.000000, -48.000000)" fill="#999999" fill-rule="nonzero">
            <path d="M583.655706,49.2387186 L571.62852,61.4707685 C570.781474,62.3342595 570.791903,63.7200571 571.65185,64.5707015 L583.734444,76.5140464 C584.022001,76.7891717 584.477062,76.7828577 584.756876,76.49986 C585.036689,76.2168623 585.037854,75.7617592 584.759492,75.4773332 L572.676898,63.5339882 C572.388277,63.2483727 572.384369,62.7833263 572.66815,62.4929007 L584.695336,50.2608508 C584.890467,50.0778463 584.969697,49.8026703 584.901757,49.5439213 C584.833817,49.2851722 584.629621,49.0844155 584.369756,49.0208799 C584.10989,48.9573444 583.836099,49.0412363 583.656435,49.2394477 L583.655706,49.2387186 Z" id="Shape-Copy-4" transform="translate(577.983751, 62.858160) rotate(-180.000000) translate(-577.983751, -62.858160) "></path>
        </g>
    </g>
</svg>