<?xml version="1.0" encoding="UTF-8"?>
<svg width="24px" height="24px" viewBox="0 0 24 24" version="1.1" xmlns="http://www.w3.org/2000/svg" xmlns:xlink="http://www.w3.org/1999/xlink">
    <!-- Generator: Sketch 50.2 (55047) - http://www.bohemiancoding.com/sketch -->
    <title>时间</title>
    <desc>Created with Sketch.</desc>
    <defs></defs>
    <g id="Page-1" stroke="none" stroke-width="1" fill="none" fill-rule="evenodd">
        <g id="Artboard" transform="translate(-213.000000, -42.000000)" fill="#999999" fill-rule="nonzero">
            <path d="M229.681054,53.839018 L225.351198,53.839018 L225.333982,48.2954243 C225.33183,47.9209735 225.030547,47.6196912 224.656097,47.6196912 C224.279494,47.6218432 223.97606,47.9252775 223.978212,48.2997283 L223.99758,54.497535 C223.99758,54.7966652 224.193413,55.0506032 224.462415,55.1388358 C224.544192,55.1754201 224.634577,55.1947882 224.731417,55.1947882 L229.681054,55.1947882 C230.055505,55.1947882 230.35894,54.891354 230.35894,54.5169031 C230.35894,54.1424523 230.055505,53.839018 229.681054,53.839018 Z M224.985355,63.9707103 C223.638193,63.9707103 222.329767,63.7060123 221.098814,63.1852244 C219.908749,62.6816526 218.841349,61.9628792 217.92459,61.0461203 C217.007831,60.1293614 216.286906,59.0619613 215.785486,57.8718964 C215.264698,56.6409431 215,55.3325173 215,53.9853551 C215,52.638193 215.264698,51.3297672 215.785486,50.0988139 C216.289058,48.9087489 217.007831,47.8413489 217.92459,46.92459 C218.841349,46.0078311 219.908749,45.2869057 221.098814,44.7854859 C222.329767,44.264698 223.638193,44 224.985355,44 C226.332517,44 227.640943,44.264698 228.871896,44.7854859 C230.061961,45.2890577 231.129361,46.0078311 232.04612,46.92459 C232.962879,47.8413489 233.683805,48.9087489 234.185224,50.0988139 C234.706012,51.3297672 234.97071,52.638193 234.97071,53.9853551 C234.97071,55.3325173 234.708164,56.6387911 234.187376,57.8718964 C233.683805,59.0619613 232.965031,60.1293614 232.048272,61.0461203 C231.131513,61.9628792 230.064113,62.6838046 228.874048,63.1852244 C227.640943,63.7060123 226.334669,63.9707103 224.985355,63.9707103 Z M224.985355,45.3557702 C223.821114,45.3557702 222.689154,45.5838839 221.626058,46.0336553 C220.599546,46.4683626 219.676331,47.0902952 218.882237,47.8843892 C218.088143,48.6784832 217.466211,49.5995461 217.031503,50.6282099 C216.581732,51.6913059 216.353618,52.8211144 216.353618,53.9875072 C216.353618,55.1538999 216.581732,56.2837084 217.031503,57.3468044 C217.466211,58.3733162 218.088143,59.2965311 218.882237,60.0906251 C219.676331,60.8847191 220.597394,61.5066518 221.626058,61.941359 C222.689154,62.3911304 223.818962,62.6192441 224.985355,62.6192441 C226.149596,62.6192441 227.281556,62.3911304 228.344652,61.941359 C229.371164,61.5066517 230.294379,60.8847191 231.088473,60.0906251 C231.880415,59.2986831 232.5045,58.3754682 232.939207,57.3468044 C233.388978,56.2837084 233.617092,55.1538999 233.617092,53.9875072 C233.617092,52.8211144 233.388978,51.6913059 232.939207,50.6282099 C232.5045,49.6016981 231.882567,48.6784832 231.088473,47.8843892 C230.296531,47.0924473 229.373316,46.4683625 228.344652,46.0336553 C227.281556,45.5817319 226.151748,45.3557702 224.985355,45.3557702 Z" id="时间icon-copy"></path>
        </g>
    </g>
</svg>