<?xml version="1.0" encoding="UTF-8"?>
<svg width="24px" height="24px" viewBox="0 0 24 24" version="1.1" xmlns="http://www.w3.org/2000/svg" xmlns:xlink="http://www.w3.org/1999/xlink">
    <!-- Generator: Sketch 50.2 (55047) - http://www.bohemiancoding.com/sketch -->
    <title>浏览</title>
    <desc>Created with Sketch.</desc>
    <defs></defs>
    <g id="Page-1" stroke="none" stroke-width="1" fill="none" fill-rule="evenodd">
        <g id="Artboard" transform="translate(-260.000000, -42.000000)" fill="#999999" fill-rule="nonzero">
            <path d="M271.97095,56.300608 C270.91181,56.2992327 270.053551,55.4409732 270.052175,54.3818335 C270.053551,53.3226939 270.91181,52.4644344 271.97095,52.4630591 C273.030284,52.4641594 273.888848,53.3224992 273.890224,54.3818335 C273.888848,55.4411679 273.030284,56.2995077 271.97095,56.300608 M271.984431,51.1394392 C270.194504,51.1413655 268.743963,52.5919071 268.742036,54.3818335 C268.743963,56.17176 270.194504,57.6223016 271.984431,57.6242279 C273.774357,57.6223016 275.224899,56.17176 275.226825,54.3818335 C275.224899,52.5919071 273.774357,51.1413655 271.984431,51.1394392 M271.312385,60.2130505 C268.512363,60.0467867 266.204641,58.3756605 264.762689,57.0026108 C263.896404,56.1748729 263.116804,55.2609349 262.435994,54.2749853 C263.116873,53.2892414 263.896468,52.3754757 264.762689,51.5478591 C266.20514,50.1748094 268.512363,48.5036832 271.312385,48.3374193 C274.70207,48.1362052 278.120714,50.1333683 281.480941,54.2749853 C278.120714,58.4171016 274.701571,60.4142647 271.312385,60.2130505 M282.827529,53.8406023 C279.082848,49.0743725 275.178893,46.7786335 271.226507,47.0167952 C269.800533,47.102174 268.376056,47.5240747 266.993021,48.2700151 C265.90257,48.8571811 264.835585,49.6470591 263.821526,50.6166818 C262.105463,52.2573513 261.13634,53.8396038 261.096397,53.9060094 C261.026496,54.0208463 260.99554,54.149164 261.000533,54.274486 C260.99554,54.4003073 261.025497,54.5291243 261.096397,54.6439612 C261.13634,54.7108662 262.105463,56.2931186 263.821526,57.9337882 C264.835086,58.9034108 265.90257,59.6927896 266.993021,60.2804548 C268.376056,61.0263952 269.800533,61.4477966 271.226507,61.5336747 C271.412243,61.5451584 271.59798,61.5506505 271.783716,61.5506505 C275.545872,61.5506505 279.259097,59.2514165 282.828028,54.7098676 C282.925046,54.586409 282.974799,54.4323689 282.968329,54.2754846 C282.974778,54.1183687 282.924839,53.9641243 282.827529,53.8406023" id="浏览icon-copy"></path>
        </g>
    </g>
</svg>